<?xml version="1.0" encoding="UTF-8" standalone="no"?>
<!-- Created with Inkscape (http://www.inkscape.org/) -->
<svg
        xmlns:dc="http://purl.org/dc/elements/1.1/"
        xmlns:cc="http://web.resource.org/cc/"
        xmlns:rdf="http://www.w3.org/1999/02/22-rdf-syntax-ns#"
        xmlns="http://www.w3.org/2000/svg"
        xmlns:sodipodi="http://sodipodi.sourceforge.net/DTD/sodipodi-0.dtd"
        xmlns:inkscape="http://www.inkscape.org/namespaces/inkscape"
        height="921.14935"
        width="732.10175"
        id="svg2282"
        sodipodi:version="0.32"
        inkscape:version="0.45.1"
        version="1.0"
        sodipodi:docbase="E:\WIKIPEDIA\SVG"
        sodipodi:docname="POL_powiat_sztumski_COA.svg"
        inkscape:output_extension="org.inkscape.output.svg.inkscape">
  <defs
     id="defs2284" />
  <sodipodi:namedview
     id="base"
     pagecolor="#ffffff"
     bordercolor="#666666"
     borderopacity="1.0"
     inkscape:pageopacity="0.0"
     inkscape:pageshadow="2"
     inkscape:cx="375"
     inkscape:cy="520"
     inkscape:zoom="0.35"
     inkscape:document-units="px"
     inkscape:current-layer="layer1"
     inkscape:window-width="836"
     inkscape:window-height="573"
     inkscape:window-x="73"
     inkscape:window-y="69" />
  <metadata
     id="metadata2287">
    <rdf:RDF>
      <cc:Work
         rdf:about="">
        <dc:format>image/svg+xml</dc:format>
        <dc:type
           rdf:resource="http://purl.org/dc/dcmitype/StillImage" />
      </cc:Work>
    </rdf:RDF>
  </metadata>
  <g
     inkscape:groupmode="layer"
     inkscape:label="Warstwa 1"
     id="layer1"
     transform="translate(-5.3776912,-63.216087)">
    <g
       id="g3817"
       transform="translate(105.2316,333.32029)">
      <g
         style="stroke:none"
         transform="translate(-110.07884,-282.01099)"
         inkscape:label="Warstwa 1"
         id="g2291">
        <path
           sodipodi:nodetypes="ccccc"
           d="M 741.86093,455.97771 L 10.245397,455.34874 L 10.245397,233.61861 L 740.41296,233.46253 L 741.86093,455.97771 z "
           style="fill:#ffffff;fill-opacity:1;fill-rule:nonzero;stroke:none;stroke-width:3.54330707;stroke-linecap:round;stroke-linejoin:round;stroke-miterlimit:4;stroke-dashoffset:0;stroke-opacity:1"
           id="path2742" />
        <path
           sodipodi:nodetypes="cccccc"
           id="path2740"
           d="M 10.245397,233.61861 L 10.245397,11.906787 L 742.32608,11.906787 L 742.32608,234.01456 L 741.39578,234.01455 L 10.245397,233.61861 z "
           style="fill:#ff4646;fill-opacity:1;fill-rule:nonzero;stroke:none;stroke-width:3.54330707;stroke-linecap:round;stroke-linejoin:round;stroke-miterlimit:4;stroke-dasharray:none;stroke-dashoffset:0;stroke-opacity:1" />
        <path
           id="path3349"
           d="M 742.32608,455.34874 C 742.75155,635.95892 518.82658,847.35785 379.64391,933.05612 C 255.27964,847.31538 7.6355895,631.59834 10.245397,455.34874 L 742.32608,455.34874 z "
           style="fill:#ff4646;fill-opacity:1;fill-rule:nonzero;stroke:none;stroke-width:3.54330707;stroke-linecap:round;stroke-linejoin:round;stroke-miterlimit:4;stroke-dasharray:none;stroke-dashoffset:0;stroke-opacity:1" />
      </g>
      <g
         transform="translate(817.31025,0)"
         id="g3785">
        <g
           id="g3734">
          <path
             sodipodi:nodetypes="ccccccccccccccccccccc"
             id="path3716"
             d="M -770.76387,140.77804 L -752.83755,140.02337 C -746.92564,139.65372 -747.58579,134.35503 -746.87448,130.08493 L -747.86832,115.67417 C -735.42101,110.34366 -731.4571,98.95358 -728.48835,86.85267 C -724.31671,80.407986 -722.49186,72.78991 -721.03451,64.988081 C -718.474,57.718442 -717.81845,48.902364 -719.54374,41.632725 C -720.1236,35.7318 -719.43411,29.513537 -722.52528,24.240438 C -722.92641,17.022092 -724.47904,10.955241 -728.98527,7.8419966 C -731.24803,0.95212018 -732.70047,-6.2978967 -740.91141,-10.544135 C -743.77453,-16.317953 -751.01598,-19.902604 -756.31601,-24.457964 C -762.67293,-26.441042 -766.57878,-25.360291 -770.22984,-23.961042 C -779.45393,-16.834987 -788.90096,-8.7662457 -793.38313,4.4934402 C -799.7339,13.106434 -803.18407,18.550678 -802.03287,29.209663 C -805.72919,37.281038 -805.83457,45.294511 -803.02672,51.571174 C -803.72735,57.419529 -802.583,62.806641 -800.54211,67.969616 C -800.92725,75.422871 -801.36886,82.90033 -797.06365,88.343438 C -795.5099,94.771937 -791.90896,100.17685 -787.62212,105.2388 C -786.05213,111.58356 -781.5753,115.43674 -775.19906,117.66186 C -772.81313,119.11915 -771.24227,120.98397 -770.22984,123.12801 C -767.17054,127.96089 -769.89418,134.6355 -770.76387,140.77804 z "
             style="fill:#000000;fill-opacity:0.75;fill-rule:evenodd;stroke:#000000;stroke-width:1px;stroke-linecap:butt;stroke-linejoin:miter;stroke-opacity:1" />
          <path
             sodipodi:nodetypes="cccccc"
             id="path3718"
             d="M -766.26064,118.72375 C -762.66892,118.97317 -756.13875,114.89267 -752.34269,115.63087 L -751.56947,129.03335 C -751.44794,132.1959 -753.33776,133.84993 -755.95105,134.96136 L -765.74516,136.76554 C -764.25008,129.91816 -763.66223,123.52439 -766.26064,118.72375 z "
             style="fill:#53bc4a;fill-opacity:1;fill-rule:evenodd;stroke:none;stroke-width:1px;stroke-linecap:butt;stroke-linejoin:miter;stroke-opacity:1" />
          <path
             sodipodi:nodetypes="ccccccc"
             id="path3720"
             d="M -780.43634,101.71292 C -775.23474,102.13446 -770.61223,99.627081 -766.77612,95.269423 C -761.4495,96.631594 -755.86513,95.804124 -750.53851,92.434285 C -745.12597,94.701072 -738.68248,90.645173 -733.26994,87.537228 C -735.0294,95.420655 -740.14679,105.74895 -748.73433,111.50704 C -755.69331,109.59856 -762.1368,115.09436 -769.61126,115.37313 C -775.49897,112.10186 -784.84475,110.77575 -780.43634,101.71292 z "
             style="fill:#53bc4a;fill-opacity:1;fill-rule:evenodd;stroke:none;stroke-width:1px;stroke-linecap:butt;stroke-linejoin:miter;stroke-opacity:1" />
          <path
             sodipodi:nodetypes="cccccccccc"
             id="path3722"
             d="M -787.91079,85.733048 C -791.7473,91.737116 -787.99465,96.328335 -783.27147,98.362302 C -777.46578,98.46417 -771.89607,96.442211 -766.77612,90.372366 C -761.96085,91.971683 -756.81429,90.920719 -751.31173,87.021747 C -736.8236,89.099318 -729.33181,80.73156 -726.82644,67.948997 C -734.91737,72.234157 -736.23053,65.311578 -741.00213,66.660297 C -746.12983,68.31975 -744.01813,73.610237 -747.70337,75.681193 C -752.83293,72.148546 -756.48225,75.634038 -759.55941,79.547291 C -768.57734,76.41516 -774.45526,79.849886 -774.76606,83.671129 C -778.49257,82.178564 -783.4982,82.423043 -787.91079,85.733048 z "
             style="fill:#53bc4a;fill-opacity:1;fill-rule:evenodd;stroke:none;stroke-width:1px;stroke-linecap:butt;stroke-linejoin:miter;stroke-opacity:1" />
          <path
             sodipodi:nodetypes="cccccccccc"
             id="path3724"
             d="M -792.80785,67.175777 C -796.68709,73.514708 -795.96967,81.88421 -789.97271,83.413389 C -786.61991,76.897187 -780.73537,80.192354 -776.57024,77.227632 C -773.99584,72.609429 -767.68148,72.265476 -760.33263,73.103794 C -756.89233,67.803558 -752.5533,68.794368 -748.47659,67.948997 C -740.3779,52.965285 -724.60523,77.092885 -725.79548,47.587547 C -732.53714,52.802895 -738.81175,53.347829 -744.86823,51.711385 C -749.41341,56.088398 -753.63953,56.955778 -757.49749,53.773304 C -763.0477,57.518539 -767.68077,63.785919 -775.79702,60.474541 C -779.05755,68.17144 -788.68249,68.281134 -792.80785,67.175777 z "
             style="fill:#53bc4a;fill-opacity:1;fill-rule:evenodd;stroke:none;stroke-width:1px;stroke-linecap:butt;stroke-linejoin:miter;stroke-opacity:1" />
          <path
             sodipodi:nodetypes="cccccccccccc"
             id="path3726"
             d="M -795.12751,51.711385 C -796.43571,55.23383 -798.16453,58.756275 -792.80785,62.27872 C -783.57725,62.401836 -783.89322,59.053473 -781.72503,56.608442 C -771.75583,57.90204 -765.47044,53.669907 -759.55941,48.876246 C -754.23156,53.617415 -749.51991,50.347867 -744.86823,46.298848 C -728.0417,47.848361 -729.35293,37.568894 -727.59966,29.288016 C -730.34889,27.678162 -733.09811,26.521605 -735.84734,30.318975 C -738.37785,35.874748 -743.6367,36.428559 -750.28077,34.442813 C -758.45886,46.144124 -758.08135,39.878671 -759.81715,38.051172 C -765.27803,35.403877 -769.05131,43.514233 -773.21962,45.010148 C -778.86089,43.278481 -784.01655,42.760846 -785.59113,51.195905 C -790.6037,52.284618 -792.78073,51.955566 -795.12751,51.711385 z "
             style="fill:#53bc4a;fill-opacity:1;fill-rule:evenodd;stroke:none;stroke-width:1px;stroke-linecap:butt;stroke-linejoin:miter;stroke-opacity:1" />
          <path
             sodipodi:nodetypes="ccccccccccc"
             id="path3728"
             d="M -796.41621,32.896374 C -801.75586,36.593902 -801.72461,43.845763 -796.41621,47.329807 C -789.27462,47.892593 -787.35036,42.194588 -783.27147,39.082131 C -777.71351,40.876263 -771.12276,38.02281 -764.19872,33.669594 C -757.90265,36.860082 -753.52362,32.382388 -749.24981,27.483837 C -742.10586,35.247492 -732.31445,22.644747 -729.40384,15.885543 C -735.13665,17.151874 -744.17579,14.639537 -745.64145,20.7826 C -751.28887,22.028159 -758.92621,15.811482 -762.1368,26.195137 C -768.02153,26.625128 -779.19226,20.327478 -778.37442,29.288016 C -782.92663,29.278624 -788.36703,28.27001 -787.65305,34.185074 C -790.33066,33.512061 -791.28809,31.118879 -796.41621,32.896374 z "
             style="fill:#53bc4a;fill-opacity:1;fill-rule:evenodd;stroke:none;stroke-width:1px;stroke-linecap:butt;stroke-linejoin:miter;stroke-opacity:1" />
          <path
             sodipodi:nodetypes="cccccccccc"
             id="path3730"
             d="M -795.12751,27.483836 C -796.86364,18.777387 -791.82338,10.004697 -782.75599,11.503965 C -775.63161,-2.069999 -771.8318,2.3086635 -768.06482,6.864647 C -763.24806,-1.9804664 -757.83747,-1.3243283 -752.34269,0.67889003 C -747.35972,1.3874657 -745.72737,-6.8247116 -738.167,-2.9294682 C -734.86667,1.7098495 -734.33913,6.3491673 -735.84734,10.988485 C -741.01298,10.046779 -746.52603,8.2944359 -747.70337,16.658762 C -751.31172,12.534911 -755.95105,12.534937 -761.62132,16.658762 C -767.06047,20.125196 -776.45475,14.00994 -781.72503,24.133218 C -786.45026,23.152779 -790.40228,24.370652 -795.12751,27.483836 z "
             style="fill:#53bc4a;fill-opacity:1;fill-rule:evenodd;stroke:none;stroke-width:1px;stroke-linecap:butt;stroke-linejoin:miter;stroke-opacity:1" />
          <path
             sodipodi:nodetypes="ccccc"
             id="path3732"
             d="M -783.52921,-2.1562486 C -780.35218,-8.9885612 -776.89246,-15.467506 -768.32256,-15.558722 C -762.34958,-28.071026 -751.12984,-13.699323 -745.12597,-9.1152251 C -751.78089,-5.1273031 -766.06171,-9.2082613 -765.48742,-2.1562486 C -771.50135,-6.1865014 -781.12364,3.0389628 -783.52921,-2.1562486 z "
             style="fill:#53bc4a;fill-opacity:1;fill-rule:evenodd;stroke:none;stroke-width:1px;stroke-linecap:butt;stroke-linejoin:miter;stroke-opacity:1" />
        </g>
        <g
           id="g3745"
           transform="translate(219.59437,0)">
          <path
             style="fill:#000000;fill-opacity:0.75;fill-rule:evenodd;stroke:#000000;stroke-width:1px;stroke-linecap:butt;stroke-linejoin:miter;stroke-opacity:1"
             d="M -770.76387,140.77804 L -752.83755,140.02337 C -746.92564,139.65372 -747.58579,134.35503 -746.87448,130.08493 L -747.86832,115.67417 C -735.42101,110.34366 -731.4571,98.95358 -728.48835,86.85267 C -724.31671,80.407986 -722.49186,72.78991 -721.03451,64.988081 C -718.474,57.718442 -717.81845,48.902364 -719.54374,41.632725 C -720.1236,35.7318 -719.43411,29.513537 -722.52528,24.240438 C -722.92641,17.022092 -724.47904,10.955241 -728.98527,7.8419966 C -731.24803,0.95212018 -732.70047,-6.2978967 -740.91141,-10.544135 C -743.77453,-16.317953 -751.01598,-19.902604 -756.31601,-24.457964 C -762.67293,-26.441042 -766.57878,-25.360291 -770.22984,-23.961042 C -779.45393,-16.834987 -788.90096,-8.7662457 -793.38313,4.4934402 C -799.7339,13.106434 -803.18407,18.550678 -802.03287,29.209663 C -805.72919,37.281038 -805.83457,45.294511 -803.02672,51.571174 C -803.72735,57.419529 -802.583,62.806641 -800.54211,67.969616 C -800.92725,75.422871 -801.36886,82.90033 -797.06365,88.343438 C -795.5099,94.771937 -791.90896,100.17685 -787.62212,105.2388 C -786.05213,111.58356 -781.5753,115.43674 -775.19906,117.66186 C -772.81313,119.11915 -771.24227,120.98397 -770.22984,123.12801 C -767.17054,127.96089 -769.89418,134.6355 -770.76387,140.77804 z "
             id="path3747"
             sodipodi:nodetypes="ccccccccccccccccccccc" />
          <path
             style="fill:#53bc4a;fill-opacity:1;fill-rule:evenodd;stroke:none;stroke-width:1px;stroke-linecap:butt;stroke-linejoin:miter;stroke-opacity:1"
             d="M -766.26064,118.72375 C -762.66892,118.97317 -756.13875,114.89267 -752.34269,115.63087 L -751.56947,129.03335 C -751.44794,132.1959 -753.33776,133.84993 -755.95105,134.96136 L -765.74516,136.76554 C -764.25008,129.91816 -763.66223,123.52439 -766.26064,118.72375 z "
             id="path3749"
             sodipodi:nodetypes="cccccc" />
          <path
             style="fill:#53bc4a;fill-opacity:1;fill-rule:evenodd;stroke:none;stroke-width:1px;stroke-linecap:butt;stroke-linejoin:miter;stroke-opacity:1"
             d="M -780.43634,101.71292 C -775.23474,102.13446 -770.61223,99.627081 -766.77612,95.269423 C -761.4495,96.631594 -755.86513,95.804124 -750.53851,92.434285 C -745.12597,94.701072 -738.68248,90.645173 -733.26994,87.537228 C -735.0294,95.420655 -740.14679,105.74895 -748.73433,111.50704 C -755.69331,109.59856 -762.1368,115.09436 -769.61126,115.37313 C -775.49897,112.10186 -784.84475,110.77575 -780.43634,101.71292 z "
             id="path3751"
             sodipodi:nodetypes="ccccccc" />
          <path
             style="fill:#53bc4a;fill-opacity:1;fill-rule:evenodd;stroke:none;stroke-width:1px;stroke-linecap:butt;stroke-linejoin:miter;stroke-opacity:1"
             d="M -787.91079,85.733048 C -791.7473,91.737116 -787.99465,96.328335 -783.27147,98.362302 C -777.46578,98.46417 -771.89607,96.442211 -766.77612,90.372366 C -761.96085,91.971683 -756.81429,90.920719 -751.31173,87.021747 C -736.8236,89.099318 -729.33181,80.73156 -726.82644,67.948997 C -734.91737,72.234157 -736.23053,65.311578 -741.00213,66.660297 C -746.12983,68.31975 -744.01813,73.610237 -747.70337,75.681193 C -752.83293,72.148546 -756.48225,75.634038 -759.55941,79.547291 C -768.57734,76.41516 -774.45526,79.849886 -774.76606,83.671129 C -778.49257,82.178564 -783.4982,82.423043 -787.91079,85.733048 z "
             id="path3753"
             sodipodi:nodetypes="cccccccccc" />
          <path
             style="fill:#53bc4a;fill-opacity:1;fill-rule:evenodd;stroke:none;stroke-width:1px;stroke-linecap:butt;stroke-linejoin:miter;stroke-opacity:1"
             d="M -792.80785,67.175777 C -796.68709,73.514708 -795.96967,81.88421 -789.97271,83.413389 C -786.61991,76.897187 -780.73537,80.192354 -776.57024,77.227632 C -773.99584,72.609429 -767.68148,72.265476 -760.33263,73.103794 C -756.89233,67.803558 -752.5533,68.794368 -748.47659,67.948997 C -740.3779,52.965285 -724.60523,77.092885 -725.79548,47.587547 C -732.53714,52.802895 -738.81175,53.347829 -744.86823,51.711385 C -749.41341,56.088398 -753.63953,56.955778 -757.49749,53.773304 C -763.0477,57.518539 -767.68077,63.785919 -775.79702,60.474541 C -779.05755,68.17144 -788.68249,68.281134 -792.80785,67.175777 z "
             id="path3755"
             sodipodi:nodetypes="cccccccccc" />
          <path
             style="fill:#53bc4a;fill-opacity:1;fill-rule:evenodd;stroke:none;stroke-width:1px;stroke-linecap:butt;stroke-linejoin:miter;stroke-opacity:1"
             d="M -795.12751,51.711385 C -796.43571,55.23383 -798.16453,58.756275 -792.80785,62.27872 C -783.57725,62.401836 -783.89322,59.053473 -781.72503,56.608442 C -771.75583,57.90204 -765.47044,53.669907 -759.55941,48.876246 C -754.23156,53.617415 -749.51991,50.347867 -744.86823,46.298848 C -728.0417,47.848361 -729.35293,37.568894 -727.59966,29.288016 C -730.34889,27.678162 -733.09811,26.521605 -735.84734,30.318975 C -738.37785,35.874748 -743.6367,36.428559 -750.28077,34.442813 C -758.45886,46.144124 -758.08135,39.878671 -759.81715,38.051172 C -765.27803,35.403877 -769.05131,43.514233 -773.21962,45.010148 C -778.86089,43.278481 -784.01655,42.760846 -785.59113,51.195905 C -790.6037,52.284618 -792.78073,51.955566 -795.12751,51.711385 z "
             id="path3757"
             sodipodi:nodetypes="cccccccccccc" />
          <path
             style="fill:#53bc4a;fill-opacity:1;fill-rule:evenodd;stroke:none;stroke-width:1px;stroke-linecap:butt;stroke-linejoin:miter;stroke-opacity:1"
             d="M -796.41621,32.896374 C -801.75586,36.593902 -801.72461,43.845763 -796.41621,47.329807 C -789.27462,47.892593 -787.35036,42.194588 -783.27147,39.082131 C -777.71351,40.876263 -771.12276,38.02281 -764.19872,33.669594 C -757.90265,36.860082 -753.52362,32.382388 -749.24981,27.483837 C -742.10586,35.247492 -732.31445,22.644747 -729.40384,15.885543 C -735.13665,17.151874 -744.17579,14.639537 -745.64145,20.7826 C -751.28887,22.028159 -758.92621,15.811482 -762.1368,26.195137 C -768.02153,26.625128 -779.19226,20.327478 -778.37442,29.288016 C -782.92663,29.278624 -788.36703,28.27001 -787.65305,34.185074 C -790.33066,33.512061 -791.28809,31.118879 -796.41621,32.896374 z "
             id="path3759"
             sodipodi:nodetypes="ccccccccccc" />
          <path
             style="fill:#53bc4a;fill-opacity:1;fill-rule:evenodd;stroke:none;stroke-width:1px;stroke-linecap:butt;stroke-linejoin:miter;stroke-opacity:1"
             d="M -795.12751,27.483836 C -796.86364,18.777387 -791.82338,10.004697 -782.75599,11.503965 C -775.63161,-2.069999 -771.8318,2.3086635 -768.06482,6.864647 C -763.24806,-1.9804664 -757.83747,-1.3243283 -752.34269,0.67889003 C -747.35972,1.3874657 -745.72737,-6.8247116 -738.167,-2.9294682 C -734.86667,1.7098495 -734.33913,6.3491673 -735.84734,10.988485 C -741.01298,10.046779 -746.52603,8.2944359 -747.70337,16.658762 C -751.31172,12.534911 -755.95105,12.534937 -761.62132,16.658762 C -767.06047,20.125196 -776.45475,14.00994 -781.72503,24.133218 C -786.45026,23.152779 -790.40228,24.370652 -795.12751,27.483836 z "
             id="path3761"
             sodipodi:nodetypes="cccccccccc" />
          <path
             style="fill:#53bc4a;fill-opacity:1;fill-rule:evenodd;stroke:none;stroke-width:1px;stroke-linecap:butt;stroke-linejoin:miter;stroke-opacity:1"
             d="M -783.52921,-2.1562486 C -780.35218,-8.9885612 -776.89246,-15.467506 -768.32256,-15.558722 C -762.34958,-28.071026 -751.12984,-13.699323 -745.12597,-9.1152251 C -751.78089,-5.1273031 -766.06171,-9.2082613 -765.48742,-2.1562486 C -771.50135,-6.1865014 -781.12364,3.0389628 -783.52921,-2.1562486 z "
             id="path3763"
             sodipodi:nodetypes="ccccc" />
        </g>
        <g
           transform="translate(427.84819,0)"
           id="g3765">
          <path
             sodipodi:nodetypes="ccccccccccccccccccccc"
             id="path3767"
             d="M -770.76387,140.77804 L -752.83755,140.02337 C -746.92564,139.65372 -747.58579,134.35503 -746.87448,130.08493 L -747.86832,115.67417 C -735.42101,110.34366 -731.4571,98.95358 -728.48835,86.85267 C -724.31671,80.407986 -722.49186,72.78991 -721.03451,64.988081 C -718.474,57.718442 -717.81845,48.902364 -719.54374,41.632725 C -720.1236,35.7318 -719.43411,29.513537 -722.52528,24.240438 C -722.92641,17.022092 -724.47904,10.955241 -728.98527,7.8419966 C -731.24803,0.95212018 -732.70047,-6.2978967 -740.91141,-10.544135 C -743.77453,-16.317953 -751.01598,-19.902604 -756.31601,-24.457964 C -762.67293,-26.441042 -766.57878,-25.360291 -770.22984,-23.961042 C -779.45393,-16.834987 -788.90096,-8.7662457 -793.38313,4.4934402 C -799.7339,13.106434 -803.18407,18.550678 -802.03287,29.209663 C -805.72919,37.281038 -805.83457,45.294511 -803.02672,51.571174 C -803.72735,57.419529 -802.583,62.806641 -800.54211,67.969616 C -800.92725,75.422871 -801.36886,82.90033 -797.06365,88.343438 C -795.5099,94.771937 -791.90896,100.17685 -787.62212,105.2388 C -786.05213,111.58356 -781.5753,115.43674 -775.19906,117.66186 C -772.81313,119.11915 -771.24227,120.98397 -770.22984,123.12801 C -767.17054,127.96089 -769.89418,134.6355 -770.76387,140.77804 z "
             style="fill:#000000;fill-opacity:0.75;fill-rule:evenodd;stroke:#000000;stroke-width:1px;stroke-linecap:butt;stroke-linejoin:miter;stroke-opacity:1" />
          <path
             sodipodi:nodetypes="cccccc"
             id="path3769"
             d="M -766.26064,118.72375 C -762.66892,118.97317 -756.13875,114.89267 -752.34269,115.63087 L -751.56947,129.03335 C -751.44794,132.1959 -753.33776,133.84993 -755.95105,134.96136 L -765.74516,136.76554 C -764.25008,129.91816 -763.66223,123.52439 -766.26064,118.72375 z "
             style="fill:#53bc4a;fill-opacity:1;fill-rule:evenodd;stroke:none;stroke-width:1px;stroke-linecap:butt;stroke-linejoin:miter;stroke-opacity:1" />
          <path
             sodipodi:nodetypes="ccccccc"
             id="path3771"
             d="M -780.43634,101.71292 C -775.23474,102.13446 -770.61223,99.627081 -766.77612,95.269423 C -761.4495,96.631594 -755.86513,95.804124 -750.53851,92.434285 C -745.12597,94.701072 -738.68248,90.645173 -733.26994,87.537228 C -735.0294,95.420655 -740.14679,105.74895 -748.73433,111.50704 C -755.69331,109.59856 -762.1368,115.09436 -769.61126,115.37313 C -775.49897,112.10186 -784.84475,110.77575 -780.43634,101.71292 z "
             style="fill:#53bc4a;fill-opacity:1;fill-rule:evenodd;stroke:none;stroke-width:1px;stroke-linecap:butt;stroke-linejoin:miter;stroke-opacity:1" />
          <path
             sodipodi:nodetypes="cccccccccc"
             id="path3773"
             d="M -787.91079,85.733048 C -791.7473,91.737116 -787.99465,96.328335 -783.27147,98.362302 C -777.46578,98.46417 -771.89607,96.442211 -766.77612,90.372366 C -761.96085,91.971683 -756.81429,90.920719 -751.31173,87.021747 C -736.8236,89.099318 -729.33181,80.73156 -726.82644,67.948997 C -734.91737,72.234157 -736.23053,65.311578 -741.00213,66.660297 C -746.12983,68.31975 -744.01813,73.610237 -747.70337,75.681193 C -752.83293,72.148546 -756.48225,75.634038 -759.55941,79.547291 C -768.57734,76.41516 -774.45526,79.849886 -774.76606,83.671129 C -778.49257,82.178564 -783.4982,82.423043 -787.91079,85.733048 z "
             style="fill:#53bc4a;fill-opacity:1;fill-rule:evenodd;stroke:none;stroke-width:1px;stroke-linecap:butt;stroke-linejoin:miter;stroke-opacity:1" />
          <path
             sodipodi:nodetypes="cccccccccc"
             id="path3775"
             d="M -792.80785,67.175777 C -796.68709,73.514708 -795.96967,81.88421 -789.97271,83.413389 C -786.61991,76.897187 -780.73537,80.192354 -776.57024,77.227632 C -773.99584,72.609429 -767.68148,72.265476 -760.33263,73.103794 C -756.89233,67.803558 -752.5533,68.794368 -748.47659,67.948997 C -740.3779,52.965285 -724.60523,77.092885 -725.79548,47.587547 C -732.53714,52.802895 -738.81175,53.347829 -744.86823,51.711385 C -749.41341,56.088398 -753.63953,56.955778 -757.49749,53.773304 C -763.0477,57.518539 -767.68077,63.785919 -775.79702,60.474541 C -779.05755,68.17144 -788.68249,68.281134 -792.80785,67.175777 z "
             style="fill:#53bc4a;fill-opacity:1;fill-rule:evenodd;stroke:none;stroke-width:1px;stroke-linecap:butt;stroke-linejoin:miter;stroke-opacity:1" />
          <path
             sodipodi:nodetypes="cccccccccccc"
             id="path3777"
             d="M -795.12751,51.711385 C -796.43571,55.23383 -798.16453,58.756275 -792.80785,62.27872 C -783.57725,62.401836 -783.89322,59.053473 -781.72503,56.608442 C -771.75583,57.90204 -765.47044,53.669907 -759.55941,48.876246 C -754.23156,53.617415 -749.51991,50.347867 -744.86823,46.298848 C -728.0417,47.848361 -729.35293,37.568894 -727.59966,29.288016 C -730.34889,27.678162 -733.09811,26.521605 -735.84734,30.318975 C -738.37785,35.874748 -743.6367,36.428559 -750.28077,34.442813 C -758.45886,46.144124 -758.08135,39.878671 -759.81715,38.051172 C -765.27803,35.403877 -769.05131,43.514233 -773.21962,45.010148 C -778.86089,43.278481 -784.01655,42.760846 -785.59113,51.195905 C -790.6037,52.284618 -792.78073,51.955566 -795.12751,51.711385 z "
             style="fill:#53bc4a;fill-opacity:1;fill-rule:evenodd;stroke:none;stroke-width:1px;stroke-linecap:butt;stroke-linejoin:miter;stroke-opacity:1" />
          <path
             sodipodi:nodetypes="ccccccccccc"
             id="path3779"
             d="M -796.41621,32.896374 C -801.75586,36.593902 -801.72461,43.845763 -796.41621,47.329807 C -789.27462,47.892593 -787.35036,42.194588 -783.27147,39.082131 C -777.71351,40.876263 -771.12276,38.02281 -764.19872,33.669594 C -757.90265,36.860082 -753.52362,32.382388 -749.24981,27.483837 C -742.10586,35.247492 -732.31445,22.644747 -729.40384,15.885543 C -735.13665,17.151874 -744.17579,14.639537 -745.64145,20.7826 C -751.28887,22.028159 -758.92621,15.811482 -762.1368,26.195137 C -768.02153,26.625128 -779.19226,20.327478 -778.37442,29.288016 C -782.92663,29.278624 -788.36703,28.27001 -787.65305,34.185074 C -790.33066,33.512061 -791.28809,31.118879 -796.41621,32.896374 z "
             style="fill:#53bc4a;fill-opacity:1;fill-rule:evenodd;stroke:none;stroke-width:1px;stroke-linecap:butt;stroke-linejoin:miter;stroke-opacity:1" />
          <path
             sodipodi:nodetypes="cccccccccc"
             id="path3781"
             d="M -795.12751,27.483836 C -796.86364,18.777387 -791.82338,10.004697 -782.75599,11.503965 C -775.63161,-2.069999 -771.8318,2.3086635 -768.06482,6.864647 C -763.24806,-1.9804664 -757.83747,-1.3243283 -752.34269,0.67889003 C -747.35972,1.3874657 -745.72737,-6.8247116 -738.167,-2.9294682 C -734.86667,1.7098495 -734.33913,6.3491673 -735.84734,10.988485 C -741.01298,10.046779 -746.52603,8.2944359 -747.70337,16.658762 C -751.31172,12.534911 -755.95105,12.534937 -761.62132,16.658762 C -767.06047,20.125196 -776.45475,14.00994 -781.72503,24.133218 C -786.45026,23.152779 -790.40228,24.370652 -795.12751,27.483836 z "
             style="fill:#53bc4a;fill-opacity:1;fill-rule:evenodd;stroke:none;stroke-width:1px;stroke-linecap:butt;stroke-linejoin:miter;stroke-opacity:1" />
          <path
             sodipodi:nodetypes="ccccc"
             id="path3783"
             d="M -783.52921,-2.1562486 C -780.35218,-8.9885612 -776.89246,-15.467506 -768.32256,-15.558722 C -762.34958,-28.071026 -751.12984,-13.699323 -745.12597,-9.1152251 C -751.78089,-5.1273031 -766.06171,-9.2082613 -765.48742,-2.1562486 C -771.50135,-6.1865014 -781.12364,3.0389628 -783.52921,-2.1562486 z "
             style="fill:#53bc4a;fill-opacity:1;fill-rule:evenodd;stroke:none;stroke-width:1px;stroke-linecap:butt;stroke-linejoin:miter;stroke-opacity:1" />
        </g>
      </g>
    </g>
  </g>
</svg>
