<?xml version="1.0" encoding="UTF-8" standalone="no"?>
<!-- Created with Inkscape (http://www.inkscape.org/) -->
<svg
        xmlns:dc="http://purl.org/dc/elements/1.1/"
        xmlns:cc="http://web.resource.org/cc/"
        xmlns:rdf="http://www.w3.org/1999/02/22-rdf-syntax-ns#"
        xmlns="http://www.w3.org/2000/svg"
        xmlns:xlink="http://www.w3.org/1999/xlink"
        xmlns:sodipodi="http://inkscape.sourceforge.net/DTD/sodipodi-0.dtd"
        xmlns:inkscape="http://www.inkscape.org/namespaces/inkscape"
        id="svg2"
        sodipodi:version="0.32"
        inkscape:version="0.42+devel"
        width="600pt"
        height="680pt"
        sodipodi:docbase="D:\Inkscape-rysunki\nowe"
        sodipodi:docname="POL_powiat_wejherowski_COA.svg"
        version="1.0">
  <metadata
     id="metadata7">
    <rdf:RDF>
      <cc:Work
         rdf:about="">
        <dc:format>image/svg+xml</dc:format>
        <dc:type
           rdf:resource="http://purl.org/dc/dcmitype/StillImage" />
      </cc:Work>
    </rdf:RDF>
  </metadata>
  <defs
     id="defs5">
    <radialGradient
       r="7.7925749"
       fy="442.06165"
       fx="258.88525"
       cy="442.06165"
       cx="258.88525"
       gradientTransform="matrix(1.449740,-0.120050,0.115892,1.399529,-167.6624,-145.5075)"
       gradientUnits="userSpaceOnUse"
       id="radialGradient4548"
       xlink:href="#linearGradient3554"
       inkscape:collect="always" />
    <radialGradient
       r="7.7925749"
       fy="442.06165"
       fx="258.88525"
       cy="442.06165"
       cx="258.88525"
       gradientTransform="matrix(1.449740,-0.120050,0.115892,1.399529,-167.6624,-145.5075)"
       gradientUnits="userSpaceOnUse"
       id="radialGradient4416"
       xlink:href="#linearGradient3554"
       inkscape:collect="always" />
    <radialGradient
       r="7.7925749"
       fy="442.06165"
       fx="258.88525"
       cy="442.06165"
       cx="258.88525"
       gradientTransform="matrix(1.449740,-0.120050,0.115892,1.399529,-167.6624,-145.5075)"
       gradientUnits="userSpaceOnUse"
       id="radialGradient4098"
       xlink:href="#linearGradient3554"
       inkscape:collect="always" />
    <radialGradient
       r="7.7925749"
       fy="442.06165"
       fx="258.88525"
       cy="442.06165"
       cx="258.88525"
       gradientTransform="matrix(1.449740,-0.120050,0.115892,1.399529,-167.6624,-145.5075)"
       gradientUnits="userSpaceOnUse"
       id="radialGradient3572"
       xlink:href="#linearGradient3554"
       inkscape:collect="always" />
    <linearGradient
       id="linearGradient3554">
      <stop
         id="stop3556"
         offset="0"
         style="stop-color:#ffffff;stop-opacity:1;" />
      <stop
         id="stop3558"
         offset="1"
         style="stop-color:#000000;stop-opacity:1;" />
    </linearGradient>
  </defs>
  <sodipodi:namedview
     inkscape:window-height="687"
     inkscape:window-width="751"
     inkscape:pageshadow="2"
     inkscape:pageopacity="0.0"
     borderopacity="1.0"
     bordercolor="#666666"
     pagecolor="#ffffff"
     id="base"
     inkscape:zoom="0.60023053"
     inkscape:cx="374.77313"
     inkscape:cy="420.41858"
     inkscape:window-x="-2"
     inkscape:window-y="-3"
     inkscape:current-layer="svg2"
     showguides="true"
     inkscape:guide-bbox="true" />
  <g
     id="g2538">
    <path
       sodipodi:nodetypes="ccsccc"
       id="path2233"
       d="M 8.3834874,10.145886 L 8.3398674,487.76219 C 16.856717,686.40242 177.48442,844.11422 373.65689,844.11422 C 569.82919,844.11422 734.23809,685.97222 742.75509,487.33221 L 743.00919,10.145886 L 8.3834874,10.145886 z "
       style="opacity:1;fill:#c5ab57;fill-opacity:1;fill-rule:evenodd;stroke:none;stroke-width:7.26096106;stroke-linecap:round;stroke-linejoin:round;stroke-miterlimit:4;stroke-dasharray:none;stroke-dashoffset:0;stroke-opacity:1" />
    <g
       transform="translate(830.4976,0.000000)"
       id="g2413">
      <path
         style="fill:none;fill-opacity:0.75;fill-rule:evenodd;stroke:#000000;stroke-width:1px;stroke-linecap:butt;stroke-linejoin:miter;stroke-opacity:1"
         d="M -603.63733,726.02559 C -603.63733,726.12398 -603.63733,726.22237 -603.63733,726.02559 z "
         id="path2355" />
      <g
         id="g2359"
         style="fill:#000000;fill-opacity:1">
        <path
           sodipodi:nodetypes="ccccccccccccccccccccc"
           id="path2353"
           d="M -481.69226,562.13153 L -570.57595,655.53134 L -572.29628,672.80606 L -586.48882,672.80606 L -635.44645,726.13628 C -627.82535,725.76738 -616.04521,725.66803 -610.72158,716.87509 C -607.67486,715.42335 -605.31796,718.80031 -603.04697,722.77864 C -593.86487,718.83714 -582.43728,721.00637 -579.72798,729.27253 C -571.99073,733.70835 -569.66251,717.56249 -565.26429,714.51368 C -530.43339,707.23264 -539.87103,691.2327 -520.10219,698.86929 C -517.83916,701.29979 -515.57614,700.94852 -513.31311,699.45964 C -517.46664,689.61198 -527.05399,682.4317 -528.36715,676.14064 L -511.83723,683.22489 C -502.72613,689.08939 -493.0031,689.44651 -482.31951,681.15865 L -461.06675,659.31554 C -451.3287,649.81357 -440.67845,665.01356 -438.63329,673.18887 C -426.62035,671.13165 -424.83929,644.60072 -443.35612,640.71938 C -447.49952,630.9143 -419.76898,626.38283 -422.39854,651.93611 C -403.05367,648.13025 -405.6501,609.81826 -437.45258,612.38237 C -444.61173,608.8749 -423.70269,605.95252 -433.3201,577.25629 C -456.94394,614.56236 -497.51475,601.85316 -481.69226,562.13153 z "
           style="fill:#000000;fill-opacity:1;fill-rule:evenodd;stroke:#000000;stroke-width:1px;stroke-linecap:butt;stroke-linejoin:miter;stroke-opacity:1" />
        <path
           sodipodi:nodetypes="cccc"
           id="path2357"
           d="M -603.34215,727.50148 C -596.21664,723.65254 -587.73962,725.94044 -581.49904,730.45324 C -588.11505,736.46535 -588.7084,744.01722 -576.18585,746.39281 C -589.78448,765.72628 -619.16084,742.21146 -603.34215,727.50148 z "
           style="fill:#000000;fill-opacity:1;fill-rule:evenodd;stroke:#000000;stroke-width:1px;stroke-linecap:butt;stroke-linejoin:miter;stroke-opacity:1" />
      </g>
      <path
         style="fill:none;fill-opacity:0.75;fill-rule:evenodd;stroke:#000000;stroke-width:1px;stroke-linecap:butt;stroke-linejoin:miter;stroke-opacity:1"
         d="M -312.73987,691.27968 C -312.6477,691.27968 -312.55552,691.27968 -312.73987,691.27968 z "
         id="path2387" />
      <g
         id="g2397"
         style="fill:#000000;fill-opacity:1">
        <g
           style="fill:#000000;fill-opacity:1"
           id="g2375">
          <path
             style="fill:#000000;fill-opacity:1;fill-rule:evenodd;stroke:#000000;stroke-width:1px;stroke-linecap:butt;stroke-linejoin:miter;stroke-opacity:1"
             d="M -185.16551,241.0202 L -261.74381,325.29685 C -241.64118,323.30488 -220.02633,309.21513 -198.9415,299.36557 C -191.85843,280.47068 -182.96622,261.97783 -185.16551,241.0202 z "
             id="path2363"
             sodipodi:nodetypes="cccc" />
          <path
             style="fill:#000000;fill-opacity:1;fill-rule:evenodd;stroke:#000000;stroke-width:1px;stroke-linecap:butt;stroke-linejoin:miter;stroke-opacity:1"
             d="M -267.41628,331.77966 L -299.4252,366.62482 C -281.56221,369.67098 -255.80041,366.79303 -216.36408,353.65918 C -199.91093,333.27011 -194.47433,314.11194 -192.45869,298.55522 C -217.44455,316.55244 -242.43042,328.89529 -267.41628,331.77966 z "
             id="path2365"
             sodipodi:nodetypes="ccccc" />
          <path
             style="fill:#000000;fill-opacity:1;fill-rule:evenodd;stroke:#000000;stroke-width:1px;stroke-linecap:butt;stroke-linejoin:miter;stroke-opacity:1"
             d="M -304.69249,371.89211 L -334.67552,405.11656 C -279.84686,413.1592 -233.14083,406.07696 -209.47608,356.09024 C -242.87324,367.99095 -275.57057,377.09234 -304.69249,371.89211 z "
             id="path2367"
             sodipodi:nodetypes="cccc" />
          <path
             style="fill:#000000;fill-opacity:1;fill-rule:evenodd;stroke:#000000;stroke-width:1px;stroke-linecap:butt;stroke-linejoin:miter;stroke-opacity:1"
             d="M -339.14934,408.22853 L -356.16674,425.90997 C -312.45134,436.91541 -268.46784,433.69468 -230.14007,399.44409 C -263.34805,408.01932 -295.7448,424.12504 -339.14934,408.22853 z "
             id="path2369"
             sodipodi:nodetypes="cccc" />
          <path
             style="fill:#000000;fill-opacity:1;fill-rule:evenodd;stroke:#000000;stroke-width:1px;stroke-linecap:butt;stroke-linejoin:miter;stroke-opacity:1"
             d="M -359.68389,428.47046 L -374.27024,445.76361 C -362.39542,450.05134 -339.18602,451.3296 -320.08918,452.52217 L -299.83037,437.93583 C -320.19199,436.17633 -346.30364,435.21666 -359.68389,428.47046 z "
             id="path2371"
             sodipodi:nodetypes="ccccc" />
          <path
             style="fill:#000000;fill-opacity:1;fill-rule:evenodd;stroke:#000000;stroke-width:1px;stroke-linecap:butt;stroke-linejoin:miter;stroke-opacity:1"
             d="M -322.52024,457.38428 L -311.58048,476.02239 C -278.47051,431.93216 -199.48456,444.53608 -211.09679,510.05719 C -203.93868,511.74041 -196.78056,513.78652 -189.62245,520.59177 C -181.83368,486.18989 -182.26942,444.88845 -226.08831,429.02195 C -270.86151,418.86143 -295.75657,439.1821 -322.52024,457.38428 z "
             id="path2373"
             sodipodi:nodetypes="cccccc" />
        </g>
        <path
           sodipodi:nodetypes="ccsccccccccccccccccsccccccccccccc"
           id="path2383"
           d="M -300.71977,722.12566 C -306.23837,717.16623 -290.68308,714.67713 -299.93767,706.48354 C -300.08113,698.52287 -302.30241,692.04636 -309.71399,689.27721 C -296.05733,676.80402 -278.28642,677.69572 -269.43553,695.92511 C -266.29965,668.1678 -253.49674,667.6749 -250.66498,644.30611 C -254.91275,599.96337 -292.42707,605.29283 -321.44558,607.93818 L -379.81684,561.14254 C -399.90592,545.67066 -411.51758,524.42045 -405.70433,492.6808 C -407.38284,491.85893 -410.1906,491.21258 -410.96182,493.74356 C -419.12244,520.52524 -442.88896,529.46279 -461.9818,539.13472 L -378.84103,448.78111 C -366.17864,454.1489 -346.71058,456.79654 -328.87559,456.99172 C -313.84053,481.67062 -301.08396,507.97701 -279.21186,527.77231 C -264.62866,537.44318 -249.37299,525.91862 -258.48605,508.61071 C -249.70335,503.67645 -243.5516,509.92379 -238.93339,522.68862 C -214.1195,501.38332 -194.09595,523.59867 -177.92912,537.15759 C -187.71083,537.64646 -199.89382,535.2538 -204.91178,541.45917 C -184.86205,546.08222 -181.71024,570.89093 -199.04599,576.65394 C -197.96009,563.65762 -206.06063,556.09235 -214.29706,558.27445 C -216.50091,558.67525 -216.9559,563.09294 -215.42405,565.07119 C -202.04259,582.35212 -200.61083,611.98264 -210.77758,636.8761 C -194.86987,637.77506 -192.05898,654.03075 -201.3923,666.59613 C -204.47954,661.18616 -204.31656,652.91784 -213.79147,653.1858 C -213.93397,667.34907 -211.24713,679.72467 -225.01746,685.95902 C -228.24686,698.50322 -208.47587,689.87829 -213.47054,708.42368 C -220.29776,705.54689 -225.7901,706.67475 -231.16758,708.14717 C -231.99444,719.69642 -236.62002,724.59792 -243.33429,725.84421 C -247.26191,729.76567 -242.63836,741.89835 -248.03507,739.3935 C -257.23473,733.28928 -263.55949,735.09102 -269.87985,736.90486 C -278.06809,731.70264 -270.0186,725.34059 -269.0503,719.48433 C -267.83816,714.85488 -269.92596,715.17533 -271.53895,714.78356 C -279.74331,722.56976 -274.38101,739.86568 -283.42915,735.24576 C -284.57332,728.40873 -288.57529,723.09586 -300.71977,722.12566 z "
           style="fill:#000000;fill-opacity:1;fill-rule:evenodd;stroke:#000000;stroke-width:1px;stroke-linecap:butt;stroke-linejoin:miter;stroke-opacity:1" />
        <path
           sodipodi:nodetypes="cccc"
           id="path2385"
           d="M -228.67893,712.29491 C -225.19513,719.66868 -227.48144,727.04244 -232.82667,734.41621 C -225.69273,733.66442 -218.80417,738.55651 -210.98189,721.97298 C -213.94682,711.20216 -220.57435,709.84948 -228.67893,712.29491 z "
           style="fill:#000000;fill-opacity:1;fill-rule:evenodd;stroke:#000000;stroke-width:1px;stroke-linecap:butt;stroke-linejoin:miter;stroke-opacity:1" />
        <path
           sodipodi:nodetypes="cccc"
           id="path2389"
           d="M -312.73987,690.72665 C -307.50732,694.42416 -303.02599,698.49729 -303.61483,705.10549 C -309.62815,707.74528 -314.76856,711.69443 -314.952,723.07905 C -325.80644,716.7592 -325.47256,697.78091 -312.73987,690.72665 z "
           style="fill:#000000;fill-opacity:1;fill-rule:evenodd;stroke:#000000;stroke-width:1px;stroke-linecap:butt;stroke-linejoin:miter;stroke-opacity:1" />
        <path
           sodipodi:nodetypes="cccc"
           id="path2391"
           d="M -303.61483,724.46163 C -297.56592,726.96548 -289.32994,726.55324 -287.30037,734.41621 C -292.11816,740.00384 -290.16351,746.72022 -286.19431,753.77235 C -310.20102,754.66056 -310.02562,731.8295 -303.61483,724.46163 z "
           style="fill:#000000;fill-opacity:1;fill-rule:evenodd;stroke:#000000;stroke-width:1px;stroke-linecap:butt;stroke-linejoin:miter;stroke-opacity:1" />
        <path
           sodipodi:nodetypes="cccc"
           id="path2393"
           d="M -269.60333,740.22305 C -263.74899,738.33777 -257.46467,737.74241 -249.41765,742.43518 C -249.12375,747.96083 -248.5363,753.45128 -236.6979,756.81403 C -258.86649,768.9736 -273.78469,755.61585 -269.60333,740.22305 z "
           style="fill:#000000;fill-opacity:1;fill-rule:evenodd;stroke:#000000;stroke-width:1px;stroke-linecap:butt;stroke-linejoin:miter;stroke-opacity:1" />
      </g>
      <path
         style="fill:#000000;fill-opacity:1;fill-rule:evenodd;stroke:#000000;stroke-width:1px;stroke-linecap:butt;stroke-linejoin:miter;stroke-opacity:1"
         d="M -401.89193,740.8478 C -406.20534,751.04879 -412.20101,759.56752 -426.60564,759.67729 C -457.25454,754.78023 -448.80169,720.38555 -440.13933,717.31094 C -439.25697,727.1672 -439.75873,738.06156 -429.84196,741.14201 C -415.74678,741.01027 -423.8795,711.32838 -421.60406,696.42197 C -416.34269,687.81109 -405.93752,687.85858 -399.82452,681.1293 C -393.76309,674.4568 -396.33626,664.45815 -392.47719,655.52667 C -382.78218,631.72576 -369.78357,610.07219 -344.52083,596.3903 L -323.92607,610.51242 C -342.76893,623.70235 -363.49443,640.08395 -369.52874,670.23721 C -368.4128,690.75091 -353.65437,688.22959 -347.75715,698.18724 C -344.66637,718.32329 -351.30947,744.94859 -335.6945,756.73518 C -328.92701,758.99589 -322.55372,758.10306 -316.5708,754.08728 C -316.20369,765.08106 -323.80446,771.0425 -338.3424,772.62256 C -352.62136,769.40427 -363.36736,762.38126 -367.46927,748.20307 C -382.78983,771.46041 -389.69698,801.72893 -426.89984,806.75102 C -466.20447,808.66016 -467.09654,772.57561 -445.14092,766.44413 C -437.55915,766.12445 -438.41669,768.64276 -439.2567,772.91677 C -448.93109,777.18067 -444.8894,780.58731 -442.49302,784.09678 C -413.44012,795.26134 -399.92255,754.23059 -401.89193,740.8478 z "
         id="path2411"
         sodipodi:nodetypes="cccccscccccccccccccc" />
    </g>
    <g
       transform="translate(828.7364,-1.000000)"
       id="g2335">
      <path
         style="fill:none;fill-opacity:0.75;fill-rule:evenodd;stroke:#000000;stroke-width:1px;stroke-linecap:butt;stroke-linejoin:miter;stroke-opacity:1"
         d="M -531.0362,25.817853 C -530.84232,25.817853 -530.64844,25.817853 -531.0362,25.817853 z "
         id="path2800" />
      <path
         id="path2802"
         style="fill:#000000;fill-opacity:1;fill-rule:evenodd;stroke:#000000;stroke-width:1px;stroke-linecap:butt;stroke-linejoin:miter;stroke-opacity:1"
         d="M -489.6059,63.990982 C -491.83446,65.57962 -491.47842,68.817996 -487.22294,68.756895 C -475.32483,67.762611 -477.239,45.987028 -491.07233,50.426461 C -493.79893,42.443295 -487.00146,34.885602 -477.69111,38.878287 C -478.98436,32.499559 -478.65672,26.323441 -472.19198,20.914462 C -466.31485,26.375115 -465.15204,32.198408 -465.59303,38.14507 C -455.22593,36.467965 -451.2208,42.517071 -452.94503,50.609765 C -466.77662,46.430703 -468.69577,68.819587 -456.97773,69.123504 C -452.44133,69.654623 -452.11135,67.301034 -452.94503,65.824026 C -458.68019,64.56378 -457.4286,54.854343 -450.92868,55.925591 C -443.00958,55.845982 -444.14911,65.88647 -449.46225,66.190634 C -451.10966,68.388728 -450.33125,70.51143 -446.11694,70.0224 C -434.97472,68.543117 -434.50151,49.501765 -449.24016,50.979899 C -450.36366,43.934488 -447.49021,37.259735 -435.83074,39.713732 C -431.91226,29.915338 -421.99189,24.968805 -413.54517,25.236214 C -423.81815,39.683095 -430.41565,57.718651 -431.57597,77.583704 C -434.28888,84.435992 -439.92134,87.395546 -447.28022,88.053202 C -479.48454,89.47129 -476.12926,82.278388 -510.67885,83.400092 C -512.55123,55.801433 -521.47284,40.538936 -531.0362,26.399492 C -520.06995,25.945331 -512.97852,31.026621 -508.85285,40.344722 C -503.93199,37.522269 -492.83883,39.156424 -495.47163,50.609765 C -511.35488,49.146947 -507.41356,71.073369 -497.48798,68.940199 C -492.36455,68.982616 -492.93349,64.82822 -496.38816,64.540895 C -501.27895,61.95278 -499.95787,54.051632 -493.08868,54.825765 C -486.0896,54.140342 -485.67763,63.025162 -489.6059,63.990982 z M -499.68787,76.116702 C -499.68787,78.167583 -501.28921,79.832066 -503.2623,79.832066 C -505.2354,79.832066 -506.83674,78.167583 -506.83674,76.116702 C -506.83674,74.065821 -505.2354,72.401338 -503.2623,72.401338 C -501.28921,72.401338 -499.68787,74.065821 -499.68787,76.116702 z M -484.65687,77.766442 C -484.65687,79.817323 -486.25821,81.481806 -488.2313,81.481806 C -490.2044,81.481806 -491.80574,79.817323 -491.80574,77.766442 C -491.80574,75.715561 -490.2044,74.051078 -488.2313,74.051078 C -486.25821,74.051078 -484.65687,75.715561 -484.65687,77.766442 z M -468.34277,79.049572 C -468.34277,81.100453 -469.94411,82.764936 -471.9172,82.764936 C -473.8903,82.764936 -475.49164,81.100453 -475.49164,79.049572 C -475.49164,76.998691 -473.8903,75.334208 -471.9172,75.334208 C -469.94411,75.334208 -468.34277,76.998691 -468.34277,79.049572 z M -452.21197,79.599482 C -452.21197,81.650363 -453.81331,83.314846 -455.7864,83.314846 C -457.7595,83.314846 -459.36084,81.650363 -459.36084,79.599482 C -459.36084,77.548601 -457.7595,75.884118 -455.7864,75.884118 C -453.81331,75.884118 -452.21197,77.548601 -452.21197,79.599482 z M -437.36427,76.483312 C -437.36427,78.534193 -438.96561,80.198676 -440.9387,80.198676 C -442.9118,80.198676 -444.51314,78.534193 -444.51314,76.483312 C -444.51314,74.432431 -442.9118,72.767948 -440.9387,72.767948 C -438.96561,72.767948 -437.36427,74.432431 -437.36427,76.483312 z M -468.34267,46.421402 C -468.34267,48.472283 -469.94401,50.136766 -471.9171,50.136766 C -473.8902,50.136766 -475.49154,48.472283 -475.49154,46.421402 C -475.49154,44.370521 -473.8902,42.706038 -471.9171,42.706038 C -469.94401,42.706038 -468.34267,44.370521 -468.34267,46.421402 z M -511.21707,45.851129 C -510.51841,47.779339 -511.10951,49.763889 -512.53649,50.28093 C -513.96347,50.797974 -515.68862,49.652677 -516.38727,47.724468 C -517.08593,45.796258 -516.49483,43.811708 -515.06785,43.294664 C -513.64087,42.777623 -511.91572,43.92292 -511.21707,45.851129 z M -432.80056,45.851129 C -433.49922,47.779339 -432.90812,49.763889 -431.48114,50.28093 C -430.05416,50.797974 -428.32901,49.652677 -427.63036,47.724468 C -426.9317,45.796258 -427.5228,43.811708 -428.94978,43.294664 C -430.37676,42.777623 -432.10191,43.92292 -432.80056,45.851129 z " />
      <path
         style="fill:#ca3829;fill-opacity:1;fill-rule:evenodd;stroke:#000000;stroke-width:2.48031497;stroke-linecap:butt;stroke-linejoin:miter;stroke-miterlimit:4;stroke-dasharray:none;stroke-opacity:1"
         d="M -498.57285,151.74035 C -511.71643,150.40389 -531.49753,153.16185 -550.08279,159.12316 C -597.34053,175.49287 -622.48774,138.04225 -597.25677,111.80299 C -600.73861,141.55395 -586.491,157.99827 -551.65206,149.16664 C -518.73682,138.71664 -507.87351,144.64809 -498.57285,151.74035 z "
         id="path2832"
         sodipodi:nodetypes="ccccc" />
      <path
         style="fill:#000000;fill-opacity:1;fill-rule:evenodd;stroke:#000000;stroke-width:1px;stroke-linecap:butt;stroke-linejoin:miter;stroke-opacity:1"
         d="M -542.89043,136.28073 C -558.48529,137.13207 -561.43829,117.24594 -551.90855,105.8768 C -545.90961,98.969945 -533.73647,97.037418 -518.67036,100.46594 C -514.22045,104.2952 -511.69716,115.67471 -496.51156,121.59409 C -489.49508,132.06093 -482.70206,143.54942 -481.82492,159.47017 C -487.04385,182.22499 -499.53769,185.17714 -515.57843,184.97854 C -540.21519,185.77135 -546.59306,175.24092 -548.81662,164.62337 C -525.82118,177.485 -518.49265,158.93656 -493.41964,157.40888 L -497.02688,148.90609 C -509.57748,143.17915 -520.81731,131.72657 -530.52273,124.68601 C -538.02713,120.35942 -546.01356,125.59957 -542.89043,136.28073 z "
         id="path2834"
         sodipodi:nodetypes="ccccccccccc" />
      <path
         id="path1427"
         style="fill:#000000;fill-opacity:1;fill-rule:evenodd;stroke:#000000;stroke-width:1px;stroke-linecap:butt;stroke-linejoin:miter;stroke-opacity:1"
         d="M -423.07835,109.74171 C -421.12023,109.10627 -419.50527,109.61549 -419.98643,112.57598 C -423.1651,117.1756 -428.71568,121.51167 -426.17028,126.7473 C -422.72263,130.01371 -416.53263,126.14997 -409.68001,120.56345 C -407.29334,120.22113 -406.48546,121.8523 -406.84575,124.94368 C -415.08084,129.27922 -423.7391,134.99351 -431.06582,131.64285 C -432.38243,127.46485 -431.96134,118.70089 -423.07835,109.74171 z M -508.35708,107.36627 C -504.91311,112.9791 -499.98001,117.45992 -493.7338,117.93722 C -487.29307,117.73617 -481.67124,115.19268 -479.21399,110.38376 C -487.43396,106.73262 -489.1253,101.03574 -494.70794,102.2062 C -496.90468,104.09502 -490.38139,111.47477 -497.5422,112.06066 C -504.69351,111.59057 -498.25311,103.99557 -501.72127,104.11596 C -504.44463,103.84745 -506.79404,104.41145 -508.35708,107.36627 z M -392.62664,232.69748 C -396.04982,218.62039 -395.26506,201.88834 -395.86678,185.98817 C -396.3565,171.5339 -407.24848,171.27604 -402.98084,165.91168 C -396.64291,171.76828 -376.5039,178.02897 -373.09224,167.45764 C -394.21034,168.99355 -401.6401,155.29516 -405.04213,140.66096 C -410.99809,145.44085 -418.41867,148.75611 -428.48922,149.42141 C -430.62065,148.27363 -431.24642,146.8749 -429.2622,145.04118 C -416.41037,143.76342 -402.86916,139.1151 -393.96273,121.85175 C -391.65194,102.26141 -388.8837,83.128512 -385.20228,64.908804 C -394.08803,75.925552 -400.46216,88.198107 -413.0296,97.374012 C -420.86001,98.999498 -432.98901,99.364239 -438.28032,107.42277 C -442.78318,108.43058 -441.27268,106.65228 -441.11458,104.33084 C -435.12452,94.481769 -415.79313,95.550184 -414.3179,92.220805 C -411.65568,89.16126 -412.56661,65.081082 -416.63684,54.602388 C -421.02493,65.697222 -425.34358,77.035068 -431.06583,83.460351 C -445.55844,101.45984 -479.81564,84.331936 -510.16757,87.325258 C -514.24117,89.033669 -519.46012,93.221836 -516.60908,98.146994 L -511.1982,104.84616 C -507.64889,99.692151 -500.55805,97.499667 -493.6773,97.631673 C -483.14247,98.729936 -480.48244,106.20537 -470.2302,109.22639 C -475.26711,116.57746 -482.97205,120.856 -492.13134,121.33643 C -485.57609,131.58598 -479.24629,144.39602 -477.70235,158.18186 C -479.56598,170.84466 -485.34803,178.60945 -492.94962,184.0998 C -473.52237,190.88373 -474.05308,216.67085 -488.36279,219.98502 C -505.35309,219.88385 -524.22459,208.93872 -540.16702,221.06428 C -547.86333,228.11927 -555.67844,231.17172 -566.06913,222.14353 C -569.09873,217.43788 -571.85151,213.98153 -587.38441,215.93782 C -591.64276,210.66082 -587.97367,203.68145 -582.25796,200.55843 C -602.30147,195.1807 -615.43906,237.07921 -582.52777,240.49086 C -579.35518,242.28962 -579.39105,246.24689 -583.06739,247.50602 C -626.0247,240.02296 -649.41001,198.91406 -660.50393,173.84688 C -655.09966,160.16833 -664.58196,153.28194 -672.10591,150.10328 L -671.8361,117.45582 C -663.54566,110.35354 -670.94596,100.57159 -677.50219,103.96513 C -681.1946,111.05536 -688.35525,107.74086 -693.96082,109.09159 L -689.6438,132.8352 C -696.43287,136.68178 -697.34751,122.17075 -698.54766,108.55197 C -699.89673,103.30384 -707.72132,101.56866 -712.30815,108.28215 C -714.72051,116.84221 -719.80818,122.72697 -730.11586,123.39172 C -730.71987,141.66073 -710.32809,152.78601 -700.16654,158.73731 C -696.70781,161.5403 -701.41767,164.33115 -703.13449,163.05433 C -712.61906,155.22793 -723.06025,151.54685 -734.70269,153.07123 C -735.74468,154.31719 -735.64095,155.84958 -734.43288,157.65806 C -732.87735,166.58236 -732.34194,175.21519 -734.70269,183.02055 C -735.71686,184.81931 -736.44834,186.61806 -735.24232,188.41682 C -727.16099,188.3588 -718.23588,182.90366 -703.4043,187.60738 C -700.00773,193.05727 -718.18348,202.4016 -704.13525,211.25778 C -691.8075,205.11875 -683.58446,211.08988 -678.39993,217.58613 C -673.16759,216.68287 -674.73922,208.29523 -674.81386,201.55429 L -669.96212,202.18713 C -662.67498,223.61089 -652.52416,243.60281 -635.15615,259.98613 C -634.01885,262.63875 -631.92132,265.61145 -637.26561,266.10354 C -647.77647,266.02081 -658.11337,264.19844 -668.06361,258.50951 C -667.48799,278.36025 -666.32816,288.59971 -631.35914,284.45578 C -629.1925,286.01546 -627.91349,288.49892 -631.99198,289.94036 C -652.8932,289.96228 -664.88025,292.87282 -670.59495,301.54234 C -678.54056,316.2213 -703.78368,312.45058 -705.40093,291.20603 C -715.9403,292.95611 -716.86619,328.55204 -687.47057,330.86373 C -679.34382,331.99117 -672.31644,326.05579 -667.85267,327.27767 C -668.8073,336.28072 -670.73558,326.57451 -688.73624,346.47368 C -705.76321,361.68492 -723.78743,356.69602 -738.94122,351.32542 C -736.66381,366.37964 -708.46756,383.6971 -677.7671,367.77915 C -658.91435,357.29244 -646.78843,344.35961 -633.89048,331.70752 C -631.39515,329.30798 -629.22466,329.54222 -630.93725,334.23886 C -642.64807,349.46259 -655.96725,359.32516 -669.32929,369.04483 C -683.71336,380.4399 -685.15056,396.42901 -682.19695,413.97616 C -670.49072,408.93673 -669.88603,382.61496 -656.25068,375.16224 C -649.32008,372.22134 -643.27542,373.71014 -636.84372,373.26373 C -628.92278,365.3647 -623.64357,356.80523 -617.85864,348.37219 C -616.33011,347.5501 -614.90483,347.24427 -614.48352,351.95826 C -630.45839,369.09748 -638.17329,385.29807 -629.46063,399.63189 C -616.73604,384.82917 -608.64903,362.91549 -588.32631,359.76323 C -582.77363,381.5623 -581.19946,405.86214 -556.89547,415.87467 L -488.12731,342.67667 L -489.60393,331.91846 C -495.84276,347.41554 -514.33545,341.50005 -521.45666,373.89657 C -530.53611,377.00318 -533.27752,357.10008 -534.32432,345.6299 C -547.68419,349.28628 -555.98136,355.19275 -559.21586,363.3493 C -559.42681,372.06837 -557.55395,390.16168 -561.32532,389.29556 C -571.38851,382.27697 -577.98143,372.05506 -580.73228,358.28662 C -579.64031,347.9503 -571.94175,337.61399 -566.80989,327.27767 C -563.95379,322.32103 -561.04401,325.75263 -561.95815,328.33239 C -565.20636,337.34818 -569.38982,342.62295 -573.13825,349.63786 C -575.65676,354.8073 -575.59305,360.99437 -572.50541,366.72443 C -571.22716,372.18199 -565.43262,380.63343 -564.27855,379.80303 L -563.85666,361.23985 C -554.56358,340.60391 -527.26079,347.8581 -518.71438,318.41796 C -517.58137,317.11372 -516.46298,315.69257 -514.75244,319.00861 C -517.90773,328.77059 -520.73506,336.50349 -530.54649,343.70071 C -529.83809,356.2573 -527.38628,363.58367 -524.31785,369.06017 C -515.8112,333.09088 -495.40025,349.73997 -489.39298,321.23313 C -484.07013,315.49008 -485.26254,330.10721 -484.2766,337.91698 L -464.70088,317.00655 L -462.03147,302.10231 L -457.58244,309.4432 L -432.89034,283.19394 L -437.78427,258.27939 L -446.90478,257.83449 L -446.68232,252.71811 L -424.88209,252.49566 L -424.65964,257.83449 L -432.44544,257.61204 L -428.21886,278.07756 L -414.64933,262.95087 C -418.84666,239.31073 -401.52493,235.93268 -411.31256,214.67893 C -413.84554,211.68664 -411.88933,210.61829 -410.42275,209.34009 C -407.99729,209.86188 -405.17423,226.91251 -392.62664,232.69748 z " />
      <path
         style="fill:#000000;fill-opacity:1;fill-rule:evenodd;stroke:#000000;stroke-width:0;stroke-linecap:butt;stroke-linejoin:miter;stroke-miterlimit:4;stroke-dasharray:none;stroke-opacity:1"
         d="M -677.26291,99.303747 C -680.95136,105.77426 -687.60375,105.32893 -694.42397,104.49197 C -693.66217,97.787532 -698.67038,93.246846 -706.39679,89.725486 C -698.68302,82.773211 -676.68125,79.201149 -677.26291,99.303747 z "
         id="path1436"
         sodipodi:nodetypes="cccc" />
      <path
         style="fill:#000000;fill-opacity:1;fill-rule:evenodd;stroke:#000000;stroke-width:0;stroke-linecap:butt;stroke-linejoin:miter;stroke-miterlimit:4;stroke-dasharray:none;stroke-opacity:1"
         d="M -727.54879,119.65755 C -735.27318,112.13927 -742.02143,112.43005 -748.70078,113.27205 C -745.27983,103.78701 -739.1574,96.193006 -725.15422,94.115522 C -711.09877,101.98372 -717.39797,115.12694 -727.54879,119.65755 z "
         id="path1438"
         sodipodi:nodetypes="cccc" />
      <path
         style="fill:#000000;fill-opacity:1;fill-rule:evenodd;stroke:#000000;stroke-width:0;stroke-linecap:butt;stroke-linejoin:miter;stroke-miterlimit:4;stroke-dasharray:none;stroke-opacity:1"
         d="M -739.92071,157.17241 C -734.53909,167.29789 -735.2295,175.90535 -738.32433,183.91172 C -749.20808,179.42661 -756.69793,183.76562 -762.26999,193.09089 C -771.49696,170.9632 -753.95764,152.01861 -739.92071,157.17241 z "
         id="path1440"
         sodipodi:nodetypes="cccc" />
      <path
         style="fill:#000000;fill-opacity:1;fill-rule:evenodd;stroke:#000000;stroke-width:0;stroke-linecap:butt;stroke-linejoin:miter;stroke-miterlimit:4;stroke-dasharray:none;stroke-opacity:1"
         d="M -717.97053,215.04108 C -709.64665,241.87287 -690.98732,237.4768 -680.85476,223.02296 C -684.91217,211.84888 -695.37944,211.15818 -701.60766,213.4447 C -701.24186,220.37893 -707.71434,219.79104 -717.97053,215.04108 z "
         id="path1442"
         sodipodi:nodetypes="cccc" />
      <path
         style="fill:#000000;fill-opacity:1;fill-rule:evenodd;stroke:#000000;stroke-width:1px;stroke-linecap:butt;stroke-linejoin:miter;stroke-opacity:1"
         d="M -253.24404,89.790965 L -292.3514,132.23676 C -282.12616,110.1142 -269.39758,91.21022 -267.55161,58.314305 C -261.10815,66.016078 -255.88368,75.749493 -253.24404,89.790965 z "
         id="path2321"
         sodipodi:nodetypes="cccc" />
      <path
         style="fill:#000000;fill-opacity:1;fill-rule:evenodd;stroke:#000000;stroke-width:1px;stroke-linecap:butt;stroke-linejoin:miter;stroke-opacity:1"
         d="M -402.0428,250.03578 L -303.79746,143.68282 C -304.13359,115.3733 -308.57535,89.409856 -325.73574,70.714201 C -330.00964,111.86316 -328.773,155.03264 -350.05861,189.94397 L -353.87397,175.6364 C -363.51829,209.36296 -387.67981,212.37261 -390.11982,235.72821 C -399.01467,234.34674 -400.14731,242.66804 -402.0428,250.03578 z "
         id="path2323"
         sodipodi:nodetypes="ccccccc" />
      <path
         style="fill:#000000;fill-opacity:1;fill-rule:evenodd;stroke:#000000;stroke-width:1px;stroke-linecap:butt;stroke-linejoin:miter;stroke-opacity:1"
         d="M -592.1683,364.28238 C -589.88473,374.75294 -588.09711,385.2235 -581.69774,395.69406 C -604.14592,414.80023 -632.51262,433.34579 -642.77601,456.77233 C -622.71133,452.39739 -613.46868,457.12166 -610.20093,470.15137 C -621.70108,471.64452 -624.56063,477.99802 -624.74338,485.85721 C -633.20573,487.69934 -640.31749,486.39007 -644.5211,478.29514 C -646.68421,473.64658 -649.20804,473.68743 -652.08317,478.29514 C -653.11446,482.8326 -657.89434,484.24622 -663.13543,485.27551 C -663.52329,497.6221 -648.27025,516.11825 -664.88052,521.92247 C -676.8832,516.52326 -681.67664,519.43147 -690.20821,519.86269 C -698.47167,512.66965 -684.68969,505.90753 -684.34355,496.48035 C -684.59692,493.60838 -685.28004,491.48848 -688.34869,493.54325 C -690.66889,499.63485 -694.31986,504.61747 -700.8981,507.1607 C -709.30536,521.77471 -715.37038,518.43156 -721.72479,517.30703 C -723.7896,508.85616 -730.58078,504.54086 -738.27933,501.0195 C -739.44676,488.90471 -728.61306,488.79105 -721.19077,485.26598 C -718.96412,480.42281 -713.71073,477.74159 -706.50529,476.45469 C -696.58263,476.23962 -696.90339,470.41452 -700.63109,467.37639 C -709.51719,465.90316 -725.49231,473.45396 -725.1959,464.43929 C -713.41984,459.55031 -713.26756,450.7642 -712.11248,436.67038 C -703.56361,430.74058 -698.61354,447.87338 -689.41672,450.82184 C -686.29959,452.0305 -683.63786,451.64524 -681.94048,447.88475 C -675.00567,435.21663 -667.41221,433.087 -659.77875,431.59721 C -640.03378,424.20312 -634.12881,409.88904 -623.46555,397.9541 C -613.68895,386.16806 -606.46036,372.19802 -592.1683,364.28238 z "
         id="path2325"
         sodipodi:nodetypes="ccccccccccccccccccccccccc" />
      <path
         style="fill:#000000;fill-opacity:1;fill-rule:evenodd;stroke:#000000;stroke-width:1px;stroke-linecap:butt;stroke-linejoin:miter;stroke-opacity:1"
         d="M -609.8481,473.25058 C -616.78983,475.3069 -620.96581,479.29923 -620.79546,486.33401 L -609.8481,473.25058 z "
         id="path2327"
         sodipodi:nodetypes="ccc" />
      <path
         style="fill:#000000;fill-opacity:1;fill-rule:evenodd;stroke:#000000;stroke-width:1px;stroke-linecap:butt;stroke-linejoin:miter;stroke-opacity:1"
         d="M -666.98798,535.46363 L -677.66834,547.21202 C -689.6253,541.41222 -690.44661,532.82851 -691.28578,524.24926 C -683.2579,522.44977 -675.18124,521.08926 -666.45397,525.58431 L -666.98798,535.46363 z "
         id="path2329"
         sodipodi:nodetypes="ccccc" />
      <path
         style="fill:#000000;fill-opacity:1;fill-rule:evenodd;stroke:#000000;stroke-width:1px;stroke-linecap:butt;stroke-linejoin:miter;stroke-opacity:1"
         d="M -722.79282,535.46363 C -728.3092,531.55504 -728.3644,522.31174 -724.66188,518.10806 C -728.71876,510.6463 -734.80147,507.2362 -740.94942,503.95659 C -752.12648,515.83728 -748.54451,540.84891 -722.79282,535.46363 z "
         id="path2331"
         sodipodi:nodetypes="cccc" />
      <path
         style="fill:#000000;fill-opacity:1;fill-rule:evenodd;stroke:#000000;stroke-width:1px;stroke-linecap:butt;stroke-linejoin:miter;stroke-opacity:1"
         d="M -715.85059,435.86935 C -716.2529,447.2286 -719.01045,458.77398 -725.72992,460.96818 C -737.12157,459.25505 -738.90749,470.15644 -739.08036,477.25571 C -755.39642,463.46371 -746.47629,427.36589 -715.85059,435.86935 z "
         id="path2333"
         sodipodi:nodetypes="cccc" />
    </g>
    <path
       style="opacity:1;fill:#a7abae;fill-opacity:1;fill-rule:evenodd;stroke:none;stroke-width:7.26096106;stroke-linecap:round;stroke-linejoin:round;stroke-miterlimit:4;stroke-dasharray:none;stroke-dashoffset:0;stroke-opacity:1"
       d="M 54.57908,653.00004 C 79.57914,698.57712 113.68442,738.22934 154.36372,769.42081 L 743.22858,137.5893 L 743.29644,10.145886 L 647.81822,10.145886 L 54.57908,653.00004 z "
       id="path2231"
       sodipodi:nodetypes="cccccc" />
    <g
       transform="translate(835.3354,0.000000)"
       id="g2526">
      <path
         style="fill:none;fill-opacity:0.75;fill-rule:evenodd;stroke:#000000;stroke-width:3.18897629;stroke-linecap:butt;stroke-linejoin:miter;stroke-miterlimit:4;stroke-dasharray:none;stroke-opacity:1"
         d="M -269.62582,210.06291 C -270.01306,192.02946 -273.46145,180.22038 -260.19835,164.43392 C -256.02757,162.61648 -252.32362,159.39856 -246.24568,163.30262 L -224.37394,183.66597 C -221.49492,188.36472 -221.85788,192.41508 -223.99684,196.11024 C -239.83569,212.08653 -246.10331,211.14549 -269.62582,210.06291 z "
         id="path2241"
         sodipodi:nodetypes="cccccc" />
      <g
         id="g2494">
        <path
           sodipodi:nodetypes="ccc"
           id="path2343"
           d="M -270.66054,158.62781 C -261.22458,167.08195 -264.7081,183.43631 -270.66054,195.17612 C -275.5331,182.99335 -280.44299,167.4754 -270.66054,158.62781 z "
           style="fill:#902529;fill-opacity:1;fill-rule:evenodd;stroke:#000000;stroke-width:3.54330707;stroke-linecap:butt;stroke-linejoin:round;stroke-miterlimit:4;stroke-dasharray:none;stroke-opacity:1" />
        <path
           style="fill:#902529;fill-opacity:1;fill-rule:evenodd;stroke:#000000;stroke-width:3.54330873;stroke-linecap:butt;stroke-linejoin:round;stroke-miterlimit:4;stroke-dasharray:none;stroke-opacity:1"
           d="M -266.9198,261.21216 C -276.50571,252.92842 -273.31573,236.51427 -267.57457,224.66969 C -262.48453,236.76322 -257.29742,252.19073 -266.9198,261.21216 z "
           id="path2368"
           sodipodi:nodetypes="ccc" />
        <path
           style="fill:#902529;fill-opacity:1;fill-rule:evenodd;stroke:#000000;stroke-width:3.54330707;stroke-linecap:butt;stroke-linejoin:round;stroke-miterlimit:4;stroke-dasharray:none;stroke-opacity:1"
           d="M -217.77605,208.32766 C -226.23019,217.76362 -242.58455,214.2801 -254.32436,208.32766 C -242.14159,203.4551 -226.62364,198.54521 -217.77605,208.32766 z "
           id="path2404"
           sodipodi:nodetypes="ccc" />
        <path
           sodipodi:nodetypes="ccc"
           id="path2420"
           d="M -320.36036,212.0684 C -312.07662,202.48249 -295.66247,205.67247 -283.81789,211.41363 C -295.91142,216.50367 -311.33893,221.69078 -320.36036,212.0684 z "
           style="fill:#902529;fill-opacity:1;fill-rule:evenodd;stroke:#000000;stroke-width:3.54330873;stroke-linecap:butt;stroke-linejoin:round;stroke-miterlimit:4;stroke-dasharray:none;stroke-opacity:1" />
      </g>
      <g
         id="g2500">
        <g
           id="g2280">
          <path
             sodipodi:nodetypes="cccccc"
             id="path2278"
             d="M -269.62582,210.06291 C -270.01306,192.02946 -273.46145,180.22038 -260.19835,164.43392 C -257.31033,160.94889 -250.39948,159.27028 -246.24568,163.30262 L -224.37394,183.66597 C -221.11009,187.08196 -221.34477,192.79991 -223.99684,196.11024 C -239.83569,212.08653 -246.10331,211.14549 -269.62582,210.06291 z "
             style="fill:#cd3824;fill-opacity:1;fill-rule:evenodd;stroke:#000000;stroke-width:3.18897629;stroke-linecap:butt;stroke-linejoin:miter;stroke-miterlimit:4;stroke-dasharray:none;stroke-opacity:1" />
          <g
             id="g2249">
            <path
               sodipodi:nodetypes="cc"
               id="path2243"
               d="M -258.38858,186.79636 L -264.53963,199.57987"
               style="fill:none;fill-opacity:0.75;fill-rule:evenodd;stroke:#000000;stroke-width:3.54330707;stroke-linecap:round;stroke-linejoin:miter;stroke-miterlimit:4;stroke-dasharray:none;stroke-opacity:1" />
            <path
               sodipodi:nodetypes="cc"
               id="path2245"
               d="M -252.59377,192.15534 L -261.18746,201.50322"
               style="fill:none;fill-opacity:0.75;fill-rule:evenodd;stroke:#000000;stroke-width:3.54330707;stroke-linecap:round;stroke-linejoin:miter;stroke-miterlimit:4;stroke-dasharray:none;stroke-opacity:1" />
            <path
               sodipodi:nodetypes="cc"
               id="path2247"
               d="M -246.8577,197.53518 L -259.06319,204.41956"
               style="fill:none;fill-opacity:0.75;fill-rule:evenodd;stroke:#000000;stroke-width:3.54330707;stroke-linecap:round;stroke-linejoin:miter;stroke-miterlimit:4;stroke-dasharray:none;stroke-opacity:1" />
          </g>
        </g>
        <g
           transform="matrix(-0.999840,1.791511e-2,-1.791511e-2,-0.999840,-534.6952,424.6635)"
           id="g2370">
          <path
             style="fill:#cd3824;fill-opacity:1;fill-rule:evenodd;stroke:#000000;stroke-width:3.18897629;stroke-linecap:butt;stroke-linejoin:miter;stroke-miterlimit:4;stroke-dasharray:none;stroke-opacity:1"
             d="M -269.62582,210.06291 C -270.01306,192.02946 -273.46145,180.22038 -260.19835,164.43392 C -257.31033,160.94889 -250.39948,159.27028 -246.24568,163.30262 L -224.37394,183.66597 C -221.11009,187.08196 -221.34477,192.79991 -223.99684,196.11024 C -239.83569,212.08653 -246.10331,211.14549 -269.62582,210.06291 z "
             id="path2372"
             sodipodi:nodetypes="cccccc" />
          <g
             id="g2374">
            <path
               style="fill:none;fill-opacity:0.75;fill-rule:evenodd;stroke:#000000;stroke-width:3.54330707;stroke-linecap:round;stroke-linejoin:miter;stroke-miterlimit:4;stroke-dasharray:none;stroke-opacity:1"
               d="M -258.38858,186.79636 L -264.53963,199.57987"
               id="path2376"
               sodipodi:nodetypes="cc" />
            <path
               style="fill:none;fill-opacity:0.75;fill-rule:evenodd;stroke:#000000;stroke-width:3.54330707;stroke-linecap:round;stroke-linejoin:miter;stroke-miterlimit:4;stroke-dasharray:none;stroke-opacity:1"
               d="M -252.59377,192.15534 L -261.18746,201.50322"
               id="path2378"
               sodipodi:nodetypes="cc" />
            <path
               style="fill:none;fill-opacity:0.75;fill-rule:evenodd;stroke:#000000;stroke-width:3.54330707;stroke-linecap:round;stroke-linejoin:miter;stroke-miterlimit:4;stroke-dasharray:none;stroke-opacity:1"
               d="M -246.8577,197.53518 L -259.06319,204.41956"
               id="path2380"
               sodipodi:nodetypes="cc" />
          </g>
        </g>
        <g
           transform="matrix(0.000000,1.000000,-1.000000,0.000000,-59.14824,478.9882)"
           id="g2406">
          <path
             style="fill:#cd3824;fill-opacity:1;fill-rule:evenodd;stroke:#000000;stroke-width:3.18897629;stroke-linecap:butt;stroke-linejoin:miter;stroke-miterlimit:4;stroke-dasharray:none;stroke-opacity:1"
             d="M -269.62582,210.06291 C -270.01306,192.02946 -273.46145,180.22038 -260.19835,164.43392 C -257.31033,160.94889 -250.39948,159.27028 -246.24568,163.30262 L -224.37394,183.66597 C -221.11009,187.08196 -221.34477,192.79991 -223.99684,196.11024 C -239.83569,212.08653 -246.10331,211.14549 -269.62582,210.06291 z "
             id="path2408"
             sodipodi:nodetypes="cccccc" />
          <g
             id="g2410">
            <path
               style="fill:none;fill-opacity:0.75;fill-rule:evenodd;stroke:#000000;stroke-width:3.54330707;stroke-linecap:round;stroke-linejoin:miter;stroke-miterlimit:4;stroke-dasharray:none;stroke-opacity:1"
               d="M -258.38858,186.79636 L -264.53963,199.57987"
               id="path2412"
               sodipodi:nodetypes="cc" />
            <path
               style="fill:none;fill-opacity:0.75;fill-rule:evenodd;stroke:#000000;stroke-width:3.54330707;stroke-linecap:round;stroke-linejoin:miter;stroke-miterlimit:4;stroke-dasharray:none;stroke-opacity:1"
               d="M -252.59377,192.15534 L -261.18746,201.50322"
               id="path2414"
               sodipodi:nodetypes="cc" />
            <path
               style="fill:none;fill-opacity:0.75;fill-rule:evenodd;stroke:#000000;stroke-width:3.54330707;stroke-linecap:round;stroke-linejoin:miter;stroke-miterlimit:4;stroke-dasharray:none;stroke-opacity:1"
               d="M -246.8577,197.53518 L -259.06319,204.41956"
               id="path2416"
               sodipodi:nodetypes="cc" />
          </g>
        </g>
        <g
           transform="matrix(-1.791511e-2,-0.999840,0.999840,-1.791511e-2,-483.8117,-55.70700)"
           id="g2422">
          <path
             sodipodi:nodetypes="cccccc"
             id="path2424"
             d="M -269.62582,210.06291 C -270.01306,192.02946 -273.46145,180.22038 -260.19835,164.43392 C -257.31033,160.94889 -250.39948,159.27028 -246.24568,163.30262 L -224.37394,183.66597 C -221.11009,187.08196 -221.34477,192.79991 -223.99684,196.11024 C -239.83569,212.08653 -246.10331,211.14549 -269.62582,210.06291 z "
             style="fill:#cd3824;fill-opacity:1;fill-rule:evenodd;stroke:#000000;stroke-width:3.18897629;stroke-linecap:butt;stroke-linejoin:miter;stroke-miterlimit:4;stroke-dasharray:none;stroke-opacity:1" />
          <g
             id="g2426">
            <path
               sodipodi:nodetypes="cc"
               id="path2428"
               d="M -258.38858,186.79636 L -264.53963,199.57987"
               style="fill:none;fill-opacity:0.75;fill-rule:evenodd;stroke:#000000;stroke-width:3.54330707;stroke-linecap:round;stroke-linejoin:miter;stroke-miterlimit:4;stroke-dasharray:none;stroke-opacity:1" />
            <path
               sodipodi:nodetypes="cc"
               id="path2430"
               d="M -252.59377,192.15534 L -261.18746,201.50322"
               style="fill:none;fill-opacity:0.75;fill-rule:evenodd;stroke:#000000;stroke-width:3.54330707;stroke-linecap:round;stroke-linejoin:miter;stroke-miterlimit:4;stroke-dasharray:none;stroke-opacity:1" />
            <path
               sodipodi:nodetypes="cc"
               id="path2432"
               d="M -246.8577,197.53518 L -259.06319,204.41956"
               style="fill:none;fill-opacity:0.75;fill-rule:evenodd;stroke:#000000;stroke-width:3.54330707;stroke-linecap:round;stroke-linejoin:miter;stroke-miterlimit:4;stroke-dasharray:none;stroke-opacity:1" />
          </g>
        </g>
      </g>
      <path
         sodipodi:type="arc"
         style="opacity:1;fill:#dd342f;fill-opacity:1;fill-rule:evenodd;stroke:#000000;stroke-width:3.2999568;stroke-linecap:round;stroke-linejoin:round;stroke-miterlimit:4;stroke-dasharray:none;stroke-dashoffset:0;stroke-opacity:1"
         id="path2239"
         sodipodi:cx="-267.92886"
         sodipodi:cy="211.1942"
         sodipodi:rx="8.8618279"
         sodipodi:ry="9.0503769"
         d="M -259.06704 211.1942 A 8.8618279 9.0503769 0 1 1  -276.79069,211.1942 A 8.8618279 9.0503769 0 1 1  -259.06704 211.1942 z"
         transform="matrix(1.085106,0.000000,0.000000,1.062500,21.67116,-14.51948)" />
    </g>
    <g
       id="g2564"
       transform="translate(663.2928,187.7367)">
      <path
         sodipodi:nodetypes="cccccc"
         id="path2566"
         d="M -269.62582,210.06291 C -270.01306,192.02946 -273.46145,180.22038 -260.19835,164.43392 C -256.02757,162.61648 -252.32362,159.39856 -246.24568,163.30262 L -224.37394,183.66597 C -221.49492,188.36472 -221.85788,192.41508 -223.99684,196.11024 C -239.83569,212.08653 -246.10331,211.14549 -269.62582,210.06291 z "
         style="fill:none;fill-opacity:0.75;fill-rule:evenodd;stroke:#000000;stroke-width:3.18897629;stroke-linecap:butt;stroke-linejoin:miter;stroke-miterlimit:4;stroke-dasharray:none;stroke-opacity:1" />
      <g
         id="g2568">
        <path
           style="fill:#902529;fill-opacity:1;fill-rule:evenodd;stroke:#000000;stroke-width:3.54330707;stroke-linecap:butt;stroke-linejoin:round;stroke-miterlimit:4;stroke-dasharray:none;stroke-opacity:1"
           d="M -270.66054,158.62781 C -261.22458,167.08195 -264.7081,183.43631 -270.66054,195.17612 C -275.5331,182.99335 -280.44299,167.4754 -270.66054,158.62781 z "
           id="path2570"
           sodipodi:nodetypes="ccc" />
        <path
           sodipodi:nodetypes="ccc"
           id="path2572"
           d="M -266.9198,261.21216 C -276.50571,252.92842 -273.31573,236.51427 -267.57457,224.66969 C -262.48453,236.76322 -257.29742,252.19073 -266.9198,261.21216 z "
           style="fill:#902529;fill-opacity:1;fill-rule:evenodd;stroke:#000000;stroke-width:3.54330873;stroke-linecap:butt;stroke-linejoin:round;stroke-miterlimit:4;stroke-dasharray:none;stroke-opacity:1" />
        <path
           sodipodi:nodetypes="ccc"
           id="path2574"
           d="M -217.77605,208.32766 C -226.23019,217.76362 -242.58455,214.2801 -254.32436,208.32766 C -242.14159,203.4551 -226.62364,198.54521 -217.77605,208.32766 z "
           style="fill:#902529;fill-opacity:1;fill-rule:evenodd;stroke:#000000;stroke-width:3.54330707;stroke-linecap:butt;stroke-linejoin:round;stroke-miterlimit:4;stroke-dasharray:none;stroke-opacity:1" />
        <path
           style="fill:#902529;fill-opacity:1;fill-rule:evenodd;stroke:#000000;stroke-width:3.54330873;stroke-linecap:butt;stroke-linejoin:round;stroke-miterlimit:4;stroke-dasharray:none;stroke-opacity:1"
           d="M -320.36036,212.0684 C -312.07662,202.48249 -295.66247,205.67247 -283.81789,211.41363 C -295.91142,216.50367 -311.33893,221.69078 -320.36036,212.0684 z "
           id="path2576"
           sodipodi:nodetypes="ccc" />
      </g>
      <g
         id="g2578">
        <g
           id="g2580">
          <path
             style="fill:#cd3824;fill-opacity:1;fill-rule:evenodd;stroke:#000000;stroke-width:3.18897629;stroke-linecap:butt;stroke-linejoin:miter;stroke-miterlimit:4;stroke-dasharray:none;stroke-opacity:1"
             d="M -269.62582,210.06291 C -270.01306,192.02946 -273.46145,180.22038 -260.19835,164.43392 C -257.31033,160.94889 -250.39948,159.27028 -246.24568,163.30262 L -224.37394,183.66597 C -221.11009,187.08196 -221.34477,192.79991 -223.99684,196.11024 C -239.83569,212.08653 -246.10331,211.14549 -269.62582,210.06291 z "
             id="path2582"
             sodipodi:nodetypes="cccccc" />
          <g
             id="g2584">
            <path
               style="fill:none;fill-opacity:0.75;fill-rule:evenodd;stroke:#000000;stroke-width:3.54330707;stroke-linecap:round;stroke-linejoin:miter;stroke-miterlimit:4;stroke-dasharray:none;stroke-opacity:1"
               d="M -258.38858,186.79636 L -264.53963,199.57987"
               id="path2586"
               sodipodi:nodetypes="cc" />
            <path
               style="fill:none;fill-opacity:0.75;fill-rule:evenodd;stroke:#000000;stroke-width:3.54330707;stroke-linecap:round;stroke-linejoin:miter;stroke-miterlimit:4;stroke-dasharray:none;stroke-opacity:1"
               d="M -252.59377,192.15534 L -261.18746,201.50322"
               id="path2588"
               sodipodi:nodetypes="cc" />
            <path
               style="fill:none;fill-opacity:0.75;fill-rule:evenodd;stroke:#000000;stroke-width:3.54330707;stroke-linecap:round;stroke-linejoin:miter;stroke-miterlimit:4;stroke-dasharray:none;stroke-opacity:1"
               d="M -246.8577,197.53518 L -259.06319,204.41956"
               id="path2590"
               sodipodi:nodetypes="cc" />
          </g>
        </g>
        <g
           id="g2592"
           transform="matrix(-0.999840,1.791511e-2,-1.791511e-2,-0.999840,-534.6952,424.6635)">
          <path
             sodipodi:nodetypes="cccccc"
             id="path2594"
             d="M -269.62582,210.06291 C -270.01306,192.02946 -273.46145,180.22038 -260.19835,164.43392 C -257.31033,160.94889 -250.39948,159.27028 -246.24568,163.30262 L -224.37394,183.66597 C -221.11009,187.08196 -221.34477,192.79991 -223.99684,196.11024 C -239.83569,212.08653 -246.10331,211.14549 -269.62582,210.06291 z "
             style="fill:#cd3824;fill-opacity:1;fill-rule:evenodd;stroke:#000000;stroke-width:3.18897629;stroke-linecap:butt;stroke-linejoin:miter;stroke-miterlimit:4;stroke-dasharray:none;stroke-opacity:1" />
          <g
             id="g2596">
            <path
               sodipodi:nodetypes="cc"
               id="path2598"
               d="M -258.38858,186.79636 L -264.53963,199.57987"
               style="fill:none;fill-opacity:0.75;fill-rule:evenodd;stroke:#000000;stroke-width:3.54330707;stroke-linecap:round;stroke-linejoin:miter;stroke-miterlimit:4;stroke-dasharray:none;stroke-opacity:1" />
            <path
               sodipodi:nodetypes="cc"
               id="path2600"
               d="M -252.59377,192.15534 L -261.18746,201.50322"
               style="fill:none;fill-opacity:0.75;fill-rule:evenodd;stroke:#000000;stroke-width:3.54330707;stroke-linecap:round;stroke-linejoin:miter;stroke-miterlimit:4;stroke-dasharray:none;stroke-opacity:1" />
            <path
               sodipodi:nodetypes="cc"
               id="path2602"
               d="M -246.8577,197.53518 L -259.06319,204.41956"
               style="fill:none;fill-opacity:0.75;fill-rule:evenodd;stroke:#000000;stroke-width:3.54330707;stroke-linecap:round;stroke-linejoin:miter;stroke-miterlimit:4;stroke-dasharray:none;stroke-opacity:1" />
          </g>
        </g>
        <g
           id="g2604"
           transform="matrix(0.000000,1.000000,-1.000000,0.000000,-59.14824,478.9882)">
          <path
             sodipodi:nodetypes="cccccc"
             id="path2606"
             d="M -269.62582,210.06291 C -270.01306,192.02946 -273.46145,180.22038 -260.19835,164.43392 C -257.31033,160.94889 -250.39948,159.27028 -246.24568,163.30262 L -224.37394,183.66597 C -221.11009,187.08196 -221.34477,192.79991 -223.99684,196.11024 C -239.83569,212.08653 -246.10331,211.14549 -269.62582,210.06291 z "
             style="fill:#cd3824;fill-opacity:1;fill-rule:evenodd;stroke:#000000;stroke-width:3.18897629;stroke-linecap:butt;stroke-linejoin:miter;stroke-miterlimit:4;stroke-dasharray:none;stroke-opacity:1" />
          <g
             id="g2608">
            <path
               sodipodi:nodetypes="cc"
               id="path2610"
               d="M -258.38858,186.79636 L -264.53963,199.57987"
               style="fill:none;fill-opacity:0.75;fill-rule:evenodd;stroke:#000000;stroke-width:3.54330707;stroke-linecap:round;stroke-linejoin:miter;stroke-miterlimit:4;stroke-dasharray:none;stroke-opacity:1" />
            <path
               sodipodi:nodetypes="cc"
               id="path2612"
               d="M -252.59377,192.15534 L -261.18746,201.50322"
               style="fill:none;fill-opacity:0.75;fill-rule:evenodd;stroke:#000000;stroke-width:3.54330707;stroke-linecap:round;stroke-linejoin:miter;stroke-miterlimit:4;stroke-dasharray:none;stroke-opacity:1" />
            <path
               sodipodi:nodetypes="cc"
               id="path2614"
               d="M -246.8577,197.53518 L -259.06319,204.41956"
               style="fill:none;fill-opacity:0.75;fill-rule:evenodd;stroke:#000000;stroke-width:3.54330707;stroke-linecap:round;stroke-linejoin:miter;stroke-miterlimit:4;stroke-dasharray:none;stroke-opacity:1" />
          </g>
        </g>
        <g
           id="g2616"
           transform="matrix(-1.791511e-2,-0.999840,0.999840,-1.791511e-2,-483.8117,-55.70700)">
          <path
             style="fill:#cd3824;fill-opacity:1;fill-rule:evenodd;stroke:#000000;stroke-width:3.18897629;stroke-linecap:butt;stroke-linejoin:miter;stroke-miterlimit:4;stroke-dasharray:none;stroke-opacity:1"
             d="M -269.62582,210.06291 C -270.01306,192.02946 -273.46145,180.22038 -260.19835,164.43392 C -257.31033,160.94889 -250.39948,159.27028 -246.24568,163.30262 L -224.37394,183.66597 C -221.11009,187.08196 -221.34477,192.79991 -223.99684,196.11024 C -239.83569,212.08653 -246.10331,211.14549 -269.62582,210.06291 z "
             id="path2618"
             sodipodi:nodetypes="cccccc" />
          <g
             id="g2620">
            <path
               style="fill:none;fill-opacity:0.75;fill-rule:evenodd;stroke:#000000;stroke-width:3.54330707;stroke-linecap:round;stroke-linejoin:miter;stroke-miterlimit:4;stroke-dasharray:none;stroke-opacity:1"
               d="M -258.38858,186.79636 L -264.53963,199.57987"
               id="path2622"
               sodipodi:nodetypes="cc" />
            <path
               style="fill:none;fill-opacity:0.75;fill-rule:evenodd;stroke:#000000;stroke-width:3.54330707;stroke-linecap:round;stroke-linejoin:miter;stroke-miterlimit:4;stroke-dasharray:none;stroke-opacity:1"
               d="M -252.59377,192.15534 L -261.18746,201.50322"
               id="path2624"
               sodipodi:nodetypes="cc" />
            <path
               style="fill:none;fill-opacity:0.75;fill-rule:evenodd;stroke:#000000;stroke-width:3.54330707;stroke-linecap:round;stroke-linejoin:miter;stroke-miterlimit:4;stroke-dasharray:none;stroke-opacity:1"
               d="M -246.8577,197.53518 L -259.06319,204.41956"
               id="path2626"
               sodipodi:nodetypes="cc" />
          </g>
        </g>
      </g>
      <path
         transform="matrix(1.085106,0.000000,0.000000,1.062500,21.67116,-14.51948)"
         d="M -259.06704 211.1942 A 8.8618279 9.0503769 0 1 1  -276.79069,211.1942 A 8.8618279 9.0503769 0 1 1  -259.06704 211.1942 z"
         sodipodi:ry="9.0503769"
         sodipodi:rx="8.8618279"
         sodipodi:cy="211.1942"
         sodipodi:cx="-267.92886"
         id="path2628"
         style="opacity:1;fill:#dd342f;fill-opacity:1;fill-rule:evenodd;stroke:#000000;stroke-width:3.2999568;stroke-linecap:round;stroke-linejoin:round;stroke-miterlimit:4;stroke-dasharray:none;stroke-dashoffset:0;stroke-opacity:1"
         sodipodi:type="arc" />
    </g>
    <g
       transform="translate(485.5154,380.6979)"
       id="g2630">
      <path
         style="fill:none;fill-opacity:0.75;fill-rule:evenodd;stroke:#000000;stroke-width:3.18897629;stroke-linecap:butt;stroke-linejoin:miter;stroke-miterlimit:4;stroke-dasharray:none;stroke-opacity:1"
         d="M -269.62582,210.06291 C -270.01306,192.02946 -273.46145,180.22038 -260.19835,164.43392 C -256.02757,162.61648 -252.32362,159.39856 -246.24568,163.30262 L -224.37394,183.66597 C -221.49492,188.36472 -221.85788,192.41508 -223.99684,196.11024 C -239.83569,212.08653 -246.10331,211.14549 -269.62582,210.06291 z "
         id="path2632"
         sodipodi:nodetypes="cccccc" />
      <g
         id="g2634">
        <path
           sodipodi:nodetypes="ccc"
           id="path2636"
           d="M -270.66054,158.62781 C -261.22458,167.08195 -264.7081,183.43631 -270.66054,195.17612 C -275.5331,182.99335 -280.44299,167.4754 -270.66054,158.62781 z "
           style="fill:#902529;fill-opacity:1;fill-rule:evenodd;stroke:#000000;stroke-width:3.54330707;stroke-linecap:butt;stroke-linejoin:round;stroke-miterlimit:4;stroke-dasharray:none;stroke-opacity:1" />
        <path
           style="fill:#902529;fill-opacity:1;fill-rule:evenodd;stroke:#000000;stroke-width:3.54330873;stroke-linecap:butt;stroke-linejoin:round;stroke-miterlimit:4;stroke-dasharray:none;stroke-opacity:1"
           d="M -266.9198,261.21216 C -276.50571,252.92842 -273.31573,236.51427 -267.57457,224.66969 C -262.48453,236.76322 -257.29742,252.19073 -266.9198,261.21216 z "
           id="path2638"
           sodipodi:nodetypes="ccc" />
        <path
           style="fill:#902529;fill-opacity:1;fill-rule:evenodd;stroke:#000000;stroke-width:3.54330707;stroke-linecap:butt;stroke-linejoin:round;stroke-miterlimit:4;stroke-dasharray:none;stroke-opacity:1"
           d="M -217.77605,208.32766 C -226.23019,217.76362 -242.58455,214.2801 -254.32436,208.32766 C -242.14159,203.4551 -226.62364,198.54521 -217.77605,208.32766 z "
           id="path2640"
           sodipodi:nodetypes="ccc" />
        <path
           sodipodi:nodetypes="ccc"
           id="path2642"
           d="M -320.36036,212.0684 C -312.07662,202.48249 -295.66247,205.67247 -283.81789,211.41363 C -295.91142,216.50367 -311.33893,221.69078 -320.36036,212.0684 z "
           style="fill:#902529;fill-opacity:1;fill-rule:evenodd;stroke:#000000;stroke-width:3.54330873;stroke-linecap:butt;stroke-linejoin:round;stroke-miterlimit:4;stroke-dasharray:none;stroke-opacity:1" />
      </g>
      <g
         id="g2644">
        <g
           id="g2646">
          <path
             sodipodi:nodetypes="cccccc"
             id="path2648"
             d="M -269.62582,210.06291 C -270.01306,192.02946 -273.46145,180.22038 -260.19835,164.43392 C -257.31033,160.94889 -250.39948,159.27028 -246.24568,163.30262 L -224.37394,183.66597 C -221.11009,187.08196 -221.34477,192.79991 -223.99684,196.11024 C -239.83569,212.08653 -246.10331,211.14549 -269.62582,210.06291 z "
             style="fill:#cd3824;fill-opacity:1;fill-rule:evenodd;stroke:#000000;stroke-width:3.18897629;stroke-linecap:butt;stroke-linejoin:miter;stroke-miterlimit:4;stroke-dasharray:none;stroke-opacity:1" />
          <g
             id="g2650">
            <path
               sodipodi:nodetypes="cc"
               id="path2652"
               d="M -258.38858,186.79636 L -264.53963,199.57987"
               style="fill:none;fill-opacity:0.75;fill-rule:evenodd;stroke:#000000;stroke-width:3.54330707;stroke-linecap:round;stroke-linejoin:miter;stroke-miterlimit:4;stroke-dasharray:none;stroke-opacity:1" />
            <path
               sodipodi:nodetypes="cc"
               id="path2654"
               d="M -252.59377,192.15534 L -261.18746,201.50322"
               style="fill:none;fill-opacity:0.75;fill-rule:evenodd;stroke:#000000;stroke-width:3.54330707;stroke-linecap:round;stroke-linejoin:miter;stroke-miterlimit:4;stroke-dasharray:none;stroke-opacity:1" />
            <path
               sodipodi:nodetypes="cc"
               id="path2656"
               d="M -246.8577,197.53518 L -259.06319,204.41956"
               style="fill:none;fill-opacity:0.75;fill-rule:evenodd;stroke:#000000;stroke-width:3.54330707;stroke-linecap:round;stroke-linejoin:miter;stroke-miterlimit:4;stroke-dasharray:none;stroke-opacity:1" />
          </g>
        </g>
        <g
           transform="matrix(-0.999840,1.791511e-2,-1.791511e-2,-0.999840,-534.6952,424.6635)"
           id="g2658">
          <path
             style="fill:#cd3824;fill-opacity:1;fill-rule:evenodd;stroke:#000000;stroke-width:3.18897629;stroke-linecap:butt;stroke-linejoin:miter;stroke-miterlimit:4;stroke-dasharray:none;stroke-opacity:1"
             d="M -269.62582,210.06291 C -270.01306,192.02946 -273.46145,180.22038 -260.19835,164.43392 C -257.31033,160.94889 -250.39948,159.27028 -246.24568,163.30262 L -224.37394,183.66597 C -221.11009,187.08196 -221.34477,192.79991 -223.99684,196.11024 C -239.83569,212.08653 -246.10331,211.14549 -269.62582,210.06291 z "
             id="path2660"
             sodipodi:nodetypes="cccccc" />
          <g
             id="g2662">
            <path
               style="fill:none;fill-opacity:0.75;fill-rule:evenodd;stroke:#000000;stroke-width:3.54330707;stroke-linecap:round;stroke-linejoin:miter;stroke-miterlimit:4;stroke-dasharray:none;stroke-opacity:1"
               d="M -258.38858,186.79636 L -264.53963,199.57987"
               id="path2664"
               sodipodi:nodetypes="cc" />
            <path
               style="fill:none;fill-opacity:0.75;fill-rule:evenodd;stroke:#000000;stroke-width:3.54330707;stroke-linecap:round;stroke-linejoin:miter;stroke-miterlimit:4;stroke-dasharray:none;stroke-opacity:1"
               d="M -252.59377,192.15534 L -261.18746,201.50322"
               id="path2666"
               sodipodi:nodetypes="cc" />
            <path
               style="fill:none;fill-opacity:0.75;fill-rule:evenodd;stroke:#000000;stroke-width:3.54330707;stroke-linecap:round;stroke-linejoin:miter;stroke-miterlimit:4;stroke-dasharray:none;stroke-opacity:1"
               d="M -246.8577,197.53518 L -259.06319,204.41956"
               id="path2668"
               sodipodi:nodetypes="cc" />
          </g>
        </g>
        <g
           transform="matrix(0.000000,1.000000,-1.000000,0.000000,-59.14824,478.9882)"
           id="g2670">
          <path
             style="fill:#cd3824;fill-opacity:1;fill-rule:evenodd;stroke:#000000;stroke-width:3.18897629;stroke-linecap:butt;stroke-linejoin:miter;stroke-miterlimit:4;stroke-dasharray:none;stroke-opacity:1"
             d="M -269.62582,210.06291 C -270.01306,192.02946 -273.46145,180.22038 -260.19835,164.43392 C -257.31033,160.94889 -250.39948,159.27028 -246.24568,163.30262 L -224.37394,183.66597 C -221.11009,187.08196 -221.34477,192.79991 -223.99684,196.11024 C -239.83569,212.08653 -246.10331,211.14549 -269.62582,210.06291 z "
             id="path2672"
             sodipodi:nodetypes="cccccc" />
          <g
             id="g2674">
            <path
               style="fill:none;fill-opacity:0.75;fill-rule:evenodd;stroke:#000000;stroke-width:3.54330707;stroke-linecap:round;stroke-linejoin:miter;stroke-miterlimit:4;stroke-dasharray:none;stroke-opacity:1"
               d="M -258.38858,186.79636 L -264.53963,199.57987"
               id="path2676"
               sodipodi:nodetypes="cc" />
            <path
               style="fill:none;fill-opacity:0.75;fill-rule:evenodd;stroke:#000000;stroke-width:3.54330707;stroke-linecap:round;stroke-linejoin:miter;stroke-miterlimit:4;stroke-dasharray:none;stroke-opacity:1"
               d="M -252.59377,192.15534 L -261.18746,201.50322"
               id="path2678"
               sodipodi:nodetypes="cc" />
            <path
               style="fill:none;fill-opacity:0.75;fill-rule:evenodd;stroke:#000000;stroke-width:3.54330707;stroke-linecap:round;stroke-linejoin:miter;stroke-miterlimit:4;stroke-dasharray:none;stroke-opacity:1"
               d="M -246.8577,197.53518 L -259.06319,204.41956"
               id="path2680"
               sodipodi:nodetypes="cc" />
          </g>
        </g>
        <g
           transform="matrix(-1.791511e-2,-0.999840,0.999840,-1.791511e-2,-483.8117,-55.70700)"
           id="g2682">
          <path
             sodipodi:nodetypes="cccccc"
             id="path2684"
             d="M -269.62582,210.06291 C -270.01306,192.02946 -273.46145,180.22038 -260.19835,164.43392 C -257.31033,160.94889 -250.39948,159.27028 -246.24568,163.30262 L -224.37394,183.66597 C -221.11009,187.08196 -221.34477,192.79991 -223.99684,196.11024 C -239.83569,212.08653 -246.10331,211.14549 -269.62582,210.06291 z "
             style="fill:#cd3824;fill-opacity:1;fill-rule:evenodd;stroke:#000000;stroke-width:3.18897629;stroke-linecap:butt;stroke-linejoin:miter;stroke-miterlimit:4;stroke-dasharray:none;stroke-opacity:1" />
          <g
             id="g2686">
            <path
               sodipodi:nodetypes="cc"
               id="path2688"
               d="M -258.38858,186.79636 L -264.53963,199.57987"
               style="fill:none;fill-opacity:0.75;fill-rule:evenodd;stroke:#000000;stroke-width:3.54330707;stroke-linecap:round;stroke-linejoin:miter;stroke-miterlimit:4;stroke-dasharray:none;stroke-opacity:1" />
            <path
               sodipodi:nodetypes="cc"
               id="path2690"
               d="M -252.59377,192.15534 L -261.18746,201.50322"
               style="fill:none;fill-opacity:0.75;fill-rule:evenodd;stroke:#000000;stroke-width:3.54330707;stroke-linecap:round;stroke-linejoin:miter;stroke-miterlimit:4;stroke-dasharray:none;stroke-opacity:1" />
            <path
               sodipodi:nodetypes="cc"
               id="path2692"
               d="M -246.8577,197.53518 L -259.06319,204.41956"
               style="fill:none;fill-opacity:0.75;fill-rule:evenodd;stroke:#000000;stroke-width:3.54330707;stroke-linecap:round;stroke-linejoin:miter;stroke-miterlimit:4;stroke-dasharray:none;stroke-opacity:1" />
          </g>
        </g>
      </g>
      <path
         sodipodi:type="arc"
         style="opacity:1;fill:#dd342f;fill-opacity:1;fill-rule:evenodd;stroke:#000000;stroke-width:3.2999568;stroke-linecap:round;stroke-linejoin:round;stroke-miterlimit:4;stroke-dasharray:none;stroke-dashoffset:0;stroke-opacity:1"
         id="path2694"
         sodipodi:cx="-267.92886"
         sodipodi:cy="211.1942"
         sodipodi:rx="8.8618279"
         sodipodi:ry="9.0503769"
         d="M -259.06704 211.1942 A 8.8618279 9.0503769 0 1 1  -276.79069,211.1942 A 8.8618279 9.0503769 0 1 1  -259.06704 211.1942 z"
         transform="matrix(1.085106,0.000000,0.000000,1.062500,21.67116,-14.51948)" />
    </g>
  </g>
</svg>
