<?xml version="1.0" encoding="UTF-8" standalone="no"?>
<!-- Creator: CorelDRAW -->
<svg
        xmlns:dc="http://purl.org/dc/elements/1.1/"
        xmlns:cc="http://web.resource.org/cc/"
        xmlns:rdf="http://www.w3.org/1999/02/22-rdf-syntax-ns#"
        xmlns="http://www.w3.org/2000/svg"
        xmlns:sodipodi="http://sodipodi.sourceforge.net/DTD/sodipodi-0.dtd"
        xmlns:inkscape="http://www.inkscape.org/namespaces/inkscape"
        xml:space="preserve"
        width="744.09448"
        height="837.31897"
        style="shape-rendering:geometricPrecision; text-rendering:geometricPrecision; image-rendering:optimizeQuality; fill-rule:evenodd; clip-rule:evenodd"
        viewBox="0 0 210 297"
        id="svg2"
        sodipodi:version="0.32"
        inkscape:version="0.45.1"
        sodipodi:docname="1a.svg"
        inkscape:output_extension="org.inkscape.output.svg.inkscape"
        sodipodi:docbase="C:\Users\Mistrz\Desktop"
        version="1.0"><metadata
   id="metadata27"><rdf:RDF><cc:Work
       rdf:about=""><dc:format>image/svg+xml</dc:format><dc:type
         rdf:resource="http://purl.org/dc/dcmitype/StillImage" /></cc:Work></rdf:RDF></metadata><sodipodi:namedview
   inkscape:window-height="480"
   inkscape:window-width="640"
   inkscape:pageshadow="2"
   inkscape:pageopacity="0.0"
   guidetolerance="10.0"
   gridtolerance="10.0"
   objecttolerance="10.0"
   borderopacity="1.0"
   bordercolor="#666666"
   pagecolor="#ffffff"
   id="base" />
 <defs
   id="defs4">
  <style
   type="text/css"
   id="style6">
   
    .fil4 {fill:#009D4B}
    .fil1 {fill:#D81E04}
    .fil3 {fill:#FCD016}
    .fil2 {fill:white}
    .fil0 {fill:black}
   
  </style>
 </defs>
 <g
   id="Warstwa_x0020_1"
   transform="matrix(1.256664,0,0,1.256664,-23.258811,-27.037)">
  <metadata
   id="CorelCorpID_0Corel-Layer" />
  <g
   id="_73363552">
   <path
   id="_73518024"
   class="fil0"
   d="M 101.642,257.565 L 100.2876,254.8787 L 98.4849,252.4817 L 96.2877,250.4067 L 93.7144,248.6264 L 90.7927,247.0998 L 87.5673,245.8099 L 84.0526,244.7264 L 80.288,243.8296 L 76.3065,243.0867 L 72.1291,242.4713 L 67.807,241.9506 L 63.3639,241.5154 L 58.8249,241.0986 L 54.2228,240.7133 L 49.5877,240.3057 L 44.9632,239.8613 L 40.3742,239.3366 L 35.8484,238.7107 L 31.4224,237.9507 L 27.1148,237.0395 L 22.9794,235.9389 L 19.0203,234.6161 L 15.2873,233.0448 L 11.8081,231.1829 L 8.6102,229.0265 L 5.7385,226.5256 L 3.2113,223.6538 L 1.068,220.3916 L -0.6493,216.7085 L -1.909,212.5784 L -2.6874,207.9842 L -2.9504,202.8969 L -2.9504,21.5449 C 67.0417,21.5449 137.0426,21.5449 207.0496,21.5449 L 207.0496,202.8969 L 206.7866,207.9842 L 205.999,212.5784 L 204.7433,216.7085 L 203.0221,220.3916 L 200.8841,223.6538 L 198.3608,226.5256 L 195.4798,229.0265 L 192.2912,231.1829 L 188.8067,233.0448 L 185.075,234.6161 L 181.1159,235.9389 L 176.9753,237.0395 L 172.6716,237.9507 L 168.2456,238.7107 L 163.7158,239.3366 L 159.1308,239.8613 L 154.5063,240.3057 L 149.8726,240.7133 L 145.2704,241.0986 L 140.7301,241.5154 L 136.287,241.9506 L 131.9649,242.4713 L 127.7928,243.0867 L 123.8073,243.8296 L 120.0467,244.7264 L 116.528,245.8099 L 113.3026,247.0998 L 110.3809,248.6264 L 107.8116,250.4067 L 105.6104,252.4817 L 103.8024,254.8787 C 103.3501,255.7794 102.9057,256.6775 102.4534,257.565 C 102.1943,257.8951 101.9182,258.0042 101.6421,257.565 L 101.642,257.565 z "
   style="fill:#000000" />
   <path
   id="_73517952"
   class="fil1"
   d="M 100.075,214.847 L 98.9967,214.1054 L 97.7924,213.4795 L 96.4694,212.9496 L 95.0507,212.5143 L 93.5387,212.1528 L 91.9476,211.8581 L 90.2895,211.6084 L 88.5776,211.4046 L 86.8155,211.2282 L 85.0314,211.0692 L 83.2193,210.9155 L 81.3981,210.7576 L 79.5902,210.5801 L 77.8006,210.3763 L 76.0294,210.1278 L 74.3083,209.8372 L 72.641,209.4848 L 71.0473,209.0587 L 69.5247,208.5459 L 68.1018,207.949 L 66.7752,207.2416 L 65.5798,206.4317 L 64.5018,205.4981 L 63.5629,204.433 L 62.7661,203.2102 L 62.1231,201.8334 L 61.647,200.2845 L 61.3525,198.5448 L 61.2539,196.5922 L 61.2539,124.9868 L 75.1551,124.9868 C 74.9421,125.6035 74.6711,126.1242 74.2635,126.3781 C 74.032,127.2117 73.113,127.7414 74.2951,129.2497 C 74.7291,130.2149 75.1918,130.9302 75.785,130.6816 C 76.0386,129.2998 76.9814,128.7789 77.9229,128.2531 C 79.5994,127.9455 80.7368,127.3825 80.8723,125.8482 C 80.9683,125.4576 81.0853,125.1814 81.2298,124.9868 L 86.0503,124.9868 C 86.1685,125.3905 86.5579,125.9336 88.396,126.0612 C 88.0161,127.6692 88.7367,127.714 89.3164,129.159 C 89.2165,130.2332 88.2344,130.2595 87.6754,130.8039 C 90.4132,133.2957 93.0351,130.2505 93.8148,127.777 C 94.6025,126.7356 94.1093,125.8244 93.1533,124.9868 L 101.5741,124.9868 L 101.5741,216.4972 L 100.9994,215.7305 L 100.075,214.847 L 100.075,214.847 z "
   style="fill:#d81e04" />
   <path
   id="_73517880"
   class="fil0"
   d="M 96.6671,187.009 L 96.702,206.4074 C 91.7003,204.441 84.5433,201.6065 80.1353,197.9776 C 73.1969,198.5458 68.6139,192.3557 66.9862,184.9781 C 66.6696,183.543 67.4185,183.5804 68.3327,184.4316 C 70.3292,186.29 72.7217,187.967 74.8289,188.4092 C 74.0105,185.0725 73.8983,182.0793 74.1406,179.2372 C 69.3268,176.1248 67.6216,171.392 67.7096,167.3763 C 67.7617,164.9865 68.6939,165.7226 69.3817,166.8115 C 70.4277,168.4673 74.0188,172.5532 75.4311,172.5132 C 75.9741,170.4245 76.6568,168.4449 77.2258,166.5334 C 72.5393,163.1999 72.3877,156.2553 72.4018,153.0901 C 72.4085,151.5668 72.8918,151.3277 73.4071,152.115 C 74.4261,153.6713 77.8185,159.4358 79.4643,160.2057 C 80.3887,157.44 81.2833,155.0362 82.1568,152.6151 C 78.6461,150.1732 76.9562,145.0053 77.328,140.8557 C 77.4404,139.6018 77.9971,139.8755 78.6764,140.8555 C 79.5753,142.1529 82.2399,146.0486 83.9633,146.3149 C 85.5039,141.6936 83.501,136.2219 81.7585,131.2472 C 81.1667,129.558 82.3496,129.6776 83.6273,130.8537 C 90.2868,136.9838 89.0564,143.8802 87.7014,151.2444 C 86.4004,158.315 83.5458,165.8834 83.6393,173.0358 C 83.6998,177.6707 85.3973,180.9707 88.8764,184.1147 C 91.1761,186.1933 94.2038,187.144 96.6671,187.009 L 96.6671,187.009 z "
   style="fill:#000000" />
   <path
   id="_73517808"
   class="fil2"
   d="M 103.957,214.847 L 105.035,214.1054 L 106.2317,213.4795 L 107.5584,212.9496 L 108.9757,212.5143 L 110.4854,212.1528 L 112.0791,211.8581 L 113.7333,211.6084 L 115.4544,211.4046 L 117.2071,211.2282 L 119.002,211.0692 L 120.8087,210.9155 L 122.6205,210.7576 L 124.4379,210.5801 L 126.2312,210.3763 L 127.9931,210.1278 L 129.7145,209.8372 L 131.3818,209.4848 L 132.9808,209.0587 L 134.5034,208.5459 L 135.9246,207.949 L 137.2434,207.2416 L 138.448,206.4317 L 139.5263,205.4981 L 140.4638,204.433 L 141.2619,203.2102 L 141.9049,201.8334 L 142.3756,200.2845 L 142.6754,198.5448 L 142.7739,196.5922 L 142.7739,125.7429 C 142.707,125.7429 142.6347,125.7575 142.5662,125.7706 C 141.9181,125.9652 141.0212,126.052 140.1299,125.5537 C 139.2316,125.0644 137.6776,125.1223 137.3565,125.1223 C 137.3565,125.3275 137.9142,125.9834 138.7201,126.4635 C 138.4572,126.5726 137.1082,126.8302 136.7583,126.8302 C 135.7762,126.8302 133.909,126.2504 133.909,126.4226 C 133.909,126.5911 134.2666,127.0973 134.7427,127.7324 C 131.8078,129.2181 128.9807,126.8988 125.996,127.0894 C 124.8992,125.6981 123.9301,125.1629 122.9243,124.9868 L 120.6324,124.9868 C 119.8027,125.0644 118.8928,125.1223 117.8501,124.9868 L 102.454,124.9868 L 102.454,216.4972 L 103.0194,215.7305 L 103.957,214.847 L 103.957,214.847 z "
   style="fill:#ffffff" />
   <path
   id="_73517736"
   class="fil3"
   d="M 10.2686,149.425 C 9.6072,155.1382 16.6656,165.76 17.7977,172.7868 C 13.6611,169.9098 12.4658,167.7402 10.8077,164.0072 C 9.2943,159.5721 8.1069,153.7431 10.2686,149.425 z M 62.1637,124.1119 C 61.7285,124.1119 61.2801,124.1119 60.8409,124.1119 C 60.6095,124.1119 60.3702,124.3433 60.3702,124.5826 L 60.3702,154.8753 C 58.6345,153.4249 56.5557,152.3651 54.753,151.1423 C 50.8661,148.4875 39.5685,141.9511 38.5403,139.7316 C 38.205,139.0071 37.1215,136.2971 39.4686,132.923 C 39.9538,132.2301 40.6546,135.8132 41.1214,135.1557 C 41.9458,132.1801 47.6446,127.2427 47.6446,127.2427 C 47.6446,127.2427 47.9076,128.9547 48.6545,130.1907 C 51.4368,127.2111 53.1619,123.895 56.7187,120.8602 L 56.941,123.9134 C 59.0106,123.895 59.9481,122.1422 60.6648,121.0364 C 61.0763,122.0199 61.7824,123.039 62.1637,124.1119 L 62.1637,124.1119 z M 75.4232,124.1119 C 73.6967,124.1119 71.9755,124.1119 70.2451,124.1119 C 71.1471,123.0837 71.8624,122.1422 71.9887,122.0199 L 72.5922,121.3901 L 72.9446,120.3802 C 74.0596,120.851 75.5994,121.8608 76.3239,122.0607 C 75.9071,122.2408 75.6862,123.1612 75.4232,124.1119 L 75.4232,124.1119 z M 101.6423,255.7569 L 101.6423,218.3848 C 101.6015,218.3493 101.5647,218.2994 101.5384,218.2441 C 100.2603,215.024 96.714,213.5828 92.2197,212.7913 C 92.6957,213.7012 93.1704,215.3501 91.482,218.8871 C 91.3768,218.3809 91.2283,216.5953 89.4479,215.1239 C 87.4637,213.7459 86.5525,213.7827 86.5525,214.1772 C 86.4486,215.6038 89.1981,214.4349 89.9094,218.9608 C 89.937,221.5511 88.7313,222.6293 88.7313,222.6293 C 88.6142,222.607 87.8621,220.5005 86.5985,219.2369 C 85.139,217.7734 84.1659,218.2533 83.6755,218.2902 C 83.7754,218.5163 84.283,219.5262 84.968,221.3565 C 85.5295,222.9515 85.0719,226.0954 84.9628,226.0678 C 84.8444,226.031 82.8155,223.2815 82.2817,222.7832 C 81.7373,222.2993 80.3475,221.6103 80.12,221.5511 C 79.5546,221.3973 77.5612,221.6918 76.8446,221.6695 C 75.4087,221.5787 65.2353,221.1395 62.6345,217.3973 C 61.8061,216.4059 61.2933,207.1819 61.0947,206.1721 C 60.8909,205.1714 58.6345,202.0591 58.3768,201.4752 C 56.7464,198.6837 57.1395,199.4003 54.92,197.1847 C 54.92,197.1847 50.8937,193.9593 50.3218,193.5333 C 49.7563,193.0941 46.3139,187.6544 49.3803,184.329 C 50.0456,182.3987 50.3533,180.12 48.9674,178.3712 C 46.7663,178.9695 47.0832,180.2791 39.441,182.2817 C 39.1057,184.3974 38.6257,185.9779 37.8144,188.2342 C 37.0084,190.4801 34.5811,192.3643 32.9585,193.4794 C 31.3333,194.6075 24.9271,203.3279 23.9988,206.6481 C 23.9988,206.6481 23.7003,208.5954 23.6595,209.6736 C 23.6188,210.6033 23.5912,213.5973 24.8863,214.548 C 25.2624,214.8241 25.457,214.8793 25.9383,214.5848 C 26.4129,214.4441 28.7548,212.2061 30.0736,211.3186 C 30.998,210.6848 31.8724,210.4626 32.7061,210.1772 C 33.4214,209.8919 34.1235,209.9143 34.7034,210.0957 C 35.4095,210.2811 35.8539,210.7571 36.443,210.9425 C 36.9045,211.1095 37.3753,211.1319 37.9604,211.1503 C 38.5442,211.1726 41.6658,211.1555 42.268,215.5131 C 42.4218,216.6045 42.4271,217.5472 42.3995,218.3217 C 42.2496,219.0962 42.005,219.3999 41.6658,219.0738 C 41.3213,218.757 40.773,217.7958 40.0932,216.9897 C 39.2963,216.3415 38.4811,215.993 38.0104,215.9746 C 37.5528,215.8076 37.3069,215.9523 37.5396,216.1114 C 37.6527,216.2744 38.1734,216.4966 38.8019,216.945 C 40.7953,218.3717 41.6881,221.5971 40.9912,224.3374 C 40.8768,224.795 40.9636,225.1211 40.7283,224.9528 C 40.506,224.795 40.0524,224.152 39.3778,223.3446 C 38.7125,222.3848 37.8144,221.2618 37.6751,221.7286 C 37.6659,222.0363 38.2996,223.9245 38.6034,225.1894 C 38.798,226.4386 38.6481,227.2091 38.2904,227.196 C 37.8289,227.0277 37.2714,226.2216 36.5876,225.5734 C 35.9131,224.9304 34.9835,224.4242 34.2774,224.3965 C 33.4621,224.2059 31.5726,225.1079 29.4254,225.1487 C 28.8416,225.1579 24.6194,224.6543 22.8667,224.4281 C 20.9772,224.3505 18.1593,224.2782 16.7695,223.7575 C 15.3691,223.3907 14.6946,222.603 14.0739,220.3874 C 13.4441,218.3441 12.8734,214.8977 12.6381,211.7762 C 12.4566,209.6145 12.479,206.1182 12.5513,204.297 C 12.0898,202.9295 11.193,200.7455 11.193,198.3629 C 11.193,195.9658 15.047,192.2433 15.853,189.9186 C 16.6656,187.5584 17.1455,186.4446 17.4125,184.6419 C 17.6846,182.8379 18.0239,181.7557 18.1554,179.8399 C 14.1502,176.909 12.3028,176.9222 7.2115,167.6179 C 2.1149,158.2993 5.5705,135.7277 16.7958,118.0515 C 20.4841,112.7472 21.5754,111.0971 24.7325,107.9676 C 21.0718,107.4745 14.2186,100.1085 11.0615,98.119 C 12.646,97.1368 16.6603,97.3945 17.6255,95.9547 C 12.0398,94.269 9.7295,88.4795 6.6448,85.4316 C 8.4843,85.4408 11.1286,86.1784 12.859,85.2725 C 7.3969,81.6894 5.8558,77.1635 3.4233,72.8467 C 6.3134,74.1734 9.8926,75.7552 13.3179,75.27 C 7.84,71.5278 4.6053,66.5588 2.9933,61.2821 C 5.5613,62.9757 9.4534,65.4451 13.0536,65.7712 C 6.7894,60.321 3.4193,53.753 2.7448,46.1201 C 5.9189,50.166 7.3101,52.1489 12.1844,51.9635 C 6.5672,45.5941 5.0366,41.4272 4.2793,33.2774 C 8.2713,36.2636 10.1779,41.0827 15.1337,42.7907 C 15.1337,42.7907 12.4658,36.0006 12.4658,27.3394 C 17.7701,35.4707 28.3524,40.1399 34.0959,49.4323 C 38.0274,55.7057 40.0484,60.6563 39.5133,68.6969 C 39.0333,74.5994 35.6948,86.9713 42.0681,91.7418 C 42.3364,91.9403 44.3745,89.254 44.9359,88.2941 C 45.4934,87.3421 46.051,85.7892 46.381,84.2403 C 46.5585,83.5605 44.5783,84.9332 44.5743,84.3165 C 45.8011,81.5303 47.6499,75.3476 47.6499,72.4982 C 46.9477,72.7283 46.427,73.2766 46.1009,74.1695 C 45.3712,73.5265 47.0924,70.2011 45.6696,63.9133 C 45.3528,65.0191 45.2134,66.4273 44.5691,66.9309 C 43.4093,63.4333 44.3797,59.9909 44.6138,56.5393 C 44.0983,57.0955 43.6223,57.4492 43.4277,56.5209 C 43.9353,52.8339 44.3337,49.1325 46.1233,45.577 C 46.7571,44.6211 46.2863,44.1175 45.8064,43.6244 C 42.8663,41.6994 40.5192,39.0577 39.2017,35.1446 L 42.0011,35.2656 C 42.9925,35.7284 42.9702,35.3155 42.8387,34.8264 L 40.6875,31.0855 C 45.6197,31.2486 49.2988,30.9133 55.2053,35.0894 C 56.4203,34.0664 57.8469,33.0736 60.5556,32.3715 C 63.3235,31.7324 65.6837,32.8567 66.4398,34.6686 C 67.9217,34.2702 68.7409,35.0894 69.5929,35.8599 C 77.765,35.8599 83.1916,39.3575 77.6204,44.9419 C 77.2798,40.5528 70.349,41.1103 68.4739,44.2674 C 66.5621,45.0787 65.0986,45.9846 64.1703,46.9984 L 64.3202,46.9406 L 64.591,46.813 L 64.8764,46.6947 L 65.1801,46.5724 L 65.497,46.4462 L 65.8284,46.3107 L 66.1729,46.1924 L 66.5266,46.0661 L 66.8934,45.9347 L 67.2682,45.8163 L 67.6534,45.694 L 68.0571,45.577 L 68.4555,45.4639 L 68.8763,45.3548 L 69.3023,45.2509 L 69.7283,45.1549 L 70.1767,45.0602 L 70.6159,44.9827 L 71.0695,44.9064 L 71.5219,44.838 L 71.9624,44.7881 L 72.3871,44.7565 L 72.7947,44.7381 L 73.1892,44.7289 L 73.5705,44.7381 L 73.9413,44.7473 L 74.295,44.7749 L 74.6395,44.8012 L 74.9787,44.8525 L 75.3009,44.8972 L 75.6138,44.9603 L 75.9163,45.0234 L 76.2147,45.0865 L 76.5093,45.1549 L 76.7907,45.2272 L 77.0721,45.2996 L 77.3429,45.3771 L 77.6059,45.4363 L 77.8741,45.5178 L 78.1358,45.5902 L 78.3988,45.6533 L 78.6565,45.7124 L 78.9195,45.7756 L 79.1825,45.8255 L 79.4494,45.8794 L 79.7176,45.9202 L 79.9938,45.961 L 80.266,45.9925 L 80.5552,46.0109 L 80.859,46.0201 L 81.139,46.0254 L 81.4244,46.007 L 81.7373,45.9702 L 82.0411,45.9294 L 82.354,45.8794 L 82.6709,45.8216 L 82.9786,45.7479 L 83.2915,45.6717 L 83.5992,45.5941 L 83.9069,45.5086 L 84.2067,45.4271 L 84.5052,45.3232 L 84.7997,45.2233 L 85.0759,45.1234 L 85.3572,45.0234 L 85.6242,44.9064 L 85.8871,44.8012 L 86.1357,44.6973 L 86.3815,44.6027 L 86.6117,44.4935 L 86.8286,44.3989 L 87.0285,44.2989 L 87.2231,44.2135 L 87.3914,44.1175 L 87.5544,44.0359 L 87.6991,43.9636 L 87.8253,43.9058 L 87.9252,43.8505 L 88.0935,43.7559 L 88.1567,43.7243 L 89.4387,42.9393 L 89.5149,44.8288 L 89.4742,45.314 L 89.3887,45.8163 L 89.2296,46.3331 L 89.0311,46.8669 L 88.7628,47.406 L 88.4288,47.9372 L 88.0344,48.4619 L 87.5715,48.9734 L 87.0337,49.4454 L 86.4263,49.8846 L 85.7464,50.2738 L 84.9904,50.6052 L 84.1607,50.8668 L 83.2508,51.0628 L 82.2672,51.1666 L 81.8649,51.1758 L 81.502,51.1666 L 81.1575,51.1535 L 80.8353,51.1206 L 80.5145,51.0851 L 80.2199,51.0351 L 79.9293,50.9799 L 79.6545,50.9168 L 79.3863,50.8497 L 79.1417,50.7774 L 78.8971,50.6998 L 78.6526,50.6183 L 78.4356,50.5329 L 78.2002,50.4461 L 77.9872,50.3606 L 77.769,50.2646 L 77.5612,50.1739 L 77.3429,50.0924 L 77.1299,50.0108 L 76.9182,49.9293 L 76.696,49.8478 L 76.4646,49.7755 L 76.2384,49.6992 L 75.9886,49.6216 L 75.7348,49.5625 L 75.4587,49.5046 L 75.1786,49.4454 L 74.8749,49.3863 L 74.5527,49.3402 L 74.2135,49.3047 L 73.8558,49.2679 L 73.4706,49.2364 L 73.0669,49.2272 L 72.6593,49.2272 L 72.2516,49.2364 L 71.8309,49.26 L 71.4048,49.2995 L 70.9696,49.3402 L 70.5344,49.3955 L 70.0952,49.4586 L 69.6613,49.527 L 69.2261,49.5993 L 68.8,49.6808 L 68.374,49.7663 L 67.9572,49.857 L 67.5456,49.9569 L 67.1511,50.0477 L 66.7619,50.1423 L 66.3859,50.2462 L 66.0138,50.3461 L 65.6745,50.4369 L 65.3432,50.5368 L 65.0263,50.6315 L 64.737,50.7183 L 64.4688,50.7998 L 64.2202,50.876 L 63.998,50.9536 L 63.8034,51.0167 L 63.6312,51.0759 L 63.4813,51.1259 L 63.3774,51.1666 L 63.2959,51.1929 C 63.3419,51.3257 63.3958,51.452 63.455,51.5874 C 64.0125,52.4303 72.3016,48.2397 73.176,52.5433 C 68.9486,51.8635 68.9276,55.1613 67.4588,54.7997 C 64.7948,55.8819 65.8744,59.9909 62.5082,59.3663 C 61.693,59.7818 61.4616,60.5116 61.8653,61.6214 C 62.4175,64.1539 66.0913,67.2202 67.7757,70.6271 C 70.6251,75.1977 72.4607,82.0746 72.8539,82.7268 C 85.4296,72.0354 81.4743,65.9606 81.8188,67.1847 C 80.7314,65.9119 81.1575,62.5813 81.2534,61.0376 C 81.3113,53.8977 84.7721,54.2146 86.6485,55.0167 C 86.3815,56.1987 84.283,57.4269 86.3171,58.5366 C 87.2875,59.5741 87.49,60.9653 86.6432,62.8495 C 86.2409,63.574 86.0042,64.2038 87.1008,64.0408 C 87.0285,62.7719 87.9121,62.4011 88.4288,61.699 C 88.7313,60.7746 89.6017,60.6931 90.3539,60.4616 C 94.3446,55.8187 97.9369,61.1783 95.5806,64.8192 C 95.1914,62.9481 93.1664,62.7811 93.4294,65.0059 C 93.3518,66.405 92.4419,67.2202 90.8693,67.5871 L 89.7819,69.3083 C 88.4867,70.7402 89.7819,70.6271 90.7799,70.4825 C 93.0533,69.2912 96.0697,68.7876 96.4695,72.013 C 97.6963,74.681 97.687,80.0273 94.0947,80.5572 C 94.0947,79.6197 94.7298,78.6809 94.0408,77.7578 C 92.6326,77.1464 92.4695,76.0997 91.962,75.1609 C 91.0415,75.9945 88.8588,75.6329 88.6142,76.1536 L 87.0009,78.6769 C 85.8871,79.483 86.5669,80.3258 87.2323,81.1779 C 88.4012,82.2692 88.4012,83.9181 87.7622,85.8563 C 87.6807,87.1567 87.5991,88.4703 88.5827,89.5761 C 88.4683,90.3506 87.6399,90.3914 86.6156,90.2415 C 84.759,90.5544 84.8221,89.2724 84.2659,88.5018 C 84.3106,86.7938 82.4579,85.7747 82.3764,84.0404 C 80.0214,87.7458 76.2292,85.6485 75.0787,90.4098 C 78.6841,98.7988 78.5119,104.516 74.3949,109.9202 C 73.7822,111.0708 74.3857,112.3028 75.2772,113.4218 C 81.4967,118.2462 85.0219,114.6854 86.0502,112.4382 C 86.0502,109.748 88.7457,109.6796 89.4019,108.5343 C 93.7647,104.566 95.862,107.464 96.618,109.4074 C 95.7213,109.8558 93.5885,108.8867 94.2538,111.1207 C 94.267,112.4659 93.5648,113.4126 91.8568,113.8018 C 91.1507,113.8886 89.7332,115.4743 90.5485,116.2488 C 91.273,115.4743 92.0698,115.9766 92.8443,115.9898 C 93.6056,115.7084 94.2223,116.3619 94.8653,116.8287 C 100.3155,117.3757 99.4083,123.2375 95.6397,123.4006 C 96.5286,122.0515 95.2913,120.3474 94.1092,121.8069 C 93.2124,122.5222 92.1106,122.2553 90.8561,121.2218 L 88.8996,121.5071 C 87.2415,121.6794 88.8588,121.6886 89.4742,122.4946 C 90.1724,123.0074 91.1152,123.5412 91.9712,124.1119 C 95.2006,124.1119 98.4168,124.1119 101.6423,124.1119 L 101.6423,22.3599 L -2.1387,22.3599 L -2.1387,202.8709 L -1.8757,207.8938 L -1.1157,212.3881 L 0.1177,216.4196 L 1.7837,219.9987 L 3.8586,223.165 L 6.3056,225.9407 L 9.109,228.3786 L 12.2305,230.485 L 15.6361,232.3009 L 19.31,233.8551 L 23.2113,235.1595 L 27.3059,236.2522 L 31.5727,237.1581 L 35.9763,237.9089 L 40.4746,238.5309 L 45.0544,239.0555 L 49.6657,239.4947 L 54.2902,239.9115 L 58.8884,240.3007 L 63.4367,240.7044 L 67.8981,241.1488 L 72.2425,241.6656 L 76.4371,242.2902 L 80.4607,243.0423 L 84.266,243.943 L 87.8399,245.0357 L 91.1376,246.3585 L 94.1317,247.9298 L 96.7956,249.7785 L 99.0875,251.9389 L 100.981,254.4477 L 101.6424,255.7574 L 101.6423,255.7569 z M 38.0511,163.9625 C 39.9577,165.8652 44.193,169.4338 45.0175,170.5936 C 45.8419,171.7586 46.2495,172.8723 46.2495,172.8723 C 44.4652,174.6618 40.7914,176.3423 39.1701,176.7959 C 38.4443,170.9381 34.6626,164.2702 32.6732,158.8476 C 34.6442,160.2387 36.1485,162.0559 38.0511,163.9625 z "
   style="fill:#fcd016" />
   <path
   id="_73517664"
   class="fil4"
   d="M 143.653,126.002 C 143.9962,126.1283 144.3959,126.2426 144.885,126.1835 L 145.2019,127.4602 C 145.0389,126.8304 147.8383,137.8243 148.8127,141.2312 C 149.8041,143.8412 148.3866,146.5723 146.8193,147.1337 C 144.033,148.0897 144.2776,147.8819 143.653,148.0949 L 143.653,126.002 z M 102.4533,255.758 L 103.1094,254.4483 L 104.9989,251.9395 L 107.2947,249.7791 L 109.9626,247.9304 L 112.9527,246.3591 L 116.2597,245.0363 L 119.8244,243.9436 L 123.6389,243.0429 L 127.6625,242.2908 L 131.857,241.6662 L 136.1962,241.1494 L 140.6576,240.705 L 145.2059,240.3013 L 149.8041,239.9121 L 154.4246,239.4953 L 159.0413,239.0561 L 163.6118,238.5315 L 168.1193,237.9095 L 172.5177,237.1587 L 176.7845,236.2528 L 180.8791,235.1601 L 184.7896,233.8557 L 188.4582,232.3015 L 191.8651,230.4856 L 194.9906,228.3792 L 197.7808,225.9413 L 200.2357,223.1656 L 202.3106,219.9993 L 203.9779,216.4202 L 205.2008,212.3887 L 205.9661,207.8944 L 206.2343,202.8715 L 206.2343,22.3605 L 102.4533,22.3605 L 102.4533,124.1125 C 106.7201,124.1125 110.9922,124.1125 115.2591,124.1125 C 112.7542,122.0836 111.6707,115.7866 109.5879,112.8333 C 108.3098,111.0345 106.0995,111.3028 104.8306,109.3357 C 105.5472,109.1003 106.1271,108.6427 106.9739,108.6296 C 107.8115,108.6151 108.4505,108.8242 108.9712,108.8873 C 108.8542,108.4573 108.912,107.955 108.6359,107.6013 C 108.369,107.266 106.4703,106.1655 105.3881,105.4489 C 106.0995,105.2187 106.5347,104.7296 107.5222,104.7428 C 108.5136,104.7559 110.1678,105.4725 111.2631,105.8118 C 111.0869,105.1004 111.0737,104.1944 110.724,103.6777 C 110.3808,103.1622 108.8713,102.4456 108.1875,101.2819 C 108.5412,101.1689 108.5544,100.9598 109.2473,100.9335 C 109.9495,100.9019 112.4636,102.1248 114.0309,103.0308 C 113.7101,101.7619 112.8541,99.9052 112.5504,99.4555 C 112.2374,99.0032 111.2,97.7896 110.887,97.5858 C 110.9685,97.4043 111.5629,97.2452 111.9113,97.236 C 112.265,97.2281 114.9369,98.3195 115.7666,99.6107 C 118.9237,102.7678 119.3129,109.4632 121.447,113.9746 C 121.0933,114.1022 128.2148,112.2166 130.3028,110.4599 C 134.3567,107.0031 138.5972,105.341 139.824,104.9019 C 139.5124,102.7218 139.4493,101.2727 139.277,100.5798 C 139.0679,99.7606 138.7787,97.4898 138.7787,97.4898 C 138.0305,97.2689 135.5493,95.9553 135.5493,96.4168 C 135.5493,96.8876 136.3093,98.1341 135.8109,98.1972 C 135.3126,98.2656 135.0417,98.2958 134.5789,98.1972 C 134.1081,98.0973 130.1989,95.4964 129.1155,94.8218 C 129.1838,95.4477 129.9544,96.3576 129.4192,97.286 C 126.153,96.0184 123.7073,91.8594 122.846,91.6148 C 122.37,91.4833 122.4345,92.9744 122.3661,93.9382 C 117.9401,93.7489 113.5063,82.1607 112.5951,79.878 C 111.3446,76.7289 111.0908,73.8032 109.4341,70.111 C 108.5176,68.0913 106.3033,67.9282 105.4381,65.7587 C 106.1849,65.6627 107.0278,65.4142 107.6708,65.4773 C 108.319,65.522 109.0843,65.948 109.5826,66.111 C 109.5511,65.6679 109.864,65.3642 109.5103,64.7935 C 109.1566,64.2084 107.6576,62.9632 106.7333,62.0533 C 107.4762,61.9533 108.2783,61.5944 108.962,61.7666 C 109.6418,61.9389 111.4261,62.9855 112.436,63.5338 C 112.3913,62.8041 112.4596,61.6404 112.3058,61.3367 C 112.1612,61.0329 110.7384,59.7693 110.2809,58.5004 C 110.6477,58.4518 110.887,58.1835 111.3906,58.3558 C 111.9021,58.5333 114.3215,60.1414 115.6798,61.3406 C 115.6036,60.027 115.4984,58.3019 115.0276,57.509 C 114.5516,56.72 113.4971,55.8693 113.4971,55.8693 C 113.4971,55.8693 114.2308,55.3986 114.7107,55.5603 C 115.1907,55.7063 117.1933,56.9883 117.7547,58.4242 C 120.2465,62.1295 119.6258,67.8507 120.854,72.6934 C 120.854,72.6934 121.99,75.6875 123.109,75.7598 C 124.224,75.8373 130.9642,77.5625 138.7326,77.9031 C 139.6294,77.9438 140.6761,78.3554 143.5899,78.4553 C 148.4366,71.1852 148.5444,72.8473 152.0328,69.4272 C 154.6653,66.8277 159.7381,63.9139 158.606,59.2525 C 158.4377,58.5556 157.5554,57.4183 154.9322,56.8121 C 149.0704,54.7503 139.7162,61.1381 141.5965,50.5505 C 141.5058,50.5466 150.8284,51.4802 153.2333,50.9542 C 153.8632,50.9542 154.3484,50.8135 154.7192,50.5821 L 154.7152,50.5782 L 154.5062,50.519 L 154.28,50.4519 L 154.0446,50.3796 L 153.804,50.3112 L 153.5502,50.2337 L 153.2873,50.1666 L 153.0203,50.089 L 152.7403,50.0167 L 152.4549,49.9483 L 152.1696,49.876 L 151.8698,49.7997 L 151.566,49.7353 L 151.2584,49.6669 L 150.9507,49.5999 L 150.6338,49.5276 L 150.3208,49.4723 L 149.9947,49.4145 L 149.6726,49.3553 L 149.3504,49.3093 L 149.0296,49.2606 L 148.6983,49.2199 L 148.3774,49.1831 L 148.0553,49.1515 L 147.7436,49.1278 L 147.4254,49.0963 L 147.1085,49.0831 L 146.7969,49.0739 L 146.4971,49.07 L 146.1986,49.0739 L 145.9094,49.0871 L 145.5188,49.1147 L 145.1559,49.1462 L 144.8167,49.187 L 144.4998,49.2278 L 144.2013,49.2869 L 143.9107,49.333 L 143.6385,49.4053 L 143.3808,49.4723 L 143.1402,49.5315 L 142.9101,49.6091 L 142.6786,49.6906 L 142.4617,49.7669 L 142.2395,49.8537 L 142.0304,49.9352 L 141.8174,50.0206 L 141.6044,50.1114 L 141.3927,50.1982 L 141.1705,50.2836 L 140.9482,50.3691 L 140.7129,50.4559 L 140.4815,50.5374 L 140.2329,50.6189 L 139.9792,50.6952 L 139.7162,50.7504 L 139.444,50.8227 L 139.1587,50.8766 L 138.851,50.9227 L 138.538,50.9634 L 138.2172,50.991 L 137.8727,51.0042 L 137.5058,51.0134 L 137.1074,51.0042 L 136.1186,50.9043 L 135.2179,50.7189 L 134.3895,50.4519 L 133.6321,50.1114 L 132.9484,49.7314 L 132.337,49.2869 L 131.8018,48.807 L 131.3403,48.3047 L 130.9419,47.7787 L 130.6105,47.2396 L 130.3488,46.7097 L 130.1398,46.1746 L 129.9899,45.6539 L 129.8991,45.1555 L 129.8544,44.6756 L 129.936,42.7861 L 131.218,43.5566 L 131.2772,43.6013 L 131.4441,43.6881 L 131.5493,43.742 L 131.6756,43.8143 L 131.8202,43.8827 L 131.9793,43.9603 L 132.1608,44.0457 L 132.3462,44.1404 L 132.5447,44.2364 L 132.7669,44.3403 L 132.9931,44.4402 L 133.2337,44.5441 L 133.4822,44.644 L 133.7452,44.7532 L 134.0174,44.861 L 134.2935,44.9662 L 134.5789,45.0608 L 134.8642,45.1608 L 135.1679,45.2594 L 135.4664,45.3501 L 135.7702,45.4369 L 136.0831,45.5184 L 136.3961,45.5908 L 136.709,45.6631 L 137.0167,45.7262 L 137.3283,45.7722 L 137.6413,45.8169 L 137.949,45.8445 L 138.2356,45.8629 L 138.5196,45.8629 L 138.8194,45.8485 L 139.1087,45.8261 L 139.3848,45.7998 L 139.657,45.763 L 139.9239,45.7262 L 140.1922,45.667 L 140.4499,45.6184 L 140.7129,45.5592 L 140.9759,45.4948 L 141.2375,45.4277 L 141.4966,45.3554 L 141.7687,45.2923 L 142.0304,45.2147 L 142.3078,45.1424 L 142.584,45.0608 L 142.8601,44.9885 L 143.1586,44.9202 L 143.4531,44.861 L 143.7569,44.7979 L 144.0738,44.7479 L 144.3959,44.6848 L 144.7351,44.6532 L 145.0797,44.6125 L 145.4334,44.5941 L 145.8002,44.5757 L 146.1894,44.5757 L 146.5786,44.5757 L 146.9955,44.6072 L 147.4123,44.6401 L 147.8515,44.6848 L 148.2998,44.7479 L 148.9034,44.8531 L 149.4911,44.9701 L 150.0671,45.0924 L 150.6285,45.2331 L 151.1716,45.3817 L 151.7067,45.5316 L 152.2182,45.6907 L 152.7126,45.8537 L 153.1886,46.026 L 153.641,46.1982 L 154.0709,46.3613 L 154.4786,46.5243 L 154.8599,46.6953 L 155.0177,46.7544 C 154.4654,45.6946 153.541,44.6664 152.3642,43.9918 C 150.2485,43.0951 140.7352,44.6848 139.5439,43.4843 C 138.3434,42.2877 137.1206,40.3404 137.5913,36.5035 C 137.7044,36.3865 137.6768,35.9197 139.5084,35.9197 C 141.3375,35.9197 146.0948,36.585 150.167,35.5476 C 152.7573,34.8862 154.9822,32.6535 157.2149,31.7699 C 162.0852,29.8264 175.9324,31.6068 180.7976,33.5542 C 181.029,33.6949 181.3643,33.9302 181.6049,34.117 C 181.6049,34.117 184.7252,30.4602 188.2728,32.0775 C 190.1715,32.948 191.6337,34.2931 191.1498,37.7855 C 190.5607,40.0458 189.0288,40.368 188.4858,41.7315 C 189.351,41.6 193.3286,43.8511 194.7053,46.3468 C 193.8177,46.3968 191.6021,46.8544 191.2852,47.3343 C 194.0754,47.8958 196.458,48.8977 198.0438,53.0699 C 197.6861,53.1869 195.4613,51.9325 195.1037,52.0456 C 196.9748,54.8595 198.7144,57.5129 198.4106,59.1618 C 197.4587,58.5964 197.0379,58.3873 196.1411,57.939 C 196.1779,58.0889 197.8715,61.2551 197.9031,61.3998 C 198.1477,62.2387 198.6644,63.497 198.7144,66.111 C 197.7124,65.4681 196.0004,64.5529 195.2444,65.0959 C 196.3449,66.2649 199.3666,71.0222 198.646,71.9374 C 198.2923,72.0544 195.698,70.6409 195.339,70.7592 C 196.6211,73.368 198.2252,76.0951 198.4383,78.7143 C 197.5454,78.4777 196.5987,77.6756 196.4317,77.6348 C 196.2779,77.6033 196.8564,80.5486 197.2101,81.6492 C 197.5638,82.7366 197.7585,83.5387 197.7585,84.2764 C 197.7585,84.8286 197.5454,85.5084 197.4639,85.4637 C 197.0116,85.1915 196.3673,84.4618 196.0557,84.1278 C 195.5389,86.1751 196.5987,87.3572 196.5987,90.2066 C 196.4317,91.7502 195.1813,93.7265 194.4147,95.5332 C 192.0505,101.5173 188.0006,107.7552 188.0006,113.0187 C 188.0006,121.2592 192.5041,136.0123 192.5041,141.4258 C 192.5041,147.4598 194.8999,151.7727 194.5107,154.2828 C 194.1306,156.7969 191.4259,158.3183 191.8559,160.5023 C 192.6488,164.5601 189.468,170.1011 190.6278,173.9563 C 190.9683,175.8498 193.034,179.9944 193.0971,181.9325 C 194.3108,188.891 197.6677,194.9198 198.7275,202.7026 C 199.1943,206.0819 201.4638,207.5862 201.2101,212.4329 C 198.0793,214.4947 193.1247,217.2388 190.6685,220.3012 C 188.8566,222.5392 185.4549,225.4701 182.7962,226.096 C 178.7555,227.0651 175.5169,225.457 172.9516,224.0842 C 170.9411,223.006 168.9885,224.125 167.3264,224.1197 C 167.1949,223.7897 167.3396,223.482 167.408,223.2414 C 168.2455,222.2539 169.0752,221.6017 170.2389,220.9942 C 170.2521,220.8548 170.2665,220.7089 170.2797,220.5603 C 169.1699,220.388 167.8563,220.3604 166.9859,220.179 C 166.5967,220.2697 166.289,220.5143 165.2108,220.8456 C 165.2515,220.3972 165.3922,219.8529 165.5184,219.3913 C 166.7189,218.2908 167.8787,217.5334 169.496,216.8772 C 169.1515,216.4644 169.4145,216.705 168.7978,216.3289 C 167.5171,215.0061 165.4908,216.0844 164.2864,216.5327 C 164.314,216.2382 164.3403,215.9437 164.3679,215.6544 C 164.5217,215.1652 164.6085,214.9877 165.2292,214.4447 C 166.2245,213.5427 167.6617,213.5519 168.7531,212.7642 C 166.7189,212.2922 166.2245,212.3159 164.2824,212.5236 C 164.3311,212.0384 164.314,211.6545 164.4087,211.21 C 165.0609,210.4224 165.4829,209.6926 166.8228,209.3481 C 171.2856,206.291 173.5959,213.7833 178.0718,213.2942 C 181.0513,212.9589 182.1164,210.141 184.6042,209.7334 C 184.6213,209.7466 184.6252,209.7518 184.6213,209.7295 C 184.6121,209.7295 184.6081,209.7334 184.6042,209.7334 C 184.3912,209.4165 182.2926,204.487 179.6615,201.8782 C 177.0659,200.2924 175.2855,198.7172 172.6846,197.1354 C 171.0857,195.5772 171.0542,192.2795 169.5236,190.8659 C 169.3146,191.8718 169.2567,191.9257 168.9885,192.5608 C 168.7399,192.524 168.5046,192.4925 168.2547,192.4517 C 167.571,190.7029 166.7466,187.0435 165.909,185.417 C 165.8945,185.5616 165.8761,185.7115 165.8722,185.8562 C 165.2515,186.5846 165.4908,186.9975 164.5901,187.4459 C 163.6026,185.5077 163.5395,181.8247 163.3581,178.9438 C 163.0175,179.3514 163.2082,179.0384 162.9097,179.7537 C 162.5336,180.1206 162.343,180.4519 162.0484,180.9634 C 161.4238,180.5874 161.696,180.828 161.3515,180.4151 C 159.8604,177.8511 160.8387,173.8104 159.9328,171.9577 C 158.0354,170.9071 157.1162,171.3147 155.6935,171.6369 C 152.4957,172.7414 147.1585,181.0673 147.4438,186.0692 C 148.0553,196.687 146.4024,206.9971 144.8035,214.3816 C 143.7845,215.4098 138.0804,216.5288 135.331,217.8871 C 132.5723,219.2414 129.2062,221.4794 126.3844,223.2506 C 122.8868,224.3511 119.8757,221.1625 117.9585,220.4419 C 115.7574,219.6267 113.4826,220.8088 111.6076,220.981 C 111.622,220.6826 111.6444,220.3828 111.6536,220.0935 C 111.7798,220.1027 113.4011,218.0094 114.7607,217.6057 C 114.7739,217.4611 114.7831,217.3125 114.7883,217.1626 C 113.1749,217.2218 111.5629,217.2849 109.9495,217.3309 C 109.9626,217.0403 109.9811,216.7405 109.9955,216.4512 C 110.9685,215.5045 112.2059,214.5486 113.1302,213.5256 C 112.5412,213.2389 111.7259,213.0719 110.8423,212.972 C 106.8148,213.8017 103.6669,215.2468 102.4888,218.2447 C 102.4848,218.2592 102.4703,218.2908 102.4533,218.3092 L 102.4533,255.7575 L 102.4533,255.758 z "
   style="fill:#009d4b" />
   <g
   id="g17">
    <path
   id="_73517592"
   class="fil1"
   d="M 81.1667,46.9079 C 77.5283,46.9408 75.8716,45.0552 71.205,45.781 C 66.5397,46.4963 62.7291,48.6935 62.7291,48.6935 L 62.599,49.9072 L 62.9251,50.3871 C 62.9251,50.3871 69.0315,48.132 73.5113,48.3674 C 77.9912,48.5936 78.3712,50.3871 82.2173,50.2832 C 87.2139,49.9755 88.7957,46.1702 88.6142,44.4714 C 88.6142,44.4714 84.7274,46.7277 81.1667,46.9079 L 81.1667,46.9079 z "
   style="fill:#d81e04" />
    <path
   id="_73517520"
   class="fil2"
   d="M 58.9975,41.2683 C 59.3683,41.7666 59.9534,42.0612 60.6371,42.1979 C 60.478,42.0204 60.3702,41.8034 60.3018,41.5589 C 60.0665,40.6937 60.5188,39.8232 61.3025,39.601 C 62.0862,39.384 62.9251,39.9192 63.1604,40.7791 C 63.3011,41.292 63.188,41.8074 62.9198,42.1887 C 64.1703,41.9665 65.2445,41.4944 65.4155,41.0868 C 65.3524,38.415 60.4333,36.5991 58.9975,41.2683 L 58.9975,41.2683 z "
   style="fill:#ffffff" />
    <path
   id="_73517448"
   class="fil1"
   d="M 138.208,46.7501 C 141.845,46.7777 143.4978,44.8921 148.1697,45.618 C 151.2636,46.1071 153.9894,47.234 155.4621,47.9322 C 155.6436,48.6527 155.6251,49.3273 155.3674,49.8625 C 153.4095,49.2274 149.1887,48.0321 145.8633,48.2044 C 141.3835,48.4397 141.0022,50.2241 137.1561,50.1254 C 132.1647,49.8256 130.575,46.0072 130.7604,44.3083 C 130.7604,44.3083 134.6472,46.5686 138.208,46.7501 z "
   style="fill:#d81e04" />
    <path
   id="_73517376"
   class="fil2"
   d="M 156.772,37.4945 C 156.9982,38.0889 157.4834,38.5241 158.104,38.8318 C 158.008,38.6135 157.9541,38.3742 157.9541,38.1165 C 157.9541,37.2329 158.6195,36.5031 159.4308,36.5031 C 160.2513,36.5031 160.9113,37.2329 160.9113,38.1165 C 160.9113,38.6411 160.6812,39.1263 160.3091,39.4116 C 161.5727,39.5431 162.7417,39.3577 163.0178,39.004 C 163.6529,36.4084 159.3808,33.3723 156.772,37.4945 L 156.772,37.4945 z "
   style="fill:#ffffff" />
   </g>
   <path
   id="_73517280"
   class="fil2"
   d="M 95.8589,205.233 C 90.3547,202.9624 85.1776,200.9662 80.427,197.2212 C 72.9165,197.382 69.4831,191.4723 67.8875,185.0067 C 69.6275,186.7213 73.0386,189.6077 76.0284,189.1826 C 74.4151,185.7914 74.9085,181.3702 74.9251,178.868 C 70.9664,176.0917 68.0941,172.0499 68.5601,167.0002 C 69.6315,168.5302 73.7771,174.4136 76.1913,173.1241 C 76.5043,171.2869 77.6931,168.2357 78.1619,166.2536 C 73.2334,162.87 73.1523,155.3168 73.1604,153.2377 C 74.5457,155.3514 78.1063,161.6982 80.0577,160.8819 C 81.0834,158.0326 82.0507,155.1831 83.0092,152.3332 C 79.3715,149.6755 78.2138,145.7581 78.0917,141.3696 C 79.6097,143.5909 82.1585,147.1665 84.4365,147.316 C 86.8301,141.5049 84.0471,136.3783 82.5111,130.8282 C 85.9805,133.8647 87.5694,137.4862 87.9047,141.3752 C 88.2156,144.9815 87.4501,148.7338 86.5811,152.7064 C 85.2477,158.8019 83.2172,165.3495 82.8054,171.6093 C 82.5612,175.3245 83.4267,178.5747 85.6517,181.7667 C 88.0116,185.1518 91.502,187.5833 95.8612,187.7864 L 95.8589,205.233 L 95.8589,205.233 z "
   style="fill:#ffffff" />
   <path
   id="_73363624"
   class="fil0"
   d="M 107.475,187.048 C 114.024,186.6531 118.962,181.7018 119.9713,176.4665 C 121.9744,166.0753 115.6195,154.8396 115.3278,144.7153 C 115.1514,138.59 117.0922,131.5171 123.1423,129.1062 C 121.8368,132.4159 120.9185,135.9423 120.8947,139.183 C 120.8802,141.1773 121.0754,143.1636 121.6958,145.0497 C 123.6719,151.0573 126.989,157.2229 129.16,163.5012 C 131.2164,169.4485 132.9188,175.6716 132.39,181.371 C 131.5878,190.0212 126.0485,198.2523 118.042,201.8533 C 115.2982,203.0876 111.8657,204.6287 107.4507,206.4091 L 107.475,187.048 L 107.475,187.048 z "
   style="fill:#000000" />
   <path
   id="_73363456"
   class="fil1"
   d="M 117.234,183.314 C 114.9093,185.7518 111.7167,187.6992 108.2743,187.8254 L 108.2743,205.1715 C 111.1684,204.0157 114.0441,202.806 116.8711,201.4977 C 124.3687,198.0001 129.8005,191.6228 131.3534,183.264 C 133.2022,170.382 125.4469,157.897 121.0749,146.0603 C 119.9611,142.844 119.7705,140.6061 120.2189,137.286 C 120.5542,135.1203 121.0301,132.9639 121.6731,130.8574 C 118.2899,132.6825 117.0657,137.1808 116.4543,140.6692 C 115.3406,148.2969 118.3399,155.9851 120.0243,163.3052 C 121.6416,170.7383 122.5344,177.1944 117.234,183.314 L 117.234,183.314 z "
   style="fill:#d81e04" />
  </g>
 </g>
</svg>