<?xml version="1.0" encoding="UTF-8" standalone="no"?>
<!-- Creator: CorelDRAW -->
<svg
        xmlns:dc="http://purl.org/dc/elements/1.1/"
        xmlns:cc="http://web.resource.org/cc/"
        xmlns:rdf="http://www.w3.org/1999/02/22-rdf-syntax-ns#"
        xmlns="http://www.w3.org/2000/svg"
        xmlns:sodipodi="http://sodipodi.sourceforge.net/DTD/sodipodi-0.dtd"
        xmlns:inkscape="http://www.inkscape.org/namespaces/inkscape"
        xml:space="preserve"
        width="744"
        height="866.2218"
        style="shape-rendering:geometricPrecision; text-rendering:geometricPrecision; image-rendering:optimizeQuality; fill-rule:evenodd; clip-rule:evenodd"
        viewBox="0 0 210 297"
        sodipodi:version="0.32"
        inkscape:version="0.45.1"
        sodipodi:docname="POL powiat kartuski COA.svg"
        inkscape:output_extension="org.inkscape.output.svg.inkscape"
        sodipodi:docbase="C:\Users\Mistrz\Desktop"
        id="svg2"
        version="1.0"><metadata
   id="metadata23"><rdf:RDF><cc:Work
       rdf:about=""><dc:format>image/svg+xml</dc:format><dc:type
         rdf:resource="http://purl.org/dc/dcmitype/StillImage" /></cc:Work></rdf:RDF></metadata><sodipodi:namedview
   inkscape:window-height="480"
   inkscape:window-width="640"
   inkscape:pageshadow="2"
   inkscape:pageopacity="0.0"
   guidetolerance="10.0"
   gridtolerance="10.0"
   objecttolerance="10.0"
   borderopacity="1.0"
   bordercolor="#666666"
   pagecolor="#ffffff"
   id="namedview21" />
 <defs
   id="defs4">
  <style
   type="text/css"
   id="style6">
   
    .fil0 {fill:#0A0B0C}
    .fil2 {fill:white}
    .fil1 {fill:#0093DD}
    .fil5 {fill:#ED1C24}
    .fil4 {fill:white}
    .fil3 {fill:#0A0B0C;fill-rule:nonzero}
   
  </style>
 </defs>
 <g
   id="Warstwa_x0020_1"
   transform="matrix(1.2147334,0,0,1.2147334,-22.547009,-31.887975)">
  <metadata
   id="CorelCorpID_0Corel-Layer" />
  <sodipodi:namedview
   inkscape:window-height="974"
   inkscape:window-width="1280"
   inkscape:pageshadow="2"
   inkscape:pageopacity="0.0"
   guidetolerance="10.0"
   gridtolerance="10.0"
   objecttolerance="10.0"
   borderopacity="1.0"
   bordercolor="#666666"
   pagecolor="#ffffff"
   id="base"
   inkscape:zoom="0.39736207"
   inkscape:cx="982.42283"
   inkscape:cy="1429.9801"
   inkscape:window-x="-8"
   inkscape:window-y="-8"
   inkscape:current-layer="svg2" />
  <path
   class="fil0"
   d="M 210,168.328 L 210,168.3281 C 209.9999,224.7398 162.8321,270.7491 105,270.7491 C 47.1678,270.7491 0,224.7403 0,168.3281 L 0,168.328 L 0,26.251 L 210,26.251 L 210,168.328 z "
   id="path11"
   style="fill:#0a0b0c" />
  <path
   class="fil1"
   d="M 207.838,167.979 L 207.838,167.979 C 207.8378,223.3955 161.6411,268.593 105,268.593 C 48.3584,268.593 2.162,223.3959 2.161,167.979 L 2.161,167.979 L 2.161,28.408 L 207.838,28.408 L 207.838,167.979 z "
   id="path13"
   style="fill:#0093dd" />
  <path
   id="path44"
   class="fil0"
   d="M 95.8496,80.8896 C 95.617,80.9213 95.4434,81.1197 95.4428,81.3545 L 95.4428,95.0476 L 78.7741,95.0476 L 78.7741,83.6328 C 78.7758,83.3379 78.5058,83.113 78.2161,83.1679 C 72.8539,84.1383 65.455,86.5448 60.385,90.9559 C 60.2835,91.0436 60.2243,91.1705 60.2222,91.3046 L 60.2222,105.8462 C 60.2238,105.9852 60.2878,106.1174 60.3952,106.2051 L 64.7709,110.8826 L 58.6033,216.7166 L 54.9807,216.7166 L 54.9807,232.205 L 154.3779,232.205 L 154.3779,216.7166 L 150.7554,216.7166 L 144.6366,110.8306 L 148.9248,106.2467 C 149.0851,106.0873 149.1441,105.9527 149.1571,105.7737 L 149.1571,91.305 C 149.155,91.1709 149.0958,91.044 148.9943,90.9563 C 143.9249,86.5451 136.5254,84.1387 131.1632,83.1683 C 130.876,83.1138 130.6035,83.3353 130.6052,83.6332 L 130.6052,95.048 L 113.9365,95.048 L 113.9365,81.3549 C 113.9359,81.1201 113.7623,80.9217 113.5297,80.89 C 107.7507,80.2315 101.6278,80.2322 95.8496,80.89 L 95.8496,80.8896 z "
   style="fill:#0a0b0c" />
  <path
   id="path44_0"
   class="fil2"
   d="M 65.7205,111.165 L 143.6902,111.165 L 149.7887,216.716 L 59.5699,216.716 L 65.7205,111.165 z M 55.9194,217.654 L 153.4392,217.654 L 153.4392,231.265 L 55.9194,231.265 L 55.9194,217.654 L 55.9194,217.654 z M 61.7601,106.315 L 147.5984,106.315 L 143.9479,110.174 L 65.4106,110.174 L 61.7601,106.315 z M 104.6955,81.3773 C 107.4814,81.3773 110.0578,81.4668 113.0066,81.7841 L 113.0066,95.5236 C 113.0095,95.7792 113.216,95.9856 113.4715,95.9886 L 131.0818,95.9886 C 131.3374,95.9856 131.5439,95.7792 131.5468,95.5236 L 131.5468,84.2251 C 136.6848,85.2238 143.5242,87.5339 148.2155,91.5366 L 148.2155,105.3691 L 61.1638,105.3691 L 61.1638,91.5366 C 65.8553,87.5342 72.6947,85.2239 77.8325,84.2251 L 77.8325,95.5236 C 77.8354,95.7792 78.0419,95.9856 78.2975,95.9886 L 95.9078,95.9886 C 96.1633,95.9856 96.3698,95.7792 96.3727,95.5236 L 96.3727,81.7841 C 99.3237,81.4667 101.9096,81.3773 104.6955,81.3773 L 104.6955,81.3773 z "
   style="fill:#ffffff" />
  <path
   id="path94"
   class="fil0"
   d="M 122.102,171.19 C 122.0107,171.9129 121.9095,172.6447 121.817,173.3764 C 121.3856,173.8068 120.9417,174.2454 120.5107,174.6758 C 120.4643,176.1493 120.4271,177.6223 120.3812,179.0952 C 120.8975,179.1134 121.4043,179.1311 121.9095,179.1494 C 123.7139,176.9628 126.548,175.3609 130.892,174.6122 C 132.6406,173.9987 132.8612,172.6081 130.2203,171.7569 C 127.4693,171.2082 124.7713,171.1446 122.102,171.19 L 122.102,171.19 L 122.102,171.19 z M 113.397,145.634 C 113.2031,147.3096 113.2202,149.8643 114.5093,152.1805 C 115.0405,152.1238 115.5658,152.0018 116.0835,151.7948 C 114.7672,150.8895 114.9521,149.6268 115.7992,148.1991 C 116.7088,146.7449 117.5836,145.4822 119.1484,144.8135 C 117.0132,142.2249 118.0082,138.8397 121.7434,134.6499 C 121.817,134.0088 121.8918,133.3776 121.9542,132.7378 C 122.185,131.8223 122.4616,131.1823 123.0222,132.4635 C 123.5285,133.5425 124.4951,133.4418 125.7839,132.527 C 125.7961,132.5194 125.8084,132.512 125.8207,132.5045 C 128.7786,130.659 130.3475,128.2511 130.2379,125.1899 C 133.8425,128.2655 132.8502,133.1667 129.2707,136.9506 C 129.2408,136.9828 129.2106,137.0148 129.18,137.0466 C 129.464,136.7516 130.0957,136.5495 130.602,136.3393 C 131.446,135.9889 132.1993,135.3599 132.8586,134.7336 C 134.9402,132.7572 136.1654,130.0436 136.9651,126.9559 C 138.8151,129.3494 139.5777,131.9526 138.498,134.9074 C 138.4299,135.1975 138.3052,135.5046 138.0974,135.8479 C 138.0972,135.8482 138.0971,135.8484 138.0969,135.8486 C 138.0968,135.8488 138.0968,135.8489 138.0967,135.8491 C 138.0898,135.8606 138.0826,135.8722 138.0755,135.8837 C 138.0747,135.8849 138.074,135.8862 138.0732,135.8875 C 138.0724,135.8887 138.0716,135.8901 138.0708,135.8913 C 138.0701,135.8926 138.0693,135.8939 138.0685,135.8951 C 138.0677,135.8964 138.0669,135.8977 138.0661,135.899 C 138.0653,135.9003 138.0646,135.9016 138.0638,135.9028 C 138.063,135.9041 138.0622,135.9054 138.0614,135.9066 C 136.9946,137.6443 135.4243,138.9608 133.3582,139.9371 C 132.7406,140.368 132.1248,140.7884 131.5178,141.2092 C 131.89,140.9514 133.0931,141.0415 133.5825,140.9232 C 134.2218,140.7695 134.8464,140.5522 135.4381,140.2638 C 136.5184,139.7368 137.4544,138.9816 138.2621,138.0986 C 138.8715,137.4333 139.8658,136.137 140.5928,137.4563 C 141.7238,139.5097 140.335,141.5401 139.018,143.1308 C 137.5769,144.8711 135.4964,146.2575 133.2857,146.7903 C 132.0323,147.0924 131.7656,147.4855 131.9417,147.9152 C 132.0635,148.2191 134.4814,147.8882 134.8017,147.84 C 135.829,147.6851 136.8327,147.3872 137.7846,146.9692 C 139.3424,146.287 140.7641,144.5655 142.5527,144.5408 C 143.6976,146.8032 141.5878,148.1873 140.2149,149.4642 C 138.2397,151.298 135.9396,152.3242 133.3582,153.066 C 132.4562,153.3226 131.5644,153.4875 130.6607,153.4228 C 130.5247,153.634 130.3764,153.8436 130.2385,154.0539 C 130.2274,154.0714 133.5107,154.709 133.8638,154.7232 C 135.0083,154.7685 136.1557,154.6455 137.2631,154.3529 C 138.341,154.0686 139.3595,153.6247 140.3327,153.0841 C 140.9166,152.7586 141.5123,152.1712 142.1936,152.582 C 142.9889,153.0625 142.4726,154.0061 142.1905,154.6743 C 141.6183,156.0331 140.6564,157.1557 139.3965,157.9305 C 138.1197,158.7158 136.6385,159.1173 135.1678,159.3504 C 134.3119,159.4858 133.4464,159.5577 132.581,159.5989 C 132.0141,159.6248 130.4276,159.9208 129.953,159.6253 C 132.0901,160.9547 134.8559,161.9626 137.4026,161.4309 C 138.3941,161.2243 139.5555,160.7138 140.126,159.8284 C 140.5234,159.2151 140.9359,158.362 141.7238,159.377 C 142.1577,159.9357 141.9658,161 141.7585,161.6211 C 141.1143,163.5486 138.6547,164.2827 136.8928,164.7136 C 134.1593,165.0156 131.4165,164.8962 128.6832,164.4287 C 127.8814,167.036 124.8637,167.2286 120.8239,166.332 C 117.483,165.042 115.808,162.4077 114.8962,159.3705 C 113.3784,159.8638 113.8659,161.2455 114.8043,162.4536 C 117.5382,165.2888 120.1145,166.6988 121.6062,167.2557 C 123.3902,167.7596 126.6498,167.9974 130.736,168.0969 C 133.3758,167.8684 137.959,173.2576 133.9209,176.0764 C 131.9317,177.3655 129.5492,177.8506 127.2649,178.5454 C 125.5631,179.0486 124.7901,179.8276 124.431,180.7318 C 127.3846,179.7263 130.7267,178.894 132.0795,180.3756 C 133.0184,181.3911 132.8984,183.4317 131.6545,184.9688 C 131.5544,182.8183 130.3669,182.5162 128.6832,183.0567 C 129.5114,183.5959 130.3109,184.1535 130.8738,184.8221 C 133.4588,187.0999 132.8342,189.6438 130.736,192.3053 C 130.6247,189.6519 129.8235,187.9695 128.3977,187.1553 C 127.2379,187.8594 127.0355,189.3594 126.7039,190.7505 C 127.6424,191.0067 128.5908,190.7417 129.5303,190.4032 C 129.18,191.8384 128.241,192.8552 126.7039,193.4309 C 127.0814,193.587 127.3026,193.9531 127.7083,193.9973 C 128.2317,194.0721 128.9504,194.2356 129.6027,194.6383 C 130.2851,195.1781 130.2108,196.4039 130.0266,197.7391 C 129.1336,197.0627 128.2317,196.4875 127.2649,196.5417 C 127.0083,198.5439 125.1774,197.5108 123.3736,196.7713 C 121.6062,195.9742 121.1183,197.0268 121.3195,198.7287 C 122.2869,200.2287 121.578,200.7963 120.4918,201.3815 C 120.3271,202.4512 120.5107,203.5503 121.5326,204.163 C 119.5253,204.4269 118.2006,203.9159 117.7126,202.4706 C 116.3602,201.5451 116.3968,199.9268 116.6269,198.3437 C 115.927,198.4168 115.2358,199.2862 114.7402,200.2829 C 114.4181,200.9982 113.7194,201.0524 112.7992,200.9064 C 112.2011,201.6834 112.1445,202.7731 112.4012,203.8053 C 110.7735,203.3118 109.2911,201.6382 110.7735,199.3598 C 110.4602,197.8422 111.9144,196.9996 114.1691,196.4686 C 113.6546,195.6721 111.9873,195.5997 110.8841,195.9287 C 110.2853,196.3592 110.0457,196.4039 109.357,195.9006 C 108.4368,195.6174 107.672,196.0755 107.0187,197.0362 C 106.3929,194.8309 106.825,192.6714 110.0282,192.095 C 111.3073,190.9524 112.2186,190.4308 112.9641,192.4425 C 115.0245,193.4398 117.0873,194.4736 118.2094,192.6626 C 119.4976,191.2986 119.7107,189.0585 119.5535,186.5148 C 118.8906,186.4964 118.2289,186.4676 117.5654,186.45 C 115.3748,189.0944 112.2829,190.2566 108.5828,190.4032 C 106.5029,190.6676 104.6897,191.4187 103.2733,192.8734 C 101.984,194.2356 102.9235,195.2871 104.469,196.2585 C 106.0149,196.7977 107.1652,197.5206 105.5368,199.5789 C 104.8281,200.6314 104.1192,201.6923 103.4105,202.7538 C 103.0613,203.834 103.0243,204.9125 103.1254,205.9922 C 102.2236,205.3794 101.7355,204.5382 101.4317,203.595 C 99.8853,203.2659 99.3983,204.8212 99.3065,207.0537 C 97.816,206.4319 97.3828,205.3711 97.6771,204.0159 C 95.8186,203.8053 95.6155,205.3517 95.5513,207.0537 C 94.3179,206.2307 94.1066,204.8389 94.9166,202.8914 C 95.5424,202.0397 96.7016,201.0241 97.7507,200.7781 C 98.7909,200.5207 98.5054,199.68 97.4382,200.0822 C 96.3797,200.4849 95.0538,201.501 94.9991,202.2151 C 94.1155,206.0653 92.6613,206.1212 91.382,206.4226 C 89.9096,206.5416 88.5385,206.4049 87.2687,205.9922 C 85.3453,204.5664 85.6674,201.116 88.9712,199.789 C 87.9958,201.08 87.7844,202.1044 89.2561,202.5435 C 90.3977,203.0098 91.1796,202.5889 91.7329,201.5551 C 92.6431,198.7193 94.1807,196.8519 96.5456,196.2585 C 98.2293,195.7375 99.5273,194.8768 100.1525,193.4309 C 100.6406,191.3269 102.9877,189.2411 105.2972,189.0215 C 106.5406,188.8384 107.5709,188.1337 108.2978,187.2924 C 106.4204,186.8532 105.077,187.1364 104.2575,188.1425 C 103.7418,186.3045 104.8462,185.1242 107.23,184.4742 C 108.3803,183.9085 108.6935,183.4217 107.7998,183.0567 C 106.7702,182.196 106.9167,179.9737 106.8068,178.0514 C 105.3896,178.4636 103.9815,178.6001 102.5643,178.6837 C 101.496,178.7926 100.2361,178.9021 100.3828,179.2771 C 102.0764,179.6898 103.4845,180.7136 104.1934,182.7088 C 105.0205,185.3161 103.1985,185.8019 101.496,186.2127 C 101.4876,190.3937 100.4934,193.0476 97.2538,193.0841 C 98.6255,190.4109 98.6444,187.5479 96.1959,185.3892 C 95.6155,187.0999 94.7413,188.5829 93.4985,189.7621 C 94.5386,190.2566 95.579,190.1552 96.6191,189.2045 C 96.4267,191.7748 95.2569,192.6891 93.2871,192.2322 C 92.082,191.8756 90.8857,191.2445 89.68,190.6776 C 87.3505,190.1552 86.4769,192.1964 88.7134,192.6891 C 89.2286,192.8911 89.7996,192.7728 90.3146,192.5161 C 90.8116,192.3601 91.309,192.5066 91.8054,192.9376 C 93.7468,194.3734 93.5179,195.8099 92.3033,197.2458 C 92.0178,197.831 91.5399,198.1335 91.3172,198.2612 C 91.1889,197.0268 90.9965,195.6462 90.0015,196.0925 C 88.9436,197.0627 88.2164,197.2546 87.5548,196.2585 C 87.5347,194.6019 86.238,194.1634 84.3699,194.2817 C 84.0196,195.5997 83.6612,196.9174 83.3114,198.2342 C 82.6302,198.1976 81.8667,198.06 81.5353,198.4438 C 80.7246,199.0025 80.7346,200.1288 80.9736,201.4086 C 78.9397,200.96 77.8169,199.799 78.4245,197.2458 C 78.0095,195.7187 78.6912,194.822 80.1277,194.3553 C 80.9547,194.1091 81.4976,193.7241 81.5353,193.0841 C 79.9334,192.9917 78.3327,193.12 76.722,193.3662 C 76.354,194.8768 73.9238,194.6943 73.9056,193.1931 C 72.7917,192.7173 72.0553,193.2202 71.2087,193.9249 C 70.8589,191.9303 71.2546,190.0464 74.1352,189.9905 C 75.0005,188.8843 76.3993,188.4539 76.722,189.9081 C 77.3301,190.2831 78.0006,190.5775 78.7282,190.3572 C 79.2063,190.1741 79.2245,189.1316 78.4245,189.0944 C 77.0346,188.9749 76.0862,188.3438 76.022,186.9075 C 75.1207,186.8632 74.227,186.8898 73.325,186.8432 C 73.6665,185.1789 75.452,184.4378 79.3447,184.6114 C 80.2278,184.6668 81.0742,184.629 81.0195,186.0944 C 80.7712,187.1094 81.2491,187.2193 81.9403,187.2471 C 82.1846,187.213 82.4131,187.1865 82.6314,187.1688 C 83.1889,187.1222 85.7221,185.0564 86.4799,183.6577 C 87.2958,182.1529 87.9169,180.6323 87.639,179.7888 C 86.415,180.6493 83.2984,182.7871 81.7654,183.0078 C 81.315,183.0726 80.2702,183.1397 79.9405,182.7475 C 79.4336,182.1441 80.2618,181.5972 80.6887,181.1829 C 80.9319,180.9467 83.7206,177.939 83.5215,177.8406 C 80.9531,176.5773 77.4037,181.1698 75.1437,179.3325 C 75.0128,179.2259 74.7438,178.8415 75.0783,178.4636 C 75.4379,178.0579 76.1892,177.3196 77.7433,175.9844 C 79.6866,174.3143 82.1245,173.6785 85.7133,174.5933 C 87.6643,173.7703 89.9832,173.1209 93.9217,173.3401 C 96.4903,173.2846 96.4584,171.8164 99.9093,170.8651 C 100.5174,170.6084 103.3522,168.6262 102.0822,168.3058 C 98.4101,167.5841 99.3065,169.763 96.5456,167.9604 C 95.5883,167.4299 94.833,167.5671 94.1437,167.8868 C 94.2638,167.0826 94.2638,166.2961 93.9965,165.5548 C 93.4808,165.0238 92.7444,166.9366 91.7329,167.6765 C 91.2809,168.3088 90.5908,168.7015 89.68,168.8752 C 89.9739,167.6502 90.1311,166.3413 89.965,164.8501 C 89.026,166.2678 87.8939,167.0638 86.4951,166.9731 C 87.1675,166.2861 87.692,165.4901 87.702,164.2927 C 85.1422,164.8596 82.6302,165.7374 80.7987,167.6961 C 82.1427,167.3474 83.4863,167.4576 84.2956,168.1711 C 85.9988,168.6102 86.0072,170.148 85.7875,171.8393 C 85.1611,171.2825 84.4347,170.6413 83.6151,170.6047 C 82.8969,171.3637 82.1699,172.0142 81.3234,171.9772 C 80.2648,171.9488 80.1918,171.4737 79.722,170.7873 C 78.949,169.9377 75.9118,170.3758 77.2924,171.7669 C 78.7559,173.4218 77.6697,174.0164 76.0308,174.3555 C 74.9905,174.8406 75.3044,176.1304 75.5252,177.4127 C 73.4817,177.192 72.1929,176.2135 72.2672,173.8897 C 71.6044,173.0292 71.8074,172.2155 73.2609,171.482 C 75.452,170.3581 73.6294,167.9243 72.0005,169.1959 C 71.0433,169.7535 70.1131,170.0838 68.9626,170.3022 C 68.4577,170.0285 68.2733,169.4616 68.1621,168.592 C 67.0212,168.1987 66.0645,168.4907 65.1897,169.0871 C 65.0148,166.9636 65.659,165.4542 68.5853,165.6273 C 69.4785,164.1461 70.1879,164.6493 71.218,166.0476 C 71.9351,166.1478 72.8835,166.0853 73.5365,165.9852 C 73.2887,165.6184 73.1408,165.0797 72.6904,164.7854 C 71.8992,164.0536 71.218,163.8241 70.2979,163.697 C 70.1413,162.7367 69.7922,161.8219 70.6383,161.3915 C 70.4816,160.6686 69.6804,160.4679 68.7973,160.34 C 69.3218,158.5828 71.7427,158.3273 73.6848,159.9827 C 75.7276,158.7211 76.5553,159.4245 76.1598,162.0968 C 76.0674,162.782 75.9672,163.4685 75.8743,164.1461 C 76.4358,164.521 77.0711,164.9873 77.6974,165.1705 C 78.5628,164.2732 79.9698,163.2123 80.8995,162.5171 C 81.2491,161.7758 80.7987,161.4733 80.5504,161.3273 C 79.5655,160.622 78.9031,159.5529 78.7094,157.9335 C 82.1522,160.1563 84.4435,159.0319 85.5749,154.5484 C 82.8875,154.2098 81.4158,152.9193 80.9736,150.8064 C 82.078,151.3192 83.1913,151.9863 84.2956,151.8679 C 84.5348,151.0996 83.8631,150.2572 83.4674,149.3517 C 81.1862,147.8153 79.851,145.6829 78.2862,143.7531 C 77.0162,143.4147 76.3817,143.5977 76.3717,144.32 C 76.2798,144.9058 76.1792,145.4916 76.0862,146.0768 C 76.1233,147.0563 74.9181,146.7172 73.9615,146.6436 C 71.7061,147.6315 69.8923,147.6039 69.0828,145.3079 C 70.1236,145.2355 71.1439,145.053 72.0553,144.4578 C 72.1018,144.22 72.0275,143.9909 72.0741,143.7531 C 73.5099,143.2403 74.8081,142.4449 75.5892,141.2092 C 75.1013,138.8038 72.1477,138.9675 70.4269,139.8735 C 69.2677,140.9532 68.2174,140.2492 68.6419,138.6201 C 67.4721,137.9337 66.4413,138.3905 65.6129,139.0235 C 65.567,136.708 66.506,135.3269 69.2943,135.7014 C 69.5798,134.9513 70.325,135.0614 71.2727,135.5642 C 72.1659,136.1964 73.169,136.5067 74.3194,136.4154 C 74.3276,136.4148 73.8784,135.4995 73.8237,135.4194 C 73.5959,135.0826 73.3215,134.7852 73.0155,134.5197 C 72.6191,134.1766 72.1512,133.8404 71.6549,133.6549 C 71.1609,133.4701 70.8454,133.2469 70.66,132.743 C 70.5305,132.3904 70.4774,131.9713 70.6353,131.6185 C 70.7289,131.4108 71.2799,131.0088 71.1344,130.7708 C 70.6565,129.9831 69.9487,129.4717 69.0092,129.2155 C 70.325,128.2911 71.6966,127.7149 73.4734,129.5623 C 74.0586,129.5129 74.7156,129.464 75.286,129.6405 C 75.7983,129.7989 75.8424,130.1699 75.7953,130.6413 C 75.7234,131.3695 75.6239,132.0908 75.7553,132.8196 C 76.0131,133.4236 76.2716,134.0376 76.5288,134.6499 C 76.9056,135.4194 77.3383,135.3169 77.5773,134.5039 C 77.89,133.5148 78.3327,132.6919 78.7741,131.8965 C 78.7559,131.3567 78.7282,130.8162 78.7094,130.277 C 79.0321,129.5352 79.7862,129.2248 80.8353,129.2155 C 81.0013,128.8123 81.0742,128.4101 81.0472,128.0175 C 82.5284,127.7967 82.9982,129.1696 83.1001,131.1187 C 83.7152,132.6006 83.514,133.8993 81.8208,134.86 C 80.5132,135.1161 80.1817,136.3053 80.1277,137.7511 C 79.8603,139.1236 80.1454,140.8343 81.8572,142.5351 C 84.2309,144.933 87.1393,146.818 90.1034,148.5471 C 88.0506,145.6829 87.1675,143.2962 89.5423,142.2707 C 89.5235,143.5694 89.7531,144.8135 91.6587,145.6559 C 91.4197,142.6552 91.8701,140.3768 94.0701,139.9371 C 94.3004,142.6827 95.2299,144.5944 98.0999,144.2476 C 96.7204,143.0384 95.828,141.7674 96.6834,140.2951 C 99.2143,141.7304 101.3034,142.1247 102.7758,140.9986 C 102.8223,140.6423 102.8682,140.2951 102.9141,139.9371 C 100.5211,139.0134 98.1639,138.7756 95.8368,139.2331 C 95.7902,139.05 95.7455,138.8586 95.699,138.6667 C 92.9475,139.618 90.4895,139.4072 88.2625,138.3182 C 85.3083,136.5615 84.8756,132.6006 88.1242,130.1303 L 88.1242,130.1303 C 88.0052,134.3119 89.7531,136.177 93.6285,135.1802 C 92.7349,133.7262 92.1091,132.0967 92.8639,130.908 C 93.3518,129.9749 94.7695,129.7283 96.3797,129.8466 C 96.7758,127.6407 98.1639,126.5532 101.4317,126.9559 C 106.4104,128.1358 105.9143,128.7581 109.9916,125.4006 C 110.0182,126.4161 110.037,127.4222 110.0646,128.4378 C 110.0282,128.8028 110.2129,129.0872 110.4879,129.1419 C 110.5438,128.6945 110.7187,128.1358 110.9584,127.6872 C 111.9785,129.2432 112.8621,129.6817 113.8195,128.0175 C 114.9344,126.5251 118.3654,126.461 121.3938,128.2271 C 119.0194,129.2697 117.3905,130.7521 116.5074,132.6735 C 115.8623,133.8993 113.4886,134.6317 111.5553,135.4918 C 113.1295,137.3939 115.0711,136.9099 117.1427,135.5642 C 116.7836,138.9957 114.7956,141.0262 110.8471,141.3552 C 112.1068,143.4329 113.847,143.3687 115.7992,142.3432 C 115.5312,144.3613 114.6351,145.2934 113.397,145.634 L 113.397,145.634 z M 101.984,129.7183 C 102.4078,130.4866 102.5643,131.2554 102.4444,132.0337 L 105.8035,132.0337 C 104.9387,130.5972 103.6776,129.5352 101.984,129.7183 z M 94.3004,134.5763 C 94.7229,134.1559 95.1556,133.7432 95.5883,133.3235 C 95.1368,133.2134 94.7594,133.2593 94.4657,133.4607 C 94.2349,133.8816 94.2173,134.2378 94.3004,134.5763 L 94.3004,134.5763 L 94.3004,134.5763 z "
   style="fill:#0a0b0c" />
  <path
   id="polygon26"
   class="fil3"
   d="M 173.725,74.5042 L 174.09,83.1089 L 166.1111,86.4465 C 165.2215,86.8612 165.2885,88.1589 166.2154,88.4803 L 175.133,91.1921 L 177.4276,100.4225 C 177.7227,101.3632 179.026,101.463 179.4614,100.579 L 183.1119,92.548 L 191.4558,93.3302 C 192.4858,93.4414 193.0828,92.1777 192.3424,91.4528 L 186.3973,85.6642 L 190.2042,77.9461 C 190.6704,77.0375 189.7363,76.0334 188.7962,76.4337 L 181.0781,80.0321 L 175.6545,73.7219 C 174.9804,72.948 173.6674,73.4525 173.725,74.5042 L 173.725,74.5042 z M 162.8257,56.304 L 156.6199,62.1969 L 149.5275,57.9728 C 148.6521,57.4781 147.6129,58.3162 147.9109,59.2765 L 150.9356,67.3076 L 144.3647,73.044 C 143.5232,73.7275 144.0658,75.1013 145.147,75.0257 L 154.4296,74.7128 L 159.3838,82.6917 C 159.9251,83.646 161.3896,83.3163 161.4698,82.2223 L 162.4085,73.4612 L 170.596,71.5317 C 171.5948,71.2728 171.7327,69.8974 170.8046,69.4457 L 163.3993,65.8474 L 164.6509,57.2948 C 164.8247,56.2924 163.606,55.5289 162.8257,56.304 L 162.8257,56.304 z M 134.0391,43.5795 L 129.6585,50.9847 L 121.7318,48.9509 C 120.6981,48.6726 119.9072,49.8952 120.5845,50.724 L 125.643,57.5556 L 120.9496,64.9608 C 120.47,65.8116 121.2579,66.8285 122.2011,66.5775 L 131.0144,63.6571 L 138.0025,69.9151 C 138.7856,70.738 140.1649,69.9716 139.8799,68.8721 L 138.3675,60.2152 L 145.6685,55.9389 C 146.5241,55.4141 146.2886,54.0996 145.3034,53.9051 L 137.2202,52.6014 L 136.0729,43.9967 C 135.9212,42.9543 134.5613,42.7185 134.0391,43.5795 L 134.0391,43.5795 z M 103.9488,40.1898 L 101.1327,48.3251 L 92.9452,47.96 C 91.8695,47.8937 91.3321,49.2556 92.163,49.9417 L 98.5252,55.5739 L 95.3441,63.8135 C 94.9801,64.7947 96.0583,65.6983 96.9607,65.1694 L 104.9918,60.476 L 113.075,65.1694 C 113.9628,65.6144 114.9538,64.7556 114.6394,63.8135 L 111.4583,55.5739 L 117.8206,49.9417 C 118.6513,49.2557 118.1142,47.8937 117.0383,47.96 L 108.8508,48.3251 L 106.0347,40.1898 C 105.6893,39.1816 104.2817,39.1914 103.9488,40.1898 z M 73.8063,43.9967 L 72.659,52.5492 L 64.5758,53.9051 C 63.5551,54.0477 63.2767,55.4061 64.1586,55.9389 L 71.5117,60.1631 L 69.9994,68.8721 C 69.7705,69.9189 71.0393,70.6433 71.8246,69.9151 L 78.8126,63.6571 L 87.6259,66.5775 C 88.599,66.9199 89.4705,65.8393 88.9297,64.9608 L 84.1841,57.5556 L 89.2947,50.724 C 89.8959,49.9013 89.1387,48.7645 88.1474,49.003 L 80.1685,50.9847 L 75.8401,43.5795 C 75.3118,42.6883 73.942,42.9642 73.8063,43.9967 z M 45.1761,57.2948 L 46.4799,65.8474 L 39.0225,69.4457 C 38.0956,69.9172 38.2692,71.3029 39.2833,71.5317 L 47.4707,73.5133 L 48.4094,82.2223 C 48.5503,83.2319 49.8746,83.537 50.4433,82.6917 L 55.4496,74.7128 L 64.7323,75.0257 C 65.8131,75.1005 66.355,73.7277 65.5145,73.044 L 58.8915,67.3076 L 61.9162,59.2765 C 62.2135,58.3165 61.1752,57.4787 60.2995,57.9728 L 53.3115,62.1448 L 47.0535,56.304 C 46.2612,55.5195 44.9913,56.2678 45.1761,57.2948 L 45.1761,57.2948 z M 34.1726,73.7219 L 28.8012,79.9799 L 21.083,76.4337 C 20.1233,75.9433 19.0989,77.004 19.6228,77.9461 L 23.4819,85.6642 L 17.5368,91.4528 C 16.7966,92.1778 17.3937,93.4413 18.4234,93.3302 L 26.7673,92.548 L 30.3657,100.579 C 30.765,101.5617 32.2034,101.4533 32.4517,100.4225 L 34.6941,91.2442 L 43.6116,88.4803 C 44.5387,88.1589 44.6055,86.8612 43.7159,86.4465 L 35.7371,83.1089 L 36.1021,74.5042 C 36.1692,73.4255 34.8276,72.955 34.1726,73.7219 L 34.1726,73.7219 z "
   style="fill:#0a0b0c;fill-rule:nonzero" />
  <path
   id="polygon38"
   class="fil4"
   d="M 33.7984,90.3256 L 43.3162,87.4519 L 34.5968,83.809 L 35.0236,74.4587 L 29.0671,81.3642 L 20.6155,77.4342 L 24.82,85.8799 L 18.3019,92.2363 L 27.448,91.4086 L 31.3824,100.1414 L 33.7984,90.3256 L 33.7984,90.3256 z M 54.8363,73.5793 L 64.7556,73.8997 L 57.5965,67.6484 L 60.8823,58.9073 L 53.1025,63.5566 L 46.2888,57.1217 L 47.6806,66.4836 L 39.533,70.4336 L 48.4716,72.5747 L 49.5179,82.1251 L 54.8363,73.5793 L 54.8363,73.5793 z M 78.5532,62.4001 L 87.9885,65.5441 L 82.8369,57.4972 L 88.3973,50.0494 L 79.6479,52.2856 L 74.8818,44.1569 L 73.6369,53.5421 L 64.7322,55.0007 L 72.7224,59.6149 L 71.097,69.0802 L 78.5532,62.4001 L 78.5532,62.4001 z M 105.0001,59.186 L 113.6194,64.2007 L 110.1633,55.261 L 117.0804,49.1032 L 108.0707,49.502 L 105.0001,40.5623 L 101.9328,49.502 L 92.9214,49.1032 L 99.8385,55.261 L 96.3791,64.2007 L 105.0001,59.186 z M 131.3085,62.4001 L 121.8715,65.5441 L 127.0214,57.4972 L 121.4627,50.0494 L 130.2105,52.2856 L 134.9799,44.1569 L 136.2248,53.5421 L 145.1294,55.0007 L 137.1376,59.6149 L 138.7647,69.0802 L 131.3085,62.4001 L 131.3085,62.4001 z M 155.0237,73.5793 L 145.1044,73.8997 L 152.2618,67.6484 L 148.976,58.9073 L 156.7592,63.5566 L 163.5695,57.1217 L 162.1811,66.4836 L 170.3281,70.4336 L 161.3884,72.5747 L 160.3404,82.1251 L 155.0237,73.5793 L 155.0237,73.5793 z M 176.0604,90.3256 L 166.5433,87.4519 L 175.2644,83.809 L 174.8372,74.4587 L 180.7931,81.3642 L 189.2438,77.4342 L 185.0402,85.8799 L 191.5584,92.2363 L 182.4101,91.4086 L 178.4785,100.1414 L 176.0604,90.3256 L 176.0604,90.3256 z "
   style="fill:#ffffff" />
  <path
   id="path94_1"
   class="fil5"
   d="M 97.2624,129.728 C 96.9128,130.1388 96.5542,130.5234 95.5145,130.4775 C 93.5542,130.4597 92.6988,131.1908 93.4895,133.2315 C 95.3214,131.7125 98.8832,133.5505 102.7202,137.3205 C 100.3183,135.9766 98.1374,136.7077 96.2782,138.0352 C 96.0944,138.4002 96.2051,138.5285 96.6378,138.4367 C 98.9467,138.2178 101.1472,138.3002 102.9233,139.4524 C 103.4932,137.9982 103.751,136.5151 102.6284,135.3725 C 101.0365,133.4139 98.6153,131.2922 97.2624,129.728 L 97.2624,129.728 z M 87.6359,131.8038 C 84.8754,134.5937 87.2314,138.4556 91.4837,138.5285 C 94.1153,138.6664 96.8215,137.4224 99.3704,135.1247 C 98.4229,134.6037 97.2901,134.0632 96.3341,133.5505 C 95.7453,134.2739 95.1095,134.9057 94.3913,135.3625 C 94.2813,135.4356 94.456,136.132 94.3449,136.1961 C 94.2347,136.2603 93.8302,135.6834 93.7102,135.7381 C 93.1309,136.0041 92.5045,136.1685 91.7963,136.1767 C 88.5206,135.8846 87.5546,134.1645 87.6359,131.8038 L 87.6359,131.8038 z M 72.5796,145.0245 C 72.8651,145.5095 73.104,145.9022 73.5186,146.2136 C 71.6582,146.9824 70.5091,146.671 69.9485,145.8021 C 70.8128,145.646 71.8531,145.463 72.5796,145.0245 z M 69.0921,136.4151 C 67.7109,136.1685 66.8191,136.7172 66.3675,137.5685 C 67.2418,137.4306 68.199,137.3665 68.7424,138.0711 C 68.7518,137.513 68.9165,136.9739 69.0921,136.4151 z M 70.6745,129.1875 C 71.089,129.718 71.5034,130.2583 71.9267,130.7977 C 72.2581,131.0996 72.543,131.036 72.7733,130.5969 C 73.4543,129.4518 71.2085,128.7307 70.6745,129.1875 z M 81.4892,130.7977 L 82.4558,130.7977 C 82.5836,129.8922 82.4087,129.1511 81.5715,128.7848 C 81.5533,129.3889 81.5439,129.9923 81.5256,130.5969 L 81.4892,130.7977 L 81.4892,130.7977 z M 80.413,130.1516 C 80.403,130.1414 80.413,130.1347 80.413,130.1748 C 80.413,130.8303 80.7515,131.3837 81.4243,131.5232 C 81.7174,131.584 82.109,131.7501 82.3542,131.9765 C 82.571,132.1768 82.6914,132.4587 82.5286,132.7321 C 82.3365,133.0549 81.9932,133.2998 81.6103,133.5458 C 81.2273,133.7917 80.8074,134.0355 80.4595,134.3827 C 80.0788,134.7617 79.8184,135.5046 79.6226,136.2309 C 79.2274,137.6969 79.1535,139.1687 79.6807,140.6247 C 80.1746,141.9889 81.3062,143.6847 83.7026,145.2859 C 82.9759,146.4565 82.49,146.9769 82.2264,147.2388 C 80.989,146.241 80.1619,145.0683 79.4599,144.1584 C 79.0972,143.6885 78.764,143.2916 78.3905,143.0309 C 78.0169,142.7702 77.595,142.6504 77.1235,142.7752 C 76.5858,142.9178 76.256,143.0276 76.0308,143.1704 C 75.8056,143.3132 75.7053,143.5329 75.7053,143.7748 C 75.7053,144.3415 75.6746,145.0004 75.4845,145.5417 C 75.3559,145.9077 74.9839,145.8183 74.6592,145.7625 C 74.0323,145.6549 73.3859,144.9968 73.1364,144.4141 C 73.0272,144.1591 73.2239,144.0624 73.427,143.9143 C 74.1322,143.363 75.3907,142.8777 75.8448,141.9964 C 75.9411,141.739 76.0675,141.3572 76.0726,140.9757 C 76.0836,140.1568 75.5183,139.4174 74.8568,138.8928 C 74.3433,138.5497 73.5695,138.3274 72.3344,138.5324 C 71.1094,138.7356 70.5458,139.0497 70.2421,139.2647 C 70.0909,139.3717 70.0179,139.5212 69.8585,139.381 C 69.4536,139.0232 69.6577,137.2026 69.8236,136.661 C 69.852,136.5682 69.9331,136.2649 70.0561,136.2425 C 70.2936,136.1999 70.5374,136.2971 70.8116,136.4285 C 71.0859,136.5598 71.3827,136.7307 71.7183,136.7307 C 72.5866,136.7307 73.4748,137.0637 74.357,137.1259 C 74.9704,137.169 75.2085,136.976 75.0195,136.3936 C 74.9415,136.1534 74.811,135.8703 74.6592,135.5799 C 74.3555,134.9993 73.9801,134.411 73.7293,134.1618 C 73.5938,134.0268 73.3751,133.9019 73.1132,133.755 C 72.8513,133.6081 72.5531,133.4551 72.2647,133.29 C 71.9762,133.125 71.701,132.9508 71.5091,132.7902 C 71.1785,132.5136 71.0985,132.1298 71.4626,131.8138 C 71.6132,131.6831 71.8513,131.597 72.1717,131.5464 C 72.5717,131.4822 72.8563,131.1937 73.0899,130.9304 C 73.191,130.8165 73.4489,130.4539 73.6014,130.4189 C 73.945,130.3389 74.5469,130.1217 74.8917,130.2678 C 74.9708,130.3014 74.9963,130.3204 74.9963,130.4305 C 74.9963,130.7461 74.9792,131.2631 74.9963,131.7905 C 75.0133,132.318 75.0593,132.8595 75.2055,133.2551 C 75.35,133.642 75.7222,134.3395 76.1122,134.9639 C 76.3072,135.2761 76.5059,135.5717 76.6818,135.7892 C 77.1377,136.3534 77.3771,136.2352 77.7279,135.7194 C 77.901,135.465 78.0997,135.1184 78.2975,134.743 C 78.693,133.9922 79.092,133.1146 79.2971,132.5694 C 79.3971,132.3026 79.3331,131.8779 79.332,131.5929 C 79.3315,131.4391 79.3187,130.9079 79.4366,130.7909 C 79.6051,130.6223 80.1633,130.1601 80.413,130.1516 L 80.413,130.1516 z M 75.1822,160.4552 C 75.3478,160.4552 75.4062,160.7682 75.4264,160.8853 C 75.4812,161.2044 75.4811,161.6625 75.4496,162.129 C 75.4181,162.5955 75.3615,163.0801 75.3101,163.4658 C 75.2774,163.7113 75.2055,163.9982 75.2055,164.2446 C 75.2055,164.421 75.3597,164.61 75.4729,164.7328 C 76.0035,165.3093 76.945,165.8719 77.7279,165.8719 C 78.4569,165.8719 79.5128,164.939 80.0411,164.4887 C 80.7697,163.8677 81.276,163.3475 81.3778,163.2449 C 81.9058,163.8756 82.5447,164.629 82.8424,165.407 C 82.0342,165.8921 80.9819,166.8717 80.5409,167.4412 C 80.4135,167.6201 80.1991,167.9721 80.4014,168.1735 C 80.5427,168.3139 80.7495,168.366 80.971,168.3944 C 81.4679,168.4578 82.0296,168.3357 82.5053,168.4641 C 82.3631,168.6399 82.2356,168.8493 82.2148,169.1499 C 82.1885,169.528 82.3368,170.0354 82.6797,170.7424 C 82.1419,171.1135 81.5498,171.4068 80.9361,171.0097 C 80.5251,170.7438 80.2625,170.2382 80.1108,169.9636 C 79.9897,169.744 79.7367,169.68 79.4366,169.6381 C 78.7002,169.5354 77.15,169.6475 76.5655,170.2309 C 76.2283,170.5662 76.2926,170.9955 76.4609,171.3933 C 76.6321,171.7981 76.921,172.2077 77.1583,172.6022 C 77.2539,172.7605 77.2431,172.8734 77.17,172.9974 C 77.0349,173.2677 76.4241,173.5222 75.9262,173.5321 C 75.5614,173.1673 74.289,173.1485 73.7874,173.1485 C 73.5508,173.1485 73.2594,173.0943 73.0551,173.009 C 72.6786,172.8523 72.6883,172.709 72.9621,172.4627 C 73.1066,172.3327 73.3094,172.1869 73.5316,172.0443 C 73.9761,171.759 74.4872,171.484 74.7057,171.3817 C 75.1021,171.1958 74.9704,170.5283 74.9033,170.196 C 74.8033,169.7018 74.6325,169.1681 74.5546,168.8593 C 74.4402,168.4021 74.0202,168.2726 73.613,168.1967 C 73.1949,168.1188 72.732,168.127 72.439,168.127 C 71.9538,168.127 71.2687,168.5467 70.8349,168.7547 C 70.1965,169.0609 69.5082,169.3475 69.1378,169.3475 C 68.9692,169.3475 68.9066,169.0765 68.8821,168.9523 C 68.7367,168.2171 68.9465,166.318 69.44,165.8254 C 69.5181,165.7477 69.5937,165.7422 69.7422,165.7906 C 70.1522,165.9241 70.4575,166.2411 70.7884,166.4996 C 70.906,166.5915 71.0726,166.7438 71.2301,166.7438 C 71.9905,166.7438 72.7934,166.7301 73.5433,166.5926 C 73.8517,166.5361 74.3189,166.4552 74.2407,166.0347 C 74.1698,165.6541 73.8008,165.2159 73.5665,164.9304 C 73.1244,164.3918 72.5926,163.8507 72.3693,163.6285 C 71.9758,163.2372 71.5378,162.8721 71.2417,162.3964 C 71.0642,162.1111 71.114,162.05 71.3696,161.8849 C 71.5498,161.7686 71.8007,161.6475 72.067,161.5362 C 72.7549,161.2489 73.4264,161.148 74.1012,160.7807 C 74.4115,160.6118 74.7807,160.4552 75.1822,160.4552 L 75.1822,160.4552 z M 70.1234,159.9277 C 70.5832,160.3209 71.1626,160.7507 71.3009,161.1446 C 71.7972,160.8607 72.3229,160.5864 73.04,160.4128 C 72.3229,159.7269 71.1626,159.5444 70.1234,159.9277 L 70.1234,159.9277 L 70.1234,159.9277 z M 68.3827,166.314 C 68.3555,166.9086 68.328,167.5027 68.3008,168.0884 C 67.3706,167.7416 66.5424,167.7682 65.8253,168.1708 C 65.9254,166.7437 66.7732,166.1209 68.3827,166.314 z M 75.3871,174.3093 C 74.7513,174.6843 74.623,175.4267 74.7431,176.332 C 73.6469,176.149 72.9568,175.6003 73.1601,174.2369 C 73.9613,173.7795 74.7066,173.8065 75.3871,174.3093 L 75.3871,174.3093 L 75.3871,174.3093 z M 83.2923,168.656 C 83.0263,169.1586 83.0263,169.6526 83.2923,170.1565 C 83.9824,169.9912 84.617,170.1011 85.1974,170.4761 C 85.7955,169.9912 83.8899,168.2161 83.2923,168.656 z "
   style="fill:#ed1c24" />
 </g>
</svg>