<?xml version="1.0" encoding="UTF-8" standalone="no"?>
<svg
        xmlns:dc="http://purl.org/dc/elements/1.1/"
        xmlns:cc="http://web.resource.org/cc/"
        xmlns:rdf="http://www.w3.org/1999/02/22-rdf-syntax-ns#"
        xmlns="http://www.w3.org/2000/svg"
        xmlns:sodipodi="http://sodipodi.sourceforge.net/DTD/sodipodi-0.dtd"
        xmlns:inkscape="http://www.inkscape.org/namespaces/inkscape"
        width="744.09448"
        height="985.03937"
        id="svg2"
        sodipodi:version="0.32"
        inkscape:version="0.44.1"
        sodipodi:docname="POL powiat starogardzki COA.svg"
        sodipodi:docbase="C:\Documents and Settings\Mistrz\Pulpit"
        version="1.0">
  <metadata
     id="metadata2735">
    <rdf:RDF>
      <cc:Work
         rdf:about="">
        <dc:format>image/svg+xml</dc:format>
        <dc:type
           rdf:resource="http://purl.org/dc/dcmitype/StillImage" />
      </cc:Work>
    </rdf:RDF>
  </metadata>
  <sodipodi:namedview
     inkscape:window-height="719"
     inkscape:window-width="1024"
     inkscape:pageshadow="2"
     inkscape:pageopacity="0.0"
     guidetolerance="10.0"
     gridtolerance="10.0"
     objecttolerance="10.0"
     borderopacity="1.0"
     bordercolor="#666666"
     pagecolor="#ffffff"
     id="base"
     inkscape:zoom="0.28732013"
     inkscape:cx="301.23918"
     inkscape:cy="844.27568"
     inkscape:window-x="-4"
     inkscape:window-y="-4"
     inkscape:current-layer="svg2"
     width="210mm"
     height="278mm"
     units="mm" />
  <defs
     id="defs4">
    <marker
       id="ArrowEnd"
       viewBox="0 0 10 10"
       refX="0"
       refY="5"
       markerUnits="strokeWidth"
       markerWidth="4"
       markerHeight="3"
       orient="auto">
      <path
         d="M 0,0 L 10,5 L 0,10 L 0,0 z "
         id="path7" />
    </marker>
    <marker
       id="ArrowStart"
       viewBox="0 0 10 10"
       refX="10"
       refY="5"
       markerUnits="strokeWidth"
       markerWidth="4"
       markerHeight="3"
       orient="auto">
      <path
         d="M 10,0 L 0,5 L 10,10 L 10,0 z "
         id="path10" />
    </marker>
  </defs>
  <g
     id="g1956">
    <path
       style="fill:#222;fill-rule:evenodd;stroke:none"
       d="M 744.05667,0.26190242 L 735.85413,544.96265 C 728.39957,606.15321 714.2157,666.3355 696.30959,715.67205 C 677.65298,765.00606 656.00696,803.49433 629.14781,836.04674 C 601.53815,868.61179 568.68755,896.24167 525.4031,920.91752 C 482.11865,945.57569 427.64225,969.26602 372.40271,985.03936 C 316.4354,969.26602 261.94636,945.58579 218.66444,920.91752 C 175.37999,896.24167 142.5395,868.61179 114.91973,836.04674 C 88.060574,803.49433 66.422138,765.01617 47.757945,715.67205 C 29.851085,666.3355 15.667208,606.15321 8.2126493,544.96265 L 0,0.26190242 L 744.09458,0.26190242"
       id="path658" />
    <path
       style="fill:#fffbd3;fill-rule:evenodd;stroke:none"
       d="M 730.62078,13.0938 L 723.15861,543.99483 C 715.70661,604.18975 701.5227,662.39849 683.61663,710.74446 C 666.46101,759.10306 645.56298,795.61524 619.43414,827.19477 C 593.31539,858.76167 561.97592,884.42556 520.18238,909.08373 C 478.39895,932.76395 426.14123,955.45613 372.40271,971.24969 C 317.92631,955.45613 265.68881,932.77406 223.89527,909.08373 C 181.35122,884.42556 150.75215,858.77177 124.6334,827.19477 C 98.524752,795.62534 77.626719,759.11317 60.450911,710.74446 C 42.544808,662.39849 28.360173,603.1916 20.908142,543.99483 L 13.453583,13.0938 L 730.68143,13.0938"
       id="path660" />
    <path
       style="fill:#222;fill-rule:evenodd;stroke:none"
       d="M 566.42844,565.7116 C 566.42844,565.7116 575.37138,570.62655 584.33454,570.62655 C 591.03606,570.62655 597.0174,570.62655 599.24871,565.7116 C 602.97852,557.81482 603.72903,546.95643 601.49014,537.0962 C 598.50831,526.23781 591.78657,516.38516 585.82293,506.50471 C 579.1113,493.68287 569.40774,483.82264 569.40774,483.82264 L 596.26689,472.97436 C 596.26689,472.97436 603.72903,483.82264 610.44319,495.67665 C 615.6639,503.56332 620.89473,512.44814 624.62706,522.30838 C 628.34929,532.17114 632.8195,542.04148 634.32052,551.91182 C 635.06092,563.75825 633.57001,574.59642 629.83767,584.47687 C 626.11798,593.35916 619.39624,600.25021 611.19117,603.22192 C 602.23054,606.18353 591.78657,604.20744 580.60221,603.22192 C 570.14814,602.23388 560.44458,597.30882 560.44458,597.30882 L 566.41833,565.74192"
       id="path662" />
    <path
       style="fill:#222;fill-rule:evenodd;stroke:none"
       d="M 497.01513,315.05902 C 497.01513,315.05902 494.03331,300.26108 494.03331,286.4512 C 494.03331,272.63121 493.2828,259.80936 496.26462,247.97557 C 498.50604,236.14935 504.46716,225.29097 509.69799,215.41052 C 511.1889,212.45902 513.43032,210.49556 516.41214,208.51948 C 522.37326,205.56039 529.8354,205.56039 535.80663,201.61074 C 546.25059,195.69763 557.44507,188.7889 565.64761,179.90408 C 573.10975,172.99534 578.33299,163.13258 579.08097,158.19741 C 579.08097,157.222 573.86026,163.13258 567.88903,167.08224 C 560.42689,172.01741 552.96222,177.93052 546.99099,179.90408 C 544.74957,180.89212 543.26119,177.94062 545.50008,176.94247 C 550.71322,172.02752 559.67638,170.05395 566.39812,164.12063 C 576.83197,154.2604 585.79513,143.41212 594.00778,131.5758 C 598.47799,125.66269 599.9689,116.78039 603.71134,110.86729 C 605.94013,105.93211 608.92195,102.9604 612.65428,100.01901 C 615.63358,97.057399 620.86693,97.057399 620.86693,96.059247 C 618.62551,95.083837 611.90377,94.095792 605.94013,95.083837 C 596.23909,96.059247 587.29362,98.045444 579.82138,102.97051 C 573.86026,105.93211 569.38752,112.84085 563.41629,117.76591 C 558.93598,121.70546 552.96222,124.67717 548.49201,128.61419 C 541.03998,133.54936 534.31825,139.46247 534.31825,138.48706 C 535.05865,137.49901 544.01928,128.61419 552.96222,118.75396 C 557.43496,113.81878 563.41629,107.90568 566.39812,101.98246 C 569.37994,97.047292 569.37994,90.138558 567.13852,90.138558 C 566.39812,90.138558 562.66578,98.035336 555.94405,103.95602 C 547.7415,109.86913 537.29754,113.81878 528.33438,119.73189 C 519.39144,125.65258 508.9399,130.58017 503.71665,138.48706 C 498.49593,145.37557 496.25451,154.2604 495.51411,164.12063 C 494.0232,174.96891 499.24644,186.82292 497.00502,197.68131 C 495.51411,208.52958 488.05197,217.4043 484.31964,229.2482 C 479.84943,243.04798 474.6186,256.87808 473.12769,270.67786 C 471.63678,282.52429 473.86809,294.35809 476.10699,306.20452 C 477.5979,320.00429 482.82114,334.8098 482.82114,334.8098 L 496.99491,315.0767"
       id="path664" />
    <path
       style="fill:#222;fill-rule:evenodd;stroke:none"
       d="M 406.70631,33.832635 C 409.68561,32.847117 412.66743,32.847117 415.65936,34.810572 C 416.40734,34.810572 417.15785,35.798617 417.89826,36.776554 C 418.64877,37.762072 418.64877,38.740009 419.38917,39.735635 C 419.38917,40.713572 419.38917,41.701617 420.13968,42.697242 C 420.13968,44.663224 419.38917,45.648742 419.38917,47.614724 C 418.64877,50.573805 417.15785,55.511502 414.16845,59.458628 C 414.91896,58.470583 416.40734,58.470583 417.15785,57.495173 C 417.89826,56.507128 418.64877,56.507128 419.38917,54.533565 C 420.88008,53.54552 422.37099,51.571957 423.8619,49.598395 C 425.35029,52.560002 426.85131,54.533565 427.59171,56.507128 C 428.34222,57.495173 429.08262,58.470583 429.83313,58.470583 C 428.34222,55.519083 427.59171,51.56185 427.59171,47.624832 C 428.34222,45.65885 428.34222,43.685287 429.08262,42.70735 C 429.83313,40.72368 429.83313,39.745743 430.57353,38.750117 C 435.04374,32.837009 439.53669,32.837009 444.0069,34.810572 C 444.7473,34.810572 446.23821,35.798617 447.73923,36.776554 C 448.47964,34.810572 449.97055,32.837009 452.94984,30.863446 C 455.19126,28.897465 458.9236,27.911947 462.6534,25.928276 C 466.38574,23.962294 470.85595,21.988731 476.0893,20.015169 C 467.87665,31.859072 461.913,44.691021 458.1832,55.539299 C 454.45086,66.377469 452.95995,74.284355 452.21955,79.201836 C 451.46904,84.137007 451.46904,85.122525 451.46904,87.098615 C 433.56294,90.050114 414.90885,92.013569 397.74315,92.013569 C 380.57745,92.013569 363.41175,89.06207 354.4587,88.074025 C 345.50565,87.098615 344.00463,87.098615 342.51372,87.098615 C 341.76321,77.225747 340.27482,67.365514 337.293,58.480691 C 333.57077,49.598395 329.09046,41.711724 326.09853,34.800464 C 323.1167,28.887357 320.87781,24.940231 317.89599,20.005061 C 326.09853,23.942078 334.31118,26.903686 339.542,29.875402 C 344.01474,32.826901 344.76525,34.790356 346.25616,36.766446 C 350.72637,33.814946 355.95972,32.826901 360.42993,35.788509 C 361.17033,36.766446 361.92084,37.751964 362.66124,38.740009 C 363.41175,39.725527 364.15215,40.703464 364.90266,42.697242 C 366.39105,47.614724 366.39105,53.535412 364.15215,58.470583 C 364.90266,58.470583 364.90266,57.495173 365.65317,57.495173 C 365.65317,56.507128 366.39105,56.507128 367.14156,55.529191 C 367.88196,53.54552 368.63247,51.571957 370.12338,49.598395 C 372.35469,52.560002 374.59612,54.533565 376.0845,56.507128 C 377.57541,58.470583 379.06632,58.470583 379.81683,59.468736 C 378.32592,57.505281 377.57541,55.529191 376.0845,53.535412 C 375.3441,51.571957 375.3441,49.598395 374.59612,47.624832 C 374.59612,45.65885 373.84561,44.673332 373.84561,42.70735 C 373.84561,41.721832 374.59612,40.72368 374.59612,39.745743 C 375.3441,38.760225 375.3441,37.782288 376.0845,36.784135 C 379.81683,32.847117 382.79866,31.86918 387.27897,33.832635 C 388.02948,30.873554 390.2608,26.923902 392.49969,22.986884 C 393.9906,21.020902 395.48151,19.047339 396.97243,17.073777 C 399.95425,21.010794 402.19314,24.960447 404.42446,27.922055 C 405.92548,30.873554 405.92548,31.859072 406.66588,33.832635"
       id="path666" />
    <path
       sodipodi:nodetypes="ccccscccccccccccccsccccccccccccccccccccccccccccccccccccccccccccccccccccccccccccccccccccscccccccccscccccccccccsccccccccscccccccccsccccccscccccccccccccccccccccccccccccccccccccccccccccccscsccccsccccscscccccccscccsccccccccccccccccccccccccccccsccccccsccccccsccscccccccsccccccsssccccccsccccccccccccccccccsccccscccccccccscccccccccccscccccccccccscccccsccsccccccccccscsssscsccccccccscccccccccccscscc"
       style="fill:#222;fill-rule:evenodd;stroke:none"
       d="M 463.43424,120.6694 C 464.17464,121.64481 465.66555,123.61079 467.90445,124.60642 C 470.14587,125.59446 473.12769,126.5724 476.1171,125.59446 C 479.09892,125.59446 482.83125,123.61079 485.06004,122.63285 C 488.04186,121.64481 489.54288,119.67125 489.54288,122.63285 C 489.54288,125.59446 487.30146,132.49309 483.57165,137.43078 C 480.58983,142.36595 476.1171,145.31745 472.37718,147.29102 C 468.65496,148.27906 465.66555,148.27906 462.67362,146.31308 C 462.67362,149.26458 461.93322,152.22619 461.93322,158.13929 C 461.18271,164.0524 461.18271,172.9347 460.44231,180.84158 C 459.6918,187.73263 458.95139,194.64136 457.4529,201.55262 C 455.96199,208.46135 454.47108,216.34803 452.23977,223.25676 C 450.74885,231.14343 449.25794,238.05469 447.01905,244.95331 C 445.52814,252.85009 444.03722,258.77331 443.28671,266.65998 C 441.7958,274.55676 441.7958,283.43147 443.28671,290.3402 C 444.03722,297.25146 447.76956,303.16204 449.99834,307.1117 C 452.98017,311.05124 454.47108,314.02043 456.7125,316.98204 C 458.95139,319.93354 460.44231,322.89515 462.67362,325.84665 C 460.44231,325.84665 457.4529,325.84665 455.22159,325.84665 C 452.98017,325.84665 451.48926,325.84665 449.25794,325.84665 C 449.99834,329.80388 451.48926,333.74342 453.73068,339.66664 C 456.7125,344.60181 460.44231,350.51492 464.92515,356.43813 C 467.90445,355.45009 470.88627,354.47215 475.359,350.52502 C 479.08881,346.58548 484.31964,340.65216 488.04186,334.73147 C 492.5247,328.81836 495.504,322.90525 497.73532,319.93354 C 499.97674,315.99652 501.46765,313.02481 503.70654,310.07331 C 505.93786,307.1117 509.67019,303.16204 513.4101,299.22503 C 517.88284,296.26342 521.61265,294.28986 523.11366,287.3786 C 525.34498,281.46802 524.60458,270.60963 525.34498,260.74687 C 526.09549,251.86457 529.07478,244.95331 534.30814,236.09123 C 538.77835,227.20641 546.24049,217.33607 553.70262,207.47331 C 561.15718,198.59101 568.61932,190.70434 580.56178,177.86987 C 592.50676,166.04618 608.91184,149.25447 625.33714,135.44459 C 642.49273,120.64918 661.15945,107.81723 674.58271,99.930563 C 688.01861,92.033785 696.98177,89.082285 706.68533,88.084133 C 703.6934,99.930563 700.71157,111.76436 696.99187,124.59631 C 692.50903,137.42068 686.5378,152.22619 682.80547,162.08642 C 678.33526,171.95929 675.35344,178.86802 671.61352,184.79124 C 677.58475,179.85607 684.29638,175.90641 689.51963,170.97124 C 694.74035,167.0317 698.48026,162.09653 699.97117,167.0317 C 700.70147,170.97124 698.48026,183.80319 693.25954,198.60112 C 687.29842,213.39653 679.08577,230.16802 670.87312,244.97353 C 663.41098,259.77146 655.94632,273.58893 652.21651,281.4756 C 648.49429,288.38686 647.74378,291.34846 648.49429,294.29996 C 649.9852,291.34846 652.96702,288.38686 656.70693,285.41514 C 660.42916,283.45169 666.40039,280.50019 671.62363,276.55053 C 677.59486,272.5933 684.30649,267.67835 690.28783,262.73054 C 688.04893,271.60526 685.81762,279.50203 681.32467,288.38686 C 676.85446,298.24709 670.88323,308.11743 664.91958,316.01421 C 659.69887,323.90341 653.71753,330.81214 647.75388,336.72525 C 641.79276,343.63398 634.33062,349.54709 628.34929,354.48226 C 622.38564,358.4218 617.15482,361.39099 617.91543,361.39099 C 617.91543,362.36893 623.12604,360.40547 629.84778,358.43191 C 637.30992,355.4703 645.52257,351.52065 654.47562,348.56915 C 662.67816,344.63213 671.63121,340.67237 680.59437,336.72525 C 677.61508,343.63398 673.13223,350.54271 667.91152,357.45397 C 663.42867,363.36708 658.20795,369.28019 650.00541,377.17697 C 641.80287,385.08133 631.33869,394.94409 623.13615,400.85719 C 614.19321,405.79236 608.22198,407.76593 608.96238,408.74386 C 610.45077,409.72938 617.92554,409.72938 626.12808,407.76593 C 633.58011,405.80247 641.79276,401.85282 648.5145,396.91765 C 649.2549,396.91765 649.2549,396.91765 650.00541,395.9296 C 650.00541,395.9296 650.00541,395.9296 649.2549,399.88936 C 647.76399,403.82638 645.53268,410.72753 641.05236,418.63442 C 636.57963,426.52109 629.85789,433.42982 622.40586,440.34108 C 613.46291,444.2781 604.49976,449.20316 604.49976,451.17925 C 603.75935,453.16292 612.7023,452.16477 620.91495,452.16477 C 609.72047,459.07603 598.52853,464.98914 588.07446,469.92431 C 578.381,473.86133 570.16835,476.81283 561.2153,477.81098 C 551.52185,478.78639 541.81829,479.77444 531.37685,478.78639 C 538.82888,487.66111 545.55062,497.54155 550.02083,507.40431 C 554.49357,517.26455 556.73499,528.11283 558.2259,539.96684 C 558.9663,551.80316 558.9663,564.625 558.2259,573.50982 C 557.47539,583.37006 555.24408,589.28316 553.75316,593.2404 C 551.51174,597.17994 550.02083,599.1535 547.78194,602.105 C 546.29102,604.08868 544.05971,608.03833 544.80011,610.01189 C 546.29102,612.96339 550.02083,613.95144 555.98448,616.90294 C 562.69611,619.86454 572.39967,622.83373 580.61232,625.78523 C 588.06435,628.74684 594.78609,629.72478 601.50024,631.71855 C 607.46136,633.68201 612.69219,635.6581 616.42452,638.6096 C 620.89473,642.54662 623.12604,648.47994 625.37757,657.35465 C 627.61647,666.23695 629.84778,679.05879 631.33869,693.86683 C 632.8296,708.66223 632.8296,725.43373 630.59829,744.199 C 628.35687,763.91946 623.88666,785.62613 619.40382,798.45808 C 614.93361,812.27807 610.44319,817.20313 601.50024,819.16911 C 592.55477,822.13072 579.8517,822.13072 567.91683,822.13072 C 556.72488,823.11624 546.27081,824.09418 539.55918,824.09418 C 532.85513,825.08222 529.85562,825.08222 526.13339,825.08222 C 521.66318,825.08222 515.68185,823.11624 510.46871,822.12061 C 505.24799,820.15463 500.77526,818.18107 495.54443,819.15901 C 491.0717,819.15901 485.09036,822.12061 480.62015,826.06774 C 476.14742,830.00728 472.41761,834.94246 469.42568,835.9305 C 467.18426,835.9305 466.44386,831.01302 467.93477,823.11624 C 470.17619,815.20935 474.6464,803.38567 474.6464,801.40958 C 473.89589,798.44797 467.93477,805.34912 463.45445,811.27234 C 458.98172,816.20751 455.99231,820.14452 454.5014,821.12246 C 453.01049,822.11051 453.01049,820.14452 453.01049,817.18544 C 452.27009,814.23394 452.27009,810.2944 452.27009,806.33717 C 452.27009,802.39762 452.27009,798.44797 453.01049,794.50084 C 453.761,789.56567 454.5014,784.65072 457.4807,780.68085 C 459.72212,775.7659 464.94284,772.79418 468.68528,770.82062 C 473.15549,768.85716 476.13731,766.88107 476.87771,765.88545 C 478.37873,764.90751 476.87771,763.91946 473.89589,764.90751 C 470.91659,764.90751 465.69335,766.87096 460.47263,770.82062 C 455.99231,775.75579 452.27009,781.66889 450.01856,783.64246 C 447.78725,785.60591 446.28875,783.64246 445.54835,778.70729 C 445.54835,773.79233 446.28875,767.86912 447.03926,760.96038 C 448.52765,755.04728 450.76907,750.11211 453.75089,745.16683 C 456.73019,741.22728 460.46252,737.27763 464.18475,736.29211 C 467.91455,734.32866 471.64689,734.32866 475.37669,734.32866 C 479.10903,734.32866 482.09085,734.32866 485.08025,733.35072 C 488.81259,732.36268 491.79188,729.41118 496.27473,728.41555 C 500.00453,727.43761 504.47727,727.43761 508.95758,729.40107 C 514.18083,731.36705 519.41166,733.34061 525.3753,737.28774 C 530.59602,742.22291 535.82685,747.1505 539.54907,751.08752 C 544.02939,755.04728 547.75161,757.99878 550.74354,758.98429 C 553.73295,760.95028 555.22386,760.95028 557.45517,758.98429 C 559.69659,757.02084 561.18498,753.06361 563.4264,747.14039 C 564.91731,742.22291 566.40822,734.31855 566.40822,728.39533 C 566.40822,721.48407 564.91731,715.57349 562.67589,709.65028 C 559.69659,703.73717 555.96426,697.80385 551.48395,693.85672 C 547.01121,688.94177 542.53089,684.9719 538.79856,683.00844 C 534.32835,682.03051 531.34653,681.04499 529.8354,682.03051 C 527.60409,683.00844 526.85358,684.98201 526.85358,687.94361 C 526.1157,691.88316 526.85358,696.81833 526.1157,697.80385 C 524.62479,698.79189 523.13388,694.85235 520.89246,692.88889 C 519.40155,689.92729 517.91064,687.95372 514.93134,685.98016 C 512.68992,684.01418 508.95758,683.01855 506.71869,683.01855 C 504.47727,684.00407 503.73687,685.98016 503.73687,689.92729 C 503.73687,692.88889 505.22778,697.81396 505.96818,700.77556 C 506.71869,703.73717 506.71869,704.71511 506.71869,705.71073 C 505.96818,705.71073 505.22778,705.71073 502.98636,703.74728 C 500.00453,701.78382 496.27473,697.82406 492.54239,694.87256 C 488.81259,690.93555 485.08025,687.96383 482.84894,685.99027 C 479.86964,684.02429 479.11913,684.02429 478.37873,684.02429 C 477.62822,685.00222 476.87771,685.99027 476.87771,688.95946 C 476.87771,690.92544 476.87771,692.899 476.14742,695.8505 C 476.14742,697.81396 476.14742,700.78567 475.39691,701.78382 C 474.65651,701.78382 473.906,700.79578 471.67721,698.82222 C 470.1863,696.85623 467.19437,692.90911 464.96305,689.9475 C 462.72416,686.00796 460.49285,682.06083 458.25142,679.08912 C 456.76051,676.13762 456.01,674.17416 453.77869,676.13762 C 451.53979,679.08912 448.55797,685.00222 446.31655,689.9475 C 444.08776,694.88267 443.33725,697.83417 441.84634,698.82222 C 441.10594,698.82222 440.35543,695.86061 438.86452,690.93555 C 438.12412,685.99785 436.6231,680.08727 434.39431,673.17601 C 431.41249,665.28934 427.68015,657.38245 425.43115,654.43095 C 422.44933,651.46934 421.70893,653.44543 420.95842,655.40889 C 419.4675,657.37234 419.4675,660.34406 418.7271,664.2836 C 417.97912,667.24521 416.48821,672.18038 415.7377,675.13188 C 414.24679,678.09349 413.50638,680.06705 412.75587,680.06705 C 412.01547,681.04499 411.26496,679.07901 410.52456,677.10544 C 409.03365,674.15394 406.79475,671.19234 403.81293,667.24521 C 401.57151,664.2836 397.85181,661.3321 394.84977,659.35854 C 392.61846,657.37234 391.13007,657.37234 388.88865,658.3705 C 386.65734,658.3705 384.41592,659.35854 383.66541,661.3321 C 382.92501,663.29556 383.66541,666.24706 385.90683,669.21877 C 387.39774,673.15579 390.37956,677.10544 392.61846,680.07716 C 394.84977,683.02866 396.35079,684.99211 398.58211,686.98589 C 400.07302,688.94935 401.5614,689.93739 401.5614,691.90085 C 402.31191,694.86246 400.821,696.83855 396.35079,701.77372 C 392.61846,706.68867 385.15632,712.61189 376.94367,721.49418 C 367.99062,729.39096 357.54666,739.25372 350.07441,748.13602 C 342.62238,757.02084 338.14206,763.91188 335.16024,768.84705 C 330.14317,775.89611 325.26637,783.02989 320.98647,790.55372 C 316.35924,797.52493 311.55282,804.35549 306.82028,811.26223 C 296.22024,821.54301 282.99006,823.7783 268.77929,824.07396 C 256.20734,823.76866 243.77475,823.00373 231.52219,819.8723 C 223.30022,817.62968 215.17368,814.80955 206.84833,813.23579 C 193.36898,813.97177 183.29555,822.80312 171.80685,828.0034 C 171.06645,828.0034 171.06645,828.0034 170.31594,827.02546 C 170.31594,826.03742 170.31594,825.06201 170.31594,823.08592 C 171.80335,809.99631 177.69394,799.33193 186.72102,790.54361 C 187.46142,790.54361 188.21193,789.55557 188.96244,788.57763 C 189.70284,787.59211 191.19123,786.61417 188.21193,786.61417 C 185.23011,785.62613 180.00939,784.65072 176.26695,786.61417 C 166.58998,788.49075 160.09378,798.86905 153.16034,805.3188 C 153.16034,806.29673 152.40983,806.29673 151.66943,806.29673 C 151.66943,806.29673 150.91892,806.29673 150.91892,804.33328 C 150.17852,803.35534 149.42801,801.38178 148.68761,798.42017 C 146.41827,783.45066 151.50648,772.36459 163.5942,763.89167 C 170.36557,761.1668 172.59292,761.73465 175.52655,760.95028 C 177.75786,759.96223 177.75786,757.98867 177.75786,757.01073 C 177.75786,757.01073 177.01746,756.02269 175.52655,756.02269 C 172.54725,756.02269 165.82299,757.01073 160.60227,758.98429 C 158.37095,759.96223 156.12953,760.95028 153.89064,762.92384 C 151.65932,764.88729 148.6775,766.86086 147.18659,768.83695 C 143.45678,772.77396 141.96587,775.74568 140.47496,778.69718 C 138.98405,773.78222 138.98405,769.83257 138.98405,764.8974 C 138.19959,748.22369 143.92867,733.91555 161.35278,729.41118 C 162.84369,728.42566 164.3346,727.44772 165.07248,727.44772 C 166.56339,727.44772 166.56339,726.45968 167.3139,726.45968 C 167.3139,726.45968 168.06441,726.45968 168.80481,726.45968 C 169.55532,725.47416 170.29572,725.47416 171.78663,723.49807 C 173.27754,722.52266 174.02553,720.54657 175.51644,719.56105 C 176.25684,718.58311 177.00735,717.59507 177.74775,716.60955 C 178.49826,715.62151 179.98917,714.64357 181.48009,713.64794 C 182.971,712.6599 185.95029,712.6599 189.69273,712.6599 C 193.42254,712.6599 198.64579,713.64794 203.1261,714.64357 C 208.33924,715.62151 212.82966,716.60955 217.29987,718.58311 C 221.77261,719.56105 225.51252,722.52266 230.73577,725.47416 C 235.20597,728.43324 241.17973,733.37094 244.90953,736.32244 C 249.88533,738.98594 254.06326,742.54498 258.32522,746.18267 C 259.81613,748.14612 261.31462,749.13417 262.80553,750.12221 C 265.78736,752.08567 267.27827,752.08567 269.50958,749.13417 C 270.99797,748.15623 272.49899,746.18267 273.9899,743.22106 C 275.48081,740.25945 277.71212,737.30795 279.20304,733.36083 C 280.69142,730.39922 282.19244,727.44772 284.42375,724.47601 C 285.91467,721.5144 288.89396,718.5629 290.38487,716.58934 C 291.88589,714.62588 293.37681,712.6321 294.86772,710.66612 C 295.60812,709.69071 297.09903,707.71462 297.84701,705.75117 C 299.33792,701.81162 297.84701,698.84243 294.86772,695.88082 C 291.01959,689.29437 286.15159,683.18164 281.44193,677.15346 C 280.69142,676.17805 279.95102,676.17805 279.20304,677.15346 C 278.0933,682.2194 276.42829,687.34143 273.9899,691.93117 C 273.23939,692.91922 272.49899,692.91922 271.74848,691.93117 C 267.73354,683.97037 263.29967,675.82917 260.56664,667.27301 C 258.32522,661.3599 256.83431,657.40267 256.0939,652.4776 C 256.0939,648.53806 256.0939,643.59278 256.83431,638.65761 C 255.34339,639.64566 253.11208,640.62107 251.62116,641.61922 C 249.38227,642.59716 246.40045,644.58083 244.90953,643.58267 C 244.15902,643.58267 244.15902,639.64566 245.64994,632.7344 C 247.14085,624.84773 250.12267,613.98934 253.85248,604.12911 C 258.32522,594.25877 263.55604,586.3721 271.75859,579.45073 C 280.70153,571.56406 291.91622,564.65532 307.5809,557.74659 C 323.24558,551.83348 342.6527,546.88821 354.59516,544.92222 C 367.28054,541.97072 371.75328,541.97072 376.23359,541.97072 C 364.28861,539.01164 352.35626,536.06014 342.6527,531.12245 C 332.94914,527.18543 326.23751,523.23578 320.26628,518.3006 C 315.04304,513.36543 311.30312,508.44037 308.3213,503.5052 C 307.5809,505.46866 306.83039,507.44222 306.08999,511.39187 C 304.59907,515.32889 302.36018,520.26659 300.86927,525.21186 C 296.39653,532.10038 292.66673,539.01164 287.43337,544.93233 C 282.96317,550.85555 277.73992,555.78061 271.76869,560.72589 C 262.06513,568.61256 251.63127,575.52382 240.43933,580.45899 C 229.23475,585.37394 216.55189,588.34566 204.61701,591.30727 C 205.35742,599.19394 204.61701,607.08061 203.8665,614.96728 C 202.37559,621.87854 200.88468,629.76521 198.65589,634.70038 C 197.15487,640.61349 194.92356,644.57072 192.68214,646.54428 C 190.45083,648.51026 186.72102,649.49578 182.24828,653.43533 C 177.76797,656.39693 171.79674,662.31762 165.07248,665.27923 C 157.62044,668.22062 148.66739,668.22062 142.68606,665.27923 C 136.72494,663.31577 132.9926,658.3705 131.49158,652.45739 C 135.96432,653.43533 140.45474,652.45739 144.17697,652.45739 C 147.1689,651.46934 149.39769,650.49393 150.8886,649.49578 C 152.37951,648.51784 152.37951,648.51784 152.37951,645.55876 C 152.37951,642.59716 152.37951,637.67209 153.87042,634.71049 C 155.36133,630.77094 159.09114,628.79738 160.58205,625.82566 C 162.07296,622.87416 161.33256,619.91256 158.35074,621.88612 C 155.36133,622.87416 150.8886,628.79738 147.15879,633.73255 C 144.16686,637.67209 141.93555,641.61922 138.19563,643.59278 C 134.4633,646.55439 129.25269,648.52795 125.51025,648.52795 C 121.78044,649.50589 119.54913,647.54243 117.30771,647.54243 C 115.8168,647.54243 113.5779,649.50589 111.34659,650.50404 C 109.10517,651.47945 106.12334,651.47945 103.14405,650.50404 C 99.411713,649.516 96.42989,647.54243 94.180888,645.56634 C 91.949574,643.60289 90.458662,640.63117 89.708153,635.70611 C 89.436036,633.8923 89.263928,631.9464 89.191832,630.01455 C 89.202444,624.90167 88.836542,619.29779 91.949574,614.98749 C 93.031729,617.18024 94.40965,619.67509 96.196016,621.6474 C 99.639243,625.13019 104.54895,627.70776 109.09506,624.83762 C 110.58597,623.8521 112.82739,620.9006 114.3183,618.92704 C 116.5298,616.94699 118.06297,614.86529 120.73558,613.51074 C 125.21804,611.32508 130.48066,609.70498 133.22766,607.95518 C 133.64477,607.68949 134.05195,607.40288 134.45319,607.10082 C 134.45319,606.34627 134.0124,605.58569 133.46628,605.2776 C 133.08121,605.13108 132.70373,605.30374 132.33465,605.545 C 127.29944,607.71394 122.42064,610.13774 117.30771,612.01578 C 115.8168,612.01578 114.32588,612.01578 112.8375,611.03026 C 111.34659,610.05232 109.85568,608.07876 108.36476,607.09071 C 105.38294,604.13921 103.88445,604.13921 101.65313,604.13921 C 100.16222,604.13921 98.671312,603.15117 97.920802,603.15117 C 97.1804,603.15117 96.42989,603.15117 95.689488,603.15117 C 94.941505,603.15117 93.450594,603.15117 92.700084,603.15117 C 90.46877,602.16565 89.71826,601.18771 87.486947,599.21415 C 85.050023,596.64019 83.56885,593.64122 82.625482,590.21933 C 80.893319,583.97981 81.082358,577.18753 84.497542,571.59438 C 85.317726,572.81956 86.094678,573.92797 86.976482,574.89123 C 90.76922,579.16829 97.09527,581.73802 101.63251,583.40497 C 102.6604,583.37951 103.27584,583.23642 103.88445,582.43255 C 104.63496,581.44703 104.63496,580.4691 104.63496,578.49553 C 96.42989,574.53577 88.217241,569.62082 80.755101,563.6976 C 74.043472,558.76243 67.321734,552.84932 62.090908,545.94059 C 56.877771,540.02748 53.147965,533.11622 49.405524,526.20749 C 45.683299,519.29876 43.444404,512.40771 41.952734,504.50083 C 39.711313,495.63622 38.970911,487.73186 38.970911,478.84704 L 38.970911,286.43098 L 102.40364,286.43098 C 103.15415,283.4719 104.64254,280.5204 106.88396,278.54431 C 109.11527,275.58271 111.3567,274.6073 114.33599,273.60914 C 117.31782,273.60914 121.79055,273.60914 124.76985,275.57512 C 126.27087,272.61352 128.50218,270.63743 130.7436,270.63743 C 132.97239,269.66202 135.95421,269.66202 138.95625,270.63743 C 142.67595,270.63743 146.40828,271.62547 147.89919,270.63743 C 148.64718,268.67397 146.40828,266.70041 144.16686,264.72685 C 141.18504,263.74891 138.95625,264.72685 136.71483,265.71236 C 134.47341,265.71236 132.24209,267.67835 130.75118,267.67835 C 129.2628,268.65376 127.77189,269.6418 126.28097,268.65376 C 124.77996,268.65376 124.03955,267.67835 123.28904,266.6903 C 122.54864,265.71236 121.80066,263.7388 121.80066,261.77535 C 118.81884,262.75076 116.58752,263.7388 113.59559,265.71236 C 111.3668,267.67835 109.87589,269.65191 107.63447,272.60341 C 106.14356,269.66202 105.40316,267.68593 104.65265,265.71236 C 103.16174,262.75076 103.16174,259.78915 103.16174,256.83765 C 103.16174,252.90063 104.65265,249.92892 106.14356,245.9919 C 107.63447,243.03029 109.87589,241.0542 113.59559,238.1027 C 116.58752,236.13925 121.06026,233.16753 126.29108,231.19397 C 131.50169,229.23051 136.73505,227.25442 141.95576,227.25442 C 147.17648,226.26891 150.89871,227.25442 154.64115,228.23236 C 158.37095,230.19834 161.35278,233.16753 162.84369,234.15558 C 164.3346,234.15558 165.07248,231.19397 165.82299,229.22041 C 166.56339,227.25442 166.56339,225.28086 164.3346,224.28523 C 162.84369,222.31925 159.11136,222.31925 156.12195,222.31925 C 152.38962,221.34384 150.1583,222.31925 148.66739,222.31925 C 146.4285,222.31925 145.67799,222.31925 144.93759,222.31925 C 146.4285,217.38408 149.4078,212.45902 153.89064,208.51948 C 158.37095,205.56039 163.58409,204.56224 167.32401,204.56224 C 171.79674,203.5843 174.03564,203.5843 177.02757,204.56224 C 180.00939,205.55029 182.24828,207.52385 184.4796,209.49741 C 187.46142,211.46087 189.70284,212.45902 191.94174,215.41052 C 193.43265,215.41052 195.66396,216.39856 197.90538,217.37397 C 200.14428,218.36202 203.1261,219.33996 204.61701,221.33373 C 206.84833,222.30914 208.33924,225.27075 209.08722,227.24684 C 210.57813,230.19834 210.57813,232.1618 210.57813,236.12914 C 211.32864,240.06868 211.32864,244.99375 211.32864,249.92892 C 212.06905,254.86409 211.32864,260.77719 211.32864,265.72247 C 211.32864,270.63743 211.32864,273.60914 212.81956,277.5588 C 213.55996,280.5204 215.80138,283.4719 218.78068,286.43098 L 297.13693,286.43098 C 297.88744,282.49397 299.37836,277.5588 302.36018,274.6073 C 304.59907,271.64569 309.07181,269.67212 312.81172,267.69604 C 307.59101,268.67397 302.36018,268.67397 297.13693,268.67397 C 303.84856,261.78545 310.57283,255.85213 317.29457,250.92707 C 324.0062,245.9919 330.71783,242.05235 335.20067,236.12914 C 340.41128,231.19397 344.14361,224.28523 346.39261,219.35006 C 348.62393,214.43258 349.37444,210.48546 350.11484,205.55029 C 350.86535,200.61259 350.86535,193.72407 348.62393,190.75236 C 347.13302,186.81534 343.40321,185.81719 340.42139,185.81719 C 336.69916,185.81719 333.71987,187.78064 329.97742,187.78064 C 326.24762,188.76869 321.77488,189.74662 317.29457,188.76869 C 312.82183,188.76869 307.59101,185.80708 303.85867,183.83351 C 299.38846,180.88202 294.91573,176.92225 291.92632,173.97328 C 289.6849,171.01167 288.19399,168.06017 287.44348,166.08408 C 291.17582,166.08408 294.90562,167.06202 298.63795,167.06202 C 303.11827,167.06202 307.60111,167.06202 311.32334,167.06202 C 315.80365,166.08408 318.78548,165.09857 322.51528,164.10041 C 326.24762,163.125 329.97742,162.13696 332.21885,161.14891 C 334.46027,160.1634 335.95118,159.18546 335.95118,159.18546 C 335.21078,158.19741 333.71987,158.19741 330.72793,157.222 C 328.49662,157.222 324.76681,157.222 321.03448,158.19741 C 316.56427,158.19741 311.33092,159.18546 305.3698,160.1634 C 299.40868,161.14891 292.68442,162.12685 287.4637,162.12685 C 282.25309,161.14891 277.77024,160.1634 273.28993,157.2119 C 268.81719,154.25029 264.34699,150.30064 260.60454,145.36547 C 256.87474,140.45051 254.64342,133.53167 253.15251,127.61856 C 251.6616,121.69535 251.6616,116.77028 253.15251,115.77213 C 253.89291,114.79672 256.87474,116.76018 260.60454,119.71168 C 263.58637,122.67328 268.05658,126.6103 271.79902,130.55995 C 275.52882,134.49697 279.25105,137.46869 284.48187,138.46684 C 290.44552,139.44225 297.16726,139.44225 303.87889,139.44225 C 310.59052,139.44225 316.56427,139.44225 321.78499,139.44225 C 327.74864,139.44225 332.22895,140.4303 335.96129,140.4303 C 338.94058,140.4303 340.43149,139.44225 340.43149,138.46684 C 340.43149,136.48317 338.20018,134.50708 334.47037,132.53352 C 330.73804,130.57006 325.52743,128.59397 320.29408,128.59397 C 314.33296,128.59397 309.10213,130.55995 303.87889,131.55558 C 298.65817,132.53352 293.43493,133.52156 288.21421,134.50708 C 283.24662,118.76197 296.32843,104.97528 310.58294,100.0089 C 313.56223,99.020854 317.29457,99.020854 321.77488,98.045444 C 326.24762,98.045444 332.21885,97.057399 337.43956,98.045444 C 339.68099,99.020854 341.1719,100.0089 341.9123,101.98246 C 343.40321,103.94844 343.40321,105.92201 344.90423,112.83074 C 345.64463,119.72178 347.13302,131.5758 348.62393,134.5273 C 349.37444,136.49075 350.11484,128.61419 350.11484,122.6935 C 350.11484,115.78224 349.37444,110.86729 348.62393,106.89994 C 347.89363,102.9604 347.13302,100.0089 345.64463,98.035336 C 344.15372,96.051666 341.9123,94.075576 339.68099,92.112121 C 341.9123,86.199014 346.39261,80.275798 352.36637,75.340628 C 358.32749,71.40361 366.54014,69.42752 374.75279,68.442002 C 382.95533,67.464065 392.65889,68.442002 401.61194,69.42752 C 410.5751,71.393502 420.26855,73.367065 429.97211,76.338781 C 438.91506,79.29028 449.3666,83.247514 456.83127,86.199014 C 464.2833,89.160621 469.51413,91.134184 474.73484,93.110274 C 480.69849,95.073729 486.66972,96.059247 490.40205,93.110274 C 494.87226,90.148666 497.11368,81.263843 499.3551,81.263843 C 500.84601,80.285906 502.3344,87.197166 502.3344,92.122229 C 502.3344,97.057399 500.84601,100.01901 498.60459,103.96613 C 496.36317,107.90568 493.38135,111.8528 488.15052,114.81441 C 482.93991,117.76591 476.95605,119.73189 472.48584,120.72752 C 468.01311,121.70546 465.77421,121.70546 463.53279,120.72752"
       id="path668" />
    <path
       style="fill:#fff101;fill-rule:evenodd;stroke:none"
       d="M 391.7795,36.784135 C 391.7795,37.77218 391.7795,38.750117 391.7795,40.72368 C 392.53001,42.70735 392.53001,44.680913 393.27042,46.646895 C 393.27042,45.65885 392.53001,44.680913 391.7795,43.685287 C 388.80021,40.72368 385.07798,36.776554 382.08605,38.750117 C 381.34565,38.750117 380.59767,38.750117 379.85727,40.713572 C 379.10676,41.701617 379.10676,42.697242 379.10676,44.673332 C 379.85727,48.61035 382.08605,53.535412 385.81839,59.468736 C 385.81839,57.505281 385.07798,55.529191 386.56889,52.560002 C 388.05981,51.571957 389.55072,51.571957 391.0391,52.560002 C 393.27042,55.519083 393.27042,59.468736 390.29112,63.40828 C 388.80021,66.35978 386.56889,66.35978 384.32747,66.35978 C 380.59767,66.35978 376.12493,64.393798 370.89411,58.470583 C 370.1537,59.458628 370.1537,60.436565 369.40319,61.43219 C 364.93046,65.371735 360.46025,67.345298 355.97741,65.371735 C 353.73851,64.38369 351.49709,61.43219 350.00618,59.458628 C 349.26578,58.470583 349.26578,57.495173 348.51527,56.49702 C 348.51527,55.519083 347.78497,53.535412 350.00618,51.56185 C 351.49709,50.583913 354.48902,50.583913 356.71781,53.525304 C 357.46832,55.511502 358.20872,58.463002 357.46832,60.436565 C 361.19055,55.519083 361.94105,49.588287 359.69963,44.663224 C 359.69963,43.675179 358.95923,42.697242 358.95923,41.701617 C 355.97741,37.762072 352.988,38.740009 350.00618,40.713572 C 349.26578,40.713572 348.51527,41.701617 347.77487,42.697242 C 345.53597,43.675179 344.04506,45.648742 343.29455,47.614724 C 343.29455,45.648742 342.55415,42.697242 342.55415,40.703464 C 341.06324,37.751964 340.31273,36.766446 336.59303,33.814946 C 335.10212,32.826901 332.11019,31.848964 329.87887,30.853339 C 334.35161,38.740009 338.83192,47.624832 341.81375,56.507128 C 344.80568,64.393798 346.29406,73.278621 347.78497,82.160917 C 364.19006,84.126899 380.60525,87.098615 397.03055,87.098615 C 413.44826,87.098615 429.87356,84.137007 446.27865,82.160917 C 447.77966,73.288729 449.26805,64.403906 452.24987,56.507128 C 455.2317,47.632413 459.7019,38.750117 464.18475,30.853339 C 461.95343,31.838857 458.97161,32.816794 457.47059,33.814946 C 455.2418,35.778401 454.49129,36.766446 453.75089,37.751964 C 453.00038,38.729901 452.25998,39.717946 451.50947,40.703464 C 451.50947,42.687134 450.76907,45.638634 450.76907,47.614724 C 450.01856,46.636787 449.27816,45.648742 448.52765,44.663224 C 445.54835,40.703464 440.32511,36.766446 436.58519,40.703464 C 435.84479,40.703464 435.09428,41.691509 435.09428,42.687134 C 432.86297,45.638634 432.86297,48.600242 433.60337,52.549894 C 433.60337,55.511502 434.35388,57.485065 435.84479,60.436565 C 435.84479,57.485065 435.84479,55.519083 438.08621,52.549894 C 440.315,51.56185 442.55642,50.583913 444.78773,52.549894 C 446.27865,54.513349 445.53824,57.485065 443.29682,60.436565 C 442.55642,61.422083 442.55642,61.422083 441.80591,62.40002 C 436.58519,67.33519 432.10235,67.33519 426.89174,63.388064 C 425.39072,61.422083 423.89981,60.426457 423.15941,58.452894 C 420.18011,61.414502 417.93869,63.388064 414.95686,65.361627 C 411.22706,66.339564 408.24523,67.325082 404.50279,65.361627 C 401.5235,61.422083 400.7831,58.452894 402.27401,53.517724 C 402.27401,53.517724 402.27401,52.539787 403.76492,52.539787 C 404.50279,51.551742 406.00381,51.551742 407.49473,52.539787 C 408.23513,54.503241 408.98564,56.476804 408.23513,59.44852 C 409.72604,56.486912 411.21695,54.513349 412.70786,51.551742 C 412.70786,50.573805 413.45584,49.588287 414.19625,48.600242 C 414.19625,46.636787 414.19625,45.638634 414.19625,44.663224 C 414.94676,42.697242 414.94676,41.701617 413.45584,39.725527 C 411.21695,36.766446 408.98564,37.762072 406.00381,39.725527 C 403.76492,41.691509 401.5235,44.663224 400.7831,46.636787 C 401.5235,44.673332 401.5235,42.697242 402.27401,40.713572 C 402.27401,38.750117 402.27401,37.762072 402.27401,36.776554 C 401.5235,34.810572 401.5235,33.825054 400.7831,31.859072 C 400.03259,30.873554 398.54167,27.922055 397.05076,25.928276 C 395.55985,27.911947 394.07147,30.863446 393.32096,31.859072 C 392.58055,33.825054 392.58055,34.810572 391.83004,36.776554"
       id="path670" />
    <path
       style="fill:#ec2a32;fill-rule:evenodd;stroke:none"
       d="M 301.47069,295.32591 L 301.47069,481.81875 C 301.47069,488.72749 301.47069,494.64059 299.97978,501.54933 C 298.48886,507.46243 295.50957,514.37369 292.52774,521.28243 C 288.79541,528.17095 285.07571,534.09416 280.58276,540.02748 C 276.11255,544.94244 270.89183,549.88772 266.40899,554.82289 C 257.45594,560.736 248.50289,566.6491 238.79933,571.59438 C 228.35537,576.52955 217.16342,580.4792 205.96895,582.45277 C 194.77447,584.41622 182.83202,585.40427 170.89714,585.40427 C 158.95469,585.40427 147.01981,583.44081 135.81523,581.46472 C 124.62329,578.51322 114.17933,574.55599 105.23638,569.64103 C 95.532821,564.70334 87.320172,558.79276 79.858032,551.8815 C 72.406001,544.97276 66.432246,538.08172 61.95193,531.17298 C 56.738793,523.28631 53.759497,515.37943 51.507967,506.49461 C 48.526144,497.63253 47.778161,488.7477 47.778161,478.86725 L 47.778161,295.33602 L 301.52881,295.33602"
       id="path672" />
    <path
       sodipodi:nodetypes="ccccccccccccccscccccccccccccccccccccccccccccccccccccccccccccccccscccccc"
       style="fill:#fff101;fill-rule:evenodd;stroke:none"
       d="M 266.42021,435.49854 C 268.73704,423.62443 272.57694,410.28102 276.84285,398.96197 C 281.98702,387.41299 288.14201,376.21279 294.74895,365.41898 C 287.36199,369.79393 276.48021,375.85364 274.60143,385.14197 C 272.7164,377.95398 265.41802,375.65006 257.97592,378.65941 C 252.59107,381.56121 250.04794,387.51016 249.17755,393.30907 C 249.09647,395.17309 249.2534,397.08274 249.2534,398.91143 C 251.25382,396.43342 253.25687,393.91281 255.21253,392.19763 C 257.19231,390.26523 259.34307,389.74715 261.88001,390.50083 C 266.02297,392.34189 265.11789,397.26438 264.16757,400.88499 C 262.51404,407.64721 256.97111,413.31979 250.61171,416.05723 C 246.26702,417.73849 241.44874,417.47532 236.85557,415.62158 C 233.74575,414.33856 231.14116,412.20646 229.07438,409.3882 C 226.12036,405.02247 224.92108,400.22874 226.88467,394.97441 C 228.32962,392.84178 230.06372,392.15745 231.70851,392.37651 C 234.27595,392.71846 236.62577,395.2616 237.31852,397.93349 C 239.49275,395.17805 240.24019,391.62568 239.75166,388.27389 C 238.97405,384.53012 237.01733,381.17273 231.50008,381.09194 C 228.74737,381.36911 227.27641,382.8799 225.39629,385.13187 C 226.06141,379.33469 221.69016,373.58077 219.43264,368.37048 C 217.93983,373.02076 212.36271,380.14107 214.95232,385.13187 C 212.65504,383.45782 211.44679,381.6391 207.29597,381.63201 C 199.10513,383.80471 198.8947,393.20517 202.84829,399.16803 C 203.74492,395.70111 205.51489,392.08319 210.66493,393.62088 C 214.82128,395.0698 213.46141,400.22426 213.46141,403.85671 C 212.09647,408.8721 209.87773,415.21912 205.66234,418.12123 C 200.14437,421.22939 194.03914,419.99107 189.95135,415.45611 C 187.31052,411.81144 186.03959,407.19372 184.94925,402.88919 C 183.94068,398.05898 183.93045,392.88003 183.64065,388.06315 L 183.64065,350.57304 L 201.54675,350.57304 L 201.54675,332.81603 L 183.64065,332.81603 L 183.64065,309.1358 C 177.66942,309.1358 171.69819,309.1358 165.73455,309.1358 L 165.73455,332.81603 L 147.82844,332.81603 L 147.82844,350.57304 L 165.73455,350.57304 L 165.73455,388.06315 C 165.6514,395.0235 165.07963,402.0518 163.20699,408.77335 C 162.081,412.54985 158.86099,416.54669 155.44532,418.45623 C 149.71566,421.15488 144.27613,418.293 140.69579,413.73678 C 138.58119,410.78319 137.31165,407.17886 136.25509,403.75473 C 135.44905,399.82036 135.27154,394.91325 139.37102,393.03496 C 143.03009,391.8891 145.24021,395.46466 146.34764,398.93164 C 148.54336,396.21376 149.48897,393.24586 149.32946,390.05693 C 149.07997,386.01221 145.88157,383.02793 141.85739,382.16912 C 139.16009,381.92256 137.12509,383.4693 135.1658,385.14197 C 135.54016,379.05327 132.53739,373.67373 129.94256,368.38059 C 127.88965,373.91461 123.98144,379.07257 123.98144,385.15208 C 122.36485,382.42876 120.64248,381.38492 117.50168,381.19883 C 114.19064,381.55151 112.3413,383.82392 110.93524,386.6043 C 109.34769,390.3296 110.29295,394.10294 112.04656,397.95371 C 112.77936,394.00959 115.63877,391.06573 119.5087,392.0406 C 123.59751,394.62097 123.23093,398.6535 123.23093,402.87119 C 122.87136,406.57228 119.63875,411.34526 115.54566,414.15396 C 107.67292,418.71533 98.897464,416.95506 91.919255,411.74338 C 88.447664,408.08663 85.78936,403.84681 84.457116,398.95186 C 84.066444,394.43102 84.649609,390.26997 89.680361,390.08725 C 94.762963,390.54661 97.303596,395.24143 100.1218,398.94175 C 101.1487,392.11385 99.373039,385.94266 94.534786,380.67853 C 90.75068,378.08588 86.907226,376.76199 82.430231,377.6438 C 78.77924,378.78443 76.029527,381.60559 74.773771,385.13187 C 74.023261,383.14819 73.272751,381.17463 72.532349,380.19669 C 71.681269,379.07396 70.829362,377.9471 69.83678,376.81894 C 65.700143,371.8424 60.086934,368.72535 54.636355,365.41898 C 59.10909,372.33024 62.849004,379.21876 66.581337,386.13002 C 73.054205,398.48573 77.159378,411.78223 81.099016,425.09084 C 83.402522,433.27389 83.726822,441.75025 83.726822,450.23164 C 144.17697,451.20705 205.37764,451.20705 265.8379,450.23164"
       id="path674" />
    <path
       style="fill:#fff101;fill-rule:evenodd;stroke:none"
       d="M 83.549934,477.87921 L 265.64837,477.87921 L 265.64837,455.19713 L 83.549934,455.19713 L 83.549934,477.87921 z "
       id="path676" />
    <path
       sodipodi:nodetypes="cccccccccccccccc"
       style="fill:#fff101;fill-rule:evenodd;stroke:none"
       d="M 173.84864,501.55944 L 192.49515,493.66266 L 182.06129,524.25414 C 192.17249,520.21379 202.93818,517.05366 212.65278,512.42793 L 204.45024,531.15277 L 212.65278,549.88772 L 182.06129,538.06403 L 193.24566,568.63277 L 174.61427,561.44404 L 155.94254,568.63277 L 167.88752,538.06403 L 136.53795,549.88772 L 143.98998,532.13071 L 136.53795,513.40587 L 167.12691,524.25414 C 167.12691,524.25414 155.18192,493.66266 155.93243,493.66266"
       id="path678" />
    <path
       style="fill:#fffdfd;fill-rule:evenodd;stroke:none"
       d="M 161.90619,272.62362 C 163.39457,276.58086 163.39457,281.50592 164.14508,283.47948 C 164.87538,284.46753 166.3764,284.46753 167.12691,283.47948 C 167.87742,280.52798 167.87742,276.59097 168.61782,273.61925 C 170.10873,270.65764 172.34762,268.68408 172.34762,266.72063 C 173.08803,262.78108 173.08803,257.8358 171.59964,253.89626 C 170.10873,250.94476 167.87742,248.9813 167.12691,250.94476 C 166.3764,251.92269 168.61782,257.8358 167.87742,261.79304 C 167.12691,264.74454 165.636,267.70614 164.14508,267.70614 C 162.65417,267.70614 160.41528,262.77097 159.67488,261.79304 C 158.18396,261.79304 156.68294,264.74454 157.43345,266.71052 C 158.18396,268.67397 161.16579,269.67212 161.90619,272.62362"
       id="path680" />
    <path
       style="fill:#fffdfd;fill-rule:evenodd;stroke:none"
       d="M 184.30272,249.92892 C 185.79363,250.91696 187.28454,253.86846 188.78303,256.83765 C 191.01434,258.80363 192.50526,260.77719 193.99617,260.77719 C 195.48708,259.78915 197.72597,256.83765 199.9674,254.86409 C 200.69769,254.86409 202.19871,254.86409 202.19871,254.86409 C 202.94922,257.81559 202.19871,261.77535 200.7078,264.72685 C 200.7078,266.6903 198.47648,268.66386 198.47648,269.66202 C 198.47648,272.60341 200.7078,275.57512 202.19871,278.53421 C 203.68962,281.4857 205.92852,283.45169 205.92852,284.44731 C 205.92852,285.42525 203.68962,285.42525 202.19871,284.44731 C 196.97799,277.53858 191.75475,269.65191 187.27443,261.76524 C 184.29261,257.80548 182.06129,253.86846 180.57038,249.91881 C 180.57038,248.94087 182.8017,248.94087 184.29261,249.91881"
       id="path682" />
    <path
       style="fill:#fffdfd;fill-rule:evenodd;stroke:none"
       d="M 117.13083,282.50407 C 118.62174,281.51603 120.86063,281.51603 123.09195,281.51603 C 123.84245,282.50407 124.58286,283.47948 125.33337,284.47764 C 126.08388,285.45557 126.08388,286.44109 126.08388,286.44109 L 115.62981,286.44109 C 115.62981,286.44109 115.62981,283.47948 117.12072,282.50407"
       id="path684" />
    <path
       style="fill:#fffdfd;fill-rule:evenodd;stroke:none"
       d="M 135.78744,277.5588 C 137.28593,278.54431 138.77684,280.5204 139.51724,281.49581 C 140.26775,283.46179 139.51724,286.43098 139.51724,286.43098 L 135.78744,286.43098 C 135.78744,286.43098 133.55612,281.49581 133.55612,278.54431 C 133.55612,277.5588 134.29653,277.5588 135.78744,277.5588"
       id="path686" />
    <path
       style="fill:#fffdfd;fill-rule:evenodd;stroke:none"
       d="M 115.63991,251.90248 C 117.13083,248.96109 120.11265,247.96546 120.86063,247.96546 C 121.59093,248.95098 120.86063,251.90248 119.37225,253.87857 C 117.13083,256.83765 114.8894,258.81374 114.149,257.81559 C 112.65809,256.83765 113.39849,253.87857 115.63991,251.90248"
       id="path688" />
    <path
       style="fill:#fffdfd;fill-rule:evenodd;stroke:none"
       d="M 133.55612,252.90063 C 132.80561,249.93902 133.55612,245.9919 134.29653,243.03029 C 135.04704,241.06431 136.53795,239.09075 138.02633,237.11718 C 138.77684,235.1512 140.26775,234.16568 140.26775,234.16568 C 141.00816,236.12914 141.00816,240.07879 140.26775,243.03029 C 140.26775,244.99375 138.02633,245.9919 138.02633,247.96546 C 138.02633,248.95098 138.77684,249.92892 139.51724,251.90248 C 139.51724,252.89052 141.00816,254.86409 140.26775,254.86409 C 140.26775,256.83007 138.02633,257.81559 136.53795,256.83007 C 135.04704,256.83007 134.29653,254.86409 133.55612,252.89052"
       id="path690" />
    <path
       style="fill:#fffdfd;fill-rule:evenodd;stroke:none"
       d="M 173.84864,231.18386 C 174.58905,229.22041 176.07996,227.24684 177.57087,226.24869 C 180.56027,225.27075 184.2825,225.27075 185.77341,225.27075 C 186.52392,226.24869 185.03301,227.23673 183.5421,228.22225 C 181.30068,229.2103 179.07189,229.2103 178.32138,230.18823 C 177.57087,231.17375 178.32138,234.14547 177.57087,236.11903 C 177.57087,237.09697 176.83047,238.08501 176.07996,238.08501 C 175.33956,239.06042 173.84864,239.06042 173.84864,238.08501 C 173.09813,236.11903 173.09813,233.14731 173.84864,231.17375"
       id="path692" />
    <path
       style="fill:#fffdfd;fill-rule:evenodd;stroke:none"
       d="M 163.39457,214.41237 C 164.88549,214.41237 167.12691,216.37835 165.636,216.37835 C 164.14508,217.35376 158.18396,216.37835 158.18396,216.37835 C 158.18396,216.37835 161.16579,214.41237 163.39457,214.41237"
       id="path694" />
    <path
       style="fill:#fffdfd;fill-rule:evenodd;stroke:none"
       d="M 427.60182,177.90019 C 426.86142,170.01352 426.86142,163.10479 427.60182,163.10479 C 428.35233,163.10479 429.09273,172.96502 432.82506,178.89834 C 433.56294,180.8618 435.80436,179.87375 436.54476,178.89834 C 440.27709,172.97513 441.76801,164.09031 441.76801,164.09031 C 442.51599,166.07398 441.76801,174.93858 440.27709,183.82341 C 439.53669,190.73214 438.78618,197.6434 435.80436,203.55651 C 434.31345,208.49168 429.84324,211.44318 429.84324,211.44318 C 429.84324,211.44318 427.60182,194.67168 427.60182,177.90019"
       id="path696" />
    <path
       style="fill:#fffdfd;fill-rule:evenodd;stroke:none"
       d="M 408.2048,260.7873 C 408.95531,269.67212 409.69572,278.54431 411.93714,279.53236 C 413.42805,279.53236 414.91896,269.67971 419.38917,261.78545 C 420.13968,259.79926 422.37099,257.82569 423.1215,259.79926 C 423.8619,263.75902 423.1215,272.62362 423.8619,281.50592 C 424.61241,284.46753 425.35029,287.41903 426.1008,286.44109 C 427.59171,281.50592 428.34222,271.64569 429.83313,261.78545 C 431.32404,252.91074 433.55536,244.02592 435.79425,234.15558 C 435.79425,232.1719 436.53465,230.19834 435.79425,231.19397 C 435.04374,232.1719 429.83313,248.96109 426.09069,251.90248 C 424.60231,252.89052 425.34271,241.0542 423.8518,241.0542 C 423.8518,241.0542 421.62048,246.96731 418.63866,250.92707 C 417.14775,252.89052 414.90885,253.87857 414.90885,251.90248 C 411.17652,235.13351 410.43612,214.41237 410.43612,214.41237 C 410.43612,214.41237 407.45429,237.09697 408.1947,260.7873"
       id="path698" />
    <path
       style="fill:#fffdfd;fill-rule:evenodd;stroke:none"
       d="M 352.96779,224.27513 C 345.51576,238.09259 334.32128,249.92892 334.32128,249.92892 L 371.63451,238.09259 C 371.63451,238.09259 370.884,245.98179 369.39309,254.86409 C 368.65268,258.80363 367.16177,262.75076 367.16177,262.75076 C 367.16177,262.75076 375.36431,260.7873 381.33807,254.86409 C 389.54061,246.96731 397.00275,238.09259 401.47296,231.18386 C 402.22347,229.22041 394.76133,231.18386 394.76133,231.18386 C 394.76133,231.18386 382.07847,249.92892 379.09665,247.95535 C 377.60574,247.95535 382.07847,235.13351 382.07847,226.24869 C 382.07847,225.27075 379.84716,225.27075 378.35625,225.27075 C 367.90217,230.18823 357.45821,238.09259 354.47892,238.09259 C 353.72841,237.10708 358.19861,231.18386 358.94912,224.27513 C 361.93095,212.44891 362.67135,199.61696 362.67135,199.61696 C 362.67135,199.61696 358.94912,213.41674 352.96779,224.27513"
       id="path700" />
    <path
       style="fill:#fffdfd;fill-rule:evenodd;stroke:none"
       d="M 329.84097,265.72247 L 332.82026,289.4027 L 352.95768,274.6073 L 354.4587,293.35235 L 388.03959,263.75902 L 395.49162,302.23465 L 395.49162,309.12569 C 395.49162,309.12569 390.2709,301.23902 387.28908,293.35235 C 384.30726,285.45557 385.79817,275.59281 383.55675,276.58086 C 368.64258,283.4719 346.25616,311.09925 346.25616,311.09925 L 345.50565,286.44109 L 326.09853,306.17419 L 326.09853,270.64753 L 317.89599,267.69604 L 329.84097,265.73258"
       id="path702" />
    <path
       style="fill:#fffdfd;fill-rule:evenodd;stroke:none"
       d="M 311.17425,340.7128 L 322.36872,335.79785 L 311.17425,366.3767 L 360.42993,331.8583 L 349.97586,375.26152 L 392.51991,338.75693 L 394.75122,366.38681 L 397.74315,369.34842 L 415.63915,345.66819 C 415.63915,345.66819 422.35078,356.51647 432.05434,361.46175 C 439.51648,364.41325 448.46953,365.39876 451.46146,362.43968 C 452.94984,361.46175 448.47964,356.52658 445.49781,351.59141 C 442.51599,347.65186 440.27709,342.71669 439.53669,343.70221 C 439.53669,343.70221 444.0069,351.59141 442.51599,354.55049 C 441.0276,356.51647 437.29527,356.51647 434.31345,353.56497 C 423.8619,343.70221 415.65936,329.90496 415.65936,329.90496 L 399.25175,358.51025 L 398.50377,321.02013 L 361.94105,358.51025 L 373.133,315.08681 L 326.11874,348.63991 L 343.27433,318.04842 C 343.27433,318.04842 336.57281,322.98359 328.36016,325.93509 C 320.15762,328.8967 311.19446,329.89485 311.19446,329.89485 L 311.19446,340.73302"
       id="path704" />
    <path
       style="fill:#fffdfd;fill-rule:evenodd;stroke:none"
       d="M 405.96591,309.1358 C 409.68561,319.98408 416.40734,328.86637 416.40734,328.86637 L 419.38917,313.07282 L 430.58364,328.86637 L 432.07455,309.1358 L 442.5261,314.07097 L 432.07455,295.32591 L 427.60182,315.04891 L 417.16796,305.18615 L 414.17856,317.03258 L 403.7447,288.41718 L 401.50328,286.4512 C 401.50328,286.4512 402.25379,298.28752 405.9836,309.1358"
       id="path706" />
    <path
       style="fill:#fffdfd;fill-rule:evenodd;stroke:none"
       d="M 329.09046,403.87692 L 346.99656,389.07899 L 342.52383,438.40543 L 340.2824,404.86497 L 322.3763,412.77185 C 322.3763,412.77185 322.3763,398.95186 325.36823,386.11991 C 327.59955,375.27163 334.31118,365.40887 334.31118,365.40887 L 329.09046,403.88703"
       id="path708" />
    <path
       style="fill:#fffdfd;fill-rule:evenodd;stroke:none"
       d="M 323.1167,424.59554 C 326.09853,422.63209 327.58944,420.65852 329.08035,420.65852 C 331.32177,421.63393 332.81016,425.59369 332.81016,427.56726 C 332.81016,428.54519 329.83086,427.56726 327.58944,427.56726 C 325.35812,428.54519 323.1167,428.54519 321.62832,429.53071 C 316.40507,432.48221 311.17425,434.44819 311.17425,434.44819 L 311.17425,428.53508 C 311.17425,428.53508 317.14548,426.5691 323.1167,424.59554"
       id="path710" />
    <path
       style="fill:#fffdfd;fill-rule:evenodd;stroke:none"
       d="M 366.40116,438.39532 C 369.38298,441.35693 376.85523,417.68681 376.85523,417.68681 C 376.85523,417.68681 381.32796,436.43186 384.30726,438.39532 C 386.54868,439.38336 386.54868,422.62198 386.54868,422.62198 L 391.02141,426.56152 L 386.54868,458.12842 C 386.54868,458.12842 380.57745,450.24175 376.84512,441.35693 C 374.6037,436.42176 374.6037,430.50865 373.85571,431.49669 C 372.3648,431.49669 369.38298,446.2921 366.40116,447.27003 C 363.42186,448.25555 360.44004,442.35508 358.94912,435.43371 C 356.7077,429.5206 357.45821,423.58981 358.19861,417.6767 C 358.94912,410.76797 362.67135,403.87692 362.67135,403.87692 C 362.67135,403.87692 361.93095,434.4583 366.40116,438.39532"
       id="path712" />
    <path
       style="fill:#fffdfd;fill-rule:evenodd;stroke:none"
       d="M 394.76133,410.76797 C 407.45429,426.56152 426.86142,437.41738 426.86142,437.41738 C 426.86142,437.41738 426.11091,424.59554 423.13161,411.76359 C 422.3811,407.82405 421.6407,402.88888 419.39928,399.93738 C 416.41745,396.9783 413.43816,395.00221 409.69572,393.02864 C 405.97602,392.0406 401.49317,391.06519 401.49317,393.02864 C 401.49317,394.9921 406.71642,398.94175 410.45633,403.87692 C 414.17856,409.79003 417.16796,416.69876 416.41745,417.6767 C 415.66694,418.66474 411.19673,415.71324 406.71642,410.76797 C 398.51135,402.87877 392.54012,393.99647 392.54012,393.99647 C 392.54012,393.99647 390.2987,404.84475 394.77144,410.76797"
       id="path714" />
    <path
       style="fill:#fffdfd;fill-rule:evenodd;stroke:none"
       d="M 423.87201,376.24704 C 435.06396,374.28359 446.25843,369.33831 447.75945,367.37485 C 447.75945,367.37485 437.30538,369.33831 427.60182,372.31002 C 414.16845,374.27348 400.74266,377.22498 400.74266,377.22498 C 400.74266,377.22498 412.67754,379.18843 423.87201,376.24704"
       id="path716" />
    <path
       style="fill:#fffdfd;fill-rule:evenodd;stroke:none"
       d="M 455.96199,421.62382 C 455.96199,421.62382 452.98017,411.76359 447.76956,403.87692 C 444.03722,397.96381 437.31549,394.00658 437.31549,394.00658 C 440.29731,392.0406 449.99834,394.00658 455.96199,399.92727 C 461.93322,404.84475 464.16453,413.72705 467.90445,421.62382 C 470.14587,428.53508 470.88627,436.42176 470.88627,436.42176 C 470.88627,436.42176 459.6918,434.4583 450.74885,429.53071 C 444.03722,425.59369 437.31549,420.65852 432.08466,415.71324 C 429.85335,412.76174 428.36244,408.80198 427.61193,404.85486 C 426.87152,398.94175 428.36244,392.03049 428.36244,392.03049 L 455.96199,421.62382"
       id="path718" />
    <path
       style="fill:#fffdfd;fill-rule:evenodd;stroke:none"
       d="M 459.7019,378.22313 C 471.64689,374.28359 482.09085,364.40314 492.54239,355.51832 C 497.75553,350.60336 499.99695,342.69648 504.47727,336.77326 C 506.71869,331.8583 508.95,326.91303 512.68992,322.97348 C 515.67174,318.03831 518.65104,314.09119 522.38337,311.12958 C 529.095,308.17808 537.30765,308.17808 537.30765,308.17808 C 537.30765,308.17808 535.81674,299.29326 536.55714,290.42107 C 538.04805,281.53624 539.53896,272.65142 542.53089,263.78681 C 544.75968,257.85602 548.49201,251.94291 551.48395,246.0298 C 555.21375,239.12107 557.44507,232.20981 561.17487,225.32129 C 567.13852,217.42451 575.35117,211.5013 582.07291,203.61463 C 587.29362,196.716 592.52698,189.79463 597.73759,183.88153 C 606.70075,174.99923 614.90329,166.13462 623.85634,158.22774 C 630.56797,152.31463 638.78062,146.40152 646.23518,141.45624 C 665.63977,127.64636 685.7974,113.82889 685.7974,113.82889 C 685.7974,113.82889 670.87312,118.76406 658.18774,127.64636 C 646.24528,134.5374 635.80132,142.44429 625.34725,151.32911 C 616.3942,159.21578 608.19166,167.10245 599.97901,174.98912 C 590.27545,184.85946 580.58199,194.7197 570.87843,205.57808 C 563.4264,214.46291 555.21375,222.34958 549.23242,231.2344 C 544.01928,241.09463 540.27937,250.96497 536.54703,261.82336 C 534.31825,269.71003 532.82733,278.59485 532.07682,287.45946 C 531.33642,296.33165 532.82733,305.21647 532.82733,305.21647 C 532.82733,305.21647 523.86417,304.23853 517.90305,307.17993 C 513.43032,310.14153 511.1889,316.06475 508.2096,320.99992 C 504.47727,325.91487 501.49544,331.8482 497.75553,336.77326 C 494.77371,341.70843 493.2828,346.64613 489.5631,350.59325 C 483.58934,357.50199 476.1272,363.41509 468.66506,368.34016 C 462.69384,372.29992 455.2317,375.25142 447.76956,377.21487 C 435.07406,381.15442 420.15989,381.15442 420.15989,381.15442 C 420.15989,381.15442 441.7958,384.11602 459.7019,378.20292"
       id="path720" />
    <path
       style="fill:#fffdfd;fill-rule:evenodd;stroke:none"
       d="M 491.05148,304.21074 C 491.05148,304.21074 488.06208,291.38637 487.32168,277.5689 C 486.57117,270.65764 486.57117,264.74454 487.32168,257.8358 C 487.32168,253.89626 488.06208,249.94913 488.06208,249.94913 C 486.57117,252.91074 483.58934,258.82385 482.84894,265.74269 C 481.36056,273.62936 481.36056,282.51418 482.84894,290.40085 C 484.33985,301.24913 489.5631,312.10752 489.5631,312.10752 L 491.05148,304.21832"
       id="path722" />
    <path
       style="fill:#fffdfd;fill-rule:evenodd;stroke:none"
       d="M 325.35812,473.93208 C 330.57126,468.01898 332.81016,461.10772 333.56067,461.10772 C 335.05158,461.10772 334.30107,468.01898 332.06217,473.93208 C 330.57126,478.84704 327.58944,482.81438 323.86721,484.78036 C 318.6465,487.73186 311.17425,485.75577 311.17425,485.75577 C 311.17425,485.75577 319.37679,480.84082 325.35812,473.92198"
       id="path724" />
    <path
       style="fill:#fffdfd;fill-rule:evenodd;stroke:none"
       d="M 378.35625,481.82886 L 376.86533,472.94404 L 399.25175,476.88358 L 374.62391,463.08381 L 373.8734,472.94404 L 344.03495,452.23553 L 378.36635,481.83897"
       id="path726" />
    <path
       style="fill:#fffdfd;fill-rule:evenodd;stroke:none"
       d="M 347.00667,493.66266 C 352.22739,496.62426 357.45821,505.50909 365.66075,509.45621 C 376.10472,515.36932 387.29919,519.30887 399.24164,522.27805 C 411.17652,524.24404 424.61241,523.2661 435.05385,525.23966 C 437.29527,526.2176 437.29527,529.17921 435.05385,529.17921 C 420.13968,530.15714 404.46489,530.15714 390.28101,527.21575 C 378.34614,525.24977 367.15167,519.30887 355.95972,513.39576 C 349.24556,509.45621 343.26423,504.51093 341.03291,499.59598 C 339.542,495.65644 343.26423,492.68472 346.99656,493.66266"
       id="path728" />
    <path
       style="fill:#fffdfd;fill-rule:evenodd;stroke:none"
       d="M 428.36244,460.11209 C 434.32355,463.0737 438.79629,468.01898 439.55691,467.02082 C 441.78569,466.0353 440.29731,460.11209 438.066,454.19898 C 436.56498,450.25944 432.84275,448.28587 432.84275,448.28587 C 432.84275,448.28587 433.58315,451.23737 434.33366,454.19898 C 434.33366,457.16059 435.07406,459.13415 434.33366,459.13415 C 432.09224,458.14863 428.37254,451.23737 423.14172,448.28587 C 420.9003,447.30036 417.17807,449.26381 417.17807,449.26381 C 417.17807,449.26381 420.15989,454.19898 423.87959,457.16059 C 425.3705,459.12404 426.87152,459.12404 428.36244,460.11209"
       id="path730" />
    <path
       style="fill:#fffdfd;fill-rule:evenodd;stroke:none"
       d="M 447.76956,448.27577 C 450.74885,451.22727 455.22159,453.21094 459.7019,454.18887 C 462.68373,454.18887 466.41353,454.18887 468.66506,453.21094 C 470.15598,453.21094 469.40547,451.22727 467.91455,450.25186 C 463.44435,448.28587 457.46301,448.28587 452.24987,445.31416 C 448.51754,443.3507 444.78773,438.40543 441.0554,435.45393 C 440.30489,434.46588 439.56702,433.49047 438.81651,433.49047 C 437.32559,433.49047 435.83468,435.45393 435.83468,435.45393 C 435.83468,435.45393 441.0554,443.3406 447.77966,448.27577"
       id="path732" />
    <path
       style="fill:#fffdfd;fill-rule:evenodd;stroke:none"
       d="M 483.57923,417.68681 C 494.7636,425.58359 507.45909,431.5068 513.43032,430.50865 C 516.41214,430.50865 512.67981,422.62198 508.2096,415.71324 C 504.47727,407.82405 499.25655,400.91531 493.2828,395.00221 C 488.81259,391.06519 483.58934,386.11991 478.36862,385.14197 C 473.14791,383.1583 467.16404,385.14197 467.91455,388.09347 C 467.91455,389.07899 475.36659,392.03049 481.35045,395.98014 C 487.31157,400.91531 491.79188,406.82842 496.26462,411.7737 C 499.99695,415.71324 501.48534,420.65852 501.48534,420.65852 L 488.80248,410.78565 L 473.8782,395.99025 C 473.8782,395.99025 466.42364,390.07714 460.45241,389.09921 C 458.21099,389.09921 456.72261,393.03875 458.9615,395.01231 C 465.66555,403.88703 473.8782,411.78381 483.57923,417.69691"
       id="path734" />
    <path
       style="fill:#fffdfd;fill-rule:evenodd;stroke:none"
       d="M 500.00453,365.39118 L 541.0602,372.29992 L 572.38956,370.31625 C 572.38956,370.31625 559.70418,386.1098 543.28899,393.01854 C 534.34604,395.97004 523.8945,395.97004 514.19094,393.99647 C 505.24799,392.03049 496.28483,387.10543 487.33178,382.16015 C 484.34996,381.17463 481.36814,378.22313 483.59945,379.19854 C 485.09036,379.19854 491.06159,381.16452 497.77575,383.13809 C 505.9884,385.12176 514.19094,388.07326 522.40359,388.07326 C 529.11522,389.0613 535.83695,387.09532 542.55869,386.1098 C 547.03143,384.14382 550.75365,382.17026 548.52234,381.17463 C 541.80818,380.19669 526.13339,382.16015 511.20911,381.17463 C 501.51566,379.20865 492.56261,374.28359 492.56261,374.28359 L 500.01464,365.40887"
       id="path736" />
    <path
       style="fill:#fffdfd;fill-rule:evenodd;stroke:none"
       d="M 508.95758,345.64797 C 508.95758,345.64797 530.60613,346.63602 550.74354,342.68637 C 559.70418,341.70843 567.15873,337.77141 564.92742,336.77326 C 564.17691,336.77326 552.98244,339.73487 541.05009,339.73487 C 530.59602,339.73487 520.15206,340.7128 516.42225,338.74935 C 513.44043,336.78337 518.65104,332.83624 524.62479,331.8583 C 534.32835,330.87026 544.76979,332.83624 555.22386,331.8583 C 568.64965,330.87026 581.3325,326.92313 581.3325,326.92313 C 581.3325,326.92313 579.84159,336.78337 573.14007,342.69648 C 566.42844,348.61969 558.21579,353.54475 549.25263,356.51647 C 539.54907,359.47808 529.10511,359.47808 517.91064,359.47808 C 509.70809,360.45349 501.49544,359.47808 501.49544,359.47808 L 508.95,345.65808"
       id="path738" />
    <path
       style="fill:#fffdfd;fill-rule:evenodd;stroke:none"
       d="M 560.45469,319.99419 C 572.39967,316.05464 582.85374,307.16982 594.04568,300.26108 C 597.76791,298.29763 600.00933,294.34798 600.00933,294.34798 C 600.00933,294.34798 591.04617,293.37257 582.10323,293.37257 C 574.6512,293.37257 567.17895,293.37257 559.71428,295.33602 C 553.75316,296.31396 548.52234,299.27304 543.29909,302.24476 C 542.55869,302.24476 543.29909,303.22269 544.79,302.24476 C 547.03143,301.25924 549.26274,299.28315 552.99255,298.28752 C 558.21579,296.32154 564.18702,295.33602 570.14814,295.33602 C 576.8623,295.33602 584.33454,296.31396 585.82293,297.29948 C 587.31384,298.27741 582.84363,301.23902 578.36079,302.23465 C 567.16884,306.17419 554.48346,307.15213 543.28899,311.09925 C 532.09704,314.06086 523.1541,321.94753 523.1541,321.94753 C 523.1541,321.94753 542.54858,324.90914 560.45469,319.98408"
       id="path740" />
    <path
       style="fill:#fffdfd;fill-rule:evenodd;stroke:none"
       d="M 547.76172,281.50592 C 551.49153,278.55442 556.72488,277.5689 561.19509,275.59281 C 567.15873,272.63121 573.14007,268.68408 578.35068,265.73258 C 582.83352,261.79304 588.04413,258.82385 589.54515,255.86224 C 591.03606,254.8843 588.80475,253.89626 585.82293,253.89626 C 579.1113,255.86224 572.38956,258.83395 564.92742,260.80752 C 559.70418,262.77097 555.23397,265.74269 552.98244,265.74269 C 551.49153,264.75464 552.98244,261.80314 556.71477,260.80752 C 564.91731,255.87235 574.62087,252.92085 584.32443,249.95924 C 593.26738,247.99326 602.22043,244.04613 604.45932,246.0197 C 606.70075,247.98568 602.97094,254.89441 597.74769,260.81763 C 590.29566,267.72636 582.08301,274.63509 573.12996,280.5482 C 567.90924,284.48774 561.18498,287.43924 554.47335,290.41096 C 549.25263,291.39648 543.27888,290.41096 543.27888,290.41096 C 543.27888,290.41096 544.02939,284.49785 547.75161,281.52614"
       id="path742" />
    <path
       style="fill:#fffdfd;fill-rule:evenodd;stroke:none"
       d="M 588.06435,220.32547 C 596.277,214.41237 606.73107,211.44318 615.67401,206.51559 C 626.86848,200.5949 635.82912,192.69812 637.32003,192.69812 C 638.81094,193.68364 633.59022,202.55836 626.86848,210.45513 C 621.64524,217.34618 615.67401,224.25491 608.22198,229.20019 C 600.01944,235.1133 591.05628,239.06042 582.10323,242.02203 C 579.86181,242.99997 579.86181,241.03651 581.35272,239.06042 C 585.08253,234.14547 591.04617,229.20019 594.04568,225.26064 C 594.78609,224.27513 593.29517,223.29719 591.80679,224.27513 C 579.86181,229.2103 568.66733,236.11903 568.66733,236.11903 C 568.66733,236.11903 577.63049,227.23673 588.06435,220.32547"
       id="path744" />
    <path
       style="fill:#fffdfd;fill-rule:evenodd;stroke:none"
       d="M 611.95179,179.87375 C 619.41393,171.98708 629.11749,167.05191 638.07054,160.14318 C 650.01552,151.27857 661.94787,141.39812 663.43878,141.39812 C 664.9398,142.38617 655.98675,152.2464 647.7741,163.10479 C 641.06247,171.98708 635.08872,181.84984 628.36698,190.73214 C 625.38768,193.69375 622.40586,195.66731 621.65535,194.67168 C 620.91495,193.69375 622.40586,189.73651 625.38768,185.78686 C 632.83971,173.96317 643.29378,164.0802 643.29378,162.10664 C 644.03419,159.15514 635.08113,165.06824 626.87607,171.97698 C 618.67352,179.86617 612.7023,189.72641 605.25027,197.63329 C 601.51793,200.58479 596.28711,200.58479 596.28711,200.58479 C 596.28711,200.58479 602.99874,188.74847 611.95179,179.87375"
       id="path746" />
    <path
       style="fill:#fffdfd;fill-rule:evenodd;stroke:none"
       d="M 658.22817,205.53007 C 658.22817,205.53007 650.02563,218.35191 639.57156,229.2103 C 629.868,240.05858 617.18514,247.95535 617.18514,247.95535 L 620.16444,243.02018 L 628.36698,234.15558 L 613.45281,240.06868 L 658.22817,205.53007"
       id="path748" />
    <path
       style="fill:#fffdfd;fill-rule:evenodd;stroke:none"
       d="M 630.61851,251.90248 C 638.83116,245.9919 648.52461,240.07879 648.52461,240.07879 C 648.52461,240.07879 641.81298,253.87857 630.61851,261.78545 C 621.66546,269.67212 609.72047,270.64753 609.72047,270.64753 C 609.72047,270.64753 619.42403,260.7873 630.61851,251.90248"
       id="path750" />
    <path
       style="fill:#fffdfd;fill-rule:evenodd;stroke:none"
       d="M 620.91495,277.5588 C 634.35084,271.64569 646.28319,261.78545 646.28319,261.78545 C 646.28319,261.78545 639.57156,270.64753 629.868,277.5588 C 624.65739,281.49581 618.67352,284.46753 612.7124,286.43098 C 604.50986,287.40892 596.29721,284.46753 596.29721,284.46753 C 596.29721,284.46753 608.98007,283.47948 620.92505,277.5588"
       id="path752" />
    <path
       style="fill:#fffdfd;fill-rule:evenodd;stroke:none"
       d="M 605.98056,306.1843 C 617.92554,296.31396 633.59022,291.38637 633.59022,291.38637 L 614.94372,311.10936 L 594.04568,322.95579 C 594.04568,322.95579 598.51842,312.10752 605.98056,306.1843"
       id="path754" />
    <path
       style="fill:#fffdfd;fill-rule:evenodd;stroke:none"
       d="M 611.21138,339.73487 C 624.64728,331.8482 634.35084,318.0282 634.35084,318.0282 C 622.40586,322.96337 609.72047,327.88086 597.77802,333.82176 L 613.45281,331.8583 C 613.45281,331.8583 600.01944,335.79785 588.07446,342.69648 C 583.60425,344.68015 581.36283,349.59763 581.36283,349.59763 C 581.36283,349.59763 597.77802,347.63165 611.21138,339.74498"
       id="path756" />
    <path
       style="fill:#fffdfd;fill-rule:evenodd;stroke:none"
       d="M 568.65723,390.04682 C 575.37138,387.09532 584.33454,388.08337 592.54719,386.1098 C 597.7578,384.14382 602.98863,381.17463 608.21187,379.19854 C 611.93157,377.23509 616.41441,377.23509 616.41441,377.23509 L 598.50831,389.07899 C 598.50831,389.07899 582.09312,398.94175 564.17691,404.85486 C 558.95619,406.81831 552.98244,405.84038 552.98244,405.84038 C 552.98244,405.84038 558.94609,394.9921 568.64965,390.04682"
       id="path758" />
    <path
       style="fill:#fffdfd;fill-rule:evenodd;stroke:none"
       d="M 574.64109,425.58359 C 589.55526,427.54704 605.98056,426.56152 605.98056,426.56152 C 605.98056,426.56152 599.26893,432.4721 591.05628,434.44819 C 579.86181,437.4098 567.17895,436.41165 567.17895,436.41165 L 575.38149,430.49854 C 575.38149,430.49854 562.69611,427.54704 551.50163,422.61187 C 548.52234,421.62382 547.03143,417.6767 547.03143,417.6767 C 547.03143,417.6767 560.45469,423.58981 574.64109,425.57348"
       id="path760" />
    <path
       style="fill:#fffdfd;fill-rule:evenodd;stroke:none"
       d="M 535.82685,439.39347 C 535.82685,439.39347 539.54907,437.42749 543.27888,436.43186 C 547.75161,435.45393 553.73295,435.45393 552.98244,435.45393 C 552.98244,433.49047 547.76172,430.51876 541.79049,429.54082 C 538.05816,428.5553 534.33593,427.57736 531.34653,429.54082 C 528.3546,430.51876 526.86369,435.45393 524.6349,436.43186 C 520.16216,437.41738 514.18083,435.45393 509.70809,436.43186 C 507.4692,436.43186 505.97829,439.39347 505.97829,439.39347 L 535.82685,439.39347"
       id="path762" />
    <path
       style="fill:#fffdfd;fill-rule:evenodd;stroke:none"
       d="M 500.75504,457.16059 C 507.45909,462.07554 514.93134,466.0252 522.38337,467.02082 C 536.55714,468.00887 550.73344,466.0353 564.92742,463.08381 C 569.39763,462.09576 573.12996,458.14863 573.12996,458.14863 C 559.69659,456.18265 547.01121,454.20909 533.57784,452.23553 C 533.57784,452.23553 536.55714,455.19713 540.28947,456.17254 C 546.25059,458.13853 553.72284,458.13853 552.97233,458.13853 C 550.73344,460.10198 541.78038,461.09761 533.56774,460.10198 C 524.62479,459.12404 516.41214,455.18703 507.44898,451.22727 C 496.25451,446.31231 485.81055,440.3891 485.81055,440.3891 C 485.81055,440.3891 491.7742,450.24175 500.73735,457.16059"
       id="path764" />
    <path
       style="fill:#fffdfd;fill-rule:evenodd;stroke:none"
       d="M 485.82066,480.84082 C 495.52422,486.75392 506.71869,489.70542 512.67981,488.72749 C 514.92123,487.73944 511.1889,481.81875 506.71869,474.90749 C 502.98636,470.97048 498.51615,467.02082 494.03331,463.0737 C 490.3035,459.13415 486.57117,456.16244 486.57117,456.16244 C 486.57117,456.16244 488.06208,460.10198 490.3035,463.0737 C 497.01513,471.95599 505.22778,480.83071 505.22778,480.83071 C 505.22778,480.83071 497.76564,478.84704 490.3035,474.90749 C 485.83076,472.94404 481.35045,470.97048 476.86761,468.01898 C 473.88831,466.0353 470.90649,463.08381 470.90649,463.08381 C 470.90649,463.08381 476.1272,474.9176 485.83076,480.84082"
       id="path766" />
    <path
       style="fill:#fffdfd;fill-rule:evenodd;stroke:none"
       d="M 477.60801,494.6507 C 477.60801,494.6507 473.8782,488.73759 471.64689,481.82886 C 469.40547,475.91575 468.66506,469.99254 467.91455,469.99254 C 467.91455,469.99254 470.15598,479.85277 465.67566,480.84082 C 458.97161,481.81875 447.02916,474.9176 447.02916,474.9176 L 477.61811,494.6507"
       id="path768" />
    <path
       style="fill:#fffdfd;fill-rule:evenodd;stroke:none"
       d="M 438.066,495.64633 C 447.01905,499.58587 457.4529,498.58772 457.4529,498.58772 L 447.76956,483.79232 L 449.99834,494.64059 L 426.12101,484.78036 C 426.12101,484.78036 430.59375,492.66703 438.066,495.63622"
       id="path770" />
    <path
       style="fill:#fffdfd;fill-rule:evenodd;stroke:none"
       d="M 573.15018,579.52148 C 573.15018,579.52148 584.34212,583.4585 594.78609,582.48309 C 602.23812,581.49505 608.96238,581.49505 611.20128,576.56998 C 614.93361,568.6631 614.1831,557.81482 612.69219,546.95643 C 609.71289,533.15666 603.74925,519.32655 597.76791,504.53115 C 594.04568,494.67092 588.82497,485.78609 588.82497,483.82264 C 588.07446,480.87114 594.04568,486.78425 597.76791,493.68287 C 605.23005,508.48838 611.94168,524.27183 616.42452,540.06539 C 618.65584,547.95459 618.65584,556.83688 617.91543,565.72171 C 617.91543,573.60838 617.16492,581.49505 613.4427,585.4447 C 607.47147,590.37987 598.51842,591.36539 588.81486,591.36539 C 579.8517,592.34332 570.90876,589.38172 570.90876,589.38172 L 573.15018,579.52148"
       id="path772" />
    <path
       style="fill:#fffdfd;fill-rule:evenodd;stroke:none"
       d="M 474.62618,519.31897 L 476.1171,502.54748 L 471.64689,508.4707 L 459.7019,503.533 L 474.62618,519.30887 M 492.54239,527.22333 L 494.03331,509.46632 L 490.3035,516.37758 L 482.84894,513.41597 L 492.54239,527.23344 M 508.95758,515.36932 L 509.70809,501.56954 L 498.51615,497.63253 L 508.95758,515.37943 M 532.09704,516.36747 L 530.60613,504.52104 L 523.8945,495.65644 L 516.43994,499.59598 L 532.10715,516.36747 M 522.39348,538.08172 C 523.88439,542.02126 523.14399,547.94448 523.14399,547.94448 C 523.14399,547.94448 529.10511,543.00931 529.10511,538.08172 C 529.84551,534.12448 527.6142,531.17298 524.6349,529.19942 C 522.39348,527.23344 518.66115,530.17483 518.66115,530.17483 C 518.66115,530.17483 521.65308,533.13644 522.39348,538.07161"
       id="path774" />
    <path
       style="fill:#fffdfd;fill-rule:evenodd;stroke:none"
       d="M 469.40547,743.31961 C 472.38729,742.34168 475.36659,744.30766 475.36659,746.28122 C 475.36659,748.24468 471.64689,750.22077 468.66506,752.19433 C 464.18475,755.15594 458.21099,757.1295 458.21099,757.1295 C 458.21099,757.1295 463.43424,747.25916 469.40547,743.30951"
       id="path776" />
    <path
       style="fill:#fffdfd;fill-rule:evenodd;stroke:none"
       d="M 466.41353,780.80973 C 469.39536,777.85823 472.37718,775.89477 476.1171,774.89662 C 477.60801,774.89662 479.09892,776.8626 477.60801,778.83616 C 476.1171,781.79777 472.38729,782.7934 468.66506,785.7449 C 464.18475,789.68444 459.7019,792.65616 459.7019,792.65616 C 459.7019,792.65616 461.94333,785.7449 466.41353,780.80973"
       id="path778" />
    <path
       style="fill:#fffdfd;fill-rule:evenodd;stroke:none"
       d="M 487.32168,799.575 C 491.79188,796.61339 499.26413,797.60902 501.49544,800.55293 C 502.24595,800.55293 497.02524,802.51639 492.54239,804.48995 C 485.83076,808.4295 479.85954,813.36467 479.85954,813.36467 C 479.85954,813.36467 481.35045,802.51639 487.31157,799.56489"
       id="path780" />
    <path
       style="fill:#fffdfd;fill-rule:evenodd;stroke:none"
       d="M 520.90257,802.5265 C 526.12328,805.4881 532.84755,802.5265 540.29958,802.5265 C 555.96426,800.56052 572.38956,800.56052 579.84159,797.60902 C 585.06484,795.64556 579.10119,789.71224 571.64916,788.73683 C 558.95619,788.73683 544.7799,794.64993 532.84755,794.64993 C 529.85562,794.64993 528.36471,791.68833 529.11522,789.71224 C 530.60613,786.76326 537.32787,786.76326 537.32787,785.77522 C 537.32787,784.79728 532.10715,782.82372 527.6243,782.82372 C 522.40359,781.83567 517.17023,781.83567 512.70003,783.80166 C 508.96769,783.80166 507.47678,787.73867 507.47678,787.73867 C 507.47678,787.73867 512.70003,799.58511 520.91267,802.5366"
       id="path782" />
    <path
       style="fill:#fffdfd;fill-rule:evenodd;stroke:none"
       d="M 517.16265,745.29318 C 517.16265,745.29318 502.98636,741.35616 491.05148,743.32972 C 486.57117,743.32972 483.58934,747.26927 484.33985,750.23845 C 485.83076,754.178 490.3035,757.14971 495.53433,758.12512 C 502.98636,760.09111 511.94952,755.17615 520.16216,757.14971 C 527.6142,759.11317 535.07634,765.03638 540.29958,769.97156 C 541.79049,771.93501 538.05816,773.9111 534.33593,772.92306 C 529.11522,770.9596 524.6349,763.0704 518.66115,762.07478 C 510.46871,760.11132 501.50555,761.09684 494.04341,763.06282 C 489.57321,765.02628 485.83076,768.9734 486.58127,772.91295 C 487.33178,775.87455 491.80199,777.84812 496.28483,777.84812 C 503.74697,778.82605 511.20911,773.9111 519.42176,772.91295 C 525.38288,772.91295 531.36675,774.8764 537.32787,776.85249 C 542.54858,778.81595 547.02132,781.78766 552.25214,782.77318 C 555.97437,783.75112 561.19509,780.78951 561.19509,780.78951 L 517.16265,745.27549"
       id="path784" />
    <path
       style="fill:#fffdfd;fill-rule:evenodd;stroke:none"
       d="M 578.36079,758.12512 C 578.36079,758.12512 577.62039,763.06282 576.86988,762.06467 C 574.64109,760.10121 571.65927,752.20444 570.15825,753.18995 C 567.92693,755.17615 567.17895,762.06467 566.43855,769.97156 C 566.43855,771.93501 567.17895,773.9111 569.41784,774.88651 C 570.14814,774.88651 572.39967,770.94949 573.15018,770.94949 C 574.64109,772.91295 574.64109,777.85823 576.86988,781.79777 C 577.62039,782.78329 579.8517,783.76123 580.60221,782.78329 C 581.34261,779.82168 580.60221,773.9111 582.09312,768.96582 C 583.58403,764.02812 587.31384,760.09111 587.31384,755.16604 C 588.04413,746.29133 583.58403,735.43294 585.07494,732.46123 C 585.07494,731.48329 591.03606,739.37249 593.27749,738.37433 C 597.00729,737.3964 598.4982,733.45938 597.00729,729.50973 C 594.76587,726.54812 586.55322,724.57456 584.32443,718.66145 C 581.3325,712.73065 584.32443,703.86605 583.57393,697.93272 C 583.57393,696.95479 581.3325,696.95479 579.84159,697.93272 C 579.10119,697.93272 579.10119,699.91639 579.10119,699.91639 L 578.35068,758.12512"
       id="path786" />
    <path
       style="fill:#fffdfd;fill-rule:evenodd;stroke:none"
       d="M 598.52853,715.68973 C 598.52853,715.68973 596.28711,704.84398 597.77802,695.95916 C 598.52853,693.99571 601.50782,693.01777 602.99874,694.98122 C 606.73107,700.89433 609.71289,707.80306 610.45077,715.68973 C 611.94168,727.53616 611.94168,739.37249 610.45077,750.22835 C 610.45077,754.16789 606.73107,757.13961 605.24016,761.07662 C 603.74925,763.04261 601.50782,765.01617 601.50782,767.98788 C 601.50782,771.9249 605.98056,775.87455 605.24016,779.8141 C 603.74925,784.74927 600.01944,788.6964 596.277,793.61135 C 593.29517,796.57296 590.31588,799.54467 588.82497,797.57111 C 585.84314,795.60766 585.09263,790.66996 585.09263,785.72468 C 584.35223,780.78951 585.84314,775.86445 588.07446,772.90284 C 588.82497,770.93938 592.55477,773.89088 593.29517,772.90284 C 594.78609,771.9249 594.04568,767.98788 594.78609,765.01617 C 595.5366,763.05271 597.02751,760.081 597.76791,758.10744 C 599.25882,753.17227 600.00933,748.24468 600.00933,748.24468 L 598.51842,715.68215"
       id="path788" />
    <path
       style="fill:#fffdfd;fill-rule:evenodd;stroke:none"
       d="M 160.41528,744.31777 C 160.41528,744.31777 158.18396,741.35616 155.94254,741.35616 C 153.70112,742.34168 150.72182,744.31777 149.23091,747.26927 C 147.74,749.23272 147.74,752.20444 147.74,755.16604 L 149.23091,754.178 L 160.42539,744.31777"
       id="path790" />
    <path
       style="fill:#fffdfd;fill-rule:evenodd;stroke:none"
       d="M 167.88752,769.97156 L 175.33956,777.85823 L 168.62793,776.87018 L 160.41528,786.74305 L 167.87742,769.97156"
       id="path792" />
    <path
       style="fill:#fffdfd;fill-rule:evenodd;stroke:none"
       d="M 193.26587,797.60143 C 196.24517,795.63545 199.22699,794.63983 202.20882,794.63983 C 204.45024,794.63983 206.67903,797.60143 205.19064,798.57684 C 204.45024,799.56489 200.71791,799.56489 196.97799,800.54283 C 191.76485,802.50628 187.28454,805.478 187.28454,805.478 C 187.28454,805.478 189.52343,800.54283 193.25577,797.59133"
       id="path794" />
    <path
       style="fill:#fffdfd;fill-rule:evenodd;stroke:none"
       d="M 216.39269,803.52212 L 217.88361,802.5366 L 217.1432,797.61912 L 211.92249,797.61912 L 216.39269,803.53223"
       id="path796" />
    <path
       style="fill:#fffdfd;fill-rule:evenodd;stroke:none"
       d="M 212.66289,730.49777 C 205.19822,728.53432 197.73608,727.54627 191.01434,728.53432 C 187.28454,729.51984 184.30272,732.47134 182.8017,735.44305 C 181.31078,739.3826 181.31078,743.32972 184.29261,744.31777 C 185.04312,745.29318 189.51333,740.35801 193.99617,740.35801 C 201.45831,739.3826 208.92045,739.3826 216.38259,740.35801 C 223.09422,740.35801 229.81848,740.35801 229.81848,740.35801 C 229.81848,740.35801 221.60583,733.46949 212.66289,730.49777"
       id="path798" />
    <path
       style="fill:#fffdfd;fill-rule:evenodd;stroke:none"
       d="M 235.79982,752.20444 C 229.08819,749.24283 222.37403,747.26927 215.6624,747.26927 C 208.95077,746.29133 202.97702,748.25478 199.99772,752.20444 C 197.7563,754.16789 199.99772,758.11754 204.46793,759.11317 C 208.94066,760.09111 215.6624,757.14971 222.37403,757.14971 C 226.84677,757.14971 231.31697,759.11317 236.55033,760.10121 C 244.00236,762.06467 252.21501,763.06282 252.21501,763.06282 C 252.21501,763.06282 244.76298,756.15156 235.79982,752.20444"
       id="path800" />
    <path
       style="fill:#fffdfd;fill-rule:evenodd;stroke:none"
       d="M 183.56231,770.94949 C 182.0714,767.00995 184.30272,762.06467 187.28454,759.11317 C 188.78303,758.12512 192.50526,759.11317 194.74668,761.07662 C 197.72597,763.04261 199.21689,765.99411 199.21689,769.95134 C 198.47648,774.86629 196.23759,779.8141 192.50526,779.8141 C 188.78303,780.78951 185.05322,776.85249 183.56231,770.93938"
       id="path802" />
    <path
       style="fill:#fffdfd;fill-rule:evenodd;stroke:none"
       d="M 226.84677,778.84627 C 233.55839,785.755 236.54022,795.62534 236.54022,795.62534 L 273.85092,796.60328 C 273.85092,796.60328 285.78579,798.56674 291.75702,792.66374 C 298.46107,785.755 301.44036,773.91868 306.67372,763.0704 C 312.64494,753.20006 317.12526,743.33983 323.83942,734.45501 C 328.30962,727.56649 334.27327,721.63317 340.2445,715.70995 C 343.97431,712.74834 348.44704,709.79684 351.43644,706.82765 C 353.67787,703.87615 352.18695,699.93661 353.67787,698.94098 C 355.91929,696.975 360.3895,695.97938 362.62081,697.95294 C 365.61274,698.94098 366.35314,702.88811 368.59456,706.82765 C 370.08295,707.81317 370.82335,709.78926 371.57386,709.78926 C 375.30619,706.82765 378.28802,702.878 378.28802,699.9265 C 377.53751,696.96489 373.06477,695.96927 370.07537,693.02788 C 366.34303,689.08833 362.6107,684.14305 360.38192,680.20604 C 359.63141,678.24005 360.38192,676.26649 359.63141,674.29293 C 358.14049,669.35776 356.64958,665.41821 355.90918,666.39615 C 354.41827,667.38167 354.41827,679.21799 350.68846,685.14121 C 349.19755,687.12488 345.46522,686.12672 344.72482,683.17522 C 343.2238,679.23821 345.46522,672.33705 343.97431,667.40188 C 343.2238,664.44028 340.99501,662.46671 338.01319,660.49315 C 333.54045,657.53154 326.81871,657.53154 322.3384,654.58004 C 317.86566,651.61844 312.65505,647.67131 309.65301,642.73361 C 307.42423,638.79659 308.16463,631.89544 306.67372,626.96027 C 305.93331,622.0251 306.67372,617.08993 305.1828,614.13843 C 304.45251,612.17498 301.45047,612.17498 300.71007,613.15039 C 298.47117,616.11199 299.21916,623.02325 297.73077,624.99682 C 295.48935,625.97475 291.76713,624.00877 289.5257,621.05727 C 285.7959,617.10004 282.81407,613.16049 282.81407,609.21337 C 283.56458,598.36509 290.26611,587.5067 290.26611,586.52877 C 290.26611,584.56531 285.7959,591.46394 281.32316,597.37705 C 277.59336,603.29015 273.87113,610.19889 272.38022,616.1221 C 270.88173,620.06165 271.62971,625.00692 273.87113,625.00692 C 274.61153,625.00692 276.85295,616.1221 278.34387,616.1221 C 279.83478,617.10004 280.57518,622.03521 282.81407,626.97038 C 285.0555,631.90555 288.77772,635.8552 289.5257,640.78027 C 290.26611,646.70348 286.54641,652.62417 286.54641,659.53543 C 286.54641,664.45038 286.54641,668.40004 289.5257,672.35727 C 291.76713,675.30877 297.73077,678.27038 302.21109,680.24394 C 308.92272,684.18348 314.89647,687.1552 320.85759,689.11866 C 322.3485,689.11866 323.09901,688.13061 322.3485,686.15705 C 317.87577,682.2175 308.92272,678.27038 303.702,672.35727 C 298.47876,666.43405 294.75906,660.51337 293.99844,652.62417 C 291.76713,643.74187 293.99844,633.88164 297.73077,634.86716 C 298.47117,634.86716 301.45047,648.68715 308.92272,658.54738 C 313.39545,665.45864 321.6081,669.39566 328.31973,675.31888 C 333.54045,679.25842 339.51421,682.22761 341.74552,687.16278 C 343.2339,691.10233 341.00512,697.01543 338.02329,702.93865 C 336.53238,707.87382 332.05207,711.82094 328.31973,715.76049 C 324.58993,718.7221 321.6081,722.66922 320.11719,721.6736 C 318.62628,720.69566 320.11719,712.78877 318.62628,705.90026 C 317.87577,701.96071 316.38486,698.00095 315.64446,699.98715 C 314.15607,701.9506 314.15607,710.82532 311.16414,718.7322 C 308.93283,726.61888 305.20302,733.52761 302.2212,740.42876 C 299.23937,747.33749 297.00048,754.24623 294.00855,760.15933 C 291.02672,765.09451 286.55652,769.03405 282.07367,772.98118 C 278.34387,776.92072 274.61153,779.89244 270.13122,779.89244 C 262.67919,780.86785 254.46654,777.92645 245.50338,774.95727 C 239.53973,773.97933 233.5685,769.04416 228.34778,769.04416 C 220.89323,768.06622 212.68058,772.98118 212.68058,772.98118 C 212.68058,772.98118 221.62352,773.96922 226.85687,778.89428"
       id="path804" />
    <path
       style="fill:#fffdfd;fill-rule:evenodd;stroke:none"
       d="M 349.24556,641.68745 C 349.24556,638.72584 354.46881,636.75228 355.20921,633.80078 C 356.70012,628.86561 357.4481,624.92859 356.70012,620.97894 C 355.20921,617.0217 352.22739,614.08031 349.98596,616.04377 C 339.542,623.93044 329.84097,641.69755 329.09046,642.67549 C 326.10863,642.67549 328.35006,630.83917 332.82026,619.01548 C 337.293,605.19549 344.01474,593.35916 346.99656,591.3856 C 347.74707,590.39756 339.542,609.13503 342.52383,613.08216 C 344.01474,613.08216 354.46881,600.26032 358.93902,602.22377 C 362.66124,604.20744 361.92084,616.04377 366.39105,624.92859 C 368.63247,629.84354 372.35469,633.80078 374.6037,632.81526 C 376.09461,631.83732 376.09461,626.90215 376.84512,620.97894 C 377.58552,618.01733 376.84512,615.05572 377.58552,616.04377 C 381.31785,618.00722 387.28908,627.87756 387.28908,627.87756 C 387.28908,628.86561 385.05777,622.96261 383.55675,618.01733 C 382.06836,608.1571 379.08654,599.27227 380.57745,591.3856 C 382.06836,582.51089 385.79817,574.604 391.029,568.68331 C 397.74315,560.79664 406.6962,554.88353 416.39976,550.93388 C 421.62048,547.97227 428.34222,548.97043 434.30334,548.97043 C 435.79425,548.97043 435.79425,550.93388 434.30334,551.92193 C 428.34222,553.88538 419.37906,553.88538 411.91692,556.8571 C 405.20529,560.79664 399.97447,565.74192 395.50173,572.63044 C 391.7694,579.5417 389.54061,588.42399 388.0497,597.30882 C 387.29919,603.22192 388.0497,610.13066 390.28101,616.05387 C 393.26031,624.93617 400.73256,631.84743 404.45478,638.73595 C 405.20529,640.70193 405.9558,642.67549 404.45478,642.67549 C 402.96387,642.67549 399.24164,640.71204 395.50173,639.72399 C 390.28101,638.73595 384.30726,637.76054 379.08654,638.73595 C 373.86582,639.72399 368.64258,641.69755 364.16226,645.64721 C 361.18044,647.61066 358.94912,651.56031 356.7077,656.49549 C 355.9673,658.45894 356.7077,661.43066 356.7077,661.43066 C 356.7077,661.43066 349.25567,650.58238 349.25567,641.69755"
       id="path806" />
    <path
       style="fill:#fffdfd;fill-rule:evenodd;stroke:none"
       d="M 449.25794,652.54583 C 452.23977,658.45894 452.98017,666.34561 454.47108,666.34561 C 457.4529,665.36767 461.93322,649.57412 465.66555,650.57227 C 470.88627,651.55021 475.359,669.31733 475.359,669.31733 L 480.57972,656.49549 L 488.03175,663.40422 L 490.27318,657.4709 C 490.27318,657.4709 495.49389,661.43066 501.46765,662.40859 C 508.91968,663.39411 516.39193,661.43066 516.39193,661.43066 C 516.39193,661.43066 505.93786,660.44261 498.48582,654.5194 C 491.7742,649.58423 488.03175,640.70193 485.05246,640.70193 C 481.33023,640.70193 479.08881,654.5194 476.10699,654.5194 C 472.37718,654.5194 467.89434,639.72399 464.91504,640.70193 C 461.93322,640.70193 460.44231,655.49733 455.95188,656.49549 C 450.73875,656.49549 443.2665,642.67549 443.2665,642.67549 C 443.2665,642.67549 446.99883,647.61066 449.24025,652.54583"
       id="path808" />
    <path
       style="fill:#fffdfd;fill-rule:evenodd;stroke:none"
       d="M 438.8064,575.57183 C 449.25794,564.72355 464.92515,558.80286 464.92515,558.80286 L 451.48926,594.31689 L 447.76956,583.46861 L 446.26854,602.21366 C 446.26854,602.21366 451.48926,608.14699 455.9721,607.14883 C 460.45241,606.17342 465.67566,602.21366 467.91455,597.2886 C 473.8782,587.41826 475.36659,574.58631 479.85954,563.74814 C 480.59994,561.76194 482.09085,558.81044 482.83883,560.78653 C 483.57923,561.76194 480.59994,576.58009 485.07015,577.5555 C 493.27269,579.52148 509.69799,566.70722 509.69799,566.70722 C 509.69799,566.70722 497.75553,577.5555 494.03331,591.3856 C 491.79188,599.27227 492.54239,608.1571 495.52422,614.0702 C 497.01513,618.00722 502.97625,617.01159 504.46716,613.08216 C 505.95807,607.16905 499.25655,595.33525 502.23585,588.42399 C 503.72676,584.48698 511.17879,582.51089 516.41214,579.55181 C 520.14195,577.58582 523.12377,574.61411 523.12377,575.61226 C 523.12377,577.57572 518.64093,583.49893 516.41214,590.40767 C 514.92123,595.34536 513.43032,601.25594 514.17072,607.17916 C 514.92123,612.11433 517.90305,618.02744 521.63286,620.99915 C 526.1056,625.91411 532.82733,627.88767 538.78845,629.86376 C 552.96222,636.77249 566.39812,642.6856 581.3224,647.62077 C 590.27545,651.56031 601.46992,650.58238 605.95024,654.5295 C 609.68257,659.46467 607.44115,669.32743 605.95024,679.18767 C 605.95024,682.14927 602.22043,682.14927 601.48003,680.17571 C 600.72952,676.23617 603.71892,666.35572 601.48003,664.38216 C 600.72952,663.40422 594.76587,670.29526 590.28555,669.31733 C 587.30373,668.32928 585.81282,661.43066 581.3325,658.46905 C 571.63905,652.55594 561.18498,647.62077 550.73344,642.67549 C 549.24252,642.67549 548.50212,641.69755 547.75161,642.67549 C 547.01121,642.67549 547.01121,646.63273 546.2607,646.63273 C 544.76979,646.63273 541.05009,643.67112 537.31776,642.67549 C 532.84755,641.69755 526.86369,643.66354 523.14399,642.67549 C 520.90257,642.67549 520.16216,639.72399 520.16216,637.76054 C 519.41166,635.79456 521.65308,633.82099 520.90257,633.82099 C 519.41166,632.83295 514.19094,634.79893 511.19901,633.82099 C 508.95758,632.83295 507.4692,629.86376 507.4692,627.89778 C 506.7288,626.92237 509.70809,625.93432 508.95758,624.94628 C 508.95758,622.98282 507.4692,621.00926 505.23789,621.00926 C 502.25606,620.02121 498.52626,619.04328 497.02524,621.00926 C 494.78382,624.94628 496.27473,632.84306 495.53433,635.80466 C 494.78382,637.77065 493.2929,636.7826 492.5525,635.80466 C 489.57321,628.89593 486.58127,622.98282 485.09036,616.07409 C 483.59945,610.16098 483.59945,603.24972 483.59945,597.32903 C 482.85905,593.38949 484.34996,589.43226 482.85905,586.48076 C 481.36814,583.51915 477.63833,581.54558 476.14742,584.51477 C 471.67721,591.42603 469.43579,602.2642 466.44386,613.12259 C 464.95295,618.05776 466.44386,621.99478 464.95295,626.94006 C 464.20496,628.90604 462.71405,631.87775 461.97365,630.8796 C 459.73223,629.89156 458.24132,624.96649 455.9999,620.03132 C 454.51151,616.09178 454.51151,611.15661 453.77111,612.14465 C 449.29837,615.09615 443.31704,628.91615 439.59481,630.88971 C 438.8443,631.87775 438.8443,626.95016 438.1039,621.02948 C 437.35339,615.10626 438.1039,609.18304 436.60541,609.18304 C 435.1145,609.18304 431.39227,616.09178 426.91195,623.00304 C 423.17962,627.91799 421.68871,633.85132 420.9382,633.85132 C 419.44982,631.88533 418.70941,623.98098 420.1978,616.09178 C 421.68871,610.1812 427.65236,605.2435 427.65236,602.27431 C 428.40287,600.30833 426.16145,599.32281 423.17962,600.30833 C 420.9382,600.30833 418.70941,604.26809 418.70941,604.26809 C 418.70941,604.26809 426.16145,587.48649 438.8443,575.65269"
       id="path810" />
    <path
       style="fill:#fffdfd;fill-rule:evenodd;stroke:none"
       d="M 575.38149,673.26445 C 579.8517,671.301 579.8517,665.37778 575.38149,664.38216 C 571.65927,663.40422 564.93753,666.34561 558.2259,670.29526 C 555.98448,671.28078 555.24408,673.25687 555.24408,673.25687 C 555.24408,673.25687 568.66733,677.19389 575.38149,673.25687"
       id="path812" />
    <path
       style="fill:#fffdfd;fill-rule:evenodd;stroke:none"
       d="M 161.90619,656.48538 C 167.12691,654.5194 170.86682,650.57227 172.35773,650.57227 C 174.58905,651.55021 174.58905,654.51181 172.35773,656.48538 C 167.88752,659.44699 162.65417,661.42055 156.68294,661.42055 C 150.72182,662.39849 144.7506,659.45709 144.7506,659.45709 C 144.7506,659.45709 153.70112,658.46905 161.90619,656.49549 M 174.58905,640.69182 C 179.81229,637.74032 185.04312,632.80515 187.27443,627.86998 C 192.49515,615.04561 193.98606,600.2401 193.24566,596.30056 C 193.24566,595.32515 191.00424,610.12055 185.78352,620.97894 C 183.55221,626.89204 180.57038,631.83732 176.09007,635.77687 C 173.85875,638.72584 168.63803,636.75228 167.89763,637.74032 C 166.39661,638.71826 167.89763,639.70378 168.63803,640.69182 C 170.87693,641.67734 173.10824,641.67734 174.59915,640.69182"
       id="path814" />
    <path
       style="fill:#fffdfd;fill-rule:evenodd;stroke:none"
       d="M 123.85256,640.69182 C 124.59296,641.67734 126.83439,642.65528 127.5849,641.67734 C 131.30459,639.71388 134.28642,636.74217 136.52784,633.79067 C 137.27582,632.80515 135.77733,631.82721 134.28642,632.80515 C 132.0551,633.79067 130.56419,635.76676 129.07328,636.74217 C 128.3253,636.74217 126.83439,636.74217 126.09398,635.76676 C 125.34347,633.80078 126.09398,631.82721 125.34347,630.82906 C 124.59296,629.84354 122.36165,628.86561 122.36165,628.86561 C 122.36165,628.86561 122.36165,635.77687 123.85256,640.70193"
       id="path816" />
    <path
       style="fill:#fffdfd;fill-rule:evenodd;stroke:none"
       d="M 103.68735,642.66538 C 106.67675,644.64905 110.39898,642.66538 113.38838,640.70193 C 113.38838,640.70193 110.40909,640.70193 108.17777,639.72399 C 105.19595,638.73595 102.95453,635.78445 99.975233,634.78882 C 98.484321,633.81088 96.242899,632.82537 96.242899,633.81088 C 97.733811,636.76238 99.975233,641.69755 103.69493,642.67549"
       id="path818" />
    <path
       style="fill:#fffdfd;fill-rule:evenodd;stroke:none"
       d="M 93.993897,594.31689 C 96.232792,595.30493 99.214615,595.30493 103.68735,595.30493 C 103.68735,595.30493 102.19644,595.30493 100.70553,594.31689 C 97.723703,592.35343 94.74188,590.37987 91.762583,588.40378 C 91.012074,587.41826 89.521162,586.44032 89.521162,586.44032 C 89.521162,586.44032 90.271672,592.35343 93.993897,594.32699"
       id="path820" />
    <path
       style="fill:#fffdfd;fill-rule:evenodd;stroke:none"
       d="M 114.8894,598.26654 C 118.62174,600.22999 124.58286,597.2886 126.09398,595.31504 C 126.09398,595.31504 120.87074,597.27849 116.40053,595.31504 C 115.65002,595.31504 115.65002,593.34906 114.89951,591.37549 C 114.15911,590.38998 112.6682,589.39182 112.6682,589.39182 C 112.6682,589.39182 111.91769,597.2886 114.89951,598.26654"
       id="path822" />
    <path
       style="fill:#fffdfd;fill-rule:evenodd;stroke:none"
       d="M 377.60574,133.49124 C 385.81839,128.55607 396.27246,125.60457 397.76337,122.64296 C 398.50377,121.65492 392.54012,120.67951 388.05981,117.70779 C 383.57696,115.74434 379.10676,113.76825 374.62391,111.79468 C 370.1537,109.83123 365.67086,106.85951 363.43197,106.85951 C 361.94105,106.85951 361.94105,108.82297 363.43197,109.82112 C 364.92035,112.78273 367.90217,114.75629 367.90217,114.75629 C 367.90217,114.75629 365.67086,118.69331 366.41126,123.6209 C 366.41126,128.55607 368.65268,133.49124 368.65268,133.49124 C 368.65268,133.49124 365.67086,134.46918 364.92035,137.43078 C 363.43197,140.38986 361.94105,143.34136 363.43197,143.34136 C 365.67086,142.36595 370.884,136.43263 377.60574,133.48113 M 370.884,122.63285 C 370.884,119.67125 372.37491,116.71975 372.37491,116.71975 C 372.37491,116.71975 376.10472,118.68573 379.83705,119.67125 C 382.81635,121.63723 386.54868,122.63285 386.54868,122.63285 C 386.54868,122.63285 382.81635,124.59631 379.08654,126.5724 C 376.10472,128.53585 372.37491,130.50942 372.37491,130.50942 C 372.37491,130.50942 370.884,126.5724 370.884,122.62274"
       id="path824" />
  </g>
</svg>
