<?xml version="1.0" encoding="UTF-8" standalone="no"?>
<!-- Created with Inkscape (http://www.inkscape.org/) -->
<svg
        xmlns:dc="http://purl.org/dc/elements/1.1/"
        xmlns:cc="http://web.resource.org/cc/"
        xmlns:rdf="http://www.w3.org/1999/02/22-rdf-syntax-ns#"
        xmlns="http://www.w3.org/2000/svg"
        xmlns:sodipodi="http://sodipodi.sourceforge.net/DTD/sodipodi-0.dtd"
        xmlns:inkscape="http://www.inkscape.org/namespaces/inkscape"
        id="svg2"
        sodipodi:version="0.32"
        inkscape:version="0.44"
        width="747.09424"
        height="860.91119"
        version="1.0"
        sodipodi:docbase="E:\Inkscape - rysunki\WIKIPEDIA\Grafiki SVG"
        sodipodi:docname="POL_powiat_kwidzyński_COA.svg">
  <metadata
     id="metadata7">
    <rdf:RDF>
      <cc:Work
         rdf:about="">
        <dc:format>image/svg+xml</dc:format>
        <dc:type
           rdf:resource="http://purl.org/dc/dcmitype/StillImage" />
      </cc:Work>
    </rdf:RDF>
  </metadata>
  <defs
     id="defs5" />
  <sodipodi:namedview
     inkscape:window-height="681"
     inkscape:window-width="888"
     inkscape:pageshadow="2"
     inkscape:pageopacity="0.0"
     guidetolerance="10.0"
     gridtolerance="10.0"
     objecttolerance="10.0"
     borderopacity="1.0"
     bordercolor="#666666"
     pagecolor="#ffffff"
     id="base"
     inkscape:zoom="0.54252853"
     inkscape:cx="385.12732"
     inkscape:cy="423.64005"
     inkscape:window-x="-1"
     inkscape:window-y="-7"
     inkscape:current-layer="svg2" />
  <g
     id="layer1"
     inkscape:label="Warstwa 1"
     transform="translate(-464.122,-1.96629)"
     style="fill:red;fill-opacity:1">
    <path
       sodipodi:nodetypes="cccscccc"
       id="path2972"
       d="M 469.43692,7.28125 L 469.43692,567 L 470.15567,567 C 476.01226,701.38583 645.08815,857.5625 837.53067,857.5625 C 1029.9732,857.56247 1196.3372,701.3858 1204.7807,567 L 1205.6557,567 C 1205.6557,567 1206.2081,155.49529 1205.6557,7.28125 C 1081.237,7.28125 573.09399,7.28125 469.43692,7.28125 z "
       style="fill:red;fill-opacity:1;fill-rule:nonzero;stroke:black;stroke-width:10.62992096;stroke-linecap:round;stroke-linejoin:round;stroke-miterlimit:4;stroke-dasharray:none;stroke-dashoffset:0;stroke-opacity:1" />
  </g>
  <path
     id="path2935"
     style="fill:black;fill-opacity:1;fill-rule:evenodd;stroke:none;stroke-width:1px;stroke-linecap:butt;stroke-linejoin:miter;stroke-opacity:1"
     d="M 325.24253,576.90734 C 320.11436,590.73872 309.84673,598.12275 311.81541,611.49233 C 319.61246,614.12595 327.79294,616.14608 341.9247,608.64416 C 344.1265,615.09076 346.5056,621.18274 352.50364,620.03686 L 352.09676,602.9478 C 339.44849,606.10215 333.95205,602.10467 328.90447,597.65833 C 330.13173,588.87562 333.44981,590.54702 335.82147,587.48628 L 325.24253,576.90734 z M 313.5025,237.91054 C 205.84692,199.17248 225.88219,36.058269 357.91987,34.615686 C 473.24669,39.373045 513.6067,185.6618 395.50379,239.6189 C 396.89792,251.44789 406.18651,252.22465 413.44158,255.84832 C 414.56547,274.61477 402.19563,270.44185 391.23289,268.66101 C 398.00399,283.36703 404.25041,298.83092 421.98337,297.70314 C 427.34718,300.07725 429.1284,307.13135 422.83755,313.07838 C 414.06233,317.09273 406.46726,315.20636 398.92051,313.07838 C 396.79424,321.90491 399.97858,330.73144 404.04559,339.55797 C 427.43551,314.95064 455.09856,312.89539 479.21343,284.03626 C 518.08784,227.39162 507.00627,180.76722 546.69366,136.26312 C 561.95982,121.16939 579.37315,117.34829 599.65282,128.5755 C 660.62089,163.1495 676.48568,259.04634 697.88352,288.30717 C 700.30488,295.13825 706.3013,294.81921 712.40459,294.28643 C 712.269,311.29714 701.85297,317.38489 681.65411,313.07838 C 689.77977,351.01947 685.96967,393.55124 724.36311,419.85089 C 713.46228,431.0374 701.03945,433.0919 687.63337,429.24687 C 689.2963,463.98889 702.0539,536.76466 662.00797,530.8943 C 659.26826,576.83008 649.9553,628.44467 616.73643,601.79124 C 613.22962,604.92323 613.12019,608.05523 615.88224,611.18722 C 631.04767,618.96466 644.58999,618.62659 658.59124,620.5832 C 655.97264,628.49949 651.75477,634.8165 646.63272,640.22934 C 658.04137,643.15846 664.28785,649.52903 672.25812,654.7504 C 661.13135,661.34167 647.85273,662.91196 632.96584,660.72966 C 641.01956,667.19701 645.02926,673.4762 646.84406,686.18246 C 641.12423,687.88936 634.83029,677.79119 626.98658,677.81326 C 637.81959,688.13126 639.50256,696.64422 640.31816,709.46656 C 620.25297,701.70106 605.98439,677.64588 597.09029,677.81326 C 589.70872,695.1307 575.60445,702.84429 559.50635,707.70956 C 528.07938,708.19276 533.83655,683.27061 548.40202,671.834 C 556.70784,668.75075 563.04454,663.69839 566.3398,655.60458 C 563.80676,652.10876 530.56445,642.43147 488.09392,625.73424 C 460.84644,615.02193 429.80061,595.30709 400.62887,584.70763 C 399.49779,592.39134 399.00512,599.75584 395.50379,608.62468 L 389.52453,606.91632 C 384.4816,625.26914 370.63855,641.86195 376.71183,662.43802 L 395.50379,659.87548 C 402.42426,649.20201 407.29535,651.84945 411.73321,657.31293 C 435.27827,657.93701 441.07983,675.75945 426.25427,681.22998 C 427.64079,676.11604 432.41922,669.98451 421.98337,668.41728 C 419.55281,683.98008 411.38636,685.2032 401.48305,682.08416 C 400.98203,687.29136 397.99753,689.51839 391.23289,687.20924 C 390.24463,697.8222 379.56948,700.36277 371.58675,705.14702 C 375.1702,714.34856 359.37573,715.81857 355.35733,727.3557 C 349.31419,735.17839 348.30395,754.30245 327.16938,750.41856 C 324.93098,752.66692 330.88608,754.21686 337.76278,755.53198 C 324.88871,761.76885 318.38604,754.80735 320.17211,743.05863 C 314.5778,738.69551 320.54422,732.17473 314.70379,730.25758 C 308.51819,732.43913 302.46723,727.45509 298.12726,729.91825 C 297.19754,735.59567 301.95257,737.79907 309.2316,738.46004 C 297.98511,744.15416 292.49238,737.31108 289.92869,725.63956 C 282.96501,714.92324 293.14817,711.17008 298.98145,704.29283 C 289.55537,710.08971 280.48888,711.87336 272.8412,703.77023 C 266.86011,709.35942 273.01801,713.74731 278.13789,715.56102 C 268.0496,724.64282 255.29578,708.5382 268.06712,695.23619 C 265.24879,678.58326 278.93317,678.43304 292.148,677.81326 C 317.57781,681.36962 324.00452,670.66522 343.39881,665.85474 C 348.71649,654.78587 354.19988,643.83395 351.94061,627.41664 C 347.41482,639.81903 340.37067,638.79018 333.14864,636.81262 C 323.81352,632.72431 317.50773,637.72396 311.79414,644.50024 C 297.0958,658.5604 278.8845,664.47066 269.93932,676.95907 C 262.48278,683.8518 254.97999,690.63936 242.60556,686.35506 C 241.93652,688.85391 243.26371,691.35277 249.43122,693.85164 C 239.90915,696.30356 233.49209,695.18921 234.92183,682.95388 C 238.01927,677.03182 231.58933,669.33452 234.91794,665.85474 C 228.93656,666.25384 222.13909,657.77859 217.83434,660.72966 C 215.28313,667.13176 219.72379,668.42352 226.20064,671.13978 C 217.60108,677.67865 205.97646,664.59372 214.07828,655.25358 C 209.82095,647.77422 212.38067,644.11386 219.5427,639.37515 C 199.78366,638.87197 204.73691,628.01867 197.33402,631.68753 C 194.50996,633.34152 193.88911,641.834 201.93649,641.74666 C 191.5754,654.45656 180.48418,627.93747 197.69279,620.5832 C 194.40881,612.16662 204.2604,603.78483 220.39688,609.47886 C 263.83809,618.60372 294.6597,608.36747 294.71832,560.27186 C 288.24905,560.89929 281.7484,561.54097 280.18948,559.93642 C 279.54598,544.56506 289.72039,533.33437 289.58546,511.24816 C 291.00841,504.9413 262.7817,481.61659 257.12662,439.49703 C 253.42517,440.28305 249.72373,443.26099 246.02228,441.20539 C 242.08061,435.27417 240.98542,428.77365 239.18884,422.41342 C 236.22114,425.59191 234.96553,430.97167 229.10641,430.43261 C 221.13081,426.34743 221.34581,420.02846 217.83434,414.7258 C 211.73036,418.58577 212.49703,423.69493 211.0009,428.39268 C 205.45235,425.4688 201.19882,420.60239 196.47983,416.43416 C 205.74295,432.46248 192.34702,439.32627 184.18199,439.14991 C 162.10554,439.34192 155.93011,418.61257 152.91666,420.70506 C 153.56639,468.58526 162.4194,502.26739 161.45846,541.14445 C 174.39695,583.01253 168.79634,632.82671 203.31328,665.85474 C 218.11372,677.03591 211.81761,692.57287 196.47983,695.40393 C 153.60963,686.17578 152.44025,642.4943 137.54141,606.06213 C 111.06495,625.34238 95.849571,587.7733 93.978241,554.81133 C 75.248062,561.37025 61.345692,555.37685 55.540132,528.33175 C 46.046302,481.98507 47.872292,433.75174 53.831772,384.82951 C 40.079432,386.59208 26.724752,387.44 25.643832,360.05828 C 51.995172,371.15079 42.668302,299.73743 50.415052,267.80684 C 31.728302,264.05692 24.448572,253.33603 29.060552,235.34799 C 31.379582,229.77057 35.320582,229.73483 40.164892,232.78546 C 46.453972,235.55989 48.052242,228.65956 51.269232,225.09783 C 61.581592,176.8456 84.228151,109.51308 154.62502,126.86713 C 216.98674,155.9236 187.21907,264.06944 269.93932,349.80812 C 274.43663,341.26633 278.42848,332.72452 285.31457,324.18272 C 266.28461,314.78674 276.48481,296.92645 293.00219,295.99477 C 298.88231,294.39825 305.05398,274.70691 316.91922,266.09848 C 308.77955,262.74832 300.86607,258.79501 296.41891,245.59816 L 313.5025,237.91054 z M 584.81101,409.35525 C 585.27521,471.95144 583.46477,534.54762 577.04045,597.14381 C 525.79631,574.44904 499.12515,525.13353 460.48203,488.78765 C 466.48492,478.45266 459.84427,464.95678 452.27977,451.22994 C 463.79066,455.47299 477.50125,463.84047 471.27448,434.82542 C 482.1145,441.61665 489.18261,440.48687 488.54239,423.16958 C 502.88929,439.00805 508.39549,429.93183 510.12728,410.21864 C 519.75381,423.90157 534.59415,421.80115 529.55369,397.69941 L 541.20953,403.74318 C 536.90964,421.40451 551.29947,433.81593 568.83819,423.16958 L 584.81101,409.35525 z M 624.09552,521.59669 C 624.44426,542.73241 629.06071,565.06309 617.62005,582.89778 C 616.01013,559.38084 620.33889,540.72282 624.09552,521.59669 z M 120.98761,515.06122 C 117.10326,530.26745 114.32803,576.94438 133.60096,588.30004 C 137.64336,567.18584 125.3632,580.37716 120.98761,515.06122 z M 86.500761,498.94533 C 86.998311,512.38185 82.832521,523.89817 90.265891,540.19061 C 89.836961,521.76088 88.284691,509.69672 86.500761,498.94533 z "
     sodipodi:nodetypes="cccccccccccccccccccccccccccccccccccccccscccccccccccccccccccccccccccccccccccccccccccccccccccccccccccccccccccccccccccccccccccccccccccc" />
  <path
     id="path2921"
     style="fill:#f8d939;fill-opacity:1;fill-rule:evenodd;stroke:none;stroke-width:1px;stroke-linecap:butt;stroke-linejoin:miter;stroke-opacity:1"
     d="M 418.43133,584.17578 C 420.72319,576.72961 415.85612,568.09029 410.81475,559.42192 C 417.72937,563.5565 423.68591,564.58003 431.22376,563.72882 C 431.5411,553.41084 430.75717,545.06654 426.078,535.99769 C 432.12887,537.22424 439.31999,542.65343 444.78702,539.20922 C 445.76085,525.38377 438.45366,519.39427 435.53066,510.57903 C 454.89004,517.79339 458.33314,511.55652 452.70589,497.21993 L 522.52446,569.57735 C 537.12815,584.45174 553.17273,597.64508 575.20575,603.85192 C 575.70382,620.3532 578.45954,638.3153 568.8586,648.28192 C 516.55917,631.76648 467.561,607.35467 418.43133,584.17578 z M 611.77807,619.10506 C 624.56733,624.68661 637.35658,625.26397 650.14584,626.24325 C 640.94235,640.48699 626.77597,640.83462 613.86005,644.68357 C 621.40469,645.60437 628.97044,646.5067 642.71022,642.00675 L 664.42221,653.90373 C 647.36999,659.43567 634.88213,658.57749 625.75703,653.01146 L 610.8858,653.01146 C 612.56073,654.4946 613.86948,658.50325 616.22265,657.69493 C 628.82632,653.36556 633.41749,672.04916 642.71022,680.37451 C 634.14262,676.21793 624.99624,668.00994 617.13172,668.77496 C 618.55316,677.13595 636.99998,688.4815 636.76173,702.68135 C 617.34142,691.07995 609.57851,674.45947 598.98882,670.26208 C 603.39632,653.13753 613.08352,633.37313 611.77807,619.10506 z M 319.00618,231.97262 C 256.51897,209.46669 230.77698,139.61827 270.90177,82.908314 C 306.8327,36.72416 389.39715,21.659148 440.15804,84.689961 C 480.71315,141.66712 450.81323,208.45398 395.61692,231.37873 C 394.01554,221.18311 391.55475,210.51873 396.80468,204.06019 C 405.66363,208.31811 405.92932,213.85503 419.96607,205.24795 C 427.75942,198.72613 423.4994,191.50231 415.21501,187.4315 C 411.06471,179.18085 412.94938,168.91855 412.24561,159.51905 C 426.48557,163.88189 432.40098,154.21733 428.28041,138.13932 C 419.15948,137.78841 416.52341,128.52082 412.24561,121.51063 C 402.02483,96.613283 380.02731,86.335352 351.07579,84.689961 C 332.47718,85.056397 322.02718,86.401625 317.81841,110.82076 C 261.70445,108.12295 244.38682,186.04467 289.44597,177.44422 C 280.51736,168.63323 279.0993,162.61412 286.34268,158.33129 C 285.17356,146.13088 298.69149,151.63422 304.15913,160.11294 C 315.27564,147.9745 334.08714,147.66763 347.05249,164.91428 C 331.1389,156.58397 305.2489,165.34571 305.02075,177.95453 C 311.15914,178.9522 319.41533,179.59559 324.51012,182.68044 C 343.79385,194.25717 328.61455,222.46935 319.00618,231.97262 z M 275.12542,156.84017 C 279.56398,147.93506 287.07881,142.56195 304.06999,148.0691 C 318.14678,144.37093 331.81483,139.10069 351.78468,158.06812 C 351.25927,139.07115 342.12534,120.91184 313.8936,120.87874 C 290.57584,122.20826 274.8978,137.16131 275.12542,156.84017 z M 302.14035,141.57849 C 308.28011,136.65985 325.25807,136.45422 329.85697,137.01753 C 322.21624,132.72052 328.4536,129.82524 328.4536,129.82524 C 328.4536,127.72019 327.28412,125.84902 324.94517,124.21175 C 325.07426,130.38136 313.86663,126.10751 309.50806,130.52693 L 315.99867,131.22861 C 312.84138,135.80145 303.59022,136.22678 302.14035,141.57849 z M 346.79444,122.04486 C 341.78225,130.09071 357.60118,135.38298 359.86914,126.63554 C 359.69931,126.1292 359.06442,126.15031 358.54824,126.22482 C 354.36876,126.82814 350.12026,127.76185 347.68232,122.87912 C 347.46895,122.45178 347.6762,121.74883 346.79444,122.04486 z M 423.88551,148.11172 C 417.03381,149.67117 415.24477,146.16795 413.43008,142.69038 C 390.75323,101.32684 365.49428,89.36837 338.69298,95.447237 C 321.45577,102.80477 328.59446,121.77948 341.40365,115.19642 C 349.67464,108.20603 361.80697,107.07966 370.05932,118.68157 C 373.75618,128.46677 361.20565,139.34421 352.24635,141.52866 C 359.66435,152.30855 362.10006,165.22371 362.31455,179.09082 C 359.97131,187.11378 355.34714,187.53366 349.92291,185.28665 C 343.85617,182.17407 337.78942,171.88571 331.72268,177.9291 C 341.54161,191.30417 347.26204,193.86132 340.62918,213.94232 C 330.52477,242.10936 318.69862,247.03283 306.55216,247.63209 C 303.28112,256.95518 317.92254,254.33665 329.39925,253.82791 C 328.27857,271.63624 297.01306,312.16369 284.0923,309.97754 C 285.75179,315.2357 289.93467,317.60995 298.80739,314.62441 C 227.83858,410.10935 268.12717,502.4708 341.7909,543.0953 C 341.17534,542.47974 350.08767,403.85407 399.87671,344.05455 C 393.09247,327.89112 384.81502,313.636 383.99992,294.48799 C 394.06813,304.95414 404.13634,313.48073 414.20455,307.65411 C 381.52956,285.86576 385.35147,272.51202 382.45096,250.73 C 387.17714,251.15306 391.15008,271.33827 405.68529,263.89612 C 372.08972,245.64572 392.45504,197.19356 395.61709,169.79709 C 401.9479,190.51191 402.60285,204.14369 414.59178,199.22724 C 399.26056,183.37398 408.47115,153.61202 399.48948,138.04351 C 408.77199,140.10336 415.17567,162.60493 423.88551,148.11172 z M 299.27781,520.65787 C 296.90467,523.09919 289.65871,541.77932 288.63417,553.96219 C 299.60921,554.32678 303.36498,558.22709 307.8614,539.54176 L 307.51805,524.09131 C 304.7713,524.53218 302.26525,521.1488 299.27781,520.65787 z M 315.41495,538.51173 C 314.16172,547.41032 308.77338,552.40533 309.92146,559.79902 L 312.32486,559.79902 C 311.71108,562.23379 312.71667,566.46314 312.32486,570.78601 C 317.99057,566.26706 323.03605,565.3462 328.462,557.73896 C 336.28392,544.42664 321.09154,532.40256 315.41495,538.51173 z M 331.05301,558.20266 C 331.9126,555.51659 336.84491,553.49948 339.44899,558.08231 C 340.42369,560.39584 341.61316,563.53946 340.61707,569.99667 C 339.74936,574.77227 333.62915,579.97506 330.55392,572.91687 C 328.95519,569.72601 331.80931,564.24279 331.05301,558.20266 z M 303.77798,566.81146 C 305.01797,571.92142 303.66618,577.37768 311.5593,579.16107 C 303.67061,593.15196 302.57256,601.13837 303.43759,613.78572 C 304.11397,619.0606 307.95831,618.48519 310.75369,619.77453 L 322.84,620.93398 C 323.38251,622.73517 323.87431,625.10738 323.46756,628.99695 C 318.76766,629.85847 314.4267,629.0596 309.7268,628.80014 L 309.38641,637.66648 C 305.11846,637.92862 304.02681,645.95753 296.62973,648.16544 L 290.23384,649.77195 C 285.41206,655.52914 282.65535,655.80711 279.63393,657.06339 C 273.52487,664.39718 266.86417,668.89137 259.86726,672.67375 L 256.80372,678.46043 C 256.63168,682.87077 252.41171,684.85232 249.31507,680.84318 C 252.23838,678.9927 252.37997,676.44678 251.69782,673.69493 C 248.29389,673.21702 244.88996,672.74543 241.48603,669.61021 C 244.93281,665.48264 245.02257,664.71209 245.91114,663.14274 C 253.85572,663.47278 258.23607,651.73462 271.51222,649.91513 C 274.5822,646.28856 276.76754,641.96673 282.42866,640.06759 C 291.16274,639.08992 288.28832,630.0496 288.80068,623.31673 L 284.03518,623.31673 C 282.53089,631.99499 277.35901,633.33806 272.41408,635.13504 C 267.75648,640.64956 262.97813,645.58105 253.05939,644.08072 C 248.45271,646.50883 243.21938,648.3103 235.01855,647.14426 C 236.95405,654.83725 232.27651,657.1395 227.14178,658.64604 L 224.12597,650.2078 L 219.02007,649.18662 C 220.31992,640.49131 225.40576,637.18938 234.40936,636.34713 C 241.10376,638.95122 248.11469,636.83837 254.80909,635.00942 C 264.56703,629.02172 273.6919,626.62266 283.44984,614.92622 C 293.44234,598.75136 294.83828,581.22359 303.77798,566.81146 z M 270.75984,613.10493 L 270.07906,619.57241 C 262.72483,620.79501 254.7793,632.92545 243.18799,628.76302 C 237.8485,632.8337 210.82911,632.96255 205.74474,626.03988 C 204.16248,624.67831 205.82991,623.31673 207.4467,621.95516 C 203.06826,619.40205 206.78277,613.55062 210.85064,616.84926 C 225.4586,618.95785 239.26257,618.49366 252.37861,615.82808 C 256.87454,611.8911 264.37955,613.54239 270.75984,613.10493 z M 341.20023,615.60079 C 341.29756,618.85213 340.64364,623.04341 344.65269,623.84688 C 346.5888,626.92511 345.07893,631.59705 342.14982,632.37686 C 336.48081,633.86021 333.08931,629.69062 332.79392,624.45878 C 332.48976,619.07163 333.25085,617.38418 336.09334,614.49457 C 337.51344,613.62477 338.99477,611.75841 341.20023,615.60079 z M 358.89794,607.3804 C 362.57656,614.19664 368.17545,616.85233 377.3542,611.75162 C 369.76719,622.89133 367.01294,639.5887 368.61176,661.29212 C 370.51537,673.69523 381.01713,671.48151 391.92494,668.57749 C 391.51231,671.81543 392.99068,675.05337 395.32478,678.29131 L 383.1825,677.31993 C 381.0701,678.17716 378.28093,677.54549 378.32558,683.14823 C 379.08482,694.57836 376.48354,701.31726 369.89659,700.35071 C 361.71719,700.56256 364.12126,709.82413 357.44086,710.83262 C 350.85553,717.48978 342.85617,725.25702 341.89875,733.17442 C 341.99619,742.69488 338.53271,741.53257 336.07045,743.37393 L 334.12769,736.08856 C 329.46416,736.35938 324.57956,736.87584 323.92817,732.68873 C 323.34734,728.31894 325.84982,726.15151 331.69923,726.37474 L 336.55614,720.54645 C 337.70024,713.45229 345.13458,714.84924 349.18411,704.51864 C 352.70705,695.44152 360.82621,691.07394 359.38363,680.71977 C 354.80655,676.72702 352.49081,681.02585 350.64119,687.03376 C 347.21026,689.88571 344.43748,694.05398 342.38444,699.66173 C 336.29809,709.01741 329.42252,713.44042 321.49972,711.31831 C 319.06163,711.71728 316.68467,712.66646 314.70004,717.14661 C 313.13156,726.45448 304.44436,725.88408 302.07207,719.57506 C 299.70952,717.29911 297.52216,719.65906 295.75809,717.14661 C 294.20349,714.23246 298.30149,711.31832 301.58638,708.40417 C 308.976,709.65474 311.71184,705.66979 315.67142,703.06156 C 320.85951,704.73563 335.46528,697.99276 335.58476,692.86205 C 363.81245,671.08527 361.57358,635.1758 358.89794,607.3804 z M 341.08115,670.31929 L 341.08115,677.85775 C 334.76491,682.32433 329.72758,689.89683 320.59621,687.52664 C 309.1685,694.20265 300.6581,692.22678 291.26177,696.86778 C 284.73052,703.28624 276.43413,699.02562 277.49589,692.60691 C 271.31824,692.14878 273.66725,690.41164 276.02097,688.6738 C 283.86845,683.23297 295.63537,684.65117 306.83033,685.06845 C 310.50132,681.62547 315.28986,678.82109 325.02096,678.84103 C 329.95295,675.57905 333.74329,671.1754 341.08115,670.31929 z M 406.14133,659.33936 C 398.72636,661.59626 400.38464,670.75108 407.61624,677.69387 C 412.97174,677.7506 412.71781,672.1979 414.00754,668.18886 C 405.71907,669.29197 411.485,660.23512 406.14133,659.33936 z M 339.60218,596.61168 C 345.92711,592.06038 344.65114,581.01164 352.61523,571.03431 L 355.30758,553.98273 C 352.99187,511.71009 355.93693,499.17986 362.03847,479.49424 L 368.76936,437.31402 C 373.54253,394.17799 389.69598,369.06073 408.70596,348.4663 C 427.45727,331.29231 444.42322,323.04506 462.10433,311.22206 C 487.29891,298.26617 496.47363,271.8379 506.97691,251.0928 C 522.23936,203.85477 531.87324,135.96178 575.63196,128.59065 C 604.96298,127.0912 635.41832,171.46025 651.0179,199.48933 C 672.05624,234.65267 678.18103,292.32777 703.51882,301.79882 C 683.25168,322.73567 670.37482,279.66909 668.06948,289.23449 C 682.1952,332.5012 668.53073,377.82645 712.04461,418.91626 C 679.54189,436.13555 679.03884,384.30293 667.17203,356.99209 C 675.01738,389.75398 678.93148,425.1367 683.32616,460.19903 C 682.23985,488.87747 688.30741,527.43509 663.58222,523.46937 C 669.34983,473.81038 663.94704,424.15139 646.97937,374.4924 C 648.6853,444.40466 661.78609,520.32706 648.77427,580.90628 C 642.86564,597.47603 628.95783,605.59959 620.95327,597.95786 C 645.23584,551.31047 628.06933,414.37801 617.81219,363.72298 C 611.20008,475.15705 621.06011,625.77167 584.15775,684.56194 C 566.13882,708.84342 543.98964,706.92201 542.87498,693.53646 C 540.12521,684.32423 546.39302,681.12373 555.88803,680.07469 C 589.23299,656.79417 578.33825,629.23767 582.81158,594.81678 C 588.85218,529.5771 593.23987,464.72303 588.64501,398.27487 C 575.62746,406.07279 570.55866,431.35797 546.91351,415.77518 C 548.58331,411.65728 541.19812,406.71621 554.54185,403.65958 C 583.40395,386.3995 579.96358,339.14426 576.08069,291.47812 C 571.99755,322.38969 575.20361,352.39011 562.61891,384.36437 C 545.22691,371.3749 542.89184,349.78148 541.97753,327.37619 C 539.65993,351.73806 541.35935,375.09567 543.77243,398.27487 C 530.6065,391.42894 524.31073,363.29794 516.84888,360.13317 C 522.31457,374.98685 525.71237,391.21913 524.02849,410.83919 C 512.40956,407.55427 505.39066,390.46929 498.45112,373.14622 C 499.35856,389.64509 507.37045,408.1738 500.69475,422.50606 C 489.92675,419.51172 484.46253,405.9098 476.91228,396.47997 C 478.69043,408.22513 485.33473,422.05578 479.60464,430.58313 C 470.24754,431.10101 462.77169,416.5689 454.47599,408.59556 C 454.14755,419.96328 467.3281,434.92081 466.59159,448.08344 C 445.91472,449.68591 443.88881,434.50252 433.8346,426.5446 C 437.20389,444.91989 458.87848,459.79589 455.82217,481.73787 C 444.0199,481.08995 435.34312,469.50283 425.75754,461.09648 C 432.47208,475.48901 447.54517,491.97119 445.50147,504.17416 C 424.11369,499.8313 424.87562,481.68351 410.94959,483.08405 C 408.85586,496.24675 439.62647,518.20838 436.97568,531.99516 C 421.90989,533.92398 411.75915,511.25661 405.56488,510.90505 C 404.45942,525.39866 427.61947,537.94207 426.20626,557.12381 C 409.00511,561.90339 408.40681,543.11836 398.83399,539.6235 C 395.5963,553.24368 414.17604,567.95731 411.84704,580.45755 C 400.34717,581.70739 397.23583,566.72041 385.82094,561.61107 C 389.63306,574.41038 396.36926,585.38215 391.20565,603.7913 L 377.29515,585.84226 C 379.33178,601.71661 374.66941,605.30946 369.66681,608.27855 C 363.34895,602.19356 361.92902,589.57801 358.89739,579.11138 C 354.96552,592.44443 349.48456,601.13019 339.60218,596.61168 z M 265.40289,356.27186 C 256.84371,380.45093 252.91598,406.82363 250.88774,435.35665 C 237.09058,431.35158 245.98091,411.0733 237.19782,403.95037 C 231.10344,405.25271 234.43666,419.28623 229.14492,422.47202 C 220.61391,415.00841 219.24061,405.75537 217.06558,396.70276 C 209.9354,398.5426 208.15173,408.10519 205.79153,416.835 C 199.19177,409.82808 197.74158,401.53376 195.32277,393.4816 C 187.29566,393.3761 185.61477,405.76377 179.21698,407.97681 C 162.2758,396.0559 162.50986,376.20796 159.08475,358.04887 C 166.51069,361.90985 170.74226,369.42154 181.63285,369.32292 C 191.33558,369.01994 193.97635,360.8829 190.49103,348.3854 C 170.99479,342.62103 170.98708,320.61621 171.16409,298.45746 C 171.87165,270.21981 161.21537,249.49658 140.10977,227.97067 C 122.82868,197.71817 106.43712,178.57743 135.2017,150.64453 C 140.20447,148.29948 153.22714,144.47692 157.47417,155.11595 C 157.82401,165.75523 140.27862,166.24134 143.33927,152.44604 C 137.96912,153.66201 136.4349,172.09348 157.47417,165.58471 C 166.89249,157.92258 158.19517,144.0831 145.39483,142.23132 C 118.71823,139.1833 106.21262,166.47532 108.35152,184.10637 C 120.33045,234.56885 166.58727,252.6384 167.13764,332.27961 C 172.02087,352.66831 189.38541,357.4119 181.63285,363.6859 C 165.65437,362.73176 160.22977,345.24054 151.83714,332.27961 C 159.79163,364.21871 157.85897,406.82554 184.87395,418.19938 C 191.60832,417.25269 194.09872,431.18253 182.43814,430.52491 C 145.2205,425.16202 144.85668,369.02904 137.34194,337.91664 C 129.99031,357.22177 141.58581,404.94758 143.78425,438.57781 C 151.58749,477.84036 152.10613,515.28176 153.44772,552.9289 C 165.94342,587.2879 163.32891,643.22698 195.32277,672.91701 C 207.89191,679.73308 200.18935,690.32207 188.07517,684.99635 C 146.12743,665.60489 134.82648,557.66266 125.2626,496.55864 C 126.92478,441.89448 115.539,402.99467 112.37797,345.96953 C 111.59648,416.53192 106.3837,483.54928 113.18325,560.1765 C 116.23049,577.28512 121.95147,592.38844 131.70491,604.46742 C 120.12044,605.05477 110.08705,600.47184 103.51978,584.33518 C 81.171244,511.52934 96.813304,354.87122 88.219284,342.74837 C 75.665334,402.31075 70.507434,471.41872 80.166394,548.09716 C 34.220264,514.39424 64.813694,399.87793 64.865894,365.29648 C 51.714624,381.79517 36.938624,375.11258 31.294374,368.41629 C 64.517774,365.52017 50.704884,301.55594 55.202424,262.21944 C 52.431194,256.73217 32.607544,252.09955 34.264904,241.28191 C 71.059464,255.48356 65.382424,155.09062 109.9621,138.20488 C 125.4235,130.51102 157.76001,125.71415 176.08051,168.13839 C 192.91602,205.23013 197.00765,248.70679 216.35064,283.23056 C 219.13121,304.06721 241.65597,334.68265 265.40289,356.27186 z " />
</svg>
