<?xml version="1.0" encoding="UTF-8" standalone="no"?>
<!-- Created with Inkscape (http://www.inkscape.org/) -->
<svg
        xmlns:dc="http://purl.org/dc/elements/1.1/"
        xmlns:cc="http://web.resource.org/cc/"
        xmlns:rdf="http://www.w3.org/1999/02/22-rdf-syntax-ns#"
        xmlns="http://www.w3.org/2000/svg"
        xmlns:xlink="http://www.w3.org/1999/xlink"
        xmlns:sodipodi="http://inkscape.sourceforge.net/DTD/sodipodi-0.dtd"
        xmlns:inkscape="http://www.inkscape.org/namespaces/inkscape"
        id="svg2615"
        sodipodi:version="0.32"
        inkscape:version="0.42+devel"
        width="600pt"
        height="712pt"
        sodipodi:docbase="D:\Inkscape-rysunki\nowe"
        sodipodi:docname="POL_powiat_malborski_COA.svg"
        version="1.0">
  <metadata
     id="metadata2620">
    <rdf:RDF>
      <cc:Work
         rdf:about="">
        <dc:format>image/svg+xml</dc:format>
        <dc:type
           rdf:resource="http://purl.org/dc/dcmitype/StillImage" />
      </cc:Work>
    </rdf:RDF>
  </metadata>
  <defs
     id="defs2618">
    <radialGradient
       r="7.7925749"
       fy="442.06165"
       fx="258.88525"
       cy="442.06165"
       cx="258.88525"
       gradientTransform="matrix(1.449740,-0.120050,0.115892,1.399529,-167.6624,-145.5075)"
       gradientUnits="userSpaceOnUse"
       id="radialGradient4548"
       xlink:href="#linearGradient3554"
       inkscape:collect="always" />
    <radialGradient
       r="7.7925749"
       fy="442.06165"
       fx="258.88525"
       cy="442.06165"
       cx="258.88525"
       gradientTransform="matrix(1.449740,-0.120050,0.115892,1.399529,-167.6624,-145.5075)"
       gradientUnits="userSpaceOnUse"
       id="radialGradient4416"
       xlink:href="#linearGradient3554"
       inkscape:collect="always" />
    <radialGradient
       r="7.7925749"
       fy="442.06165"
       fx="258.88525"
       cy="442.06165"
       cx="258.88525"
       gradientTransform="matrix(1.449740,-0.120050,0.115892,1.399529,-167.6624,-145.5075)"
       gradientUnits="userSpaceOnUse"
       id="radialGradient4098"
       xlink:href="#linearGradient3554"
       inkscape:collect="always" />
    <radialGradient
       r="7.7925749"
       fy="442.06165"
       fx="258.88525"
       cy="442.06165"
       cx="258.88525"
       gradientTransform="matrix(1.449740,-0.120050,0.115892,1.399529,-167.6624,-145.5075)"
       gradientUnits="userSpaceOnUse"
       id="radialGradient3572"
       xlink:href="#linearGradient3554"
       inkscape:collect="always" />
    <linearGradient
       id="linearGradient3554">
      <stop
         id="stop3556"
         offset="0"
         style="stop-color:#ffffff;stop-opacity:1;" />
      <stop
         id="stop3558"
         offset="1"
         style="stop-color:#000000;stop-opacity:1;" />
    </linearGradient>
    <linearGradient
       id="linearGradient2210">
      <stop
         style="stop-color:#15caff;stop-opacity:1;"
         offset="0"
         id="stop2212" />
      <stop
         id="stop2249"
         offset="1"
         style="stop-color:#0065bf;stop-opacity:0.74901962;" />
      <stop
         style="stop-color:#0052ff;stop-opacity:0.62352943;"
         offset="1"
         id="stop2251" />
      <stop
         id="stop2259"
         offset="1"
         style="stop-color:#0374f2;stop-opacity:0.59215686;" />
      <stop
         id="stop2253"
         offset="1"
         style="stop-color:#07daff;stop-opacity:0.56078434;" />
      <stop
         style="stop-color:#0b8cd9;stop-opacity:0.52941176;"
         offset="1"
         id="stop2255" />
      <stop
         id="stop2257"
         offset="1"
         style="stop-color:#0d86d3;stop-opacity:0.51372549;" />
      <stop
         id="stop2218"
         offset="1"
         style="stop-color:#0f81cd;stop-opacity:0.49803922;" />
      <stop
         style="stop-color:#0f76b1;stop-opacity:0;"
         offset="1"
         id="stop2214" />
    </linearGradient>
    <radialGradient
       inkscape:collect="always"
       xlink:href="#linearGradient2210"
       id="radialGradient3043"
       gradientUnits="userSpaceOnUse"
       gradientTransform="matrix(1.304169,-2.823788e-15,2.727224e-15,1.397324,-159.1821,-2.783708)"
       cx="523.80261"
       cy="6.7292361"
       fx="523.80261"
       fy="6.7292361"
       r="4.5319548" />
    <linearGradient
       id="linearGradient2291">
      <stop
         id="stop2301"
         offset="0"
         style="stop-color:#ffffff;stop-opacity:1;" />
      <stop
         style="stop-color:#ffc000;stop-opacity:1;"
         offset="0.5"
         id="stop2305" />
      <stop
         style="stop-color:#ffffff;stop-opacity:1;"
         offset="1"
         id="stop2295" />
    </linearGradient>
    <linearGradient
       inkscape:collect="always"
       xlink:href="#linearGradient2291"
       id="linearGradient2795"
       gradientUnits="userSpaceOnUse"
       spreadMethod="reflect"
       x1="256.5722"
       y1="525.92352"
       x2="489.24524"
       y2="525.92352" />
    <linearGradient
       inkscape:collect="always"
       xlink:href="#linearGradient2461"
       id="linearGradient2793"
       gradientUnits="userSpaceOnUse"
       gradientTransform="matrix(0.000000,-1.000000,-1.000000,0.000000,1044.671,778.9887)"
       x1="249.64531"
       y1="581.60553"
       x2="294.61395"
       y2="581.60553" />
    <linearGradient
       id="linearGradient2461">
      <stop
         style="stop-color:#ffffff;stop-opacity:1;"
         offset="0"
         id="stop2463" />
      <stop
         id="stop2471"
         offset="0.55000001"
         style="stop-color:#7f7f7f;stop-opacity:1;" />
      <stop
         style="stop-color:#000000;stop-opacity:1;"
         offset="1"
         id="stop2465" />
    </linearGradient>
    <linearGradient
       inkscape:collect="always"
       xlink:href="#linearGradient2461"
       id="linearGradient2791"
       gradientUnits="userSpaceOnUse"
       gradientTransform="matrix(0.000000,-1.000000,1.000000,0.000000,-300.5951,778.9887)"
       x1="249.64531"
       y1="581.60553"
       x2="294.61395"
       y2="581.60553" />
    <linearGradient
       id="linearGradient2495">
      <stop
         style="stop-color:#ffffff;stop-opacity:1;"
         offset="0"
         id="stop2497" />
      <stop
         id="stop2527"
         offset="0.34999999"
         style="stop-color:#dcdcdc;stop-opacity:1;" />
      <stop
         style="stop-color:#828282;stop-opacity:1;"
         offset="1"
         id="stop2499" />
    </linearGradient>
    <radialGradient
       inkscape:collect="always"
       xlink:href="#linearGradient2495"
       id="radialGradient3045"
       gradientUnits="userSpaceOnUse"
       gradientTransform="matrix(1.000000,0.000000,0.000000,0.858246,1.644518e-14,66.52839)"
       cx="341.7045"
       cy="506.0903"
       fx="341.7045"
       fy="506.0903"
       r="106.82813" />
  </defs>
  <sodipodi:namedview
     inkscape:window-height="690"
     inkscape:window-width="751"
     inkscape:pageshadow="2"
     inkscape:pageopacity="0.0"
     borderopacity="1.0"
     bordercolor="#666666"
     pagecolor="#ffffff"
     id="base"
     inkscape:zoom="0.56640852"
     inkscape:cx="379.18343"
     inkscape:cy="442.38067"
     inkscape:window-x="-10"
     inkscape:window-y="-15"
     inkscape:current-layer="svg2615"
     showguides="true"
     inkscape:guide-bbox="true" />
  <g
     transform="matrix(1.063033,0.000000,0.000000,1.063033,945.4519,309.5352)"
     id="g2378">
    <g
       id="g2350" />
  </g>
  <g
     id="g3550"
     transform="translate(-2.000000,0.000000)">
    <path
       sodipodi:nodetypes="ccsccc"
       id="rect2571"
       d="M 10.769398,8.7885767 L 10.725768,526.40487 C 19.242628,725.04511 179.87033,882.75688 376.04279,882.75686 C 572.21513,882.75686 736.62393,724.61495 745.14093,525.97489 L 745.39503,8.7885767 L 10.769398,8.7885767 z "
       style="opacity:1;fill:#ffffff;fill-opacity:1;fill-rule:evenodd;stroke:#000000;stroke-width:7.26096106;stroke-linecap:round;stroke-linejoin:round;stroke-miterlimit:4;stroke-dasharray:none;stroke-dashoffset:0;stroke-opacity:1" />
    <g
       transform="translate(215.1512,225.2549)"
       id="g3399">
      <g
         id="g3379">
        <path
           sodipodi:nodetypes="cccccc"
           id="rect3228"
           d="M 110.32571,-180.99652 L 306.61502,-180.99652 C 342.74063,-181.10611 376.27102,-178.91263 401.41733,-170.13146 C 376.82211,-160.73558 342.05335,-156.57384 306.61502,-156.93817 L 110.32571,-156.93817 L 110.32571,-180.99652 z "
           style="fill:#dbdbdb;fill-opacity:1;fill-rule:nonzero;stroke:#000000;stroke-width:2.48031497;stroke-linecap:round;stroke-linejoin:miter;stroke-miterlimit:4;stroke-dasharray:none;stroke-dashoffset:0;stroke-opacity:1" />
        <path
           sodipodi:nodetypes="cc"
           id="path3231"
           d="M 110.18037,-170.13146 L 368.01328,-169.98373"
           style="fill:#ffffff;fill-opacity:1;fill-rule:evenodd;stroke:#000000;stroke-width:2.48031497;stroke-linecap:butt;stroke-linejoin:miter;stroke-miterlimit:4;stroke-dasharray:none;stroke-opacity:1" />
        <path
           sodipodi:nodetypes="cccsccscccccccc"
           id="rect3237"
           d="M 96.79791,-200.13009 C 102.5486,-194.07595 102.66831,-184.34228 101.04707,-176.34049 C 84.65988,-177.15093 67.89861,-178.27413 50.36466,-175.63968 C 50.05958,-178.11929 45.17748,-180.03394 42.40892,-180.03394 C 39.43096,-180.03394 34.41216,-177.82231 34.41216,-175.07146 L 34.41216,-164.01005 C 34.41216,-161.2592 39.43096,-159.04757 42.40892,-159.04757 C 45.38687,-159.04757 50.40567,-161.2592 50.40567,-164.01005 L 50.40567,-164.5404 C 65.4152,-161.64326 84.00352,-162.84306 100.53445,-163.82064 C 102.18544,-155.50795 102.02163,-147.78639 96.79791,-140.56139 L 114.84187,-140.56139 C 110.96392,-147.50335 107.47343,-162.19821 113.54085,-169.80171 C 107.66547,-177.43548 110.35184,-193.46998 114.84187,-200.13009 L 96.79791,-200.13009 z "
           style="fill:#f2b140;fill-opacity:1;fill-rule:nonzero;stroke:#000000;stroke-width:2.48031497;stroke-linecap:round;stroke-linejoin:miter;stroke-miterlimit:4;stroke-dasharray:none;stroke-dashoffset:0;stroke-opacity:1" />
        <path
           sodipodi:nodetypes="cccccccccccc"
           id="path3197"
           d="M 52.725322,-167.28612 C 50.889612,-163.83355 51.469232,-159.31926 53.737572,-157.18208 C 55.452072,-153.84629 54.471542,-150.02747 52.268002,-145.14084 L 75.509422,-135.33067 C 78.600402,-142.41962 86.018252,-148.12521 90.885862,-150.60583 C 95.112792,-156.2598 99.799322,-161.74664 101.10108,-168.46432 C 98.515572,-172.40009 97.888502,-178.22955 98.256402,-183.07491 C 90.775802,-183.98855 89.876092,-176.87383 89.408062,-170.67059 C 89.889992,-164.42779 84.828272,-162.80672 81.407212,-159.81783 C 75.669082,-159.19355 72.235922,-156.55226 69.381952,-153.40408 C 71.263482,-155.97826 73.934492,-158.09775 78.146432,-159.32977 L 52.725322,-167.28612 z "
           style="fill:#f3e6a2;fill-opacity:1;fill-rule:evenodd;stroke:#000000;stroke-width:2.48031497;stroke-linecap:butt;stroke-linejoin:miter;stroke-miterlimit:4;stroke-dasharray:none;stroke-opacity:1" />
        <path
           sodipodi:nodetypes="cc"
           id="path3250"
           d="M 56.21121,-182.20856 L 56.13481,-172.18147"
           style="fill:none;fill-opacity:0.75;fill-rule:evenodd;stroke:#000000;stroke-width:2.48031497;stroke-linecap:butt;stroke-linejoin:miter;stroke-miterlimit:4;stroke-dasharray:none;stroke-opacity:1" />
        <path
           sodipodi:nodetypes="cc"
           id="path3252"
           d="M 61.40563,-181.22648 L 61.78375,-169.34053"
           style="fill:none;fill-opacity:0.75;fill-rule:evenodd;stroke:#000000;stroke-width:2.48031497;stroke-linecap:butt;stroke-linejoin:miter;stroke-miterlimit:4;stroke-dasharray:none;stroke-opacity:1" />
        <path
           sodipodi:nodetypes="cc"
           id="path3254"
           d="M 66.77429,-180.26107 L 67.28106,-167.00812"
           style="fill:none;fill-opacity:0.75;fill-rule:evenodd;stroke:#000000;stroke-width:2.48031497;stroke-linecap:butt;stroke-linejoin:miter;stroke-miterlimit:4;stroke-dasharray:none;stroke-opacity:1" />
        <path
           id="path3256"
           d="M 71.91733,-178.67092 C 71.95425,-178.31521 71.99119,-177.95951 71.91733,-178.67092 z "
           style="fill:none;fill-opacity:0.75;fill-rule:evenodd;stroke:#000000;stroke-width:2.48031497;stroke-linecap:butt;stroke-linejoin:miter;stroke-miterlimit:4;stroke-dasharray:none;stroke-opacity:1" />
        <path
           sodipodi:nodetypes="cc"
           id="path3258"
           d="M 72.06769,-178.52289 L 72.68228,-165.04405"
           style="fill:none;fill-opacity:0.75;fill-rule:evenodd;stroke:#000000;stroke-width:2.48031497;stroke-linecap:butt;stroke-linejoin:miter;stroke-miterlimit:4;stroke-dasharray:none;stroke-opacity:1" />
        <path
           sodipodi:nodetypes="cc"
           id="path3260"
           d="M 77.07175,-176.88993 L 78.24524,-162.74111"
           style="fill:none;fill-opacity:0.75;fill-rule:evenodd;stroke:#000000;stroke-width:2.48031497;stroke-linecap:butt;stroke-linejoin:miter;stroke-miterlimit:4;stroke-dasharray:none;stroke-opacity:1" />
        <path
           sodipodi:nodetypes="cc"
           id="path3262"
           d="M 82.1099,-174.68449 L 83.55842,-161.46249"
           style="fill:none;fill-opacity:0.75;fill-rule:evenodd;stroke:#000000;stroke-width:2.48031497;stroke-linecap:butt;stroke-linejoin:miter;stroke-miterlimit:4;stroke-dasharray:none;stroke-opacity:1" />
        <path
           id="path3272"
           d="M 56.38335,-182.82607 L 51.5112,-174.32951"
           style="fill:none;fill-opacity:0.75;fill-rule:evenodd;stroke:#000000;stroke-width:2.48031497;stroke-linecap:butt;stroke-linejoin:miter;stroke-miterlimit:4;stroke-dasharray:none;stroke-opacity:1" />
        <rect
           transform="matrix(0.939793,0.341743,-0.479367,0.877615,0.000000,0.000000)"
           rx="4.1902604"
           y="-202.7795"
           x="-12.616476"
           height="21.525105"
           width="8.3805208"
           id="rect3205"
           style="opacity:1;fill:#f3e6a2;fill-opacity:1;fill-rule:nonzero;stroke:#000000;stroke-width:2.49457884;stroke-linecap:round;stroke-linejoin:miter;stroke-miterlimit:4;stroke-dasharray:none;stroke-dashoffset:0;stroke-opacity:1" />
        <rect
           transform="matrix(0.939793,0.341743,-0.479367,0.877615,0.000000,0.000000)"
           rx="3.7826457"
           y="-197.76276"
           x="-37.869518"
           height="17.856234"
           width="7.5652914"
           id="rect3199"
           style="opacity:1;fill:#f3e6a2;fill-opacity:1;fill-rule:nonzero;stroke:#000000;stroke-width:2.49457884;stroke-linecap:round;stroke-linejoin:miter;stroke-miterlimit:4;stroke-dasharray:none;stroke-dashoffset:0;stroke-opacity:1" />
        <rect
           transform="matrix(0.939793,0.341743,-0.479367,0.877615,0.000000,0.000000)"
           rx="3.7826457"
           y="-200.23785"
           x="-30.099775"
           height="21.392118"
           width="8.3831606"
           id="rect3201"
           style="opacity:1;fill:#f3e6a2;fill-opacity:1;fill-rule:nonzero;stroke:#000000;stroke-width:2.49457884;stroke-linecap:round;stroke-linejoin:miter;stroke-miterlimit:4;stroke-dasharray:none;stroke-dashoffset:0;stroke-opacity:1" />
        <rect
           transform="matrix(0.939793,0.341743,-0.479367,0.877615,0.000000,0.000000)"
           rx="4.498281"
           y="-202.35939"
           x="-21.716631"
           height="23.867241"
           width="8.996562"
           id="rect3203"
           style="opacity:1;fill:#f3e6a2;fill-opacity:1;fill-rule:nonzero;stroke:#000000;stroke-width:2.49457884;stroke-linecap:round;stroke-linejoin:miter;stroke-miterlimit:4;stroke-dasharray:none;stroke-dashoffset:0;stroke-opacity:1" />
      </g>
      <g
         id="g3202"
         style="fill:#d8d8d8;fill-opacity:1"
         transform="translate(-82.91299,-225.2035)">
        <path
           sodipodi:nodetypes="cccccccc"
           id="path3166"
           d="M 103.61058,166.21229 C 118.98585,185.72556 145.12194,209.68271 165.19809,227.33065 C 179.91425,220.51047 188.44068,207.94341 202.93782,198.91122 C 206.91114,187.71945 202.34659,182.11841 187.58758,183.19287 C 190.82643,174.15908 185.73276,169.61318 172.99132,169.18632 C 173.97099,161.64687 169.39998,157.46387 158.02966,157.39243 C 160.41316,149.30397 154.0836,145.75449 144.97927,143.65051 L 103.61058,166.21229 z "
           style="fill:#d8d8d8;fill-opacity:1;fill-rule:evenodd;stroke:#000000;stroke-width:2.48031497;stroke-linecap:butt;stroke-linejoin:miter;stroke-miterlimit:4;stroke-dasharray:none;stroke-opacity:1" />
        <path
           sodipodi:nodetypes="ccccc"
           id="path3158"
           d="M 131.21321,81.42473 C 123.0695,103.55611 107.61683,118.65395 94.77488,136.26414 L 140.50163,144.97814 C 144.6336,127.68565 147.11674,109.39916 157.1307,95.652654 L 131.21321,81.42473 z "
           style="fill:#d8d8d8;fill-opacity:1;fill-rule:evenodd;stroke:#000000;stroke-width:2.48031497;stroke-linecap:butt;stroke-linejoin:miter;stroke-miterlimit:4;stroke-dasharray:none;stroke-opacity:1" />
        <path
           id="path3156"
           d="M 130.39976,74.475743 L 170.54649,91.506063 L 158.26282,96.204513 L 130.31682,82.977726 L 130.39976,74.475743 z "
           style="fill:#d8d8d8;fill-opacity:1;fill-rule:evenodd;stroke:#000000;stroke-width:2.48031497;stroke-linecap:butt;stroke-linejoin:miter;stroke-miterlimit:4;stroke-dasharray:none;stroke-opacity:1" />
        <path
           sodipodi:nodetypes="cccccc"
           id="path3160"
           d="M 101.22613,123.56347 L 86.34908,152.44193 C 94.629428,160.09099 96.228117,165.67372 104.94837,170.6169 C 120.0553,163.15881 132.82821,151.71328 146.33981,143.22393 L 142.91002,134.5582 L 101.22613,123.56347 z "
           style="fill:#d8d8d8;fill-opacity:1;fill-rule:evenodd;stroke:#000000;stroke-width:2.48031497;stroke-linecap:butt;stroke-linejoin:miter;stroke-miterlimit:4;stroke-dasharray:none;stroke-opacity:1" />
        <path
           sodipodi:nodetypes="ccccc"
           id="path3162"
           d="M 88.083688,139.99011 C 105.70957,138.05032 124.62792,138.86524 144.77075,136.8222 L 145.85224,139.48037 C 125.94472,144.38676 106.8142,150.01456 88.407457,157.61455 C 84.651057,154.72189 86.547808,142.94385 88.083688,139.99011 z "
           style="fill:#d8d8d8;fill-opacity:1;fill-rule:evenodd;stroke:#000000;stroke-width:2.48031497;stroke-linecap:butt;stroke-linejoin:miter;stroke-miterlimit:4;stroke-dasharray:none;stroke-opacity:1" />
        <path
           id="path3164"
           d="M 103.36943,166.13803 C 103.33644,166.19832 103.30344,166.25863 103.36943,166.13803 z "
           style="fill:#d8d8d8;fill-opacity:1;fill-rule:evenodd;stroke:#000000;stroke-width:2.48031497;stroke-linecap:butt;stroke-linejoin:miter;stroke-miterlimit:4;stroke-dasharray:none;stroke-opacity:1" />
        <path
           sodipodi:nodetypes="cc"
           id="path3168"
           d="M 158.02966,157.39243 C 144.71053,165.40595 135.82607,178.10667 120.49262,184.38913"
           style="fill:#d8d8d8;fill-opacity:1;fill-rule:evenodd;stroke:#000000;stroke-width:2.48031497;stroke-linecap:butt;stroke-linejoin:miter;stroke-miterlimit:4;stroke-dasharray:none;stroke-opacity:1" />
        <path
           sodipodi:nodetypes="cc"
           id="path3170"
           d="M 172.84916,168.93117 C 158.91529,178.58315 150.04054,191.31721 134.60187,198.26836"
           style="fill:#d8d8d8;fill-opacity:1;fill-rule:evenodd;stroke:#000000;stroke-width:2.48031497;stroke-linecap:butt;stroke-linejoin:miter;stroke-miterlimit:4;stroke-dasharray:none;stroke-opacity:1" />
        <path
           sodipodi:nodetypes="cc"
           id="path3172"
           d="M 187.82873,183.26713 C 173.80017,192.95056 163.98237,206.86361 149.08648,214.04077"
           style="fill:#d8d8d8;fill-opacity:1;fill-rule:evenodd;stroke:#000000;stroke-width:2.48031497;stroke-linecap:butt;stroke-linejoin:miter;stroke-miterlimit:4;stroke-dasharray:none;stroke-opacity:1" />
        <path
           transform="matrix(0.606997,0.186909,-0.249159,0.455343,19.86070,-19.57402)"
           sodipodi:open="true"
           sodipodi:end="7.4780207"
           sodipodi:start="1.204515"
           d="M 314.01287,257.36984 A 6.5550995,6.5550995 0 1 1 314.072,257.34683"
           sodipodi:ry="6.5550995"
           sodipodi:rx="6.5550995"
           sodipodi:cy="251.24957"
           sodipodi:cx="311.66519"
           id="path3174"
           style="opacity:1;fill:#d8d8d8;fill-opacity:1;fill-rule:nonzero;stroke:#000000;stroke-width:4.36446667;stroke-linecap:round;stroke-linejoin:miter;stroke-miterlimit:4;stroke-dasharray:none;stroke-dashoffset:0;stroke-opacity:1"
           sodipodi:type="arc" />
        <path
           transform="matrix(0.606997,0.186909,-0.249159,0.455343,34.17260,-6.077671)"
           sodipodi:type="arc"
           style="opacity:1;fill:#d8d8d8;fill-opacity:1;fill-rule:nonzero;stroke:#000000;stroke-width:4.36446667;stroke-linecap:round;stroke-linejoin:miter;stroke-miterlimit:4;stroke-dasharray:none;stroke-dashoffset:0;stroke-opacity:1"
           id="path3176"
           sodipodi:cx="311.66519"
           sodipodi:cy="251.24957"
           sodipodi:rx="6.5550995"
           sodipodi:ry="6.5550995"
           d="M 314.01287,257.36984 A 6.5550995,6.5550995 0 1 1 314.072,257.34683"
           sodipodi:start="1.204515"
           sodipodi:end="7.4780207"
           sodipodi:open="true" />
        <path
           sodipodi:open="true"
           sodipodi:end="7.4780207"
           sodipodi:start="1.204515"
           d="M 314.01287,257.36984 A 6.5550995,6.5550995 0 1 1 314.072,257.34683"
           sodipodi:ry="6.5550995"
           sodipodi:rx="6.5550995"
           sodipodi:cy="251.24957"
           sodipodi:cx="311.66519"
           id="path3178"
           style="opacity:1;fill:#d8d8d8;fill-opacity:1;fill-rule:nonzero;stroke:#000000;stroke-width:4.36446667;stroke-linecap:round;stroke-linejoin:miter;stroke-miterlimit:4;stroke-dasharray:none;stroke-dashoffset:0;stroke-opacity:1"
           sodipodi:type="arc"
           transform="matrix(0.606997,0.186909,-0.249159,0.455343,50.09890,6.013123)" />
        <path
           transform="matrix(0.606997,0.186909,-0.249159,0.455343,65.13430,19.73210)"
           sodipodi:type="arc"
           style="opacity:1;fill:#d8d8d8;fill-opacity:1;fill-rule:nonzero;stroke:#000000;stroke-width:4.36446667;stroke-linecap:round;stroke-linejoin:miter;stroke-miterlimit:4;stroke-dasharray:none;stroke-dashoffset:0;stroke-opacity:1"
           id="path3180"
           sodipodi:cx="311.66519"
           sodipodi:cy="251.24957"
           sodipodi:rx="6.5550995"
           sodipodi:ry="6.5550995"
           d="M 314.01287,257.36984 A 6.5550995,6.5550995 0 1 1 314.072,257.34683"
           sodipodi:start="1.204515"
           sodipodi:end="7.4780207"
           sodipodi:open="true" />
      </g>
    </g>
    <path
       style="opacity:1;fill:#000000;fill-opacity:1;fill-rule:evenodd;stroke:#000000;stroke-width:7.26096106;stroke-linecap:round;stroke-linejoin:round;stroke-miterlimit:4;stroke-dasharray:none;stroke-dashoffset:0;stroke-opacity:1"
       d="M 10.71875,493.5625 L 10.71875,526.40625 C 19.23561,725.04651 179.85879,882.75002 376.03125,882.75 C 554.61385,882.75002 706.89594,740.69676 739.1941,567.34015 L 695.53125,567.8125 L 695.53125,496.71875 L 594.5625,496.25 L 594.5625,567.8125 L 501.71875,567.8125 L 501.71875,495.8125 L 395.125,495.3125 L 395.125,567.8125 L 302.28125,567.8125 L 302.28125,494.875 L 200.84375,494.40625 L 200.84375,567.8125 L 108,567.8125 L 108,493.96875 L 10.71875,493.5625 z "
       id="path3054"
       sodipodi:nodetypes="ccscccccccccccccccc" />
    <path
       sodipodi:nodetypes="ccscccccccccccccccc"
       id="path3038"
       d="M 10.71875,493.5625 L 10.71875,526.40625 C 19.23561,725.04651 179.85879,882.75002 376.03125,882.75 C 554.61385,882.75002 706.89594,750.69676 739.1941,577.34015 L 685.53125,577.8125 L 685.53125,496.71875 L 584.5625,496.25 L 584.5625,577.8125 L 491.71875,577.8125 L 491.71875,495.8125 L 385.125,495.3125 L 385.125,577.8125 L 292.28125,577.8125 L 292.28125,494.875 L 190.84375,494.40625 L 190.84375,577.8125 L 98,577.8125 L 98,493.96875 L 10.71875,493.5625 z "
       style="opacity:1;fill:#fe0000;fill-opacity:1;fill-rule:evenodd;stroke:#000000;stroke-width:7.26096106;stroke-linecap:round;stroke-linejoin:round;stroke-miterlimit:4;stroke-dasharray:none;stroke-dashoffset:0;stroke-opacity:1" />
    <g
       transform="translate(761.8307,6.000000)"
       id="g3326">
      <path
         id="path3307"
         style="fill:#000000;fill-opacity:1;fill-rule:evenodd;stroke:none;stroke-width:1px;stroke-linecap:butt;stroke-linejoin:miter;stroke-opacity:1"
         d="M -535.38106,527.61477 C -533.86301,526.61924 -533.82965,524.05893 -534.68756,521.14212 C -544.80633,525.09273 -551.06515,523.49467 -551.33153,513.28247 C -551.03583,507.70059 -553.96625,508.03326 -557.31682,509.1362 C -563.75145,508.76835 -567.23825,505.45268 -568.49231,499.90427 C -579.8956,499.82642 -586.40371,504.03184 -587.44205,513.02332 C -586.25291,519.61699 -588.01046,522.75335 -591.81507,524.6847 C -595.74813,527.13736 -596.78833,530.1686 -594.24453,533.91663 C -591.68701,551.79255 -599.12541,556.9464 -610.76482,556.7535 C -611.39049,558.70816 -608.47861,562.43159 -606.87769,565.49954 C -621.49112,561.52305 -634.05764,555.75552 -628.25689,533.91663 C -628.83201,529.43895 -629.82955,523.5201 -618.74668,522.11832 L -605.42002,505.24907 C -612.52128,503.64346 -619.97526,518.03266 -628.74278,513.99511 C -632.46794,512.78257 -636.19311,511.51237 -639.91827,517.88223 C -645.86139,524.20195 -652.47813,528.27628 -662.26925,521.76936 L -671.98707,526.14238 C -680.84299,519.80686 -685.92697,512.09972 -666.64227,495.53125 C -663.68481,490.96295 -660.93923,486.21304 -649.15019,489.21467 C -638.42401,497.12308 -629.75143,497.50158 -622.91209,491.15823 C -629.33029,488.35657 -639.33094,488.42088 -639.91827,480.95453 C -642.75309,473.58838 -647.01454,476.20865 -651.09376,477.55329 C -663.77848,477.96558 -667.55481,472.43894 -664.6987,462.49067 L -673.44474,467.83547 C -672.00563,453.0375 -661.76089,445.87109 -640.89005,447.91395 C -634.7446,448.24704 -630.20857,450.18955 -629.22867,455.6882 C -625.67725,457.33139 -621.30808,457.33908 -621.45442,466.3778 C -600.17066,483.99424 -595.57511,487.5377 -569.46409,477.55329 C -553.99232,465.50829 -530.40781,458.33967 -516.0161,444.02682 C -523.00315,442.91569 -535.23401,447.04837 -536.42351,440.13969 C -526.44581,433.69501 -515.35373,429.47911 -507.75595,418.2746 C -486.33003,392.58159 -449.20799,389.91886 -435.84411,368.71374 C -429.21633,344.75586 -437.39636,335.60577 -443.13247,324.01178 C -443.56155,340.69403 -442.24192,357.37629 -447.50549,374.05854 L -452.36439,373.57265 C -450.07064,360.1231 -448.56297,346.87008 -451.39261,334.70138 C -460.13189,378.5562 -476.20671,404.3167 -504.35472,400.29664 C -499.40911,364.27203 -493.34119,361.42533 -493.66512,341.98974 C -506.91047,375.60248 -518.87963,423.89135 -534.47995,430.42188 L -533.02228,424.59119 C -518.62948,399.63232 -511.03753,369.57281 -501.43937,341.01796 C -528.28378,384.15759 -543.43724,445.32078 -599.10344,444.02682 C -605.46424,441.61211 -608.71766,438.1616 -603.47645,431.87955 C -580.51616,408.36291 -564.46603,374.97459 -550.51435,338.5885 C -570.29064,359.43721 -589.91237,398.51406 -614.16605,416.33104 L -549.05668,323.52589 C -580.15408,355.32289 -634.41849,426.24944 -683.16255,409.04268 C -689.65143,405.50599 -693.34074,401.53859 -683.16255,395.43773 C -644.6346,367.85989 -616.33814,334.14315 -583.55493,303.11847 C -616.12539,322.05669 -647.96957,348.984 -681.70488,355.10879 L -679.76132,350.24988 C -640.19755,341.70645 -614.01412,314.04826 -582.58315,293.88654 C -618.53907,304.64055 -654.495,322.4368 -690.45092,307.49149 C -698.40189,302.84362 -696.93209,296.15316 -689.96503,294.85833 C -661.73242,290.69365 -636.53645,278.93735 -610.76482,268.62022 C -635.88988,272.65227 -661.22228,274.24854 -685.10612,273.47913 L -688.99325,271.04967 C -660.2418,270.10111 -631.45287,269.45238 -603.96234,258.41651 C -638.85589,258.63039 -670.95552,256.2832 -690.45092,242.38211 C -696.53237,235.11857 -701.35823,221.64729 -686.56379,221.9747 C -661.78336,224.51477 -637.00292,230.03272 -612.22249,225.37593 C -639.33652,221.10207 -665.90776,216.01402 -690.45092,207.88386 L -689.47914,203.99673 C -668.04705,208.0921 -636.94448,220.64915 -625.34154,216.14401 C -668.3816,204.19488 -683.81216,190.34164 -689.47914,175.81506 C -694.11877,158.53887 -688.32789,156.43434 -678.78954,159.78067 C -662.5939,170.79564 -644.08771,177.18952 -625.34154,183.10343 L -677.33186,148.60518 L -675.3883,145.20394 C -654.21447,159.67658 -633.71234,175.04481 -608.82125,184.5611 C -639.06078,155.57918 -655.83767,133.04803 -664.21281,113.13514 C -668.359,86.510935 -654.79909,78.268721 -645.26307,81.552236 C -642.696,93.011402 -604.69996,145.49077 -599.10344,142.28859 C -609.70686,123.17688 -621.58617,104.06518 -627.28511,84.953472 L -623.39798,83.98169 C -617.76976,102.1115 -608.93585,117.83706 -597.76923,132.2203 C -612.22283,96.075533 -608.45705,48.249755 -573.51053,48.718758 C -567.49527,50.104468 -562.15782,55.449145 -565.74424,60.666894 C -576.15843,98.890159 -537.26785,175.369 -525.71798,195.08342 C -519.59969,209.96507 -532.10997,219.70301 -543.64019,211.21341 C -552.38857,203.53614 -567.87258,223.66339 -544.23759,231.52524 C -538.49733,233.59238 -534.09725,236.66466 -534.67909,243.47338 C -530.79686,258.31172 -522.62941,260.29443 -510.78281,251.23966 C -501.01186,244.41271 -487.8637,245.4659 -473.33326,249.74442 C -470.31798,229.32819 -464.42851,207.44964 -429.82293,170.96115 C -423.93297,165.12609 -417.38867,160.20709 -408.70141,158.28824 C -397.12977,154.36276 -376.32021,152.94409 -376.89412,145.05799 C -379.38877,141.78936 -386.93199,142.90614 -401.76415,145.51018 C -406.66432,144.01145 -404.0768,141.68075 -404.02507,139.6318 C -393.62487,135.44493 -383.22467,135.13752 -372.82447,133.75343 C -389.23946,125.15369 -410.02189,138.12459 -438.84312,133.97952 C -469.08484,128.65523 -466.00371,106.60026 -447.43459,98.483196 C -444.37132,98.798551 -441.68651,99.445052 -443.36494,103.90939 C -448.99622,115.3823 -440.8404,120.87123 -432.96475,122.90105 L -380.73767,121.99669 C -384.4565,116.14136 -391.60544,116.16624 -399.50324,117.47486 C -409.13914,108.49947 -418.96774,102.41478 -429.79628,111.329 C -448.36122,88.339003 -427.44065,81.454362 -410.8078,80.109302 C -407.86164,76.834401 -403.99065,76.333972 -399.84715,76.65106 C -398.83475,68.284429 -375.25377,69.725376 -358.1102,75.590785 C -344.49678,80.248407 -331.76151,87.40075 -320.05605,89.26122 C -320.88379,94.843987 -322.51003,100.61304 -316.97994,105.03984 C -313.84627,113.5834 -311.34967,122.021 -304.09273,119.96186 C -302.29789,124.052 -305.69479,126.41155 -311.10156,128.10115 C -310.35064,140.1424 -311.77726,150.77257 -308.84879,161.0195 C -312.27554,164.24115 -314.70823,162.49252 -317.19605,161.0195 L -325.54332,175.53648 C -325.35275,181.28582 -326.49934,186.58945 -332.07596,190.41639 C -334.16174,219.20865 -327.85845,234.80973 -321.55115,254.65403 C -315.77066,258.67774 -310.76694,256.48722 -305.94539,252.83941 C -295.24155,244.84532 -282.41249,245.35214 -267.83831,252.83941 C -257.22279,264.30919 -241.94621,259.84577 -242.79652,248.12139 C -241.06551,236.94547 -234.33184,235.77484 -229.00539,231.78979 C -209.58007,222.92228 -222.24381,208.99713 -230.45709,212.91771 C -246.50937,224.07517 -257.6939,211.17775 -251.50671,191.86809 C -244.97407,177.26808 -238.44142,168.92157 -231.90878,157.75318 C -213.86088,136.35573 -207.6387,107.07447 -203.96359,76.095156 C -205.3836,69.178647 -203.35966,64.766828 -194.16463,65.570344 C -158.52559,68.072213 -173.55264,118.77899 -180.73642,138.51818 C -168.87108,124.06136 -157.65163,101.78873 -153.15416,85.531194 C -151.76287,82.94961 -150.54309,81.968844 -149.88784,86.257043 C -151.30275,110.45201 -180.90652,143.35717 -178.9218,147.95421 C -163.16673,134.33867 -147.62477,113.04473 -129.92699,81.901948 C -127.77315,78.32255 -124.58015,77.860656 -120.49095,80.087326 C -87.852713,107.50355 -139.49984,156.18383 -165.13067,181.34327 C -139.78126,173.02824 -116.02417,156.6311 -96.900854,138.15525 C -93.261062,135.76766 -94.219288,138.30652 -94.360382,139.96988 C -112.1244,161.84928 -138.96772,179.34099 -169.12284,190.05346 C -139.70034,185.24649 -118.38748,170.30245 -93.997457,159.20488 C -82.862998,154.16922 -72.171013,168.20218 -80.932174,181.30251 C -95.702044,202.87786 -126.89906,211.66249 -162.42911,220.78173 C -166.53806,226.3263 -115.50276,219.78416 -87.464815,205.65922 C -84.219279,204.89953 -83.227153,205.71723 -85.650193,208.92554 C -106.63671,217.93555 -121.83937,221.1617 -139.0001,226.34592 C -120.87624,226.93961 -105.80452,226.00723 -90.368212,225.25714 C -81.37759,217.98208 -71.550205,231.01845 -79.480475,239.77413 C -97.672974,262.68994 -132.81484,260.1817 -167.30822,258.6462 C -140.94522,266.30569 -113.77265,270.7269 -86.013117,272.80026 L -87.82774,276.4295 C -117.27148,273.08906 -145.40344,268.43684 -173.47793,263.72715 C -146.4403,275.70216 -119.31714,288.19039 -93.634533,292.03526 C -81.524738,292.54267 -77.301258,299.17222 -87.101891,308.72979 C -118.90486,329.07789 -161.61671,303.05151 -197.79388,288.76894 C -168.19501,314.49555 -134.60472,332.23931 -99.441325,346.83687 L -90.368212,353.36951 C -135.93348,343.94115 -166.50136,315.76604 -201.78605,293.48696 C -170.78631,334.73948 -132.54213,366.33273 -93.271608,396.55753 C -84.44288,401.71689 -78.995784,407.07518 -93.634533,413.61498 C -143.45919,428.55233 -191.85594,359.5253 -219.93227,330.50526 C -202.78512,362.82431 -179.74506,391.60762 -155.69463,419.7847 C -153.7127,422.32158 -155.98635,424.93172 -159.32388,422.32517 C -194.56668,388.31487 -216.51012,351.64469 -238.0785,314.89951 C -206.223,398.35234 -190.87666,411.26601 -173.84086,431.39829 C -166.76148,439.5424 -169.25696,440.35042 -176.0184,444.82649 C -211.70337,450.29577 -235.33619,420.88488 -264.20907,362.0797 L -249.32916,419.7847 C -250.90183,421.16566 -252.47451,421.67693 -254.04718,420.51055 L -281.99237,321.06922 C -281.96506,344.02973 -281.86295,366.97777 -273.64511,388.57319 C -268.99448,398.96433 -275.34651,404.07668 -283.80699,400.5497 C -308.83076,389.39243 -315.71907,367.87204 -321.55115,345.74809 L -320.09945,364.25724 L -325.54332,366.07187 C -329.58152,352.84781 -330.1081,338.12995 -331.71303,321.06922 L -340.0603,351.19196 C -341.01804,376.19345 -334.75256,376.80714 -324.09162,384.94394 C -303.71903,396.70238 -281.8502,407.33863 -266.74954,423.05102 C -262.23969,430.3048 -256.20915,435.53099 -247.51454,437.20508 C -245.64887,439.26165 -245.98266,441.31823 -247.51454,443.3748 L -259.85397,446.27819 L -241.48104,457.88927 C -221.65792,470.82364 -201.20066,480.12679 -180.03147,481.59869 C -148.8429,480.67028 -156.83759,444.03249 -128.25251,447.74322 C -109.49872,448.09924 -107.13625,457.03391 -105.54942,464.47181 L -112.71882,464.87011 C -111.6894,480.55387 -121.47285,480.01834 -133.0321,476.8191 C -141.8589,477.0994 -131.22085,489.61182 -154.54029,491.15789 C -153.76701,494.91729 -142.59819,494.77836 -133.8287,495.53918 C -114.73264,485.80689 -113.93497,497.42271 -106.34602,501.11538 C -90.124729,516.21002 -103.02464,532.55566 -113.11712,533.77596 C -119.23035,531.1266 -107.42084,524.89329 -115.10862,522.62357 C -133.55185,531.50478 -137.50309,520.87694 -141.7947,513.46267 C -149.49516,516.33744 -157.19562,517.80066 -164.89608,512.26777 C -164.42348,519.93108 -148.74751,521.18761 -151.35389,533.77596 C -138.64249,545.8354 -150.51494,573.16374 -170.47228,565.63993 C -172.98209,562.30545 -170.18657,560.48677 -165.29438,559.26714 C -181.38814,560.01294 -184.29002,548.34285 -182.42127,532.18276 C -186.02121,527.62518 -190.08704,523.76643 -189.59066,513.06437 C -189.63216,499.43103 -206.81014,492.88562 -211.49715,511.07287 C -215.34738,514.32442 -219.19761,512.66301 -223.04784,511.86947 C -220.08622,525.29513 -235.44509,529.89983 -244.55602,520.23377 C -248.61971,522.80254 -247.71504,526.61341 -247.74242,530.19126 C -260.46319,523.04345 -260.24685,515.29972 -251.72542,503.90348 C -248.29305,494.20679 -235.56852,494.11998 -227.03084,489.96299 C -235.80104,481.80165 -256.46623,479.58781 -271.2421,474.4293 C -274.56266,479.53536 -280.02054,480.36681 -286.64834,478.85839 C -285.73569,470.55723 -290.28414,468.21364 -295.3472,466.43144 L -360.17446,418.38056 C -359.98363,431.91109 -372.67697,460.83941 -353.13252,474.50896 C -347.46176,477.85834 -346.5919,468.18032 -339.01349,470.09081 C -334.08597,473.25703 -334.24234,478.27194 -335.32056,483.62206 C -348.18091,503.83051 -358.22749,498.74789 -366.38794,497.91305 C -363.68776,517.67997 -343.25141,536.2176 -324.34342,525.25234 C -318.07286,520.45051 -318.329,507.38174 -327.24304,511.37558 C -331.62673,502.98294 -312.983,492.76916 -300.73221,504.54076 C -284.04231,498.33637 -265.2626,505.75499 -263.65848,518.41752 C -272.08542,515.76443 -280.57821,512.65038 -286.85545,525.04523 C -274.3068,526.90952 -268.35114,546.72451 -284.37006,553.21298 C -284.26813,543.38379 -291.47081,544.05497 -300.11087,546.79239 C -325.1811,555.5056 -339.26073,547.1223 -354.78945,540.99315 C -342.06759,568.49274 -288.39585,572.20189 -267.86983,554.61133 C -265.91352,549.37401 -271.31967,548.78313 -274.44482,547.54931 C -268.23832,537.08161 -238.37912,533.66675 -235.96897,549.74097 C -237.54569,555.81908 -239.59038,559.55732 -241.8134,562.40391 C -205.04495,551.29299 -176.089,616.76496 -235.40076,625.3939 C -246.48395,625.85908 -248.19504,631.01031 -245.46617,638.38153 C -260.49696,639.47761 -267.55639,633.32751 -264.29824,619.22478 C -258.45163,611.14229 -249.44396,613.18911 -233.77731,614.02973 C -220.88276,614.0685 -211.91273,597.90957 -220.46499,588.70385 C -232.93427,580.67215 -247.82469,580.07018 -260.40195,590.00262 C -256.3406,615.08334 -275.12328,615.04866 -279.88339,608.1853 C -275.20559,602.70682 -275.35992,593.34705 -283.45499,593.24952 C -323.4423,598.63218 -351.21355,577.25585 -373.06962,542.92246 C -370.4432,566.97023 -371.20762,592.0261 -337.67833,606.88653 C -329.23668,609.50549 -325.84889,601.28121 -329.56107,594.2236 C -318.18735,588.60123 -299.0563,612.62285 -320.14504,626.36798 C -338.53242,633.87776 -352.74393,625.51926 -366.9005,616.95195 C -363.71521,631.64969 -343.06404,649.91833 -331.50921,643.25189 C -327.18941,635.68519 -316.69762,641.10324 -327.28823,650.71978 C -345.80541,661.03438 -356.99176,655.87279 -367.79592,649.97924 C -372.01095,664.72146 -376.0299,679.77463 -393.40711,684.14119 C -386.15501,665.31723 -406.79703,662.86452 -407.00761,650.89552 C -429.06719,658.77273 -449.203,663.28333 -455.36495,643.33969 C -430.22314,646.82479 -422.44703,638.37097 -418.59322,627.22057 C -431.43292,630.15374 -439.32504,629.65048 -449.824,628.73174 C -473.29623,621.54551 -468.59076,600.08201 -451.33517,592.46373 C -452.94991,599.47295 -450.72746,603.92405 -444.28306,605.56051 C -427.36736,614.39861 -403.27484,582.44593 -404.489,548.13617 C -442.4466,584.70993 -447.91766,589.97079 -489.61806,594.47862 C -498.88714,596.34858 -502.7884,600.696 -494.65529,610.59774 C -521.37593,614.94105 -521.59863,603.15518 -517.82651,588.93768 C -540.19013,575.17121 -560.49312,583.02973 -560.64291,598.5084 C -562.24041,618.072 -536.24652,610.0442 -522.36001,614.12379 C -504.30598,627.72518 -517.12069,640.73539 -533.94562,640.31735 C -529.7764,631.88499 -532.58052,628.10151 -540.49401,627.72429 C -550.23264,626.7735 -559.97128,623.11409 -569.70991,614.12379 C -591.41366,589.67275 -571.73553,558.3569 -537.9754,560.22551 C -542.15876,552.82537 -539.2857,542.07625 -532.72143,538.81884 C -511.86756,531.33181 -505.8239,543.06936 -508.75951,553.1734 C -500.46125,563.30049 -489.99962,564.7741 -479.03989,564.25529 C -452.88707,568.51361 -429.89413,560.65907 -411.79223,534.05553 C -421.3884,540.52776 -436.24678,555.38157 -477.56231,547.59581 C -480.6588,542.33193 -490.13355,544.17702 -491.63295,549.14362 C -502.00161,546.6115 -506.37772,524.99062 -488.17711,528.13382 C -489.25991,516.12772 -503.048,513.27255 -508.75951,522.95006 C -525.38093,509.47478 -498.2167,494.52589 -479.00326,504.9626 C -468.96305,497.96258 -450.59109,495.97462 -447.80911,510.357 C -457.78673,512.13329 -457.29531,528.29857 -446.08119,526.33263 C -422.09196,526.09188 -406.67141,505.03251 -410.55128,490.72735 C -435.76526,503.62725 -450.66126,483.08986 -437.59773,470.51671 C -429.19869,465.93796 -433.05146,477.2966 -426.27058,475.3712 C -410.78776,475.06147 -413.20746,440.22922 -417.71743,424.74579 C -424.10609,425.49484 -429.44836,434.61496 -435.28607,439.77159 C -439.77221,438.36767 -484.67331,461.04417 -486.37381,470.74787 C -489.95939,477.7204 -497.44229,479.05188 -501.39962,473.52187 C -523.72268,474.99599 -533.03435,482.16259 -546.24587,487.62301 L -523.36041,500.79949 C -511.23643,512.6779 -524.20081,529.54677 -535.38106,527.61477 z "
         sodipodi:nodetypes="cccccccccccccccccccccccccccccccccccccccccccccccccccccccccccccccccccccccccccccccccccccccccccccccccccscccccccccccccccccccccccccccccccccccccccccccccccccccccccccccccccccccccccccccccccccccccccccccccccccccccccccccccccccccccccccccccccccccccccccccccccccccccccccccccccccccccccc" />
      <path
         style="fill:none;fill-opacity:0.75;fill-rule:evenodd;stroke:#000000;stroke-width:1px;stroke-linecap:butt;stroke-linejoin:miter;stroke-opacity:1"
         d="M -665.21856,457.45499 C -665.21856,456.84623 -665.21856,456.84623 -665.21856,457.45499 z "
         id="path3269" />
      <g
         id="g3283">
        <path
           sodipodi:nodetypes="cccc"
           id="path3271"
           d="M -665.10511,459.15674 C -664.13156,450.84686 -654.48713,449.96169 -643.07919,451.29272 C -637.49075,453.05747 -641.14544,460.87733 -647.50928,460.30784 C -653.57235,457.7278 -658.25151,458.68811 -665.10511,459.15674 z "
           style="fill:#fab335;fill-opacity:1;fill-rule:evenodd;stroke:none;stroke-width:1px;stroke-linecap:butt;stroke-linejoin:miter;stroke-opacity:1" />
        <path
           sodipodi:nodetypes="cccc"
           id="path3273"
           d="M -671.62433,520.84867 C -678.94969,512.07955 -669.51304,503.76672 -662.88868,500.08731 C -657.75811,496.83174 -655.40416,503.3778 -659.25828,509.84401 C -664.06721,511.99392 -667.64604,513.67849 -671.62433,520.84867 z "
           style="fill:#fab335;fill-opacity:1;fill-rule:evenodd;stroke:none;stroke-width:1px;stroke-linecap:butt;stroke-linejoin:miter;stroke-opacity:1" />
        <path
           sodipodi:nodetypes="cccc"
           id="path3275"
           d="M -617.96246,558.28719 C -618.95803,549.27887 -616.92601,545.31652 -614.33206,542.29073 C -611.8377,539.09715 -614.65221,532.15897 -618.98351,532.30712 C -629.56468,536.59492 -629.92925,553.09799 -617.96246,558.28719 z "
           style="fill:#fab335;fill-opacity:1;fill-rule:evenodd;stroke:none;stroke-width:1px;stroke-linecap:butt;stroke-linejoin:miter;stroke-opacity:1" />
        <path
           sodipodi:nodetypes="cccc"
           id="path3277"
           d="M -528.42423,521.25342 C -527.00426,514.7821 -536.17443,512.06999 -535.65261,512.11335 C -540.04727,511.15486 -533.55147,501.78582 -526.71598,503.68227 C -518.60758,510.84608 -523.48489,519.86173 -528.42423,521.25342 z "
           style="fill:#fab335;fill-opacity:1;fill-rule:evenodd;stroke:#000000;stroke-width:1px;stroke-linecap:butt;stroke-linejoin:miter;stroke-opacity:1" />
        <path
           sodipodi:nodetypes="ccccccccccccccccccccccccccccscsccccc"
           id="path3279"
           d="M -497.60442,449.23936 L -514.58352,449.92294 L -556.41958,473.76949 C -560.93464,475.90475 -563.81165,478.85903 -566.04188,482.1367 C -571.50718,482.29468 -577.40869,481.84195 -580.6845,485.06522 C -594.43675,486.45976 -603.70614,488.70758 -609.83713,493.73873 C -616.94466,493.30195 -619.82441,495.57579 -622.93892,497.13552 C -629.37026,498.29382 -641.32122,495.25158 -641.76514,500.12621 C -645.55861,494.98541 -649.0859,492.48019 -656.17588,494.00829 C -658.79005,493.76708 -659.1075,495.36325 -655.9894,499.70785 C -652.56409,504.26619 -655.08551,510.13889 -657.62176,514.10579 C -661.18024,516.4836 -657.61399,521.45631 -654.16281,521.28891 C -648.68458,520.14672 -640.466,522.1281 -640.94896,505.10545 C -636.89549,503.69268 -639.10928,508.66242 -630.60202,508.45234 C -626.11854,512.11401 -620.37541,511.71885 -614.74539,506.66682 C -608.98832,499.66524 -599.69676,503.88727 -593.32684,493.52397 L -594.03095,501.68758 C -600.88544,504.41912 -608.92291,513.73968 -614.00019,524.01384 C -615.18754,526.13164 -615.9365,530.6998 -612.72458,533.46244 C -611.16517,536.2855 -609.05225,541.53776 -612.52488,544.40354 C -616.33416,547.87903 -613.75839,551.33585 -610.80646,552.83964 C -600.14458,555.35214 -592.66148,548.4753 -598.86822,531.80954 C -600.93705,529.43212 -600.54272,525.35279 -596.86795,524.6358 C -591.31393,522.63516 -587.56807,519.78623 -592.13128,507.81532 C -588.3019,500.83944 -580.63258,494.06274 -566.23665,496.90178 C -562.71912,503.86785 -561.59826,503.88314 -553.49106,504.30981 C -549.99025,504.11355 -548.00605,506.86298 -548.05237,509.7485 C -548.691,521.43361 -540.69943,520.41518 -537.48129,518.77875 C -538.30455,517.9995 -537.64958,517.25641 -538.18597,516.5456 C -543.58146,509.39572 -536.40878,506.57305 -532.30782,502.02379 C -532.71272,501.65295 -531.66716,500.49202 -532.08804,500.1323 C -538.77817,494.41443 -547.96039,490.765 -556.74641,487.86114 C -552.96247,485.40484 -551.20835,482.61965 -549.24193,478.80021 C -542.19205,478.83957 -538.05353,475.99911 -533.96072,472.62648 C -525.08761,472.55585 -514.6036,470.05119 -504.58395,467.22887 C -502.86152,460.97305 -500.46998,455.03792 -497.60442,449.23936 z "
           style="fill:#fab335;fill-opacity:1;fill-rule:evenodd;stroke:none;stroke-width:1px;stroke-linecap:butt;stroke-linejoin:miter;stroke-opacity:1" />
        <path
           sodipodi:nodetypes="cccccccccc"
           id="path3281"
           d="M -600.84299,484.14055 C -604.20188,490.03503 -613.35231,492.15583 -618.08192,490.6383 C -621.87297,486.12148 -625.02523,481.8262 -634.92303,481.88622 C -635.52471,477.62057 -639.53652,466.84316 -653.09021,474.19502 C -661.31928,476.446 -662.4283,466.89864 -658.3945,463.58644 C -650.71544,461.18731 -639.76156,465.1239 -638.23821,454.30394 C -637.02562,453.44623 -634.76451,453.31016 -633.19914,454.56915 C -633.08709,457.65149 -631.35483,460.05635 -628.42528,461.72994 C -625.71526,462.86552 -624.51034,464.97578 -623.91664,468.22769 C -621.49275,471.90986 -609.4821,479.00861 -600.84299,484.14055 z "
           style="fill:#fab335;fill-opacity:1;fill-rule:evenodd;stroke:none;stroke-width:1px;stroke-linecap:butt;stroke-linejoin:miter;stroke-opacity:1" />
      </g>
      <g
         id="g3291"
         transform="matrix(-1.000000,0.000000,0.000000,1.000000,-776.5646,1.500278)"
         style="stroke:none">
        <path
           style="fill:#fab335;fill-opacity:1;fill-rule:evenodd;stroke:none;stroke-width:1px;stroke-linecap:butt;stroke-linejoin:miter;stroke-opacity:1"
           d="M -665.10511,459.15674 C -664.13156,450.84686 -654.48713,449.96169 -643.07919,451.29272 C -637.49075,453.05747 -641.14544,460.87733 -647.50928,460.30784 C -653.57235,457.7278 -658.25151,458.68811 -665.10511,459.15674 z "
           id="path3293"
           sodipodi:nodetypes="cccc" />
        <path
           style="fill:#fab335;fill-opacity:1;fill-rule:evenodd;stroke:none;stroke-width:1px;stroke-linecap:butt;stroke-linejoin:miter;stroke-opacity:1"
           d="M -671.62433,520.84867 C -678.94969,512.07955 -669.51304,503.76672 -662.88868,500.08731 C -657.75811,496.83174 -655.40416,503.3778 -659.25828,509.84401 C -664.06721,511.99392 -667.64604,513.67849 -671.62433,520.84867 z "
           id="path3295"
           sodipodi:nodetypes="cccc" />
        <path
           style="fill:#fab335;fill-opacity:1;fill-rule:evenodd;stroke:none;stroke-width:1px;stroke-linecap:butt;stroke-linejoin:miter;stroke-opacity:1"
           d="M -617.96246,558.28719 C -618.95803,549.27887 -616.92601,545.31652 -614.33206,542.29073 C -611.8377,539.09715 -614.65221,532.15897 -618.98351,532.30712 C -629.56468,536.59492 -629.92925,553.09799 -617.96246,558.28719 z "
           id="path3297"
           sodipodi:nodetypes="cccc" />
        <path
           style="fill:#fab335;fill-opacity:1;fill-rule:evenodd;stroke:none;stroke-width:1px;stroke-linecap:butt;stroke-linejoin:miter;stroke-opacity:1"
           d="M -527.34352,521.25342 C -525.92355,514.7821 -535.81419,511.1694 -535.29237,511.21276 C -539.68703,510.25427 -533.55147,501.78582 -526.71598,503.68227 C -518.60758,510.84608 -522.40418,519.86173 -527.34352,521.25342 z "
           id="path3299"
           sodipodi:nodetypes="cccc" />
        <path
           style="fill:#fab335;fill-opacity:1;fill-rule:evenodd;stroke:none;stroke-width:1px;stroke-linecap:butt;stroke-linejoin:miter;stroke-opacity:1"
           d="M -497.60442,449.23936 L -514.58352,449.92294 L -556.41958,473.76949 C -560.93464,475.90475 -563.81165,478.85903 -566.04188,482.1367 C -571.50718,482.29468 -577.40869,481.84195 -580.6845,485.06522 C -594.43675,486.45976 -603.70614,488.70758 -609.83713,493.73873 C -616.94466,493.30195 -619.82441,495.57579 -622.93892,497.13552 C -629.37026,498.29382 -641.32122,495.25158 -641.76514,500.12621 C -645.55861,494.98541 -649.0859,492.48019 -656.17588,494.00829 C -658.79005,493.76708 -659.1075,495.36325 -655.9894,499.70785 C -652.56409,504.26619 -655.08551,510.13889 -657.62176,514.10579 C -661.18024,516.4836 -657.61399,521.45631 -654.16281,521.28891 C -648.68458,520.14672 -640.466,522.1281 -640.94896,505.10545 C -636.89549,503.69268 -639.10928,508.66242 -630.60202,508.45234 C -626.11854,512.11401 -620.37541,511.71885 -614.74539,506.66682 C -608.98832,499.66524 -599.69676,503.88727 -593.32684,493.52397 L -594.03095,501.68758 C -600.88544,504.41912 -608.92291,513.73968 -614.00019,524.01384 C -615.18754,526.13164 -615.9365,530.6998 -612.72458,533.46244 C -611.16517,536.2855 -609.05225,541.53776 -612.52488,544.40354 C -616.33416,547.87903 -613.75839,551.33585 -610.80646,552.83964 C -600.14458,555.35214 -592.66148,548.4753 -598.86822,531.80954 C -600.93705,529.43212 -600.54272,525.35279 -596.86795,524.6358 C -591.31393,522.63516 -587.56807,519.78623 -592.13128,507.81532 C -588.3019,500.83944 -580.63258,494.06274 -566.23665,496.90178 C -562.71912,503.86785 -561.59826,503.88314 -553.49106,504.30981 C -549.99025,504.11355 -548.00605,506.86298 -548.05237,509.7485 C -548.691,521.43361 -540.69943,520.41518 -537.48129,518.77875 C -538.30455,517.9995 -537.64958,517.25641 -538.18597,516.5456 C -543.58146,509.39572 -536.40878,506.57305 -532.30782,502.02379 C -532.71272,501.65295 -531.66716,500.49202 -532.08804,500.1323 C -538.77817,494.41443 -547.96039,490.765 -556.74641,487.86114 C -552.96247,485.40484 -551.20835,482.61965 -549.24193,478.80021 C -542.19205,478.83957 -538.05353,475.99911 -533.96072,472.62648 C -525.08761,472.55585 -514.6036,470.05119 -504.58395,467.22887 C -502.86152,460.97305 -500.46998,455.03792 -497.60442,449.23936 z "
           id="path3301"
           sodipodi:nodetypes="ccccccccccccccccccccccccccccscsccccc" />
        <path
           style="fill:#fab335;fill-opacity:1;fill-rule:evenodd;stroke:none;stroke-width:1px;stroke-linecap:butt;stroke-linejoin:miter;stroke-opacity:1"
           d="M -600.84299,484.14055 C -604.20188,490.03503 -613.35231,492.15583 -618.08192,490.6383 C -621.87297,486.12148 -625.02523,481.8262 -634.92303,481.88622 C -635.52471,477.62057 -639.53652,466.84316 -653.09021,474.19502 C -661.31928,476.446 -662.4283,466.89864 -658.3945,463.58644 C -650.71544,461.18731 -639.76156,465.1239 -638.23821,454.30394 C -637.02562,453.44623 -634.76451,453.31016 -633.19914,454.56915 C -633.08709,457.65149 -631.35483,460.05635 -628.42528,461.72994 C -625.71526,462.86552 -624.51034,464.97578 -623.91664,468.22769 C -621.49275,471.90986 -609.4821,479.00861 -600.84299,484.14055 z "
           id="path3303"
           sodipodi:nodetypes="cccccccccc" />
      </g>
      <path
         style="fill:#f7faf3;fill-opacity:1;fill-rule:evenodd;stroke:#000000;stroke-width:1px;stroke-linecap:butt;stroke-linejoin:miter;stroke-opacity:1"
         d="M -382.99858,87.178633 C -384.57114,98.395903 -370.3848,98.728324 -366.61724,93.191667 C -365.07898,90.931109 -362.45354,91.552847 -360.29524,91.504513 C -359.94084,88.515229 -363.36642,84.466386 -369.04498,89.168236 C -374.63282,93.888637 -381.80485,85.652555 -382.99858,87.178633 z "
         id="path3261"
         sodipodi:nodetypes="csccc" />
      <path
         style="fill:#f0b336;fill-opacity:1;fill-rule:evenodd;stroke:none;stroke-width:1px;stroke-linecap:butt;stroke-linejoin:miter;stroke-opacity:0.76777248"
         d="M -429.96527,104.79868 C -414.43232,100.6328 -404.94592,106.14142 -396.14202,112.74202 C -380.55943,113.57607 -370.26309,120.07396 -363.97248,130.00348 C -363.25522,131.13565 -361.04516,131.61591 -360.26887,132.72848 C -353.90054,122.27488 -362.7919,115.6362 -375.38684,109.92341 C -381.49248,106.84589 -387.29333,105.20869 -389.47986,94.292972 C -390.93224,89.425211 -392.81492,85.418056 -395.62954,83.274792 L -396.65449,89.680711 C -400.58345,87.539552 -404.51242,87.243458 -408.44138,87.118343 C -409.47599,86.500738 -407.93742,85.215394 -408.94571,84.792166 C -424.45323,78.282939 -438.85589,94.637152 -429.96527,104.79868 z "
         id="path3263"
         sodipodi:nodetypes="ccsccccccsc" />
      <path
         style="fill:#f0b336;fill-opacity:1;fill-rule:evenodd;stroke:none;stroke-width:1px;stroke-linecap:butt;stroke-linejoin:miter;stroke-opacity:1"
         d="M -360.26887,135.29085 C -358.44104,137.66531 -357.75925,139.65776 -360.01263,140.67182 C -372.21455,139.14644 -381.42739,140.61013 -391.78599,140.92806 C -388.03007,137.36154 -371.29466,137.0399 -360.26887,135.29085 z "
         id="path3265"
         sodipodi:nodetypes="cccc" />
      <path
         style="fill:#b81319;fill-opacity:1;fill-rule:evenodd;stroke:none;stroke-width:1px;stroke-linecap:butt;stroke-linejoin:miter;stroke-opacity:1"
         d="M -381.02405,124.52891 C -379.00655,125.4223 -378.20044,125.35289 -380.25533,127.60375 C -398.20225,127.07824 -419.5601,133.7739 -438.16484,130.42235 C -459.51995,126.03455 -459.15284,116.17693 -452.00163,106.84857 C -450.24601,105.57707 -449.06043,105.73068 -448.67055,107.87352 C -449.89468,116.88918 -444.00201,121.16031 -437.1399,124.78515 C -419.64667,128.3359 -399.75502,124.69137 -381.02405,124.52891 z "
         id="path3267"
         sodipodi:nodetypes="ccccccc" />
    </g>
    <g
       transform="translate(-15.44131,8.151699)"
       id="g3250">
      <path
         sodipodi:nodetypes="cccccccccccccccccccccccccccscccccsccccccccccccccccccccccccccccscccccsccccccccccccccccccccccccccc"
         d="M 386.46448,191.59606 C 384.42889,194.29717 381.16565,196.00785 378.63969,197.81229 C 376.60691,199.29498 375.01167,203.08052 379.88707,204.86888 C 378.21457,204.98447 377.40626,205.34461 377.46215,206.92747 C 376.58647,205.70757 375.49475,205.30283 374.83514,203.26776 C 372.69934,201.5166 371.21172,202.21089 369.07592,201.43792 C 369.9179,203.1661 369.24755,205.05733 371.60188,206.62249 C 373.35448,206.93179 374.45893,207.64868 375.23929,208.52859 C 372.78068,208.85898 372.03973,209.64683 372.10708,211.12088 C 371.73661,210.23137 371.06302,208.96064 370.28838,208.22362 C 368.1329,207.07997 364.25973,207.61368 362.60944,209.29103 C 361.1612,211.47668 359.20779,214.27228 356.95126,216.00049 C 359.91507,217.85574 360.99029,219.8266 362.84268,221.68186 C 364.45931,223.25757 368.57073,223.32422 370.49047,222.46012 C 371.50085,220.96066 372.81437,218.94857 373.82474,217.44911 C 373.99315,219.02482 374.47864,219.29384 376.76886,219.11593 C 375.66316,220.33245 374.50533,221.37013 373.83174,221.85301 C 371.94568,222.69168 371.5752,224.23765 372.11406,226.44872 C 375.75899,226.0129 376.32403,224.9905 376.72694,223.24121 C 377.20991,221.86694 378.43886,218.84692 379.38189,219.58394 C 379.68714,221.13436 379.79031,221.00742 381.20698,220.72799 C 381.28555,224.69113 377.96209,229.24792 374.29922,231.96004 C 366.87156,236.32454 357.02092,236.06992 350.48597,229.36779 C 347.87461,226.39214 347.10134,224.84261 347.99464,222.34374 C 349.76978,220.32051 349.18285,220.08556 348.63161,219.42011 C 346.93221,218.44004 345.9258,221.02354 341.70374,221.63674 C 338.04641,222.21385 334.79733,220.65249 334.98464,222.8881 C 335.14191,224.34017 335.97501,224.62302 337.54845,224.97986 C 339.98211,225.53181 342.0626,226.10571 340.80801,231.47888 C 338.14198,241.11078 329.35464,243.33283 320.18475,243.63025 C 314.53838,243.97084 308.12688,241.03954 308.60181,238.3007 C 309.07618,236.59507 311.70668,237.61503 313.90873,238.89753 C 315.14999,239.31326 317.74777,239.59451 319.54711,239.22295 C 319.26236,237.45923 317.57545,235.70872 315.05852,235.44576 C 312.91461,235.22178 310.23663,236.17287 310.01438,234.6766 C 309.67357,229.5508 317.4945,233.47079 320.59694,232.86787 C 326.99798,231.0977 323.32439,226.24812 327.81253,223.80433 C 324.40641,225.92176 317.39433,219.1368 313.58245,223.94539 C 311.30882,227.42057 311.69293,226.89215 309.5299,228.72824 C 306.96762,230.20878 303.59652,227.55114 306.27345,225.98323 C 309.86696,226.10311 311.88771,223.13012 312.07431,220.1936 C 309.416,220.23795 306.3751,221.05214 305.50215,224.4646 C 302.48045,226.43216 300.6217,223.6048 303.00478,222.43631 C 306.68183,221.69002 305.77889,216.41419 300.97403,215.70342 C 295.54552,214.13117 294.32543,217.94792 284.30593,212.71886 C 289.81341,216.14305 294.86754,222.57434 294.80465,229.05039 C 302.67287,227.33309 306.57177,234.58168 300.40903,238.08752 C 306.53803,243.79754 312.53949,246.23568 311.1444,254.92888 C 334.33667,244.80176 436.98336,246.96182 461.66461,254.92888 C 460.26952,246.23568 466.27098,243.79754 472.4,238.08752 C 466.23725,234.58168 470.13615,227.33309 478.00436,229.05039 C 477.94147,222.57434 482.99562,216.14305 488.50308,212.71886 C 478.4836,217.94792 477.26348,214.13117 471.83498,215.70342 C 467.03012,216.41419 466.12719,221.69002 469.80424,222.43631 C 472.18732,223.6048 470.32858,226.43216 467.30686,224.4646 C 466.43393,221.05214 463.39302,220.23795 460.7347,220.1936 C 460.92132,223.13012 462.94205,226.10311 466.53556,225.98323 C 469.21249,227.55114 465.8414,230.20878 463.27911,228.72824 C 461.11608,226.89215 461.50021,227.42057 459.22657,223.94539 C 455.41468,219.1368 448.40261,225.92176 444.9965,223.80433 C 449.48462,226.24812 445.81103,231.0977 452.21207,232.86787 C 455.31451,233.47079 463.13544,229.5508 462.79465,234.6766 C 462.57238,236.17287 459.8944,235.22178 457.75051,235.44576 C 455.23356,235.70872 453.54665,237.45923 453.26192,239.22295 C 455.06124,239.59451 457.65902,239.31326 458.9003,238.89753 C 461.10233,237.61503 463.73283,236.59507 464.2072,238.3007 C 464.68215,241.03954 458.27063,243.97084 452.62428,243.63025 C 443.45437,243.33283 434.66704,241.11078 432.00102,231.47888 C 430.74641,226.10571 432.8269,225.53181 435.26056,224.97986 C 436.83402,224.62302 437.6671,224.34017 437.82439,222.8881 C 438.0117,220.65249 434.76261,222.21385 431.10529,221.63674 C 426.88321,221.02354 425.87681,218.44004 424.1774,219.42011 C 423.62616,220.08556 423.03923,220.32051 424.81437,222.34374 C 425.70768,224.84261 424.9344,226.39214 422.32304,229.36779 C 415.7881,236.06992 405.93745,236.32454 398.50981,231.96004 C 394.84693,229.24792 391.52346,224.69113 391.60203,220.72799 C 393.0187,221.00742 393.12189,221.13436 393.42713,219.58394 C 394.37015,218.84692 395.5991,221.86694 396.08209,223.24121 C 396.48499,224.9905 397.05004,226.0129 400.69495,226.44872 C 401.23381,224.23765 400.86334,222.69168 398.97727,221.85301 C 398.3037,221.37013 397.14585,220.33245 396.04016,219.11593 C 398.33037,219.29384 398.81586,219.02482 398.98427,217.44911 C 399.99466,218.94857 401.30816,220.96066 402.31856,222.46012 C 404.2383,223.32422 408.34972,223.25757 409.96634,221.68186 C 411.81872,219.8266 412.89396,217.85574 415.85776,216.00049 C 413.60123,214.27228 411.64781,211.47668 410.19957,209.29103 C 408.54928,207.61368 404.67612,207.07997 402.52063,208.22362 C 401.74601,208.96064 401.0724,210.23137 400.70193,211.12088 C 400.7693,209.64683 400.02833,208.85898 397.56972,208.52859 C 398.35008,207.64868 399.45454,206.93179 401.20713,206.62249 C 403.56146,205.05733 402.89111,203.1661 403.7331,201.43792 C 401.59731,202.21089 400.10967,201.5166 397.97388,203.26776 C 397.31426,205.30283 396.22254,205.70757 395.34687,206.92747 C 395.40277,205.34461 394.59445,204.98447 392.92194,204.86888 C 398.62372,203.18445 396.2021,199.29498 394.16932,197.81229 C 391.64336,196.00785 389.20652,194.29717 386.46448,191.59606 z "
         style="fill:#f4af41;fill-opacity:1;fill-rule:evenodd;stroke:#000000;stroke-width:2.48031497;stroke-linecap:butt;stroke-linejoin:miter;stroke-miterlimit:4;stroke-dasharray:none;stroke-opacity:1"
         id="path2216" />
      <path
         transform="matrix(0.979467,0.000000,0.000000,0.786202,599.1940,56.87697)"
         d="M -301.25565 224.94893 A 5.6448302 7.4274077 0 1 1  -312.54531,224.94893 A 5.6448302 7.4274077 0 1 1  -301.25565 224.94893 z"
         sodipodi:ry="7.4274077"
         sodipodi:rx="5.6448302"
         sodipodi:cy="224.94893"
         sodipodi:cx="-306.90048"
         id="path2930"
         style="opacity:1;fill:#fc4a2e;fill-opacity:1;fill-rule:evenodd;stroke:#533621;stroke-width:2.826473;stroke-linecap:round;stroke-linejoin:miter;stroke-miterlimit:4;stroke-dasharray:none;stroke-dashoffset:0;stroke-opacity:1"
         sodipodi:type="arc" />
      <path
         sodipodi:type="arc"
         style="opacity:1;fill:#fc4a2e;fill-opacity:1;fill-rule:evenodd;stroke:#533621;stroke-width:2.77368474;stroke-linecap:round;stroke-linejoin:miter;stroke-miterlimit:4;stroke-dasharray:none;stroke-dashoffset:0;stroke-opacity:1"
         id="path2932"
         sodipodi:cx="-306.90048"
         sodipodi:cy="224.94893"
         sodipodi:rx="5.6448302"
         sodipodi:ry="7.4274077"
         d="M -301.25565 224.94893 A 5.6448302 7.4274077 0 1 1  -312.54531,224.94893 A 5.6448302 7.4274077 0 1 1  -301.25565 224.94893 z"
         transform="matrix(0.998108,0.000000,0.000000,0.801165,692.4871,32.57616)" />
      <path
         sodipodi:type="arc"
         style="opacity:1;fill:#fc4a2e;fill-opacity:1;fill-rule:evenodd;stroke:#533621;stroke-width:2.826473;stroke-linecap:round;stroke-linejoin:miter;stroke-miterlimit:4;stroke-dasharray:none;stroke-dashoffset:0;stroke-opacity:1"
         id="path3022"
         sodipodi:cx="-306.90048"
         sodipodi:cy="224.94893"
         sodipodi:rx="5.6448302"
         sodipodi:ry="7.4274077"
         d="M -301.25565 224.94893 A 5.6448302 7.4274077 0 1 1  -312.54531,224.94893 A 5.6448302 7.4274077 0 1 1  -301.25565 224.94893 z"
         transform="matrix(0.979467,0.000000,0.000000,0.786202,774.2626,56.87697)" />
      <path
         sodipodi:type="arc"
         style="opacity:1;fill:#ffffff;fill-opacity:1;fill-rule:evenodd;stroke:#000000;stroke-width:2.08352709;stroke-linecap:round;stroke-linejoin:miter;stroke-miterlimit:4;stroke-dasharray:none;stroke-dashoffset:0;stroke-opacity:1"
         id="path3014"
         sodipodi:cx="-434.63211"
         sodipodi:cy="220.82977"
         sodipodi:rx="7.6418834"
         sodipodi:ry="6.2090302"
         d="M -431.8952,226.62693 A 7.6418834,6.2090302 0 1 1 -431.82627,226.60513"
         sodipodi:start="1.204515"
         sodipodi:end="7.4780207"
         sodipodi:open="true"
         transform="matrix(1.191545,-0.210102,0.203389,1.153474,813.0894,-131.6853)" />
      <path
         transform="matrix(1.188952,0.224311,-0.217144,1.150964,996.9217,57.37452)"
         sodipodi:open="true"
         sodipodi:end="7.4780207"
         sodipodi:start="1.204515"
         d="M -431.8952,226.62693 A 7.6418834,6.2090302 0 1 1 -431.82627,226.60513"
         sodipodi:ry="6.2090302"
         sodipodi:rx="7.6418834"
         sodipodi:cy="220.82977"
         sodipodi:cx="-434.63211"
         id="path3016"
         style="opacity:1;fill:#ffffff;fill-opacity:1;fill-rule:evenodd;stroke:#000000;stroke-width:2.08352685;stroke-linecap:round;stroke-linejoin:miter;stroke-miterlimit:4;stroke-dasharray:none;stroke-dashoffset:0;stroke-opacity:1"
         sodipodi:type="arc" />
    </g>
    <path
       sodipodi:nodetypes="cc"
       id="path3434"
       d="M 20.477384,596.88926 L 732.01005,596.83175"
       style="fill:none;fill-opacity:0.75;fill-rule:evenodd;stroke:#000000;stroke-width:7.08661413;stroke-linecap:butt;stroke-linejoin:miter;stroke-miterlimit:4;stroke-dasharray:none;stroke-opacity:1" />
    <path
       style="fill:none;fill-opacity:0.75;fill-rule:evenodd;stroke:#000000;stroke-width:3.54330707;stroke-linecap:butt;stroke-linejoin:miter;stroke-miterlimit:4;stroke-dasharray:none;stroke-opacity:1"
       d="M 20.477384,607.96389 L 732.01005,607.90638"
       id="path3436"
       sodipodi:nodetypes="cc" />
    <g
       transform="translate(772.5157,0.000000)"
       id="g3512">
      <path
         style="fill:none;fill-opacity:0.75;fill-rule:evenodd;stroke:#000000;stroke-width:3.54330707;stroke-linecap:butt;stroke-linejoin:miter;stroke-miterlimit:4;stroke-dasharray:none;stroke-opacity:1"
         d="M -528.81359,855.7875 L -265.79113,857.17182"
         id="path3438" />
      <path
         style="fill:none;fill-opacity:0.75;fill-rule:evenodd;stroke:#000000;stroke-width:3.54330707;stroke-linecap:butt;stroke-linejoin:miter;stroke-miterlimit:4;stroke-dasharray:none;stroke-opacity:1"
         d="M -593.87705,825.33226 L -202.112,826.71659"
         id="path3440" />
      <path
         style="fill:none;fill-opacity:0.75;fill-rule:evenodd;stroke:#000000;stroke-width:3.54330707;stroke-linecap:butt;stroke-linejoin:miter;stroke-miterlimit:4;stroke-dasharray:none;stroke-opacity:1"
         d="M -642.32855,789.33971 L -153.66049,789.33971"
         id="path3442" />
      <path
         style="fill:none;fill-opacity:0.75;fill-rule:evenodd;stroke:#000000;stroke-width:3.54330707;stroke-linecap:butt;stroke-linejoin:miter;stroke-miterlimit:4;stroke-dasharray:none;stroke-opacity:1"
         d="M -675.55244,754.7315 L -117.66795,753.34717"
         id="path3444" />
      <path
         style="fill:none;fill-opacity:0.75;fill-rule:evenodd;stroke:#000000;stroke-width:3.54330707;stroke-linecap:butt;stroke-linejoin:miter;stroke-miterlimit:4;stroke-dasharray:none;stroke-opacity:1"
         d="M -703.23902,717.35462 L -89.981371,718.73895"
         id="path3446" />
      <path
         style="fill:none;fill-opacity:0.75;fill-rule:evenodd;stroke:#000000;stroke-width:3.54330707;stroke-linecap:butt;stroke-linejoin:miter;stroke-miterlimit:4;stroke-dasharray:none;stroke-opacity:1"
         d="M -724.00395,681.36207 L -66.447781,679.97774"
         id="path3448" />
      <path
         style="fill:none;fill-opacity:0.75;fill-rule:evenodd;stroke:#000000;stroke-width:3.54330707;stroke-linecap:butt;stroke-linejoin:miter;stroke-miterlimit:4;stroke-dasharray:none;stroke-opacity:1"
         d="M -740.6159,643.98519 L -51.220165,643.98519"
         id="path3450" />
      <path
         style="fill:none;fill-opacity:0.75;fill-rule:evenodd;stroke:#000000;stroke-width:3.54330707;stroke-linecap:butt;stroke-linejoin:miter;stroke-miterlimit:4;stroke-dasharray:none;stroke-opacity:1"
         d="M -438.95178,826.17125 L -438.95178,855.15196"
         id="path3452" />
      <path
         id="path3454"
         d="M -303.94407,826.17125 L -303.94407,855.15196"
         style="fill:none;fill-opacity:0.75;fill-rule:evenodd;stroke:#000000;stroke-width:3.54330707;stroke-linecap:butt;stroke-linejoin:miter;stroke-miterlimit:4;stroke-dasharray:none;stroke-opacity:1" />
      <path
         style="fill:none;fill-opacity:0.75;fill-rule:evenodd;stroke:#000000;stroke-width:3.34525466;stroke-linecap:butt;stroke-linejoin:miter;stroke-miterlimit:4;stroke-dasharray:none;stroke-opacity:1"
         d="M -371.0945,855.66629 L -371.0945,881.4978"
         id="path3456" />
      <path
         sodipodi:nodetypes="cc"
         id="path3458"
         d="M -371.0945,791.02144 L -371.0945,826.20675"
         style="fill:none;fill-opacity:0.75;fill-rule:evenodd;stroke:#000000;stroke-width:3.73086071;stroke-linecap:butt;stroke-linejoin:miter;stroke-miterlimit:4;stroke-dasharray:none;stroke-opacity:1" />
      <path
         id="path3460"
         d="M -438.95178,756.90028 L -438.95178,785.88099"
         style="fill:none;fill-opacity:0.75;fill-rule:evenodd;stroke:#000000;stroke-width:3.54330707;stroke-linecap:butt;stroke-linejoin:miter;stroke-miterlimit:4;stroke-dasharray:none;stroke-opacity:1" />
      <path
         sodipodi:nodetypes="cc"
         style="fill:none;fill-opacity:0.75;fill-rule:evenodd;stroke:#000000;stroke-width:3.73086071;stroke-linecap:butt;stroke-linejoin:miter;stroke-miterlimit:4;stroke-dasharray:none;stroke-opacity:1"
         d="M -236.79363,791.02144 L -236.02978,826.20675"
         id="path3464" />
      <path
         id="path3466"
         d="M -507.5159,791.02144 L -507.5159,823.15135"
         style="fill:none;fill-opacity:0.75;fill-rule:evenodd;stroke:#000000;stroke-width:3.73086071;stroke-linecap:butt;stroke-linejoin:miter;stroke-miterlimit:4;stroke-dasharray:none;stroke-opacity:1" />
      <path
         style="fill:none;fill-opacity:0.75;fill-rule:evenodd;stroke:#000000;stroke-width:3.73086071;stroke-linecap:butt;stroke-linejoin:miter;stroke-miterlimit:4;stroke-dasharray:none;stroke-opacity:1"
         d="M -438.95178,756.38595 L -438.95178,788.51586"
         id="path3468" />
      <path
         id="path3470"
         d="M -304.65091,756.38595 L -304.65091,788.51586"
         style="fill:none;fill-opacity:0.75;fill-rule:evenodd;stroke:#000000;stroke-width:3.73086071;stroke-linecap:butt;stroke-linejoin:miter;stroke-miterlimit:4;stroke-dasharray:none;stroke-opacity:1" />
      <path
         style="fill:none;fill-opacity:0.75;fill-rule:evenodd;stroke:#000000;stroke-width:3.73086071;stroke-linecap:butt;stroke-linejoin:miter;stroke-miterlimit:4;stroke-dasharray:none;stroke-opacity:1"
         d="M -575.37318,756.38595 L -575.37318,788.51586"
         id="path3472" />
      <path
         id="path3474"
         d="M -169.6432,755.67911 L -169.6432,787.80902"
         style="fill:none;fill-opacity:0.75;fill-rule:evenodd;stroke:#000000;stroke-width:3.73086071;stroke-linecap:butt;stroke-linejoin:miter;stroke-miterlimit:4;stroke-dasharray:none;stroke-opacity:1" />
      <path
         sodipodi:nodetypes="cc"
         id="path3476"
         d="M -438.95178,682.8739 L -438.95178,718.05921"
         style="fill:none;fill-opacity:0.75;fill-rule:evenodd;stroke:#000000;stroke-width:3.73086071;stroke-linecap:butt;stroke-linejoin:miter;stroke-miterlimit:4;stroke-dasharray:none;stroke-opacity:1" />
      <path
         sodipodi:nodetypes="cc"
         style="fill:none;fill-opacity:0.75;fill-rule:evenodd;stroke:#000000;stroke-width:3.73086071;stroke-linecap:butt;stroke-linejoin:miter;stroke-miterlimit:4;stroke-dasharray:none;stroke-opacity:1"
         d="M -304.65091,682.8739 L -304.65091,718.05921"
         id="path3478" />
      <path
         id="path3480"
         d="M -575.37318,682.8739 L -575.37318,715.00381"
         style="fill:none;fill-opacity:0.75;fill-rule:evenodd;stroke:#000000;stroke-width:3.73086071;stroke-linecap:butt;stroke-linejoin:miter;stroke-miterlimit:4;stroke-dasharray:none;stroke-opacity:1" />
      <path
         style="fill:none;fill-opacity:0.75;fill-rule:evenodd;stroke:#000000;stroke-width:3.73086071;stroke-linecap:butt;stroke-linejoin:miter;stroke-miterlimit:4;stroke-dasharray:none;stroke-opacity:1"
         d="M -169.6432,682.16706 L -169.6432,714.29697"
         id="path3482" />
      <path
         style="fill:none;fill-opacity:0.75;fill-rule:evenodd;stroke:#000000;stroke-width:3.73086071;stroke-linecap:butt;stroke-linejoin:miter;stroke-miterlimit:4;stroke-dasharray:none;stroke-opacity:1"
         d="M -438.95178,610.06869 L -438.95178,642.1986"
         id="path3484" />
      <path
         id="path3486"
         d="M -304.65091,610.06869 L -304.65091,642.1986"
         style="fill:none;fill-opacity:0.75;fill-rule:evenodd;stroke:#000000;stroke-width:3.73086071;stroke-linecap:butt;stroke-linejoin:miter;stroke-miterlimit:4;stroke-dasharray:none;stroke-opacity:1" />
      <path
         style="fill:none;fill-opacity:0.75;fill-rule:evenodd;stroke:#000000;stroke-width:3.73086071;stroke-linecap:butt;stroke-linejoin:miter;stroke-miterlimit:4;stroke-dasharray:none;stroke-opacity:1"
         d="M -575.37318,610.06869 L -575.37318,642.1986"
         id="path3488" />
      <path
         id="path3490"
         d="M -169.6432,609.36185 L -169.6432,641.49176"
         style="fill:none;fill-opacity:0.75;fill-rule:evenodd;stroke:#000000;stroke-width:3.73086071;stroke-linecap:butt;stroke-linejoin:miter;stroke-miterlimit:4;stroke-dasharray:none;stroke-opacity:1" />
      <path
         id="path3492"
         d="M -506.80906,646.11787 L -506.80906,678.24778"
         style="fill:none;fill-opacity:0.75;fill-rule:evenodd;stroke:#000000;stroke-width:3.73086071;stroke-linecap:butt;stroke-linejoin:miter;stroke-miterlimit:4;stroke-dasharray:none;stroke-opacity:1" />
      <path
         style="fill:none;fill-opacity:0.75;fill-rule:evenodd;stroke:#000000;stroke-width:3.73086071;stroke-linecap:butt;stroke-linejoin:miter;stroke-miterlimit:4;stroke-dasharray:none;stroke-opacity:1"
         d="M -372.50819,646.11787 L -372.50819,678.24778"
         id="path3494" />
      <path
         id="path3496"
         d="M -643.23046,646.11787 L -643.23046,678.24778"
         style="fill:none;fill-opacity:0.75;fill-rule:evenodd;stroke:#000000;stroke-width:3.73086071;stroke-linecap:butt;stroke-linejoin:miter;stroke-miterlimit:4;stroke-dasharray:none;stroke-opacity:1" />
      <path
         style="fill:none;fill-opacity:0.75;fill-rule:evenodd;stroke:#000000;stroke-width:3.73086071;stroke-linecap:butt;stroke-linejoin:miter;stroke-miterlimit:4;stroke-dasharray:none;stroke-opacity:1"
         d="M -237.50048,645.41103 L -237.50048,677.54094"
         id="path3498" />
      <path
         style="fill:none;fill-opacity:0.75;fill-rule:evenodd;stroke:#000000;stroke-width:3.73086071;stroke-linecap:butt;stroke-linejoin:miter;stroke-miterlimit:4;stroke-dasharray:none;stroke-opacity:1"
         d="M -506.80906,720.33677 L -506.80906,752.46668"
         id="path3500" />
      <path
         id="path3502"
         d="M -372.50819,720.33677 L -372.50819,752.46668"
         style="fill:none;fill-opacity:0.75;fill-rule:evenodd;stroke:#000000;stroke-width:3.73086071;stroke-linecap:butt;stroke-linejoin:miter;stroke-miterlimit:4;stroke-dasharray:none;stroke-opacity:1" />
      <path
         style="fill:none;fill-opacity:0.75;fill-rule:evenodd;stroke:#000000;stroke-width:3.73086071;stroke-linecap:butt;stroke-linejoin:miter;stroke-miterlimit:4;stroke-dasharray:none;stroke-opacity:1"
         d="M -643.23046,720.33677 L -643.23046,752.46668"
         id="path3504" />
      <path
         id="path3506"
         d="M -237.50048,719.62993 L -237.50048,751.75984"
         style="fill:none;fill-opacity:0.75;fill-rule:evenodd;stroke:#000000;stroke-width:3.73086071;stroke-linecap:butt;stroke-linejoin:miter;stroke-miterlimit:4;stroke-dasharray:none;stroke-opacity:1" />
      <path
         id="path3508"
         d="M -712.06833,610.06869 L -712.06833,642.1986"
         style="fill:none;fill-opacity:0.75;fill-rule:evenodd;stroke:#000000;stroke-width:3.73086071;stroke-linecap:butt;stroke-linejoin:miter;stroke-miterlimit:4;stroke-dasharray:none;stroke-opacity:1" />
      <path
         style="fill:none;fill-opacity:0.75;fill-rule:evenodd;stroke:#000000;stroke-width:3.73086071;stroke-linecap:butt;stroke-linejoin:miter;stroke-miterlimit:4;stroke-dasharray:none;stroke-opacity:1"
         d="M -102.58353,648.94529 L -102.58353,681.0752"
         id="path3510" />
    </g>
  </g>
</svg>
