<?xml version="1.0" encoding="UTF-8" standalone="no"?>
<!-- Creator: CorelDRAW -->
<svg
        xmlns:dc="http://purl.org/dc/elements/1.1/"
        xmlns:cc="http://web.resource.org/cc/"
        xmlns:rdf="http://www.w3.org/1999/02/22-rdf-syntax-ns#"
        xmlns="http://www.w3.org/2000/svg"
        xmlns:sodipodi="http://sodipodi.sourceforge.net/DTD/sodipodi-0.dtd"
        xmlns:inkscape="http://www.inkscape.org/namespaces/inkscape"
        xml:space="preserve"
        width="744"
        height="876.48865"
        style="shape-rendering:geometricPrecision; text-rendering:geometricPrecision; image-rendering:optimizeQuality; fill-rule:evenodd; clip-rule:evenodd"
        viewBox="0 0 210 297"
        id="svg2"
        sodipodi:version="0.32"
        inkscape:version="0.45.1"
        sodipodi:docname="POL powiat tczewski COA.svg"
        inkscape:output_extension="org.inkscape.output.svg.inkscape"
        sodipodi:docbase="C:\Users\Mistrz\Desktop\Herby"
        version="1.0"><metadata
   id="metadata43"><rdf:RDF><cc:Work
       rdf:about=""><dc:format>image/svg+xml</dc:format><dc:type
         rdf:resource="http://purl.org/dc/dcmitype/StillImage" /></cc:Work></rdf:RDF></metadata><sodipodi:namedview
   inkscape:window-height="480"
   inkscape:window-width="640"
   inkscape:pageshadow="2"
   inkscape:pageopacity="0.0"
   guidetolerance="10.0"
   gridtolerance="10.0"
   objecttolerance="10.0"
   borderopacity="1.0"
   bordercolor="#666666"
   pagecolor="#ffffff"
   id="base" />
 <defs
   id="defs4">
  <style
   type="text/css"
   id="style6">
   
    .str0 {stroke:black;stroke-width:0.1595}
    .fil5 {fill:none}
    .fil1 {fill:white}
    .fil0 {fill:black}
    .fil6 {fill:#009EE0}
    .fil2 {fill:#E2001A}
    .fil4 {fill:#FFEC00}
    .fil3 {fill:white}
   
  </style>
 </defs>
 <g
   id="Warstwa_x0020_1"
   transform="matrix(1.2005045,0,0,1.2005045,-21.052973,-29.774924)">
  <metadata
   id="CorelCorpID_0Corel-Layer" />
  <path
   class="fil0"
   d="M 210,165.202 C 210,224.1323 162.8324,272.198 105,272.198 C 47.167,272.198 0,224.1327 0,165.202 L 0,24.802 L 210,24.802 L 210,165.202 z "
   id="path10"
   style="fill:#000000" />
  <path
   class="fil1"
   d="M 207.359,27.4117 L 207.359,164.8497 C 207.359,222.4138 161.5719,269.3837 105.358,269.5827 L 105.358,27.4117 L 207.359,27.4117 L 207.359,27.4117 z M 104.396,269.5797 C 48.294,269.2447 2.64,222.331 2.64,164.8507 L 2.64,27.4127 L 104.396,27.4127 L 104.396,269.5807 L 104.396,269.5797 z "
   id="path12"
   style="fill:#ffffff" />
  <path
   class="fil2"
   d="M 148.559,215.697 C 146.803,216.0344 147.2601,218.0234 146.2796,218.9879 C 145.0386,217.5317 144.2447,215.4323 144.7954,213.5291 C 145.0762,212.5611 145.7223,211.7672 146.9424,212.0551 C 147.6112,212.213 148.0857,212.7167 148.6031,213.3122 C 148.1381,211.586 147.9635,211.9454 146.8745,211.102 C 147.3978,210.1793 150.3084,210.3008 151.2377,210.3008 C 151.5077,209.917 149.5258,209.8192 148.1161,209.9992 C 147.0873,210.131 145.9548,210.9112 145.3015,211.5395 C 144.7257,211.7028 143.4704,209.9349 143.1658,209.579 C 142.7366,209.0765 142.3665,208.9573 141.8449,209.486 C 141.0855,210.2561 141.2059,211.3016 140.6164,212.0777 C 139.3039,210.7652 138.7233,208.527 139.3468,206.7579 C 139.9661,205.0424 141.703,203.5534 143.6206,204.2431 C 145.2639,204.8379 145.5369,206.6434 145.9244,208.1395 C 146.3613,207.9124 146.0585,205.6158 146.0311,205.4352 C 147.2578,205.527 147.9748,206.6887 148.8093,206.6887 C 148.2538,205.5502 147.7221,204.4529 146.437,204.0285 C 146.0543,202.9729 145.5602,202.3696 145.0094,202.1068 L 145.0094,202.111 C 144.2017,201.6985 143.9663,201.7217 143.0895,202.0311 C 142.2115,202.5181 141.4843,203.2053 140.583,203.6333 C 140.1205,201.8535 139.7712,198.1495 142.1984,197.113 C 143.8596,196.4031 144.9611,198.2693 145.5369,199.524 C 145.3396,198.41 144.917,197.8694 144.3722,196.986 C 145.2258,195.9673 147.1815,197.47 147.7811,198.224 C 148.8409,199.5556 149.7094,201.615 150.526,202.775 C 151.6609,204.3861 154.6924,207.3265 156.9181,206.9516 C 159.1349,206.5784 159.5736,202.676 159.5277,200.8282 C 159.4711,198.5739 159.0181,195.686 158.9066,195.0369 C 157.8718,190.4442 155.2837,186.1067 154.2931,181.6022 C 154.2341,181.5873 154.1774,181.573 154.1184,181.5581 C 153.7936,183.36 153.3698,186.1061 152.3159,187.9485 C 151.3074,189.7152 147.3627,189.5716 146.0382,188.5678 C 144.7603,187.5974 144.3329,185.5768 143.8113,183.8291 C 143.1819,181.7179 138.253,174.5222 136.7772,174.9388 C 136.3415,175.2416 134.5962,175.8449 134.4198,176.1185 C 134.5795,176.3289 135.0462,176.072 135.3365,176.3748 C 136.7885,178.9927 137.1032,180.8822 135.4241,182.9124 C 134.7226,183.7624 133.9954,184.1736 133.109,184.3572 C 131.3232,184.7274 129.3258,183.9734 128.6475,182.1154 C 127.9239,181.9199 127.5466,180.9364 127.5698,180.2378 C 127.6038,179.2716 128.3989,178.9498 129.4277,178.7954 C 129.0796,179.6644 129.4307,180.2003 130.1007,180.7844 C 130.5817,181.216 132.4277,181.9688 133.562,181.3918 C 131.598,180.6056 131.3077,180.5448 130.7254,179.2913 C 129.8378,176.6317 132.0498,175.7692 132.0498,173.5023 C 131.089,171.4942 130.3171,169.9969 129.7371,168.0776 C 129.7371,167.7009 129.8819,164.5256 129.5624,163.8467 C 126.8563,163.1505 125.7351,163.1356 124.8625,160.1601 C 124.5996,158.8291 124.8482,156.9998 126.2734,156.3059 C 127.1001,155.7927 127.1317,155.3552 127.0012,155.1281 C 126.4975,155.1138 125.9628,155.4083 125.6028,155.7337 C 125.328,156.1146 125.3048,156.3089 125.3465,156.7434 C 124.6473,156.3334 123.3103,155.4548 123.2287,154.5672 C 123.187,154.1339 123.8242,153.7971 124.3076,153.6856 C 127.0035,151.9237 128.2231,150.7822 130.391,154.0391 C 132.3693,156.8507 132.4998,160.2805 133.3725,163.7096 C 133.4464,164.345 133.4464,164.345 133.5197,164.5256 C 133.5197,163.0599 133.4464,161.6407 133.3159,160.3264 C 133.6061,160.2507 134.0705,159.6451 134.4788,159.4645 C 134.4639,159.418 134.4639,159.3739 134.4639,159.3423 C 130.8529,156.722 131.9062,153.1909 134.9365,150.9384 C 135.2507,150.7053 135.7049,150.3584 136.0786,150.2607 C 135.9701,150.0342 134.8936,150.6636 134.7786,150.7238 C 134.5384,150.8496 134.2976,150.9998 134.0502,151.1095 C 133.4434,151.3872 132.8277,151.6334 133.118,152.4303 C 132.0731,152.2247 131.1605,152.0858 130.5674,151.4105 C 130.0876,150.7357 130.6801,150.1587 131.1164,149.6777 C 131.232,149.6294 131.2529,149.5329 131.3053,149.4822 C 131.8668,148.4856 132.1678,147.9938 133.5197,147.5396 C 139.1048,146.1496 138.5666,150.7149 137.986,155.2312 C 137.8686,155.3534 137.1259,160.0677 137.229,160.749 C 138.1165,158.8905 137.7231,156.0496 139.4684,154.8402 C 139.6007,154.7037 139.5566,154.5374 139.5566,154.4617 C 139.2795,154.1756 138.436,153.9169 138.2322,153.7363 C 138.4211,153.6755 138.684,152.0751 138.6697,150.4121 C 142.0887,150.1093 144.2274,151.7723 142.4797,155.3999 C 142.2043,155.776 141.9141,156.2302 141.5356,156.5622 C 141.9009,160.994 139.8457,164.1221 138.8437,168.3357 C 140.1098,169.4986 140.1098,168.9079 139.7879,170.8129 C 139.7879,170.8129 139.6282,171.1306 139.7313,171.1306 C 139.717,171.3261 140.0067,171.0698 140.0216,171.0698 C 140.341,170.7372 140.5306,170.2389 140.6903,169.8604 C 142.4523,169.8604 141.796,171.9001 141.5207,172.9134 C 141.7519,172.8526 142.2759,171.6438 142.379,171.3726 C 143.9204,171.3726 143.2218,173.4117 143.2808,174.152 C 143.5437,173.7002 143.8048,173.1995 143.9496,172.7328 C 144.7591,173.1209 145.4308,174.5788 146.2921,174.8018 C 146.6265,174.2742 145.7098,167.112 145.6085,165.9323 C 145.4344,162.5467 143.3547,149.5496 149.9591,149.5496 C 150.672,150.517 153.6684,154.8992 155.0352,154.8992 C 155.0501,154.87 155.065,154.8551 155.0793,154.8402 C 150.4646,149.5222 146.5067,143.344 143.2159,137.1866 C 140.2886,131.7041 138.2751,126.1076 137.0436,120.0385 C 136.2389,116.0771 135.7359,112.0745 135.9046,108.1584 C 140.4442,108.9893 144.3722,110.1981 149.3917,109.822 C 149.3917,109.8512 149.4066,109.881 149.4191,109.9126 C 148.3867,111.212 145.0702,111.0898 149.3034,112.4948 C 149.856,112.7534 151.4713,112.8584 151.5744,113.464 C 151.879,113.2369 152.4471,112.5407 152.4471,112.1794 C 151.9213,111.845 150.4831,110.8943 150.0455,110.8484 C 149.9448,110.4252 153.3197,108.3247 153.8431,108.3247 C 153.4944,109.1258 152.8971,110.0467 152.7666,111.0141 C 153.334,110.9849 156.8985,109.7147 156.9277,109.7314 C 156.8544,109.822 156.8544,109.822 156.8395,109.9883 C 157.0731,109.9883 157.4641,109.2629 157.4218,109.0209 C 156.8836,109.0209 151.8057,110.2297 154.308,108.3712 C 154.3962,107.9778 154.8021,107.9021 155.0793,107.675 C 154.1482,107.2816 153.2458,106.8739 152.5627,106.3607 C 152.5627,105.4082 155.0209,103.3392 154.8611,102.3253 C 153.0694,101.9427 152.3958,103.884 151.215,104.9641 C 150.7239,105.4141 149.5609,105.8993 149.4632,106.5711 C 149.8417,106.8447 153.027,107.4038 153.4204,107.2965 C 150.3126,110.073 143.4501,108.1876 141.098,107.917 C 136.14,107.0533 130.2294,105.2776 125.7691,103.6695 C 124.8416,103.3357 123.2513,102.4767 122.3012,102.4767 C 122.3012,104.7436 123.3485,105.9065 123.9899,108.0684 C 124.2068,110.6213 122.8102,111.6197 120.5708,111.1971 C 120.7163,111.4224 121.1681,111.7103 121.6473,111.8009 C 121.7165,112.6563 120.8748,113.9116 120.1333,114.3563 C 117.4081,115.9984 116.3543,113.9497 114.6496,112.1794 C 114.5905,112.0972 114.5315,112.0131 114.4773,111.9351 C 113.0599,111.736 113.0581,110.4938 113.4092,109.6235 C 113.7602,108.7449 114.6019,107.9861 115.3326,107.4205 C 115.4769,108.5709 116.5546,109.4256 117.6227,109.7082 C 117.6251,109.6915 117.6293,109.6724 117.6334,109.6539 C 116.1636,106.4978 116.7584,105.6353 118.155,102.7187 L 118.155,102.4624 C 116.5546,98.8497 115.7111,96.7051 116.4979,93.0458 C 117.2108,93.0631 119.0568,93.2878 119.7131,92.6089 C 116.2792,92.3371 114.9124,92.8652 114.1113,89.1935 C 114.4749,89.1935 116.0753,89.1476 116.2053,88.5879 C 114.5339,88.6344 113.8777,88.9664 112.5407,87.8798 C 109.9222,86.8957 110.7215,83.6781 112.4245,82.3471 C 113.0533,81.7707 114.5506,81.2283 115.1145,80.7908 C 115.1145,80.2204 114.4701,80.5583 113.8973,80.8629 C 113.0986,81.2879 111.8522,82.0503 111.3778,82.852 C 111.3122,83.035 111.3205,83.1774 111.4177,83.2746 C 110.467,83.0469 109.4286,82.8424 108.6252,82.2398 C 108.2848,81.9698 108.2228,81.5776 108.4845,81.1544 C 108.8213,80.6102 109.589,80.0278 109.8149,79.796 C 111.6174,77.9482 114.4552,76.343 115.974,79.6428 C 116.6869,80.5637 119.3912,81.546 119.3912,83.1482 C 118.2581,84.7212 119.3048,86.3217 119.9736,87.9531 C 120.1482,88.7101 120.0034,89.4063 120.0326,90.2664 C 121.8369,87.9239 119.7697,86.9124 119.3912,84.9018 C 119.4944,82.8162 120.5792,82.7864 121.5824,82.4228 C 121.6873,82.3555 121.7087,82.2714 121.5782,82.2756 L 120.7729,82.2672 C 120.184,82.3048 120.0564,82.4109 119.9128,82.9462 C 119.4991,82.2833 118.9698,81.5877 118.819,80.8039 C 118.7469,80.0892 119.0145,79.8395 119.6565,79.6511 L 119.6666,79.6601 C 120.7246,75.7255 125.2368,83.2388 124.7176,86.6686 C 124.7027,86.7294 124.1353,87.7725 124.1353,88.0288 C 124.1937,88.0288 124.2509,88.0288 124.3242,88.0455 C 125.4156,86.2918 125.809,84.5233 125.2559,82.5593 C 125.1111,82.2422 124.9364,81.9096 124.993,81.7123 C 127.4238,81.9394 130.1156,82.8305 129.8968,86.1112 C 129.0659,84.8851 128.5134,84.4625 127.1758,84.6139 C 127.1758,84.7802 127.6109,84.9459 127.8738,85.0532 C 129.8086,86.2769 130.8851,87.3791 129.2847,89.8289 C 127.6699,91.353 124.0489,92.2304 124.0489,94.9216 C 129.8819,94.9807 135.8455,95.2227 141.796,95.4349 C 141.6804,95.1928 137.229,94.8293 136.531,94.4066 C 135.7889,89.7532 136.3689,83.5416 134.26,79.4598 C 132.1511,78.2528 129.9535,83.451 127.7433,81.1526 C 125.5802,80.0386 124.5204,78.0018 124.6253,75.8304 C 124.6443,75.4364 124.605,74.9768 124.7111,74.5774 C 124.9817,73.5552 125.6952,72.7344 126.9785,72.9985 C 127.5698,73.1201 127.8988,73.3692 128.452,73.8055 C 127.639,74.4153 127.7451,75.5687 128.0085,76.4389 C 128.2344,77.184 129.4522,78.6569 130.236,78.4709 C 130.3212,78.4518 129.0749,77.2615 129.0087,77.1852 C 128.7208,76.8532 128.5336,76.4658 128.5867,75.8345 C 129.2406,72.6617 130.2604,72.7666 132.8932,72.7666 C 133.0679,72.586 133.751,70.1219 133.869,69.7893 C 134.0138,69.4716 134.4937,68.3534 134.7691,68.1721 C 135.4545,66.8876 136.8946,66.1765 137.2439,64.833 C 137.2439,62.0977 137.8978,64.6816 139.4541,63.7607 C 138.5242,63.2159 138.0134,63.3822 137.3887,62.5203 C 136.3123,60.285 136.1376,57.9276 138.6697,57.0043 C 140.0186,56.8118 141.1153,56.8178 142.2377,57.6785 C 142.3766,57.7834 142.9452,58.3508 142.9452,58.3449 C 142.9727,57.9085 142.7938,57.5473 142.4988,57.2433 C 141.6804,56.4041 140.6343,55.9719 139.5101,55.8128 C 138.8998,55.7264 138.2346,55.6823 137.7714,56.1865 C 137.6063,55.5255 137.322,54.8382 137.3464,54.151 C 137.3697,53.5036 137.5926,53.1281 138.1702,53.0781 C 138.8145,53.0226 139.7551,53.2754 140.2749,53.3427 C 142.5197,53.6348 143.6277,54.868 144.3132,57.5932 C 144.3281,59.5131 143.9204,62.5662 142.3492,63.927 C 141.7394,64.9236 140.2844,66.0716 140.0067,67.2661 C 140.0216,67.2804 140.0365,67.2953 140.0657,67.3102 C 141.3019,66.1938 142.1453,64.6208 143.4263,63.502 C 143.7571,61.9618 144.3245,60.353 146.1682,60.6504 C 147.4431,60.8579 148.6227,61.9439 149.2456,62.9423 C 149.3207,62.5048 149.0251,62.0488 148.7724,61.7067 C 148.1524,60.8644 147.4199,60.3584 146.4453,60.0198 C 145.7676,59.8899 145.618,59.9632 145.3164,60.5223 C 145.1703,59.7039 145.0464,58.8915 144.9945,58.0516 C 144.9391,57.1796 144.9659,55.6948 146.0609,55.4802 C 146.7893,55.3973 147.8884,56.2569 148.5286,56.6771 C 151.4826,58.6214 152.9412,61.3335 150.2643,65.0899 C 149.9865,65.981 148.4749,67.1147 147.7471,67.6589 C 147.7471,67.6887 147.762,67.7346 147.7763,67.7793 C 148.6049,67.2047 149.4507,66.8578 150.2494,66.0865 C 150.3358,65.9518 150.3358,65.9518 151.0779,65.2705 C 152.0829,65.5292 151.938,68.7777 151.1518,68.7777 C 150.9623,68.4141 150.5546,67.9599 150.4091,67.7495 C 149.4507,67.7495 150.9331,69.8358 151.0487,70.349 C 151.0487,73.9444 147.2381,72.6301 145.3015,72.0877 L 145.1,72.0877 C 144.5761,72.8572 144.3573,73.9152 143.6301,74.6722 C 142.5679,75.3362 141.172,75.8035 140.0806,76.2112 C 140.0806,76.9033 140.7428,77.6925 140.9681,78.4042 C 141.5058,80.1059 141.7674,80.9225 140.2111,82.3322 L 140.2111,82.4228 C 140.6605,82.4228 141.2578,81.8637 141.7668,81.6533 C 141.9015,82.1385 142.1727,83.1607 141.734,83.6024 C 141.4038,83.9344 140.8304,84.2432 140.6903,84.6896 C 141.1422,84.5531 142.0589,83.6316 142.2908,83.6316 C 142.9172,85.4442 142.7718,85.4442 141.4032,86.6686 C 141.3907,86.7002 141.3907,86.746 141.3907,86.7902 C 141.9856,86.7902 142.7575,85.9741 143.077,85.9741 C 144.9105,89.3449 146.4227,92.653 150.8317,93.0166 C 156.0682,92.8062 162.427,89.9779 164.3612,84.4333 C 164.6366,84.2962 165.3369,81.0179 165.4234,80.5029 C 163.8945,80.156 160.9422,78.2677 159.939,77.3002 C 158.5555,75.2903 158.8774,74.3229 159.8508,72.2832 C 160.1136,72.5395 160.7675,73.5975 161.1311,73.6881 C 161.3797,74.4594 166.0772,76.8925 166.5857,76.7703 C 166.7478,75.0483 163.7639,72.1169 162.2374,71.6019 C 159.1671,70.2435 156.3453,69.8191 156.97,65.649 C 156.8985,65.7247 157.479,67.5981 158.4399,68.1721 C 158.4548,68.0064 157.975,67.4175 157.7711,66.465 C 157.7711,59.6723 162.6982,59.5668 167.059,62.7253 C 167.4607,63.0156 167.7969,63.3065 168.1462,63.6534 C 171.716,60.6641 176.0219,61.2483 179.3217,65.0726 C 180.5705,66.5181 182.0261,67.9439 183.3505,69.338 C 183.8882,69.9049 184.4187,70.4855 184.9092,71.0911 C 185.5083,71.8296 186.1574,72.555 186.8292,73.2148 C 187.1647,73.5504 187.4675,73.889 187.9146,74.0958 C 189.1443,73.2524 190.0777,71.5012 191.6459,71.0708 C 193.6547,70.5177 197.2406,71.2782 198.8404,71.255 C 198.6515,72.645 195.7117,78.1461 194.3026,78.6295 C 192.6652,79.7149 191.3294,79.2798 189.8941,78.8798 C 189.2319,78.695 188.2925,78.3267 187.6392,78.3267 C 187.5802,78.3875 187.5212,78.4489 187.4789,78.5246 C 187.1302,85.1289 183.797,90.5835 179.5643,95.2685 C 179.2741,95.7526 176.4797,98.6691 176.1304,98.5177 C 173.6133,95.4349 168.8865,96.295 166.9076,99.3331 C 166.2096,99.8928 165.4818,101.7513 164.5507,102.0082 C 162.0037,103.3225 161.67,98.4122 161.2199,97.4597 C 159.939,97.4597 158.8035,97.5205 157.668,97.4138 L 157.668,97.1885 C 157.8867,96.9763 159.4007,95.7526 159.4872,95.3907 C 157.9899,95.2835 156.5915,94.4215 155.4876,93.8469 C 155.4876,94.7851 157.3336,96.2801 157.3044,96.4023 C 156.9849,96.4023 155.4727,98.0194 155.3553,98.3955 C 157.9607,98.4122 157.9607,98.4122 159.0664,98.3663 C 159.6761,98.3049 160.2144,98.0486 160.8414,98.0045 C 160.637,100.98 160.0987,103.791 163.6924,104.2286 C 166.2519,103.6861 167.4166,100.347 169.4098,98.8813 C 170.4017,97.8495 172.4414,97.859 173.6764,98.7478 C 175.5266,100.0794 176.8225,102.556 178.7334,103.5496 C 181.765,105.8755 184.9939,105.6853 188.5351,104.7769 C 191.3187,104.067 194.445,100.772 193.4866,97.7476 C 192.5698,96.5537 191.2895,96.4631 190.0974,96.2652 C 190.7268,94.2904 191.947,92.9272 194.1577,93.0649 C 197.2638,93.2592 198.1752,95.7245 197.997,98.442 C 197.3127,101.4742 196.0401,103.7392 193.7918,105.398 C 191.358,107.1958 188.6311,107.8341 185.6162,107.9778 C 192.9364,108.7765 196.4985,104.1338 198.7099,100.6623 C 199.3226,101.1445 198.9018,104.8622 198.2759,107.4449 C 196.7828,113.6064 194.1059,116.2333 187.6702,115.8452 C 185.2371,115.6986 183.6349,114.9863 181.2089,113.765 C 181.6494,114.7073 185.069,115.9299 186.1645,116.1903 C 189.2635,116.9295 192.4637,116.5444 195.2175,114.4463 C 195.3821,116.1158 193.2678,120.5207 192.2647,122.1271 C 191.0993,123.9952 189.2361,125.3739 186.9263,124.7814 C 182.5155,124.3814 178.4229,121.9614 174.9383,119.3727 C 175.0337,120.2048 177.1312,121.7707 178.6875,122.7589 C 181.8669,124.776 185.1465,125.1885 188.8754,125.3113 C 186.7791,128.2904 183.8947,128.2731 180.8739,127.5614 C 177.583,126.7877 175.1761,125.0299 172.5076,122.9831 C 174.2212,125.3733 177.5604,127.5263 180.4316,128.3262 C 181.9349,128.7476 183.2993,128.8871 185.0779,128.9216 C 184.2637,131.4764 179.7682,131.7327 177.7011,131.7792 C 177.7011,135.8449 181.4109,141.9909 183.3398,145.8516 C 184.9992,149.1729 186.3767,152.1365 187.3704,155.351 C 188.609,159.3578 190.5891,169.411 185.4898,171.3154 C 185.2114,171.4185 184.9301,171.4572 184.6535,171.5294 C 184.8669,171.6909 185.1453,171.6945 185.4123,171.7487 C 185.1071,172.2786 184.4384,172.1308 184.0014,172.1308 C 184.0014,172.3138 184.4056,172.405 184.5504,172.5254 C 184.3287,172.5695 183.9895,172.6434 183.6933,172.7799 C 183.2897,172.9659 182.981,173.1519 182.3879,173.066 C 182.0768,173.0225 181.6851,172.7352 181.4545,172.7769 C 181.5725,172.8991 181.9927,173.1995 182.1972,173.4582 C 181.5284,174.003 180.4519,173.0648 179.8838,173.1995 C 179.987,173.3068 180.5675,173.6537 180.6706,173.8516 C 178.8497,173.9232 176.8463,173.742 175.2125,172.8997 C 173.8415,172.1934 172.3264,171.13 171.8829,170.6323 C 171.5193,172.0831 171.3888,173.7294 171.2707,175.2709 C 170.6759,174.9681 170.0345,173.7002 169.7442,173.2603 C 169.6852,173.246 169.6286,173.246 169.5845,173.246 C 169.5404,175.3173 169.5404,177.4936 169.5404,179.668 C 169.1029,179.3819 168.4782,178.278 168.26,177.977 C 168.201,177.977 168.1444,177.9919 168.0997,178.0068 C 167.984,178.7322 167.8368,180.999 167.5173,181.5116 C 167.0822,181.0282 166.603,180.3195 166.4408,179.9118 C 166.3967,179.8951 166.3544,179.8951 166.3252,179.8951 C 166.5147,181.5432 167.0673,186.4828 168.6385,187.1349 C 172.2465,186.4828 172.4503,193.21 170.9071,195.3397 C 170.5876,196.2922 164.8261,210.0594 164.8404,210.0737 C 165.3643,209.7125 165.7721,208.7594 166.1947,208.2444 C 168.8215,208.2444 169.9552,209.6339 170.0053,212.0843 C 171.8978,214.0483 171.3595,217.419 168.4639,217.5537 L 168.4639,217.5514 C 167.1859,218.1814 165.474,218.4454 164.1865,217.664 C 163.181,217.0536 162.6701,216.1905 162.8364,214.9758 C 163.6107,215.2744 164.2855,215.4061 164.996,215.2541 C 166.0445,215.0312 166.3669,214.4143 166.6089,213.4844 C 166.4575,213.4677 166.296,213.4594 166.1213,213.4594 C 164.506,213.6549 164.0566,213.6865 162.5718,213.2931 C 161.7707,213.2931 161.0012,213.7771 160.3449,214.0185 C 158.3684,214.5758 157.0433,214.1383 155.3994,213.5035 C 154.2657,213.308 152.7815,213.308 152.3732,214.6074 C 151.2967,215.8776 151.2234,216.603 149.3917,216.3759 C 149.2981,216.2788 148.7032,215.6183 148.559,215.697 L 148.559,215.697 z M 177.8632,101.962 C 177.2951,101.4637 176.5238,100.755 176.2186,100.2251 C 180.2033,97.4141 181.8187,96.1606 185.0481,90.4789 C 186.6557,86.9794 189.2873,82.8851 193.3769,82.897 C 195.3803,82.9029 196.697,84.9534 196.1158,86.6259 C 195.7182,87.7728 195.0167,88.621 194.6793,89.707 C 194.5929,89.6313 194.5929,89.6313 194.4749,89.617 C 194.4623,89.9639 194.4749,91.1435 193.8949,91.2949 L 193.8949,91.1578 L 193.7769,91.1578 C 193.6612,91.7175 192.8601,92.8214 192.3237,93.002 L 192.3237,92.6533 C 192.1496,92.6533 191.8718,93.1367 191.668,93.2732 C 189.4065,93.4407 188.8576,91.5005 189.6342,89.9991 C 190.3698,88.5739 191.7973,87.9242 193.3566,87.9242 C 194.2555,86.7404 194.7836,85.612 194.2472,84.9009 C 193.3048,83.6498 191.4951,84.2429 190.5247,85.0726 C 187.9486,87.2751 186.2671,92.8113 184.6404,94.966 C 183.7112,96.4783 179.5202,101.4953 177.8632,101.962 L 177.8632,101.962 z M 183.7255,69.1691 C 186.3434,68.1724 188.3074,67.4321 189.4852,64.577 C 190.4312,66.8879 188.6418,71.0747 187.5653,73.3117 C 187.3191,73.1752 187.0789,73.0667 186.8745,72.876 C 185.0064,71.1158 186.3648,71.7983 187.3048,69.7455 C 186.8375,69.5941 185.8051,71.1796 185.1936,71.1796 C 184.9229,70.7534 183.7934,69.4909 183.7255,69.1691 L 183.7255,69.1691 z "
   id="path14"
   style="fill:#e2001a" />
  <path
   class="fil3"
   d="M 166.908,74.8963 C 166.6159,74.0803 165.7432,71.2395 165.0894,70.9075 C 163.5897,69.1854 160.6082,69.3809 158.7032,68.3986 C 157.0294,67.9593 171.3742,63.6844 166.9944,74.8522 C 166.9646,74.8671 166.9378,74.8814 166.908,74.8963 z "
   id="path16"
   style="fill:#ffffff" />
  <path
   class="fil4"
   d="M 127.922,181.383 C 127.9119,181.3514 128.2415,181.9785 128.7905,182.0643 C 129.6398,182.199 130.9482,182.1233 131.5115,181.5934 C 130.0982,181.2799 128.7505,179.8356 129.2995,178.904 C 128.0484,179.0029 127.1859,179.785 127.922,181.383 L 127.922,181.383 z "
   id="path18"
   style="fill:#ffec00" />
  <path
   class="fil4"
   d="M 131.136,149.787 C 131.6086,150.0308 131.76,150.0875 132.7358,150.2538 C 133.2448,150.3527 133.8695,150.7711 134.124,150.9833 C 132.8514,151.5174 132.8073,151.9084 132.9844,152.3144 C 130.503,151.9466 129.836,150.9774 131.136,149.787 z "
   id="path20"
   style="fill:#ffec00" />
  <path
   class="fil4"
   d="M 145.648,199.978 C 145.1223,199.9952 144.8469,200.0793 144.9208,201.9801 C 143.3144,200.9078 141.382,203.3445 140.65,203.5049 C 139.384,197.825 143.2196,194.4692 145.4882,199.5935 C 145.5431,199.7175 145.5955,199.8456 145.648,199.978 L 145.648,199.978 z "
   id="path22"
   style="fill:#ffec00" />
  <path
   class="fil4"
   d="M 148.557,213.381 C 148.6076,213.44 148.5236,213.3411 148.5719,213.4043 C 148.1368,213.7011 147.3565,214.1511 148.4288,215.6502 C 146.7885,215.894 146.9422,218.4005 146.2842,218.8463 C 142.9278,214.805 145.5147,209.7123 148.557,213.381 z "
   id="path24"
   style="fill:#ffec00" />
  <path
   class="fil4"
   d="M 145.768,208.223 C 144.7779,208.4102 144.8596,209.9176 145.1964,211.3583 C 144.1974,211.2993 143.1143,208.9758 142.6101,209.039 C 140.9381,209.2446 141.0329,211.7028 140.6204,211.9281 C 135.7381,206.0652 144.6707,199.8537 145.768,208.223 L 145.768,208.223 z "
   id="path26"
   style="fill:#ffec00" />
  <path
   class="fil4"
   d="M 124.358,153.759 C 125.2748,153.734 126.6964,154.5685 126.9336,155.0519 C 125.5919,155.1723 125.1168,156.0908 125.2408,156.5641 C 123.4097,155.3636 122.459,154.3056 124.358,153.759 L 124.358,153.759 z "
   id="path28"
   style="fill:#ffec00" />
  <path
   class="fil4"
   d="M 168.653,217.358 C 168.5898,215.6545 169.2544,213.7596 166.6872,213.5283 C 166.4518,215.4882 164.3655,215.8166 162.9213,215.1014 C 162.6435,217.4689 165.5875,219.086 168.653,217.358 z "
   id="path30"
   style="fill:#ffec00" />
  <polyline
   class="fil5 str0"
   points="105.004,26.5116 104.882,45.2726 104.882,51.5241 104.882,57.7774 104.882,70.2828 104.882,89.0415 104.882,101.549 104.882,107.802 104.882,126.562 104.882,132.815 104.882,170.333 104.882,189.092 104.882,207.85 104.882,220.358 104.882,232.863 104.882,239.117 104.882,245.371 104.882,270.383 "
   id="polyline32"
   style="fill:none;stroke:#000000;stroke-width:0.1595" />
  <path
   class="fil4"
   d="M 114.463,111.846 C 114.4964,111.8544 114.9547,111.8103 115.5752,111.5772 C 116.5361,111.2172 117.5518,110.4185 117.6317,109.8021 C 116.2041,109.5542 115.2075,107.9979 115.2665,107.5901 C 113.4008,108.9378 112.3517,111.3203 114.463,111.846 z M 109.1914,80.5677 C 109.2105,80.5587 109.5675,80.5903 110.253,80.5694 C 111.0982,80.542 112.257,80.7042 113.0605,81.2466 C 111.8326,82.0501 111.0541,82.7922 111.2943,83.154 C 108.9244,82.6408 107.4187,81.9154 109.1914,80.5677 z M 119.6481,79.7493 C 120.5249,80.2333 121.3767,81.3813 121.5496,82.1866 C 120.2937,82.1043 119.9492,82.3129 119.8818,82.729 C 118.8727,81.1667 118.4119,80.1111 119.6481,79.7493 z M 124.7075,75.1298 C 124.9829,76.0233 126.1756,76.4524 127.9882,76.6605 C 127.4285,75.3885 127.847,74.0002 128.3054,73.8071 C 126.8796,72.5435 124.9936,72.6967 124.7075,75.1298 L 124.7075,75.1298 z M 139.078,53.2752 C 139.7658,54.0387 140.1086,54.9155 140.3965,55.9586 C 139.1877,55.502 138.0015,55.6451 137.812,56.0111 C 137.1879,54.0262 137.2022,52.7268 139.078,53.2752 z M 147.737,58.322 C 147.8592,59.1088 147.8634,59.8485 147.6786,60.5024 C 146.4859,59.7454 145.5483,59.6554 145.3593,60.261 C 144.7322,56.9803 145.1048,54.8547 146.9657,55.7756 C 147.2601,56.2322 147.4449,56.7955 147.5671,57.3528 C 147.6404,57.683 147.6971,58.0043 147.737,58.322 L 147.737,58.322 z M 166.5761,76.7928 C 166.5654,78.4522 166.2459,79.6926 165.424,80.5212 C 163.8951,80.1719 160.9428,78.2835 159.9396,77.3167 C 158.5561,75.3062 158.878,74.3412 159.8514,72.2991 C 160.1142,72.556 160.7681,73.6134 161.1317,73.7058 C 161.3803,74.4759 166.0778,76.9084 166.5761,76.7928 L 166.5761,76.7928 z M 165.7411,67.7237 C 165.6403,67.7195 166.1136,65.56 166.181,65.5284 C 166.2966,64.8638 167.2574,63.838 167.7367,63.3838 L 167.7367,63.2634 C 163.2263,59.5898 157.7717,59.3335 157.7717,66.4809 C 157.9756,67.4334 158.4554,68.0223 158.4405,68.1928 C 158.4488,68.346 158.4953,68.3019 158.6044,68.2095 C 158.9579,67.7338 163.1214,66.5542 165.7411,67.7237 z "
   id="path34"
   style="fill:#ffec00" />
  <path
   class="fil3"
   d="M 187.856,76.65 C 187.9883,76.076 188.0032,75.502 188.0181,75.3947 C 188.1779,74.5787 191.3632,75.3947 192.7449,74.6085 C 193.8071,74.3832 194.7971,73.5213 195.8295,73.1744 C 195.6847,73.5529 193.6324,76.5892 192.2507,76.65 C 190.8691,76.7406 189.0946,76.1666 187.856,76.65 z M 176.3788,70.4999 C 173.439,72.4633 171.0399,69.5027 172.859,66.7965 C 172.8441,66.7673 172.8292,66.7357 172.8292,66.7059 C 171.286,66.3423 169.1772,66.5861 169.8901,66.1176 C 170.7847,64.7294 173.2369,65.1305 174.8278,65.8953 C 176.7627,66.8228 177.2204,68.1842 178.3553,69.8531 C 179.2059,71.1049 181.4197,73.8563 181.8924,73.9147 C 179.6399,73.5249 176.3818,70.1285 176.3788,70.4999 L 176.3788,70.4999 z M 162.8202,90.825 C 162.7468,90.7642 162.9358,90.7493 162.8768,90.6885 C 162.8768,90.3267 164.8998,87.6814 165.205,87.2737 C 165.2634,87.2588 165.3224,87.2588 165.3796,87.2588 C 165.3224,87.9526 164.5362,89.4791 164.637,89.9631 C 165.7134,90.0388 167.0236,89.3891 168.1448,89.5715 C 167.2721,90.6295 163.9682,90.7958 162.8202,90.825 L 162.8202,90.825 z M 166.3697,93.0453 C 166.3697,92.7741 168.4643,89.5715 168.9161,89.4958 C 168.8869,90.251 168.2014,91.067 168.0142,91.8824 C 168.481,91.7912 170.1261,91.3781 171.0476,90.9192 C 171.4011,90.7433 172.0532,90.0883 172.4215,90.1753 C 171.1555,91.6869 168.1448,92.9112 166.3697,93.0453 L 166.3697,93.0453 z M 175.927,94.4669 C 175.4769,93.5293 175.7374,91.2941 176.0867,90.5687 L 176.2906,90.5687 C 176.3788,91.4598 176.4801,92.3515 176.5832,93.2581 C 177.4261,92.9255 178.7213,91.8824 179.5498,91.4282 C 179.5796,91.4598 179.6089,91.4896 179.6363,91.5188 C 178.8519,92.2466 176.9886,94.3453 175.927,94.4669 L 175.927,94.4669 z M 171.8094,94.5426 C 171.3892,94.1033 172.4656,89.7211 173.0021,89.7211 C 173.0021,90.7493 172.7708,91.8216 172.7708,93.0012 C 173.4688,93.0012 175.403,90.9764 175.7964,91.1129 C 175.5187,91.7626 172.2177,94.7531 171.8094,94.5426 z "
   id="path36"
   style="fill:#ffffff" />
  <path
   class="fil3"
   d="M 151.326,97.2321 C 150.3651,97.1415 148.7945,96.6581 148.1406,96.2039 C 148.1257,96.1449 148.1108,96.0841 148.1108,96.0376 C 148.7063,95.8862 149.9449,94.5575 150.5398,94.5575 C 150.5547,94.5724 150.569,94.5868 150.5988,94.6183 C 150.2203,94.9509 149.623,95.283 149.3918,95.6465 C 149.5074,96.0084 150.9624,96.6581 151.5304,97.1713 C 151.3975,97.247 151.3975,97.247 151.326,97.2321 L 151.326,97.2321 z M 147.4426,118.3124 C 146.7715,117.9655 150.6995,113.5982 151.5304,113.5982 C 151.1662,114.2187 149.9592,116.1821 150.1339,116.7567 C 151.2527,116.8175 152.5187,116.439 153.799,116.38 C 153.7549,116.5755 153.5952,116.8783 153.4205,117.013 C 151.3939,117.7128 149.6075,118.2057 147.4426,118.3124 L 147.4426,118.3124 z M 164.9293,204.4822 C 164.8846,204.4673 166.8194,196.6684 166.9226,195.8524 C 166.9643,194.9166 167.183,193.2679 166.4558,192.7696 C 165.337,190.6398 164.4203,187.4348 164.462,184.9874 C 164.9436,186.5139 165.4378,190.7447 167.3136,191.1083 C 168.0181,192.2552 167.9281,195.034 167.5454,197.2508 C 167.3297,198.5067 165.5415,204.3797 164.9293,204.4822 L 164.9293,204.4822 z M 151.078,102.3862 C 149.9449,102.2348 148.6789,101.9779 147.7323,101.5994 C 147.7323,100.6326 151.5155,96.0549 152.6784,97.8818 C 152.1843,98.4117 150.4682,100.3 150.4682,100.9205 C 150.9773,101.448 152.8382,101.5237 153.349,102.0536 C 152.8233,102.3248 151.5745,102.3862 151.078,102.3862 L 151.078,102.3862 z M 180.5378,118.9645 C 184.2662,120.531 187.8879,122.0086 191.9602,120.4129 C 191.9876,120.4445 192.0168,120.4743 192.0466,120.5059 C 189.3333,123.1042 182.8851,121.1956 180.5378,118.9645 L 180.5378,118.9645 z M 185.1662,111.9661 L 185.1662,111.8296 C 190.1559,111.9977 193.3126,111.8445 196.8616,107.7651 L 196.9921,107.7651 C 194.773,112.741 189.0931,113.0641 185.1662,111.9661 L 185.1662,111.9661 z M 166.5715,119.8097 C 165.1475,118.8274 164.8405,114.2646 164.7547,112.6916 C 164.0984,114.0673 162.4563,118.1485 160.8832,118.5562 C 160.4285,116.0754 160.3408,114.4022 160.7968,112.0126 C 160.7384,112.0418 160.7384,112.0418 160.5638,112.3888 C 159.1672,113.8402 156.4909,116.0015 154.3814,115.8209 C 154.3814,114.0965 155.6915,111.7247 156.5934,110.3049 L 156.7239,110.3049 C 156.7364,110.3198 156.7513,110.349 156.7662,110.3806 C 156.1857,110.9844 155.6623,112.6474 155.3995,113.5076 C 156.4468,113.7198 161.0579,111.2115 161.1312,111.2556 C 160.7235,111.4678 161.161,115.232 161.2916,115.9866 C 162.0778,115.806 164.6367,112.5402 164.8137,111.7855 L 165.045,111.7855 C 165.1475,112.6015 165.6565,116.6661 166.733,117.0297 C 167.6354,115.9407 168.4783,113.4927 168.9581,112.1789 C 169.0171,112.1617 169.0886,112.1473 169.162,112.1324 C 169.4522,113.7496 170.7862,116.4348 172.3032,117.3158 C 172.5887,114.9941 172.6155,113.0909 172.2174,110.6816 C 172.581,110.6816 175.5631,115.1539 176.4208,114.0375 C 176.8285,112.0883 176.45,110.1076 175.8969,108.3707 C 175.8969,108.3093 175.9118,108.2485 175.9267,108.1895 C 176.7427,108.6878 178.8223,110.833 180.1027,110.5004 C 179.928,108.9447 178.8808,106.8585 179.0113,105.7105 C 180.1617,106.7536 181.5577,110.0319 181.7472,111.8296 C 180.1468,111.8296 178.0212,110.7865 176.8285,109.9878 C 176.8285,112.223 177.7012,113.7198 177.1629,116.3043 C 176.1746,116.3043 173.5275,113.5541 173.2206,112.8114 C 173.1782,112.7822 173.149,112.7529 173.1192,112.738 C 173.1192,114.8827 174.0658,116.439 172.7556,118.6152 C 170.7415,118.3357 168.8544,114.6115 169.0886,113.2513 C 169.0463,113.327 167.1115,120.3688 166.5715,119.8097 L 166.5715,119.8097 z M 136.9346,104.6268 C 132.8773,103.8436 128.3472,102.4941 125.9397,100.7691 C 125.7352,100.6785 127.6402,100.8597 130.7106,102.0536 C 134.8133,103.6541 142.4947,105.1955 145.4786,105.3636 C 145.4637,105.3785 145.4488,105.3928 145.4345,105.4226 C 142.751,105.4208 139.8756,105.1949 136.9346,104.6268 L 136.9346,104.6268 z M 146.4669,186.1354 C 146.4669,186.0764 146.4812,186.0156 146.4961,185.9691 C 147.0194,185.742 147.907,185.6836 148.605,185.6836 C 150.1047,185.8791 151.326,183.2504 151.3701,183.2796 L 151.5745,183.2796 C 151.5745,183.7338 150.8175,185.8493 150.4533,186.2868 C 149.1581,186.3333 147.5726,186.4674 146.4669,186.1354 z M 151.6461,180.4072 C 151.0214,177.8549 151.0631,175.6781 150.9916,173.1698 C 150.5988,173.8195 150.1339,174.7256 149.6671,175.4069 C 149.5956,175.4069 149.5223,175.4218 149.4633,175.4367 C 149.0991,173.7289 149.623,168.5754 150.6578,166.9583 C 150.6131,166.9434 150.569,166.9285 150.5398,166.9285 C 150.3502,167.2313 149.9008,167.6539 149.5515,167.5639 C 149.5515,163.2722 151.6312,159.4175 154.556,156.6374 C 154.6002,156.6231 154.6425,156.6082 154.7009,156.5915 C 154.6276,157.0159 153.4205,158.1646 153.0862,158.5258 C 152.0538,160.3998 150.2054,164.149 150.5839,166.3545 C 150.9916,165.7345 151.5006,164.8571 152.1843,164.6008 C 151.7909,167.3368 150.4975,169.6179 150.6578,172.8229 C 151.2819,172.293 151.7343,170.7075 152.4764,170.5561 C 152.1986,173.1698 151.7635,175.5439 151.9358,178.2626 C 151.9656,178.2626 151.9948,178.2626 152.0246,178.2775 C 152.5479,177.3709 152.9705,176.0256 153.4205,175.0897 C 153.4647,175.0897 153.5088,175.0897 153.5511,175.1041 C 153.6393,176.2986 152.8382,180.0019 151.6461,180.4072 L 151.6461,180.4072 z M 158.3244,155.9269 C 158.2802,155.912 158.2361,155.912 158.2063,155.912 C 158.3095,155.3529 159.2828,151.2419 159.706,150.9558 C 160.0255,150.1696 159.6321,150.2304 159.2411,149.7619 C 157.1889,148.3862 154.7456,144.8348 153.5213,142.81 C 152.9997,141.7818 151.8642,139.6807 151.776,138.6232 L 151.894,138.6232 C 153.7311,143.7392 157.1656,147.2244 160.6371,150.2304 C 160.6544,151.078 158.9341,154.7563 158.3244,155.9269 L 158.3244,155.9269 z M 154.8314,129.7073 C 153.7698,128.6058 155.7631,121.3511 156.4909,120.0958 C 156.476,120.0517 156.476,120.0052 156.476,119.976 C 155.3965,121.065 152.3935,123.7098 149.4192,124.1306 C 149.2612,124.0108 149.2612,124.0108 149.1438,123.9965 C 149.3769,122.1523 151.385,118.6003 152.7667,117.7384 C 152.7667,117.7849 152.7667,117.829 152.7816,117.8749 C 152.1843,119.4461 151.3409,120.7771 150.9624,122.5308 C 151.326,122.9069 156.2423,119.2816 156.8837,119.1159 C 156.6357,121.5782 155.9818,123.8302 156.2721,126.6394 C 157.5674,126.4731 159.1821,122.9385 160.0106,121.8053 C 160.0696,121.7904 160.1286,121.7904 160.1853,121.7904 C 160.2145,121.9103 160.2443,122.0301 160.2884,122.1523 C 160.0702,122.9385 156.8259,129.4147 154.8314,129.7073 z M 177.6743,168.5062 C 175.9684,167.2921 175.4427,164.8148 174.8502,163.3771 C 174.1665,164.2831 173.0018,166.8385 172.2174,167.3827 C 172.2174,165.7667 173.8285,163.7926 175.0886,161.9341 C 176.4536,159.9188 177.4621,157.7938 177.6261,155.3321 C 177.8007,152.7225 177.3638,149.8352 177.0181,147.9469 C 175.547,142.509 172.4153,137.7417 170.3118,132.5982 C 169.5876,130.8273 168.9682,128.8472 168.7119,127.4572 C 168.464,127.9853 167.94,132.6555 167.183,132.7294 C 165.3937,130.1466 165.2929,127.6384 164.5061,124.8876 C 164.3464,125.9307 162.5427,132.3676 161.4215,132.6388 C 159.706,129.7538 159.9814,125.9456 160.1137,122.8312 C 160.2586,122.7412 160.7676,128.5742 161.6253,129.4653 C 162.7024,128.9062 164.4203,121.7738 165.0891,120.3688 L 165.2488,120.3688 C 165.2929,123.9649 165.1034,126.0046 166.9941,129.6483 C 167.5913,130.025 168.2601,123.4201 168.3483,122.3186 C 169.0791,122.8884 168.0145,125.6923 169.1757,127.0584 C 170.7487,128.9092 172.5834,129.7646 174.2404,130.9311 C 175.2454,134.0735 176.7582,138.2638 178.5702,142.3486 C 179.7272,144.9558 180.84,147.4146 181.8396,150.1022 C 182.9996,153.2196 184.0617,156.3072 184.4367,159.7274 C 184.6495,161.673 184.5064,163.7467 183.8871,165.6112 C 183.0896,168.0163 180.151,170.27 177.6743,168.5062 z "
   id="path38"
   style="fill:#ffffff" />
  <path
   class="fil6"
   d="M 38.7381,244.567 C 43.8148,243.745 48.8938,239.9684 53.9699,239.9684 C 59.704,239.9684 65.4381,244.7249 71.1729,244.7249 C 76.8688,244.7249 82.5654,240.0816 88.262,240.0816 C 93.639,240.0816 99.0173,244.418 104.3968,244.7088 L 104.3968,269.5545 L 99.7475,269.4341 L 96.2498,269.1981 C 91.5129,268.7844 86.8642,268.0417 82.3305,266.9861 L 79.4784,266.2803 L 74.8518,264.9356 C 74.6998,264.8873 74.5484,264.8391 74.3964,264.7902 L 70.4021,263.4073 C 70.0308,263.2702 69.6612,263.1302 69.2917,262.9889 L 66.1546,261.7252 C 65.4691,261.4361 64.7878,261.1387 64.1095,260.8347 L 62.0793,259.8971 C 61.0499,259.4077 60.0289,258.9017 59.0179,258.3789 L 58.0368,257.8657 C 51.1058,254.1827 44.6367,249.7098 38.7381,244.567 L 38.7381,244.567 z M 10.9836,206.1984 C 13.8823,205.0165 16.7798,203.8112 19.6778,203.8112 C 25.4143,203.8112 31.1484,208.4557 36.8826,208.4557 C 42.5791,208.4557 48.2733,203.6974 53.9699,203.6974 C 59.704,203.6974 65.4381,208.4557 71.1729,208.4557 C 76.8688,208.4557 82.5654,203.8112 88.262,203.8112 C 93.639,203.8112 99.0173,208.15 104.3968,208.4408 L 104.3968,236.414 C 99.0173,236.1232 93.639,231.7844 88.262,231.7844 C 82.5255,231.7844 76.7913,236.4289 71.0572,236.4289 C 65.3606,236.4289 59.6665,231.673 53.9699,231.673 C 48.2358,231.673 42.5011,236.4289 36.7651,236.4289 C 33.9827,236.4289 31.1997,235.334 28.4167,234.2092 C 21.2449,225.9299 15.3301,216.4865 10.9836,206.1984 L 10.9836,206.1984 z M 2.8969,172.1806 C 8.4897,172.0345 14.085,167.542 19.6778,167.542 C 25.4143,167.542 31.1484,172.1853 36.8826,172.1853 C 42.5791,172.1853 48.2733,167.4288 53.9699,167.4288 C 59.704,167.4288 65.4381,172.1853 71.1729,172.1853 C 76.8688,172.1853 82.5654,167.542 88.262,167.542 C 93.639,167.542 99.0173,171.8796 104.3968,172.1704 L 104.3968,200.1436 C 99.0173,199.8528 93.639,195.5152 88.262,195.5152 C 82.5255,195.5152 76.7913,200.1585 71.0572,200.1585 C 65.3606,200.1585 59.6665,195.402 53.9699,195.402 C 48.2358,195.402 42.5011,200.1585 36.7651,200.1585 C 31.0304,200.1585 25.2963,195.5152 19.5622,195.5152 C 17.0319,195.3519 13.0782,197.1878 8.2394,198.9718 C 5.3652,190.4779 3.5323,181.4934 2.8969,172.1806 L 2.8969,172.1806 z M 2.6406,135.965 C 8.3198,135.9531 13.9985,131.3217 19.6778,131.3217 C 25.4143,131.3217 31.1484,135.965 36.8826,135.965 C 42.5791,135.965 48.2733,131.2084 53.9699,131.2084 C 59.704,131.2084 65.4381,135.965 71.1729,135.965 C 76.8688,135.965 82.5654,131.3217 88.262,131.3217 C 93.639,131.3217 99.0173,135.6592 104.3968,135.9501 L 104.3968,163.9251 C 99.0173,163.6342 93.639,159.2955 88.262,159.2955 C 82.5255,159.2955 76.7913,163.94 71.0572,163.94 C 65.3606,163.94 59.6665,159.184 53.9699,159.184 C 48.2358,159.184 42.5011,163.94 36.7651,163.94 C 31.0304,163.94 25.2963,159.2955 19.5622,159.2955 C 16.7804,159.1167 12.2801,161.3519 6.7731,163.2819 C 5.4796,163.7344 3.7111,163.9615 2.6429,163.94 L 2.6406,135.965 L 2.6406,135.965 z M 2.6406,99.7214 C 8.3198,99.7095 13.9985,95.0787 19.6778,95.0787 C 25.4143,95.0787 31.1484,99.7214 36.8826,99.7214 C 42.5791,99.7214 48.2733,94.9648 53.9699,94.9648 C 59.704,94.9648 65.4381,99.7214 71.1729,99.7214 C 76.8688,99.7214 82.5654,95.0787 88.262,95.0787 C 93.639,95.0787 99.0173,99.4156 104.3968,99.7065 L 104.3968,127.6797 C 99.0173,127.3889 93.639,123.0537 88.262,123.0537 C 82.5255,123.0537 76.7913,127.6946 71.0572,127.6946 C 65.3606,127.6946 59.6665,122.9404 53.9699,122.9404 C 48.2358,122.9404 42.5011,127.6946 36.7651,127.6946 C 31.0304,127.6946 25.2963,123.0537 19.5622,123.0537 C 16.7804,122.8731 12.2801,125.1083 6.7731,127.0384 C 5.4796,127.4908 3.7087,127.7179 2.6406,127.6952 L 2.6406,99.7214 L 2.6406,99.7214 z M 2.6406,63.4904 C 8.3198,63.4784 13.9985,58.8476 19.6778,58.8476 C 25.4143,58.8476 31.1484,63.4904 36.8826,63.4904 C 42.5791,63.4904 48.2733,58.7344 53.9699,58.7344 C 59.704,58.7344 65.4381,63.4904 71.1729,63.4904 C 76.8688,63.4904 82.5654,58.8476 88.262,58.8476 C 93.639,58.8476 99.0173,63.1846 104.3968,63.4755 L 104.3968,91.4487 C 99.0173,91.1578 93.639,86.8208 88.262,86.8208 C 82.5255,86.8208 76.7913,91.4636 71.0572,91.4636 C 65.3606,91.4636 59.6665,86.7076 53.9699,86.7076 C 48.2358,86.7076 42.5011,91.4636 36.7651,91.4636 C 31.0304,91.4636 25.2963,86.8208 19.5622,86.8208 C 16.7804,86.6402 12.2801,88.8755 6.7731,90.8055 C 5.4796,91.2603 3.7087,91.4874 2.6406,91.4642 L 2.6406,63.4904 L 2.6406,63.4904 z M 104.3966,55.2373 C 99.0171,54.9464 93.6388,50.6112 88.2618,50.6112 C 82.5253,50.6112 76.7911,55.2522 71.057,55.2522 C 65.3604,55.2522 59.6663,50.4974 53.9697,50.4974 C 48.2356,50.4974 42.5009,55.2522 36.7649,55.2522 C 31.0302,55.2522 25.2961,50.6112 19.562,50.6112 C 16.7802,50.43 12.2799,52.6653 6.7729,54.5959 C 5.4794,55.0501 3.7085,55.2772 2.6404,55.2528 L 2.6404,27.428 L 104.3964,27.428 L 104.3964,55.2373 L 104.3966,55.2373 z "
   id="path40"
   style="fill:#009ee0" />
 </g>
</svg>