<?xml version="1.0" encoding="UTF-8" standalone="no"?>
<!-- Created with Inkscape (http://www.inkscape.org/) -->
<svg
        xmlns:dc="http://purl.org/dc/elements/1.1/"
        xmlns:cc="http://web.resource.org/cc/"
        xmlns:rdf="http://www.w3.org/1999/02/22-rdf-syntax-ns#"
        xmlns="http://www.w3.org/2000/svg"
        xmlns:sodipodi="http://sodipodi.sourceforge.net/DTD/sodipodi-0.dtd"
        xmlns:inkscape="http://www.inkscape.org/namespaces/inkscape"
        id="svg1908"
        sodipodi:version="0.32"
        inkscape:version="0.44"
        width="588"
        height="672"
        version="1.0"
        sodipodi:docbase="C:\Documents and Settings\Krzysztof &amp; Justin\Pulpit"
        sodipodi:docname="POL_COA_Powiat pucki.svg">
  <metadata
     id="metadata1913">
    <rdf:RDF>
      <cc:Work
         rdf:about="">
        <dc:format>image/svg+xml</dc:format>
        <dc:type
           rdf:resource="http://purl.org/dc/dcmitype/StillImage" />
      </cc:Work>
    </rdf:RDF>
  </metadata>
  <defs
     id="defs1911" />
  <sodipodi:namedview
     inkscape:window-height="480"
     inkscape:window-width="640"
     inkscape:pageshadow="2"
     inkscape:pageopacity="0.0"
     guidetolerance="10.0"
     gridtolerance="10.0"
     objecttolerance="10.0"
     borderopacity="1.0"
     bordercolor="#666666"
     pagecolor="#ffffff"
     id="base"
     showgrid="false" />
  <g
     id="g14337"
     inkscape:export-xdpi="90"
     inkscape:export-ydpi="90">
    <path
       sodipodi:nodetypes="ccczcczc"
       id="path1925"
       d="M 0,402 L 299.16098,335.42435 L 590,402 C 590,402 576.25066,523.18366 481.61661,601.07907 C 387.47952,678.56542 300,672 300,672 L 290,672 C 290,672 207.73887,677.70556 109.21559,602.74346 C 11.74972,528.58589 0,402 0,402 z "
       style="fill:#008cec;fill-opacity:1;fill-rule:evenodd;stroke:none;stroke-width:1px;stroke-linecap:butt;stroke-linejoin:miter;stroke-opacity:1" />
    <rect
       ry="0"
       y="0.16860464"
       x="0"
       height="401.83145"
       width="590"
       id="rect5469"
       style="fill:#008cec;fill-opacity:1;fill-rule:evenodd;stroke:none;stroke-width:1;stroke-linecap:round;stroke-linejoin:round;stroke-miterlimit:4;stroke-dasharray:none;stroke-dashoffset:0;stroke-opacity:1" />
    <rect
       y="122"
       x="260"
       height="26.548922"
       width="56.234356"
       id="rect7249"
       style="opacity:1;fill:yellow;fill-opacity:1;fill-rule:evenodd;stroke:black;stroke-width:1;stroke-linecap:round;stroke-linejoin:round;stroke-miterlimit:4;stroke-dasharray:none;stroke-dashoffset:0;stroke-opacity:1" />
    <path
       sodipodi:nodetypes="cccccccccccccccccccccccccccccc"
       id="path8136"
       d="M 190,182 L 150,242 L 130,302 L 130,362 L 140,392 L 140,402 L 48.12756,388.24147 L 50,402 L 60,422 L 100,432 L 130,492 L 150,582 L 260,592 L 280,602 L 330,582 L 340,592 L 390,582 L 460,572 L 465.63097,552 L 450,512 L 440,457.42292 L 460,452 L 466.04707,426.99317 L 380,428.86561 L 360,372 L 363.53683,282.20805 L 420,182 L 460,142 L 460,135.95293 L 190,182 z "
       style="fill:yellow;fill-rule:evenodd;stroke:black;stroke-width:1px;stroke-linecap:butt;stroke-linejoin:miter;stroke-opacity:1;fill-opacity:1" />
    <path
       sodipodi:nodetypes="cccccccccc"
       id="path9025"
       d="M 190,452 L 230,422 L 280,422 L 360,442 L 360,452 L 299.5839,499.71146 L 230,492 L 200.02453,473.88742 L 190,462 L 190,452 z "
       style="fill:#008cec;fill-rule:evenodd;stroke:none;stroke-width:1px;stroke-linecap:butt;stroke-linejoin:miter;stroke-opacity:1;fill-opacity:1" />
    <path
       id="path1923"
       d="M 275.2492,604.34273 C 270.59884,603.78065 249.54215,598.10493 245.7492,596.39115 C 238.09713,592.9337 224.619,591.27716 181.2492,588.46372 C 167.7742,587.58958 154.88273,586.64978 152.60149,586.37527 C 147.89916,585.80942 147.5346,585.20851 144.77105,573.46803 C 143.86481,569.61803 142.04626,562.86803 140.72981,558.46803 C 139.41337,554.06803 138.04499,548.66803 137.68896,546.46803 C 137.33293,544.26803 135.76953,537.96803 134.21474,532.46803 C 132.65995,526.96803 130.4854,519.09303 129.38241,514.96803 C 124.92235,498.28809 117.70537,476.98927 114.75983,471.81374 C 113.92898,470.35388 113.2492,468.59599 113.2492,467.90731 C 113.2492,464.31726 96.720454,435.01378 92.911714,431.85141 C 89.653454,429.14608 82.082394,427.16453 68.581939,425.48365 C 61.889939,424.65046 55.805259,423.7349 55.060419,423.44908 C 53.001079,422.65884 51.664059,420.06926 45.893909,405.69505 C 39.892409,390.74452 37.726189,383.6233 38.700379,382.04703 C 39.597139,380.59604 43.030389,380.68877 51.051799,382.38065 C 54.735369,383.1576 64.274199,384.53963 72.249199,385.45185 C 80.224204,386.36406 89.194094,387.57739 92.182294,388.14813 C 95.170484,388.71887 105.52048,390.21169 115.18228,391.4655 C 137.92845,394.41727 137.21516,394.97073 130.93902,379.2393 C 120.73255,353.65636 118.64949,328.11055 124.35274,298.46803 C 125.72768,291.32183 132.58225,270.0709 135.13746,265.03263 C 136.13176,263.0721 139.30656,256.74303 142.19258,250.96803 C 150.11837,235.10833 166.99917,209.08051 176.46868,198.11912 C 179.17059,194.99153 179.25925,194.62804 177.81029,192.61912 C 174.10838,187.48657 173.17078,184.98308 174.21779,183.02672 C 175.46285,180.7003 176.63047,180.30674 186.2492,178.97135 C 190.3742,178.39867 195.0992,177.52532 196.7492,177.03057 C 198.3992,176.53583 204.2492,175.37308 209.7492,174.44668 C 215.2492,173.52029 224.4742,171.70768 230.2492,170.41867 C 236.0242,169.12966 243.6742,167.57335 247.2492,166.96021 C 250.8242,166.34706 258.2492,164.77572 263.7492,163.46832 C 269.2492,162.16092 276.07764,160.5768 278.92352,159.94805 C 284.66674,158.67917 286.10594,156.82477 283.42678,154.14561 C 282.13391,152.85274 278.52992,152.00535 270.19946,151.03553 C 263.90182,150.30237 258.20777,149.27463 257.54602,148.75168 C 256.88426,148.22872 256.38414,146.60096 256.43462,145.13444 C 256.48511,143.66791 256.17231,137.86953 255.73953,132.24915 C 255.14261,124.49734 255.25942,121.66063 256.22337,120.49915 C 257.23708,119.2777 259.95707,118.96802 269.67164,118.96802 C 277.80974,118.96802 282.24726,118.56996 283.0492,117.76802 C 283.79966,117.01756 284.2492,113.29044 284.2492,107.81892 C 284.2492,99.086147 284.243,99.065077 280.93053,96.538537 C 272.88611,90.402766 260.79463,89.258371 242.2492,92.877557 C 227.69285,95.718267 218.47338,95.622727 200.7492,92.447517 C 187.52122,90.077774 183.26293,89.764921 164.70315,89.799243 C 145.62733,89.834519 137.93197,89.068521 142.27723,87.56696 C 146.22225,86.203701 162.41058,82.816752 167.5513,82.279077 C 171.26895,81.890243 173.00759,81.326417 172.39083,80.709659 C 170.76593,79.084756 160.10467,77.000965 153.2492,76.968339 C 145.03939,76.929268 142.97391,75.849739 146.58363,73.484558 C 150.28614,71.058581 177.61,70.148044 190.47482,72.021934 C 195.70479,72.783731 208.47089,73.393596 219.7492,73.420436 C 238.58123,73.465252 240.38596,73.302095 250.65295,70.626574 C 256.87875,69.004163 262.88505,68.001106 264.65295,68.288563 C 266.35589,68.565458 271.02043,69.362887 275.01859,70.060628 C 279.8323,70.900694 282.62354,70.99369 283.28131,70.335919 C 283.82764,69.789588 284.74954,64.420815 285.32998,58.405311 C 287.5409,35.491959 289.51426,29.453342 293.66538,32.898464 C 294.98753,33.99575 295.2492,36.809366 295.2492,49.928261 C 295.2492,73.549118 296.48195,116.72659 297.18901,117.87064 C 297.53101,118.424 302.52196,118.96952 308.28001,119.08291 C 314.03807,119.19629 319.54892,119.6892 320.52635,120.17826 C 322.12459,120.97793 322.2756,122.49708 322.02635,135.26774 L 321.7492,149.46803 L 313.2492,150.27698 C 303.95018,151.16197 297.93797,153.44825 297.41006,156.30015 C 297.10077,157.97102 297.71685,158.09487 304.41006,157.7073 C 308.44659,157.47357 318.2742,155.82367 326.2492,154.04086 C 340.26665,150.90727 364.78552,146.40831 391.7492,142.02227 C 398.8992,140.85922 408.3492,139.23195 412.7492,138.40612 C 420.7006,136.91372 428.0129,135.71616 452.5919,131.8809 C 466.5401,129.70444 467.5036,129.87671 469.4088,134.88789 C 470.8612,138.70792 469.6071,141.79087 465.9817,143.31281 C 462.274,144.86926 452.2536,154.42263 436.9745,170.96803 C 426.8913,181.88696 423.8827,185.51669 416.6183,195.52651 C 414.8964,197.89929 411.9576,201.78182 410.0877,204.15434 C 404.8716,210.7726 394.26573,227.23475 389.77399,235.68475 C 388.37554,238.31555 386.78623,241.14303 386.24219,241.96803 C 384.336,244.85861 376.2492,262.8221 376.2492,264.16579 C 376.2492,264.91227 375.64499,266.41065 374.90652,267.49552 C 373.52142,269.53033 367.36343,288.00864 365.4179,295.96803 C 359.17322,321.51583 359.30415,360.05771 365.72305,385.79418 C 367.69069,393.6834 372.48506,406.68709 376.70036,415.56774 L 380.25143,423.04904 L 424.3681,422.89003 C 457.4003,422.77098 468.6684,423.0283 469.2159,423.91417 C 469.6181,424.5649 469.7745,426.30573 469.5636,427.78268 C 468.4416,435.63824 464.9469,453.66965 464.2948,454.96803 C 463.833,455.88736 461.2589,456.76849 457.6453,457.24419 C 442.7045,459.21099 441.776,459.43923 441.4344,461.2289 C 441.2463,462.21488 442.8918,465.02721 445.1738,467.61969 L 449.2492,472.24961 L 449.2492,483.2911 C 449.2492,500.97326 450.923,511.1737 455.3495,520.46803 C 457.4451,524.86803 460.5776,530.11745 462.3108,532.13341 C 464.8294,535.06302 465.84,537.67258 467.3453,545.13341 C 469.7747,557.17451 469.8356,568.29764 467.4977,572.93933 C 465.3227,577.25746 464.7667,577.38103 438.227,579.44527 C 427.0081,580.31785 411.0611,581.88095 402.78916,582.9188 C 394.51718,583.95666 382.7992,585.32279 376.7492,585.95464 C 370.6992,586.58649 364.3992,587.47224 362.7492,587.92297 C 361.0992,588.3737 355.0242,589.52845 349.2492,590.48907 C 332.09456,593.34261 304.38271,600.17881 299.70605,602.71081 C 297.4805,603.91574 280.88071,605.02339 275.2492,604.34273 z M 308.5366,586.44693 C 321.05066,583.62205 328.49715,580.61916 342.2492,572.85194 C 358.11126,563.89297 380.64735,539.38512 393.63701,516.96803 C 397.45349,510.38169 401.4974,503.00325 403.77633,498.46803 C 405.1582,495.71803 406.6889,492.79303 407.1779,491.96803 C 408.8719,489.10993 414.9842,475.44497 416.7948,470.46803 C 417.7952,467.71803 419.2067,464.5804 419.9315,463.49552 C 421.3657,461.3487 421.7001,458.03115 420.4992,457.86303 C 416.4073,457.29016 406.3867,457.46631 405.0499,458.13461 C 404.1153,458.60184 402.7653,460.04885 402.04991,461.35019 C 398.12009,468.49877 396.48442,471.18495 391.62648,478.46803 C 388.69161,482.86803 384.48073,488.94303 382.26898,491.96803 C 380.05724,494.99303 377.18571,499.04721 375.88782,500.97731 C 371.85528,506.97415 350.07649,528.31646 343.3521,532.86097 C 328.01291,543.22757 307.70174,549.98892 291.9415,549.97495 C 275.72914,549.96058 251.65167,542.91878 237.95375,534.18546 C 213.56082,518.63338 192.84408,496.57272 161.84139,453.13564 C 160.14069,450.75283 157.60918,447.37783 156.21583,445.63564 C 154.82247,443.89345 152.60277,440.83744 151.28314,438.84449 C 147.91882,433.76355 146.24155,432.98195 137.2075,432.2853 C 127.94778,431.57124 127.74661,431.84497 131.85472,439.56909 C 133.28776,442.26351 136.59967,448.51803 139.21452,453.46803 C 148.10625,470.30034 151.60869,476.36109 165.21954,498.46803 C 182.03763,525.78422 204.12663,553.96766 217.32922,564.95496 C 223.65482,570.21918 235.22483,577.44224 240.51467,579.42944 C 242.29366,580.09774 245.5492,581.44801 247.7492,582.43004 C 249.9492,583.41207 256.6992,585.25022 262.7492,586.51483 C 278.46858,589.80058 293.78073,589.77787 308.5366,586.44693 z M 225.2492,584.60961 C 225.2492,583.86248 222.73866,581.58429 219.67023,579.54696 C 213.22932,575.27044 210.2069,572.76119 201.50747,564.46803 C 180.86805,544.79249 161.76971,516.35916 141.05554,474.46803 C 137.52003,467.31803 134.1229,460.56803 133.50636,459.46803 C 132.88982,458.36803 130.04188,452.74303 127.1776,446.96803 C 120.15864,432.81633 120.06877,432.7098 114.00053,431.35045 C 111.1123,430.70346 107.7367,429.85025 106.4992,429.45443 C 104.92,428.94932 104.2492,429.13809 104.2492,430.08761 C 104.2492,430.83167 107.58064,438.19665 111.65241,446.45424 C 122.32373,468.0958 128.01981,482.35882 134.62111,503.96803 C 141.67803,527.06871 143.25027,532.64993 145.3258,541.96803 C 146.48962,547.19303 148.5235,554.93497 149.84552,559.17234 C 151.16754,563.40971 152.2492,568.63652 152.2492,570.78748 C 152.2492,573.22977 153.02747,575.68772 154.32178,577.33317 C 156.15468,579.66333 157.09725,579.96803 162.47257,579.96803 C 165.81558,579.96803 174.44542,580.64674 181.64999,581.47627 C 226.29738,586.61694 225.2492,586.54161 225.2492,584.60961 z M 356.7492,582.44111 C 360.5992,581.6204 370.2742,580.05082 378.2492,578.95316 C 386.2242,577.8555 394.92103,576.5098 397.57549,575.96272 C 400.22995,575.41564 403.66235,574.96803 405.2031,574.96803 C 406.7437,574.96803 408.4547,574.40553 409.0051,573.71803 C 409.5556,573.03053 410.4691,567.74303 411.0352,561.96803 C 412.1688,550.40304 417.5071,523.47497 419.7578,517.96803 C 420.5446,516.04303 421.911,511.54303 422.7942,507.96803 C 423.6775,504.39303 425.279,498.76803 426.3532,495.46803 C 427.4273,492.16803 429.2076,485.41803 430.3093,480.46803 C 431.411,475.51803 433.0297,468.92906 433.9065,465.82588 C 434.7832,462.7227 435.1924,459.6852 434.8159,459.07588 C 433.6207,457.14199 430.4184,457.85598 429.6933,460.21803 C 429.3134,461.45553 427.7081,465.26176 426.1259,468.67633 C 424.5437,472.09089 423.2492,475.13786 423.2492,475.44737 C 423.2492,476.18531 418.2114,487.08383 412.3949,498.92894 C 396.86926,530.54659 373.00976,562.6586 357.73035,572.50086 C 351.09016,576.77815 345.94309,581.66372 346.73209,582.94035 C 347.55299,584.26859 348.36657,584.22804 356.7492,582.44111 z M 440.0551,571.96574 C 453.6521,570.90843 458.8462,569.15831 460.3829,565.11637 C 461.7067,561.63453 461.7543,546.07178 460.451,542.83961 C 459.8681,541.39398 457.3846,538.33054 454.9322,536.03196 C 445.3252,527.02756 441.6828,514.25138 443.3677,495.46803 C 444.2446,485.6923 444.1486,483.91155 442.5044,479.46803 C 441.1497,475.80688 440.1315,474.46803 438.7018,474.46803 C 437.3679,474.46803 436.6516,475.26013 436.4411,476.96803 C 436.2717,478.34303 435.043,483.54635 433.7108,488.53095 C 430.4764,500.63231 425.5076,524.67802 423.1852,539.46803 C 419.4538,563.23088 418.3794,571.36965 418.8691,572.16206 C 419.5107,573.2002 424.8116,573.15108 440.0551,571.96574 z M 313.7492,539.12508 C 324.95098,535.31487 338.71948,527.19996 350.0271,517.74353 C 361.234,508.37133 366.3666,503.1369 373.7492,493.55079 C 375.3992,491.40831 377.68076,488.48822 378.81933,487.0617 C 381.17572,484.10937 390.2492,469.21016 390.2492,468.29316 C 390.2492,467.961 391.5992,465.4952 393.2492,462.81361 C 394.8992,460.13201 396.2492,457.26974 396.2492,456.45301 C 396.2492,454.31177 393.9433,454.62695 392.48127,456.96803 C 390.76988,459.70841 386.57567,459.52944 379.53471,456.41559 C 376.36038,455.01175 371.94307,453.61368 369.71847,453.30876 C 365.75136,452.76501 365.54106,452.89555 358.7592,460.1112 C 339.85715,480.22231 329.68944,489.46759 321.79537,493.72164 C 317.45407,496.06112 311.6177,498.61906 308.82565,499.40594 C 290.95112,504.44353 290.98128,504.43906 275.2492,504.38238 C 262.15036,504.33519 258.58735,503.97691 252.2492,502.06966 C 248.1242,500.82838 243.1742,499.36239 241.2492,498.8119 C 235.15563,497.06933 215.37661,486.86866 208.43254,481.88731 C 195.03356,472.2755 181.39569,459.58131 168.50012,444.71803 C 163.84755,439.35553 159.66432,434.96803 159.20407,434.96803 C 156.50903,434.96803 158.11865,438.08524 165.9641,448.05964 C 174.78686,459.27654 181.67659,468.31606 184.94874,472.96803 C 193.4449,485.04688 224.73558,518.96803 227.3816,518.96803 C 227.85878,518.96803 229.16171,519.88054 230.27699,520.99582 C 236.05632,526.77515 256.4223,537.03325 266.7492,539.36643 C 277.15691,541.71787 278.53178,541.8256 293.7492,541.48203 C 304.59355,541.23719 309.10162,540.70593 313.7492,539.12508 z M 269.66092,486.71803 C 270.10369,484.50333 272.7492,436.31793 272.7492,430.46803 C 272.7492,427.7524 272.32264,427.35717 268.2492,426.29851 C 258.53892,423.77486 230.82534,425.58282 221.9278,429.32039 C 219.82603,430.20328 215.20574,433.8263 211.66049,437.37155 C 203.7891,445.24294 199.47344,453.7608 198.59601,463.15707 C 198.04034,469.1076 198.18769,469.83282 200.3645,471.86082 C 203.8071,475.06809 218.13012,481.79605 225.98558,483.89582 C 234.01689,486.0426 251.76731,488.27496 264.98015,488.79993 C 268.63345,488.94508 269.27251,488.66084 269.66092,486.71803 z M 300.7492,484.93 C 315.37497,481.26808 334.36518,470.76881 349.76096,457.83248 C 357.32545,451.4764 357.33258,451.46573 355.18152,449.71803 C 353.99688,448.75553 352.46111,447.96803 351.76869,447.96803 C 350.16634,447.96803 338.3923,444.28263 335.7492,442.95376 C 332.26482,441.20192 316.05379,435.98717 307.7492,433.94674 C 303.3492,432.86567 298.36725,431.52821 296.6782,430.97459 C 294.98915,430.42098 293.07665,429.96803 292.4282,429.96803 C 291.55111,429.96803 291.2492,437.09528 291.2492,457.80136 C 291.2492,473.1097 291.55415,485.93965 291.92687,486.31236 C 292.29958,486.68508 293.31208,486.80819 294.17687,486.58595 C 295.04165,486.36371 297.9992,485.61853 300.7492,484.93 z M 455.5552,448.9605 C 457.4825,447.63992 459.7613,445.37112 460.6193,443.9187 C 462.3375,441.01002 463.0977,429.34174 461.6504,428.09251 C 461.1547,427.66471 445.2242,427.60672 426.2492,427.96364 C 397.61069,428.50234 391.11208,428.88897 387.9992,430.23929 C 385.9367,431.13397 384.2492,432.54138 384.2492,433.36687 C 384.2492,434.94017 389.23304,442.96597 392.45208,446.57652 C 394.16727,448.50031 395.13859,448.64745 403.54057,448.25628 C 410.1294,447.94952 415.8787,448.40943 423.7492,449.87283 C 438.6851,452.64993 450.6727,452.30608 455.5552,448.9605 z M 191.11962,445.89499 C 193.44917,438.36968 195.56105,434.76297 200.7492,429.44937 C 206.73401,423.31985 212.50878,419.80366 222.08627,416.45749 C 228.39732,414.25254 230.84235,413.96869 243.48042,413.97382 C 261.81481,413.98126 266.66982,414.89261 309.7492,426.4133 C 319.0992,428.91376 328.0992,431.22638 329.7492,431.55246 C 333.24392,432.24309 361.69935,441.68428 364.11314,442.95403 C 367.34867,444.65604 378.7435,446.793 379.69985,445.87713 C 380.78801,444.83504 379.29177,440.09532 375.46685,432.46803 C 366.9673,415.519 365.02294,411.12801 363.78503,406.08667 C 363.02622,402.99642 361.66283,397.99303 360.75528,394.96803 C 358.52007,387.51776 353.26623,365.63219 352.23317,359.46803 C 350.85467,351.2427 351.11336,324.75923 352.65544,316.23834 C 353.42888,311.96467 354.82244,303.29303 355.75225,296.96803 C 356.68206,290.64303 358.5063,282.20778 359.80612,278.22303 C 361.10593,274.23828 362.67695,269.09322 363.29726,266.78955 C 365.25443,259.52116 374.60154,240.15237 380.92299,230.26607 C 382.75241,227.40499 384.2492,224.82006 384.2492,224.52179 C 384.2492,223.65263 399.16686,202.08036 404.6862,194.96803 C 415.6535,180.8355 433.5794,159.32559 443.9992,147.79503 C 449.4161,141.80066 450.5416,138.96409 447.4992,138.97335 C 444.934,138.98116 422.7993,142.71729 415.2492,144.41685 C 411.6742,145.2216 402.4492,146.84719 394.7492,148.02926 C 387.0492,149.21133 378.42057,150.77268 375.57447,151.49893 C 372.72836,152.22517 365.75336,153.56443 360.07447,154.47506 C 354.39557,155.38568 348.3992,156.53157 346.7492,157.02148 C 345.0992,157.51138 337.2242,159.03801 329.2492,160.41398 C 321.2742,161.78996 311.56406,163.59239 307.67112,164.41939 C 303.77817,165.24638 295.90317,166.61273 290.17112,167.45571 C 284.43906,168.29869 276.3742,169.64831 272.2492,170.45486 C 268.1242,171.26142 259.1242,172.82576 252.2492,173.93119 C 245.3742,175.03662 236.5992,176.58974 232.7492,177.38257 C 228.8992,178.1754 220.1242,179.56946 213.2492,180.48048 C 206.3742,181.39151 199.78007,182.51949 198.59557,182.98712 C 196.46658,183.82761 183.60074,199.19815 177.70213,207.94806 C 176.02625,210.43404 173.08837,214.71803 171.17353,217.46803 C 167.75846,222.37257 160.08628,235.57537 154.90266,245.46803 C 145.44612,263.51531 137.00457,289.14473 133.65832,309.96803 C 132.03661,320.05977 131.82993,342.18584 133.2794,350.53437 C 135.57502,363.75652 139.65447,376.24852 146.32032,390.46803 C 149.82648,397.94732 150.46457,398.35386 159.84232,399.08305 C 170.22002,399.88999 173.2492,401.94285 173.2492,408.16884 C 173.2492,410.28754 174.18721,415.63973 175.33368,420.0626 C 176.84786,425.90406 177.23157,429.46082 176.73616,433.06281 C 176.20779,436.90455 176.44287,438.63484 177.77982,440.74474 C 180.01525,444.27253 187.45697,450.95807 188.7492,450.59946 C 189.2992,450.44683 190.36589,448.32982 191.11962,445.89499 z M 243.51777,390.93672 C 241.19049,390.60771 239.00793,390.06009 238.66764,389.7198 C 237.72885,388.78101 239.17187,386.96803 240.85788,386.96803 C 243.07809,386.96803 248.2492,384.07737 248.2492,382.83627 C 248.2492,382.24205 247.1242,380.87095 245.7492,379.78937 C 244.3742,378.70779 243.2492,377.44015 243.2492,376.97237 C 243.2492,375.84012 247.51331,371.12923 255.5492,363.38362 C 257.3092,361.6872 261.81744,357.10256 265.56752,353.19553 C 273.06451,345.38476 273.21978,344.32365 267.42084,340.53024 C 265.79158,339.46446 263.71101,337.32696 262.79734,335.78024 C 260.8784,332.53173 259.64907,332.29618 257.022,334.67364 C 255.45264,336.0939 254.8016,336.1696 253.13071,335.12611 C 250.47947,333.47038 247.76034,334.44146 245.27518,337.93154 C 241.19608,343.66012 243.32568,348.6942 250.60059,350.52009 C 252.76889,351.06429 253.07593,351.5844 252.60853,353.92137 C 252.20887,355.91969 252.51426,356.85577 253.71636,357.31706 C 255.98111,358.18612 254.67406,359.96803 251.77184,359.96803 C 249.11656,359.96803 239.6201,367.59797 237.82974,371.16982 C 236.834,373.15638 236.05122,373.42299 232.05729,373.1359 C 227.9236,372.83876 227.01134,373.18813 223.39877,376.45187 C 221.17787,378.45832 218.85076,381.64528 218.22743,383.534 C 217.03224,387.15545 213.96184,388.26752 212.88757,385.46803 C 212.57099,384.64303 211.67099,383.96803 210.88757,383.96803 C 210.10416,383.96803 209.20416,384.64303 208.88757,385.46803 C 207.95941,387.88678 205.7945,387.21413 202.35998,383.43985 C 200.59417,381.49935 198.70215,380.18809 198.1555,380.52594 C 196.30787,381.66784 194.2492,378.74528 194.2492,374.98044 C 194.2492,370.69357 197.18095,366.32467 201.043,364.85633 C 203.06091,364.08912 204.6425,364.43452 208.84295,366.55976 L 214.11176,369.22553 L 221.17078,362.84678 C 225.05324,359.33847 228.23417,356.14209 228.2395,355.74371 C 228.24484,355.34533 227.0117,354.37102 225.4992,353.57857 C 223.9867,352.78612 221.8492,351.31129 220.7492,350.30117 C 219.6492,349.29105 217.3992,348.00386 215.7492,347.44073 C 213.09206,346.53388 212.78305,346.01979 213.04539,342.94245 C 213.2083,341.03152 214.76063,336.61119 216.49502,333.1195 C 219.36508,327.34146 219.49572,326.68549 217.94883,325.81981 C 217.01403,325.29667 216.2492,324.29445 216.2492,323.59265 C 216.2492,321.59571 211.85413,317.96803 209.43475,317.96803 C 208.2327,317.96803 207.2492,318.41751 207.2492,318.96689 C 207.2492,320.31889 199.75177,327.96803 198.42659,327.96803 C 197.84543,327.96803 197.23027,326.28053 197.05957,324.21803 C 196.77385,320.76586 196.52003,320.48446 193.86377,320.67484 C 192.27678,320.78858 190.09925,321.82524 189.0248,322.97852 C 187.95036,324.13179 186.54881,324.89202 185.91024,324.66791 C 184.10682,324.03499 184.76147,317.16445 186.84452,314.8627 C 188.59666,312.92661 188.60463,312.74644 186.97839,311.83635 C 184.39983,310.39332 184.88255,307.18083 188.17228,303.89111 C 191.65434,300.40904 195.34992,300.12236 200.02337,302.97177 C 204.43537,305.66177 206.16191,305.50786 213.48458,301.77179 C 224.00834,296.40252 225.56916,293.96803 218.48779,293.96803 C 215.74395,293.96803 214.02977,294.75761 211.54486,297.16608 C 208.91736,299.71275 207.99245,300.11128 207.00388,299.12271 C 206.0153,298.13413 206.10806,297.27907 207.45931,294.92465 C 209.14273,291.99146 209.13674,291.96803 206.70269,291.96803 C 203.5908,291.96803 203.61852,291.23575 206.85844,287.85401 C 209.72964,284.85712 209.35185,282.96803 205.88131,282.96803 C 203.58218,282.96803 199.3502,280.49631 200.25077,279.67947 C 200.52491,279.43082 202.9992,278.23947 205.7492,277.03203 L 210.7492,274.83667 L 207.9992,272.81895 C 204.17915,270.0161 204.33214,267.60644 208.29323,268.1878 C 211.86885,268.71259 212.75031,267.77288 211.27253,265.01161 C 209.21674,261.17033 206.70601,260.71831 202.66347,263.46165 C 198.8323,266.06155 193.86258,266.76952 192.6958,264.88162 C 192.32651,264.2841 193.42495,262.35018 195.13678,260.58402 C 199.98819,255.57863 198.91694,252.84981 193.04322,255.25102 C 189.45933,256.71614 183.2492,255.64639 183.2492,253.56392 C 183.2492,252.27694 186.83056,249.71849 189.74395,248.92418 C 193.1928,247.98389 192.7059,245.17004 188.6837,242.79688 L 184.97485,240.60861 L 187.22281,238.78832 C 188.45919,237.78716 190.3505,236.96803 191.42573,236.96803 C 194.23666,236.96803 197.2492,235.13924 197.2492,233.43285 C 197.2492,231.11262 201.64893,231.70017 204.14136,234.35324 C 205.3738,235.66511 206.70458,238.70261 207.09866,241.10324 C 207.93089,246.17297 210.36427,250.72155 215.17389,256.1978 C 217.87528,259.27361 219.09151,259.97344 220.93252,259.51138 C 222.22538,259.18689 224.61389,259.62238 226.2872,260.48768 C 230.09985,262.45928 231.52922,261.67671 230.04905,258.42809 C 228.55044,255.13901 229.4122,254.53591 233.49895,256.0137 C 236.44226,257.07802 237.66503,256.95615 242.61133,255.1055 C 245.75342,253.92989 250.23222,252.96803 252.56421,252.96803 C 259.37741,252.96803 263.87998,248.44635 259.43539,246.06768 C 258.26566,245.44166 256.09554,245.43983 253.32406,246.06254 C 250.54649,246.68662 248.61169,246.68383 247.85358,246.05466 C 247.20845,245.51925 243.87331,244.62908 240.44217,244.07651 C 233.51245,242.96051 229.63031,240.66904 226.98332,236.13228 C 224.53789,231.94097 226.0796,231.5445 231.31564,235.01818 C 236.58153,238.51165 239.2492,238.81498 239.2492,235.92028 C 239.2492,233.28691 243.8951,228.96803 246.72786,228.96803 C 248.08215,228.96803 250.15735,227.42143 252.17969,224.9049 C 255.13994,221.22126 255.30252,220.68422 253.92038,219.1549 C 252.03254,217.06604 251.29333,209.83938 252.90926,209.27004 C 253.54729,209.04525 255.20712,210.0884 256.59777,211.58815 C 258.73392,213.89189 259.36851,214.1139 260.68771,213.01906 C 261.54653,212.3063 262.2492,211.19324 262.2492,210.54559 C 262.2492,209.89793 262.78973,208.8275 263.45038,208.16685 C 264.38528,207.23195 265.3774,207.66919 267.9259,210.13929 L 271.20024,213.31291 L 273.72914,210.58418 C 276.97665,207.08005 278.20147,207.90497 277.50135,213.12478 C 276.89014,217.6817 276.38116,217.50589 283.64675,215.24744 C 285.37285,214.71089 285.49611,215.08506 285.01102,219.38882 C 284.63372,222.73624 283.65654,224.9772 281.67006,227.05063 C 278.38434,230.48019 278.96322,231.53954 285.43014,233.93157 C 290.66543,235.86804 291.3421,237.69108 287.34302,239.08517 C 284.39649,240.11234 284.28555,240.3496 284.89793,244.31459 C 285.25075,246.59898 285.91908,249.49658 286.38312,250.75371 C 287.3981,253.50337 285.42983,254.67025 282.45882,253.08022 C 279.72767,251.61855 279.2492,252.50285 279.2492,259.01225 C 279.2492,265.63654 281.51563,269.0731 282.70016,264.24491 C 283.07486,262.71762 285.07978,259.66803 287.15555,257.46803 C 293.06227,251.20779 295.36337,242.69707 296.82052,221.72176 C 297.1547,216.91131 297.81103,212.73883 298.27905,212.44958 C 299.67747,211.58531 303.21062,216.11104 304.3022,220.16485 C 304.86243,222.24538 305.037,226.31471 304.69015,229.20783 L 304.05951,234.46803 L 306.51823,231.51987 C 307.95984,229.79129 309.68905,225.55114 310.69836,221.26987 C 311.85573,216.36056 312.8936,213.96803 313.86587,213.96803 C 315.46563,213.96803 315.79972,214.7049 316.72865,220.28224 C 317.45687,224.65453 318.90823,224.69173 321.28741,220.39908 C 323.63151,216.16976 324.73269,217.56179 324.86683,224.92391 C 324.93255,228.53099 325.45826,231.53772 326.05817,231.73769 C 327.24382,232.1329 329.60291,227.99283 330.62791,223.71803 C 331.57621,219.76313 332.99989,220.32846 334.30588,225.17852 C 335.13522,228.25845 335.14557,230.37056 334.34442,233.04454 C 332.77936,238.26825 332.94532,238.96803 335.7492,238.96803 C 337.76411,238.96803 338.2492,239.46422 338.2492,241.52521 C 338.2492,245.52425 336.11791,253.29369 334.51031,255.15502 C 333.70894,256.08286 333.36017,257.33856 333.73526,257.94547 C 334.1681,258.64583 335.93647,257.67641 338.57594,255.2918 C 341.91759,252.27282 342.79854,251.86645 343.05987,253.22343 C 343.37138,254.84095 342.9261,255.89042 339.00287,262.7854 C 336.90996,266.46363 337.87609,267.39304 341.71968,265.39897 C 343.27458,264.59228 344.74077,264.12626 344.97788,264.36338 C 345.71741,265.10291 341.95867,270.1668 337.77026,274.0737 C 333.33226,278.21342 333.54188,279.91787 338.2492,277.96803 C 339.93447,277.26997 341.58701,276.9725 341.9215,277.307 C 342.71938,278.10488 335.55994,286.10312 332.57372,287.74997 C 330.84794,288.70171 330.2492,289.90795 330.2492,292.43302 C 330.2492,295.23782 329.50405,296.42635 325.9992,299.21188 C 323.6617,301.06965 320.60615,303.29826 319.20909,304.16436 C 315.07462,306.7275 305.4377,308.27275 297.93558,307.5755 C 291.18382,306.94799 291.11365,306.96661 291.79576,309.20438 C 292.82809,312.59109 295.01548,314.67129 298.21786,315.31176 C 302.71656,316.2115 310.95309,321.75284 313.20313,325.39349 C 316.15628,330.17178 315.92301,336.39584 312.62891,340.71462 C 310.28779,343.784 310.14801,344.41044 311.31693,346.59459 C 312.3529,348.53031 312.37794,349.72311 311.43722,352.32461 C 309.74949,356.99194 309.92791,357.89538 312.7492,358.96803 C 315.68099,360.08269 316.04675,362.58012 313.40117,363.4198 C 312.38476,363.74239 310.07753,365.84255 308.27399,368.08681 C 305.13518,371.99264 305.04842,372.32964 306.2469,375.96107 C 307.84168,380.79328 306.98441,382.19658 302.90519,381.43132 C 299.06527,380.71094 294.2492,384.22649 294.2492,387.74987 C 294.2492,390.34318 291.192,390.80896 289.28134,388.50676 C 287.25554,386.06582 284.26914,385.64001 282.21478,387.49918 C 278.99302,390.41483 277.2492,388.70636 277.2492,382.63427 C 277.2492,375.04246 280.0116,371.53869 285.42462,372.26473 C 288.75046,372.71082 289.70302,372.36037 292.3446,369.71878 C 297.45328,364.61011 298.54436,362.3549 297.80753,358.42724 C 297.32232,355.84085 296.43101,354.60745 294.52296,353.88201 C 293.0827,353.33443 291.33089,353.10644 290.63005,353.37538 C 289.92921,353.64432 287.08991,353.50617 284.32051,353.06838 C 278.28122,352.1137 273.80391,353.84555 267.89256,359.42279 C 264.4972,362.62624 264.11532,363.4446 264.69981,366.26475 C 265.06496,368.02655 265.68454,372.26713 266.07667,375.68824 C 266.4688,379.10936 267.34303,382.46186 268.01941,383.13824 C 271.20607,386.3249 267.47524,388.37516 263.26941,385.74858 C 261.59486,384.70281 260.89437,384.93379 258.35111,387.37039 C 255.00423,390.57691 249.80858,391.82608 243.51777,390.93672 z M 305.54561,334.87281 C 307.00968,332.53284 305.63971,328.45392 302.75486,326.5637 C 301.37006,325.65634 298.10227,324.47217 295.49312,323.93222 C 292.88396,323.39227 289.5117,322.67698 287.9992,322.34268 C 285.65331,321.82419 285.2492,322.05571 285.2492,323.91817 C 285.2492,331.64248 301.93272,340.64712 305.54561,334.87281 z M 226.6782,325.0559 C 228.36725,324.55422 232.8992,323.38973 236.7492,322.46813 C 240.5992,321.54653 244.3117,320.32689 244.9992,319.75782 C 247.19798,317.93779 246.45784,312.79524 243.56211,309.77275 C 239.91069,305.96149 237.2492,306.04382 237.2492,309.96803 C 237.2492,313.7726 234.04398,314.11065 231.71226,310.552 C 230.84159,309.22318 229.45684,307.87795 228.63504,307.5626 C 227.03953,306.95034 217.2492,311.45772 217.2492,312.80454 C 217.2492,313.24609 218.3742,314.58553 219.7492,315.78108 C 222.4497,318.12914 223.1117,322.70553 221.0492,324.76803 C 219.54678,326.27045 222.14215,326.40317 226.6782,325.0559 z M 278.24237,313.21803 C 278.23495,312.40436 272.06208,307.96803 270.93732,307.96803 C 269.11783,307.96803 270.56472,311.07533 272.9992,312.39606 C 276.01858,314.0341 278.25299,314.38439 278.24237,313.21803 z M 264.2492,307.96803 C 264.2492,306.85692 263.58253,305.96803 262.7492,305.96803 C 261.22679,305.96803 260.69794,308.08343 261.91587,309.30136 C 263.18366,310.56915 264.2492,309.96027 264.2492,307.96803 z M 249.07252,307.28914 C 248.64308,305.05922 246.86457,305.01119 246.43957,307.21803 C 246.22877,308.31263 246.71924,308.96803 247.7492,308.96803 C 248.75259,308.96803 249.26954,308.31218 249.07252,307.28914 z M 273.2492,300.90901 C 273.2492,300.32655 272.7992,300.12811 272.2492,300.46803 C 271.6992,300.80795 271.2492,301.28451 271.2492,301.52705 C 271.2492,301.76959 271.6992,301.96803 272.2492,301.96803 C 272.7992,301.96803 273.2492,301.49147 273.2492,300.90901 z M 288.2492,295.40901 C 288.2492,295.16647 287.7992,294.96803 287.2492,294.96803 C 286.6992,294.96803 286.2492,295.44459 286.2492,296.02705 C 286.2492,296.60951 286.6992,296.80795 287.2492,296.46803 C 287.7992,296.12811 288.2492,295.65155 288.2492,295.40901 z M 243.17673,291.88686 C 245.22543,289.92901 246.18017,288.23052 245.79549,287.22807 C 245.29335,285.91952 244.68351,286.13582 242.21965,288.49634 C 240.5859,290.06157 239.2492,292.15802 239.2492,293.15512 C 239.2492,295.54112 239.40581,295.49055 243.17673,291.88686 z M 230.93475,291.79372 C 233.82592,289.0776 233.86745,287.96803 231.07794,287.96803 C 228.58896,287.96803 225.2492,290.63525 225.2492,292.62302 C 225.2492,294.67756 228.34582,294.22589 230.93475,291.79372 z M 250.2492,292.40901 C 250.2492,291.55155 249.79186,291.13265 249.23289,291.47811 C 248.67392,291.82357 248.47547,292.52513 248.79191,293.03713 C 249.64914,294.42417 250.2492,294.16554 250.2492,292.40901 z M 255.2492,286.40901 C 255.2492,284.75894 253.66876,284.48016 252.7492,285.96803 C 251.93369,287.28755 253.12941,289.1601 254.3183,288.42532 C 254.83029,288.10889 255.2492,287.20155 255.2492,286.40901 z M 278.06772,285.17879 C 279.54253,283.60905 282.84852,281.09909 285.41435,279.60108 C 291.59145,275.99472 292.87442,274.4263 291.2492,272.46803 C 290.56451,271.64303 289.24941,270.96803 288.32676,270.96803 C 287.4041,270.96803 286.09108,270.40991 285.40893,269.72776 C 284.72678,269.04561 281.97056,268.40804 279.28399,268.31094 C 273.72945,268.11019 272.81969,269.16162 273.84036,274.60227 C 274.55612,278.41762 273.12101,279.06699 270.07181,276.30749 C 267.71533,274.17491 267.12961,274.84942 266.50188,280.41863 C 266.09673,284.01308 265.59658,284.96803 264.11915,284.96803 C 262.33331,284.96803 261.66379,286.04929 262.76671,287.15221 C 263.05134,287.43684 266.00717,287.75142 269.33522,287.85128 C 274.81224,288.01562 275.64059,287.76211 278.06772,285.17879 z M 260.02003,282.78053 C 259.40283,280.92892 257.55875,280.71898 256.90379,282.42577 C 256.48901,283.50666 256.92581,283.96803 258.36392,283.96803 C 259.50343,283.96803 260.23985,283.43999 260.02003,282.78053 z M 309.2492,280.96803 C 309.2492,278.85895 307.79432,278.27699 306.7492,279.96803 C 306.02,281.1479 306.96587,282.96803 308.30822,282.96803 C 308.82576,282.96803 309.2492,282.06803 309.2492,280.96803 z M 313.90187,273.43078 C 314.22631,272.5853 313.78495,271.11252 312.92107,270.15795 C 311.89836,269.02786 311.65726,267.9258 312.23001,266.99907 C 314.09165,263.98688 308.26457,258.47192 305.89184,261.00039 C 305.03197,261.9167 305.06296,262.33293 306.01706,262.68232 C 308.72297,263.67321 310.2492,266.2663 310.2492,269.87279 C 310.2492,271.94184 310.5492,273.9347 310.91587,274.30136 C 312.0306,275.4161 313.27979,275.0519 313.90187,273.43078 z M 304.2492,260.15609 C 304.2492,259.04192 298.218,254.6659 297.57232,255.31158 C 296.63323,256.25066 300.70944,260.90447 302.4992,260.93661 C 303.4617,260.95389 304.2492,260.60266 304.2492,260.15609 z M 252.2492,240.09047 C 252.2492,237.43432 249.84703,235.76883 246.55967,236.14577 C 243.07708,236.5451 242.92833,238.58488 246.2492,240.40313 C 249.91595,242.41076 252.2492,242.28917 252.2492,240.09047 z M 260.2492,231.43665 C 260.2492,230.59438 259.54395,229.63463 258.68198,229.30386 C 256.80125,228.58216 254.75032,230.35181 255.69535,231.8809 C 256.71406,233.5292 260.2492,233.18433 260.2492,231.43665 z M 164.96344,426.85379 C 165.67752,426.13971 165.90676,422.99721 165.60176,418.10379 C 164.84973,406.03819 164.91681,406.17694 159.49538,405.47432 C 156.88498,405.13601 151.5992,404.24047 147.7492,403.48423 C 139.27771,401.82023 128.45105,400.37153 113.7492,398.93475 C 107.6992,398.34349 100.9492,397.45819 98.749204,396.96742 C 96.549204,396.47664 89.349204,395.33061 82.749204,394.42067 C 76.149199,393.51074 67.827149,392.1562 64.255759,391.41058 C 60.684359,390.66497 57.449859,390.37287 57.067979,390.76147 C 55.324079,392.53607 65.190649,414.2533 68.749199,416.47293 C 69.849199,417.15905 76.149199,418.25121 82.749204,418.89996 C 100.3853,420.63349 110.37198,421.74994 123.2492,423.42761 C 129.5742,424.25165 140.3742,425.40759 147.2492,425.99637 C 154.1242,426.58516 160.1992,427.23412 160.7492,427.43851 C 162.62939,428.13723 163.84925,427.96798 164.96344,426.85379 z M 307.95017,145.46493 C 311.02041,143.31444 312.59875,137.64381 311.93016,131.16572 C 311.23386,124.41925 309.49174,122.23266 306.21158,123.98815 C 303.96819,125.18878 291.02656,124.93527 273.92069,123.35561 C 269.85216,122.9799 266.69149,123.12573 266.10081,123.71641 C 264.60684,125.21038 266.19013,143.7661 267.96283,145.5388 C 270.10225,147.67822 304.88199,147.61397 307.95017,145.46493 z "
       style="fill:black" />
  </g>
</svg>
